<?xml version="1.0" encoding="UTF-8"?>
<svg id="Layer_1" data-name="Layer 1" xmlns="http://www.w3.org/2000/svg" viewBox="0 0 32 32">
  <path d="M28.61,5.34C21.28-1.16,9.74-1.68,4.04,4.24c-5.61,5.83-5.33,18.27.52,23.19,7.05,5.93,17.49,5.95,23.42.05,5.05-5.03,5.41-17.88.62-22.13ZM11.26,25.52l-.08.08h-3.84v-12.5h3.84l.08.08v12.34ZM9.64,11.29c-3.11.37-3.48-4.1-.61-4.43,2.96-.34,3.36,4.11.61,4.43ZM25.72,25.59h-3.81v-7.33c0-.15-.19-.63-.27-.78-.76-1.43-3.21-1.39-4.06-.05-.13.2-.43.89-.43,1.1v6.99l-.08.08h-3.73v-12.5h3.52l.08.08v1.62c1.77-2.17,5.11-2.62,7.28-.74.58.5,1.51,2.13,1.51,2.88v8.66Z"/>
</svg>