<?xml version="1.0" encoding="UTF-8"?>
<svg id="Layer_1" data-name="Layer 1" xmlns="http://www.w3.org/2000/svg" viewBox="0 0 32 32">
  <path d="M28.61,5.36C21.28-1.14,9.74-1.66,4.04,4.26c-5.61,5.83-5.33,18.27.52,23.19,2.58,2.17,5.62,3.54,8.72,4.13v-12.28h-3.82v-4.45h3.82l.06-4.17c.23-2.18,1.37-3.99,3.5-4.71,1.74-.59,3.69-.26,5.5-.21l.16.09v3.92h-2.48c-.23,0-.78.11-1.01.19-.38.13-.71.38-.88.75-.06.14-.22.66-.22.78v3.35h4.45l-.56,4.45h-3.89v12.55c-.09.01-.18,0-.27.02,3.89-.2,7.59-1.65,10.33-4.37,5.05-5.03,5.41-17.88.62-22.13Z"/>
</svg>