<?xml version="1.0" encoding="UTF-8"?>
<svg id="Layer_1" data-name="Layer 1" xmlns="http://www.w3.org/2000/svg" viewBox="0 0 32 32">
  <path d="M28.61,5.34C21.28-1.16,9.74-1.68,4.04,4.24c-5.61,5.83-5.33,18.27.52,23.19,7.05,5.93,17.49,5.95,23.42.05,5.05-5.03,5.41-17.88.62-22.13ZM2.83,24.77v-.27c.06.09.12.18.17.27h-.17ZM13.01,19.52c-.04.33.03.69-.16.97l-8.21.03c-.34-.53.67-.44.98-.49.28-.04.37,0,.39-.32-.07-2.39.09-4.84,0-7.22,0-.16-.02-.41-.04-.56-.02-.14-.07-.19-.21-.23-.26-.08-.96,0-1.1-.18-.06-.08-.05-.26,0-.32.12-.12.7-.01.88,0,2.02.05,4.06-.06,6.07.03.18,0,.46-.03.62,0,.27.06.09.59.08.79-.02.4.09.91.05,1.27-.02.16-.24.15-.32.08-.07-.07-.22-.56-.28-.7-.09-.21-.34-.74-.49-.88-.16-.15-.64-.08-.87-.09-.82-.03-1.86-.06-2.68,0-.1,0-.22.03-.32.07-.05.05-.1.47-.1.57-.06,1.01.09,2.05.03,3.07.6.04,1.21.04,1.82.03.39,0,.97,0,1.34-.03.17-.02.28-.06.34-.22.1-.27.07-1.11.36-1.2.45-.15.26.52.25.75-.02.59-.02,1.24,0,1.84,0,.24.12.75.05.95-.03.11-.2.17-.28.09-.05-.04-.15-.39-.18-.47-.11-.37-.18-1.07-.62-1.18-.24-.06-.39-.02-.6-.02-.83,0-1.68-.03-2.51.03v3.53c.05.36,0,.5.42.54.97-.04,1.99.05,2.96,0,1.01-.06,1.35-.31,1.8-1.18.16-.3.38-1.2.83-.82-.16.49-.25.98-.31,1.49ZM17.7,20.09c-.71.76-2.74.91-2.91-.42-.09-1.37.04-2.75,0-4.12-.2-.06-.86.16-.9-.14-.04-.29.38-.38.58-.5.25-.16.53-.47.67-.73.07-.13.33-.9.39-.92.08,0,.29-.04.32.05v1.54c.62,0,1.24-.09,1.85-.03.11.04.03.57-.02.68l-1.83.06-.03.18c.07,1.15-.08,2.38,0,3.52.03.4.15.78.61.79.16,0,.59-.08.74-.13.12-.05.25-.19.35-.21.3-.06.38.2.19.4ZM19.14,20.61c-.11-.03-.49-.15-.55-.21-.13-.12-.09-.38-.1-.53-.03-.27-.16-.98-.09-1.21.03-.11.23-.13.33-.11.2.71.61,1.54,1.4,1.72.81.19,1.54-.45,1.24-1.3-.42-1.16-2.4-1.01-2.88-2.25-.37-.95.16-1.86,1.08-2.17.68-.23,1.69-.13,2.3.25l.1,1.41c-.12-.02-.28.08-.37-.02-.06-.06-.18-.41-.25-.52-.15-.25-.47-.55-.74-.66-1.09-.46-1.83.93-.74,1.58,1,.6,2.29.76,2.42,2.22.15,1.75-1.78,2.19-3.14,1.8ZM28.4,15.21c-.16.05-.32.14-.39.3-.91,2.29-1.62,4.7-2.53,6.99-.3.76-.74,1.81-1.74,1.66-.67-.1-.6-1.17.12-1.14.24,0,.6.2.8.02.26-.25.74-1.42.82-1.79.09-.44-.01-.61-.14-1.01-.53-1.64-1.2-3.25-1.73-4.89l-.03-.04c-.15-.09-.7-.18-.75-.33-.02-.06,0-.21.06-.24.07-.04.71-.01.86-.01.53,0,1.11-.04,1.65,0,.06,0,.31.03.35.06.06.05.1.25.04.31-.14.12-.97.11-1.05.23v.04s1.38,4.22,1.38,4.22c.37-.92.76-1.89,1.04-2.85.08-.28.3-1.01.24-1.27-.07-.3-.88-.24-.99-.5-.07-.16.03-.21.17-.24.69.06,1.5-.07,2.18,0,.16.02.26.08.23.26-.04.21-.39.18-.57.24Z"/>
</svg>