<?xml version="1.0" encoding="UTF-8"?>
<svg id="Layer_1" data-name="Layer 1" xmlns="http://www.w3.org/2000/svg" viewBox="0 0 32 32">
  <path d="M28.61,5.34C21.28-1.16,9.74-1.68,4.04,4.24c-5.61,5.83-5.33,18.27.52,23.19,7.05,5.93,17.49,5.95,23.42.05,5.05-5.03,5.41-17.88.62-22.13ZM2.83,24.77v-.27c.06.09.11.18.17.27h-.17ZM22.82,24.57h-13.9c.04-.2-.08-.84.06-.95.34-.25,1.81-.13,2.05-.79.2-1.36.1-2.73.12-4.1.04-2.49.13-5.17,0-7.66-.01-.26-.05-.8-.1-1.03-.16-.67-1.6-.66-2.15-.85v-.99c.39-.06.78.06,1.15.07,3.2.09,6.86.14,10.05,0,.8-.03,1.6-.2,2.41-.2l-.14,4.65c-.05.16-.87.2-1-.04-.18-.33-.29-1.14-.43-1.55-.17-.53-.37-1.13-.84-1.47-.07-.05-.35-.2-.4-.2h-5.85c.02.06-.07.14-.07.17v6.18c.65-.02,1.3.03,1.95,0,.55-.02,1.51-.05,1.99-.25.68-.29.55-1.67.91-2.27.12-.09.93-.1,1,0l.03.17c-.04.92-.2,1.86-.21,2.78,0,.69.05,1.59.07,2.31,0,.16.16.49,0,.6h-1c-.23-.65-.2-1.79-.95-2.09-.37-.14-1.22-.18-1.65-.2-.71-.03-1.44.03-2.15,0v5.32s.15.48.18.54c.17.32.57.5.91.54.89.11,4.28.13,5.1-.04.76-.15,1.23-.67,1.59-1.32.2-.38.78-1.97.97-2.14.16-.15.66-.03.89-.07l-.64,4.88Z"/>
</svg>