<?xml version="1.0" encoding="UTF-8"?>
<svg id="Layer_1" data-name="Layer 1" xmlns="http://www.w3.org/2000/svg" viewBox="0 0 43.55 35.49">
  <g>
    <path d="M2.94,16.25l-.14-.05-.03-.07v-.25l.02-.34v-.2l-.02-.17v-.12l.03-.15-.03-.24v-1.32l-.02-.17-.02-.43v-.35l-.03-.71v-.32l.03-1.36v-1.6l-.02-.31-.03-.49-.02-.41-.03-.27-.2-.03-.83.03-.85.07-.48.02-.25.02-.14-.07.03-.09v-.19l.05-.19-.05-.08-.02-.1.08-.14-.05-.1.03-.14.02-.12-.02-.1v-.2l.05-.19-.02-.14.03-.14.05-.41.02-.12.19-.15.31-.03.31.05h.58l.19.03.24-.03h.24l.17-.03h.56l.34.02.52.02h.22l.14.02.34-.02h.36l.58-.07.53-.05h.42l.36.02.2-.02h.98l.19.02h.22l.22.03.02.19-.05.2.03.15-.03.17.03.12-.05.08-.03.12-.05.05.03.08.02.14.03.07.02.1-.09.07-.05.08.12.15-.12.14-.05.14.02.1.07.07-.12.1-.1.14-.14.02-.22.02-.17.09-.17.03-.36-.02-1.27.02-.19.07-.2.12v.32l.03.54.02.56v1.48l-.02.32v2.54l-.03.39-.02.32-.02.34-.02.32v.46l-.03.48.02.53-.02.24-.1.07-.22.05-.17.15h-.05l-.05-.14-.08.05-.05.03-.07-.03-.07.12-.02.05-.02-.12h-.07l-.03.05-.08.03-.1-.03h-.07l-.07-.05-.07.03-.09-.02-.12.02-.12-.02-.08-.02-.05.03-.08.02-.05.07-.41-.07Z"/>
    <path d="M16.8,16.36l-.02-.1-.03-.05-.03.02-.02.05-.03.09-.1-.07-.05-.09.02-.14-.05-.12.02-.12-.03-.1-.07.02.02.12-.07.07-.03-.03-.05.02.03.22-.02.2-.08-.15-.02-.34-.02-.24-.05-.15.05-.19.03.03.02.17.14.12.14.02.03-.07-.02-.08-.17.02-.02-.12-.02-.37.03-.31.02-.03.05.1.05.15-.05.05v.07l.05.03.05-.19.05-.27-.07-.07h-.09l-.05.09h-.03l-.03-.2.02-.39-.02-.36-.02-.29v-.56l-.03-.17v-.42l-.02-.34-.02-.12v-.29l-.02-.05-.1-.07-.07-.1-.03.05-.07.17-.05.03.02-.14-.03-.12v-.12l-.02-.08-.09-.02h-.61l-.36.02-.98.03-.19.02-.17-.02-.19.05h-.39l-.32.03-.02.27-.02.49v.92l-.02.39v.34l-.03.73-.05.59-.03.27-.03.07-.05.07-.03.14-.05.12v.19l-.05.24-.12.09-.1-.02-.07.07-.17.03-.05-.02-.1.03-.1-.03-.1.07-.07-.05-.02.02-.03.02-.12-.05-.14.03-.1.07-.05-.09-.05.02-.14.02-.15-.05-.12.03-.07.08-.09-.03-.03-.05-.09.05-.1.02-.07-.09-.07-.14-.02-.14-.02-.09.02-.08.02-.24-.02-.14h-.05l-.03-.07v-.66l.02-.19-.03-.19.02-.32v-.81l.02-.65v-.53l-.02-.52v-.81l-.02-.41-.02-.31.02-.64.02-.34.02-.56v-.36l-.02-.22v-.76l.02-.25v-.71l.02-.17v-.22l.07-.44.09-.53.05-.24.25-.03h.24l.05-.03.14.02.15.02.07-.03.09.05.1-.07.12.03.08-.02.05.02.14-.03.14.02.02.02.07-.05.08-.03h.32l.12.02.17-.02.17.03.02.19-.02.26v.15l-.02.22v.22l-.03.19v.31l-.02.47v.58l.02.29-.02.25.02.58v.39l.03.08.07.03h.15l.49-.02.37.02.02.02-.03.03h-.05l-.12-.03-.07.05.02.03.37-.02,1.02.03h.78l.2-.02.03-.12-.02-.17.03-.22v-.15l.02-.12-.03-.17-.03-.2.02-.2v-.2l-.02-.19.03-.24.02-.24.02-.29.03-.48-.02-.25.03-.41.02-.41.17-.17.22.02.15-.02h.19l.12.02.15-.03.17.03.08-.02.05.03h.07l.09-.07.12.03.17-.05h.19l.17-.02.17.03.24.03.03.14.02.2.02.24v1l-.03.22v.41l-.02.49v.2l.02.19-.02.24.02.42-.02.41.02.15v.09l.02.12-.02.17-.02.27.02.44v.34l.03.15v.2l.02.14v.59l.03.36.02.52v.41l.02.61v.81l.02.14-.03.24-.02.29-.02.25-.03.1.03.14-.02.25-.03.25-.09.15-.03.1h-.07l-.03.02v.03l-.03.03-.19.02-.07.05-.05-.05-.05-.07-.07.02-.03.07-.03.09-.07-.02-.02-.14-.03-.08h-.02l-.02.19-.14.03-.09-.03-.03.08h-.02l-.03-.03-.03-.02-.02.12-.03.15h-.07l-.05-.08-.09-.05-.05.1-.03.12h-.03l-.02-.05Z"/>
    <path d="M22.01,16.47l-.14-.02-.19.02-.27-.02-.19.05-.1-.05h-.17l-.27.05-.1-.02-.15-.02-.08-.05-.07-.02-.03-.14.05-.2.02-.26.03-.34.02-.46v-.27l.02-.48-.02-.22.03-.08v-.34l.02-.37v-.54l.03-.59v-1.02l.02-.46v-.56l.02-.32v-.53l-.03-.59-.02-.63-.03-.59v-.32l.03-.63.03-.31.02-.29v-.59l-.02-.27v-.46l.12-.03.07-.07.08.02.15-.02.24-.02h.19l.08-.02h.31l.07-.02h.07l.17-.02.22-.02.1-.05.19.02.31-.03.29-.02.14-.05h.17l1.31.07.24.02.2.02.24.05.32-.02h.81l.07-.02.15.02h.27l.31.02.2.02.1-.02.07.1.07.12.03.17.1.12.1.44-.05.2-.03.12v.08l.1.34.05.08-.1.07-.14.07-.15.22-.2.22-.2.15-.12-.02-.1-.05-.07.02-.1-.02-.27-.02-.25.02-.09.05h-.49l-2,.03h-.65l-.02.12v1.12l-.02.48.02.2.07.03.61-.02h1.03l.51.03h.19l.15.05.14-.02h.17l.17.02.12.03.14.03.09-.03h.14l.17.17.03.14.02.17.12.14-.07.14.08.14-.03.1.02.17.07.12-.07.1-.03.14-.02.14-.02.1.07.05.05.05-.05.07-.09.02-.12.08-.12.2.05.1v.05l-.2.05-.12.14h-.29l-.75-.03h-.58l-.56.02-.75.03-.43.05-.14.09-.02.1-.03.36-.02.65-.02.44-.02.32.02.25.34.02h.37l.17.03h.49l.2.03.42.05.41-.02h1.19l.22-.03.27.02.27-.02.2.03.07.1.05.14.02.14.1.09-.02.08-.07.08.07.07.03.12-.07.03-.05.02v.05l.08.07.03.12-.07.17-.03.22-.07.12.12.08.07.05-.03.05-.14.05-.15.1-.05.15.02.1-.02.05-.1.05-.14.05-.1.07-.32-.02-.36.03h-1.07l-.2.03-.14.03-.22.02h-.93l-.56.02h-.71l-.31.02-.07.07h-.03l-.02-.07Z"/>
    <path d="M2.56,30.71l-.29-.07-.24-.12h-.15l-.07-.03-.22-.08-.36-.17-.22-.12-.14-.1-.22-.14-.15-.12-.15-.08-.12-.12-.17-.14-.14-.15.02-.07-.03-.08v-.09l.05-.07.1-.08.07-.09v-.08l.03-.05.12-.12.05-.02.02-.1.07-.07.02-.07.03-.05.14-.12.07-.17.08-.03.05-.15.07-.14.09-.05.02-.1.03-.03.05-.1.14-.02.08.07h.03l-.02-.07.1-.05.34.22.42.29.32.19.31.05.36.02.44-.17.27-.17.24-.39.19-.56-.02-.34-.07-.14-.08-.19-.07-.2-.07-.09-.09-.1-.12-.07-.08-.09-.12-.15-.12-.14-.14-.12-.09-.1-.12-.09-.52-.44-.34-.36-.24-.27-.48-.56-.34-.59-.1-.27-.1-.41-.03-.48.02-.63.07-.27.22-.42.14-.22.12-.17.08-.12.24-.25.22-.22.22-.19.27-.2.34-.22.44-.15.24-.1.37-.12.71-.09.8.03.48.05.17.03.1.05.02.07-.05.02-.03.03.05.07.09.03-.02.14-.05.09.07.24h-.07l.03.05.02.09v.13l.05.1v.05l-.07.02-.02.07.1.1-.05.05.05.05-.02.09v.08l-.08.03v.03l.05.05.1.05.05.05v.03l-.05.02-.08.03.02.14v.14l-.05.07v.19l-.05.22-.05.07-.12-.09-.41-.12-.31-.05h-.66l-.41.14-.12.1-.14.1-.15.17-.07.37.2.34.36.34.46.44.29.25.27.29.48.48.48.58.42.58.14.29.22.63.12.61.03.41-.03.42-.2.64-.17.36-.36.61-.31.34-.19.15-.12.15-.48.41-.34.22-.36.19-.42.15-.34.1-.27.05-.61.05-.49-.03Z"/>
    <path d="M15.55,30.51l-.02-.1-.03-.05-.03.02-.02.05-.03.09-.1-.07-.05-.09.02-.14-.05-.12.02-.12-.03-.1-.07.02.02.12-.07.07-.03-.03-.05.02.03.22-.02.2-.08-.15-.02-.34-.02-.24-.05-.15.05-.19.03.03.02.17.14.12.14.02.03-.07-.02-.08-.17.02-.02-.12-.02-.37.03-.31.02-.03.05.1.05.15-.05.05v.07l.05.03.05-.19.05-.27-.07-.07h-.09l-.05.09h-.03l-.03-.2.02-.39-.02-.36-.02-.29v-.56l-.03-.17v-.42l-.02-.34-.02-.12v-.29l-.02-.05-.1-.07-.07-.1-.03.05-.07.17-.05.03.02-.14-.03-.12v-.12l-.02-.08-.09-.02h-.61l-.36.02-.98.03-.19.02-.17-.02-.19.05h-.39l-.32.03-.02.27-.02.49v.92l-.02.39v.34l-.03.73-.05.59-.03.27-.03.07-.05.07-.03.14-.05.12v.19l-.05.24-.12.09-.1-.02-.07.07-.17.03-.05-.02-.1.03-.1-.03-.1.07-.07-.05-.02.02-.03.02-.12-.05-.14.03-.1.07-.05-.09-.05.02-.14.02-.15-.05-.12.03-.07.08-.09-.03-.03-.05-.09.05-.1.02-.07-.09-.07-.14-.02-.14-.02-.09.02-.08.02-.24-.02-.14h-.05l-.03-.07v-.66l.02-.19-.03-.19.02-.32v-.81l.02-.65v-.53l-.02-.52v-.81l-.02-.41-.02-.31.02-.64.02-.34.02-.56v-.36l-.02-.22v-.76l.02-.25v-.71l.02-.17v-.22l.07-.44.09-.53.05-.24.25-.03h.24l.05-.03.14.02.15.02.07-.03.09.05.1-.07.12.03.08-.02.05.02.14-.03.14.02.02.02.07-.05.08-.03h.32l.12.02.17-.02.17.03.02.19-.02.26v.15l-.02.22v.22l-.03.19v.31l-.02.47v.58l.02.29-.02.25.02.58v.39l.03.08.07.03h.15l.49-.02.37.02.02.02-.03.03h-.05l-.12-.03-.07.05.02.03.37-.02,1.02.03h.78l.2-.02.03-.12-.02-.17.03-.22v-.15l.02-.12-.03-.17-.03-.2.02-.2v-.2l-.02-.19.03-.24.02-.24.02-.29.03-.48-.02-.25.03-.41.02-.41.17-.17.22.02.15-.02h.19l.12.02.15-.03.17.03.08-.02.05.03h.07l.09-.07.12.03.17-.05h.19l.17-.02.17.03.24.03.03.14.02.2.02.24v1l-.03.22v.41l-.02.49v.2l.02.19-.02.24.02.42-.02.41.02.15v.09l.02.12-.02.17-.02.27.02.44v.34l.03.15v.2l.02.14v.59l.03.36.02.52v.41l.02.61v.81l.02.14-.03.24-.02.29-.02.25-.03.1.03.14-.02.25-.03.25-.08.15-.03.1h-.07l-.03.02v.03l-.03.03-.19.02-.07.05-.05-.05-.05-.07-.07.02-.03.07-.03.09-.07-.02-.02-.14-.03-.08h-.02l-.02.19-.14.03-.09-.03-.03.08h-.02l-.03-.03-.03-.02-.02.12-.03.15h-.07l-.05-.08-.09-.05-.05.1-.03.12h-.03l-.02-.05Z"/>
    <path d="M22.64,31.03l-.44-.14-.36-.15-.36-.2-.46-.31-.29-.22-.32-.31-.27-.29-.2-.31-.24-.34-.19-.36-.1-.24-.22-.46-.12-.34-.17-.71-.09-.65v-.59l.02-.56.03-.29.02-.24.05-.48.05-.27.07-.34.1-.29.08-.42.09-.29.1-.19.03-.17.05-.19.07-.19.03-.12.09-.14.08-.26.1-.2.07-.19.17-.2.08-.27.2-.2.17-.27.31-.37.35-.32.37-.27.27-.19.51-.22.42-.17.44-.12.36-.07.31-.07h.27l.71-.05.25.02.36.05.36.1.32.14.61.32.48.41.41.44.42.59.26.56.2.56.1.44.07.32.05.44.02.31.03.37v1.73l-.03.48-.05.37-.05.27-.05.05-.08.32-.08.42.02.17-.09.14.03.15-.05.12-.07.29-.08.46-.17.54-.15.44-.03.15-.09.1-.12.2-.14.19-.08.17-.14.07-.34.34-.53.37-.31.14-.37.14-.37.09-.31.05-.29.07-.12.03h-.8l-.07.02-.07-.02-.08.02-.39.08-.66-.03ZM24.15,28.39l.25-.05h.1l.1-.03.07-.07.17-.07.2-.09.07-.07.12-.14.14-.19.15-.2.1-.34.1-.27.03-.17.05-.12v-.19l.07-.19.07-.1v-.1l-.03-.1.03-.12.09-.12-.05-.14.08-.15-.02-.14.03-.22.03-.31.03-.24-.02-.17.03-.39v-.39l.02-.19-.03-.61-.02-.19-.02-.09-.02-.14-.08-.29-.19-.51-.17-.27-.39-.42-.32-.19-.39-.1-.63.08-.27.08h-.19l-.08.03-.17.08-.22.15-.14.12-.03.1-.15.12-.22.32-.14.22-.05.14-.08.2-.03.17-.07.15-.07.29-.07.24-.03.15-.07.24-.05.41-.07.59-.03.51.05.42.03.41.07.46.1.32.05.19.12.22.25.39.54.48.54.32.27.12.07.03-.03.07.07.03.32-.03Z"/>
    <path d="M30.99,30.71l-.07-.05-.05.09-.05.05h-.02l-.03-.07-.09-.08-.07-.1-.02-.14-.05-.19v-.2l.03-.09-.03-.12.02-.14-.02-.39-.02-.44-.09-.19-.02-.1.08-.12.02-.31-.03-.25-.03-.05h-.02v.03l-.02.03h-.03l-.02-.05.02-.26.02-.51v-.34l-.03-.17.05-.15-.03-.12.03-.2-.02-.14.02-.17v-.24l-.02-.15v-.14l.02-.14-.02-.17.02-.15v-.12l.02-.14-.03-.12v-.07l.03-.2v-.24l.03-.14v-.19l.03-.17.02-.15-.03-.09.02-.08.05-.1v-.2l-.02-.22.03-.29v-.27l.02-.1-.02-.07v-.27l.02-.34.02-.54.03-.81.02-.75-.02-.36.02-.12.1-.07.07.02.15-.05.15.03h.07l.07-.08.08.02.07.02.07.07.05-.03.05-.07.1.02.08.02.1-.02h.17l.1-.05.17.02.17-.05.19.02.12-.02.09.05.08-.03.07.05h1l.44-.02.7.08.29.07.51.17.32.17.56.44.46.51.2.32.29.73.15.8.05.73-.02.32-.05.44-.12.39-.12.26-.26.46-.29.44-.31.36-.41.36-.63.42-.52.17-.49.12-.8.09h-.31l-.29.03-.17-.02-.07.02-.03.17v.17l-.05.08.05.14v.17l-.07.17.03.12.03.08-.05.12-.02.2v.34l.02.19-.03.41-.02.37-.03.42-.05.44-.12.14-.07.07-.03-.05-.08.03-.09.08-.08.12-.1.12-.08-.02-.07.05-.03.02h-.03v-.07l.02-.05-.03-.02-.03.02-.09.05-.03.1-.02.07-.07.02-.07-.07-.02-.09-.03-.02-.03.05-.05.05-.08.03-.05.12-.05.09h-.03v-.12h-.07l-.08.12-.15.02-.19-.12ZM33.47,23.82l.63-.12.25-.05.32-.12.27-.17.12-.07.17-.2.17-.42v-.53l-.24-.59-.41-.25-.2-.07-.15.02-.15-.03h-.48l-.44.05-.03.27-.03.36.02.14-.02.2-.03.48-.02.44v.24l-.05.25.03.2.05.02.22-.03Z"/>
    <path d="M41.57,30.71l-.05-.05-.08-.05-.41.05-.1-.03h-.17l-.08-.05h-.03l-.07.05-.12-.02-.1.07-.34-.09-.12.05-.08.02-.09-.03-.08-.14-.1-.12v-1.56l-.02-.46-.03-.31-.02-.58.02-.27.09-.05.12-.03.08.03.09-.02h.1l.1-.03.07.03.07-.03.15.03.12-.02.03.03.05-.03.15.03.08-.02h.15l.12-.03.1.03.19-.05.22-.02.15-.02.19.03.19.02.08.24.02.42v.56l.02.36v.49l-.03.48-.02.39.02.14.03.05-.1.2-.07.05-.17.07-.12.1-.07.08-.12-.02ZM40.4,25.93l-.14.02-.12-.05-.19-.03-.17-.09-.12-.14-.03-.39-.02-.39-.03-.19v-.41l-.02-.32v-.68l.02-.32v-.39l.03-.34-.02-.53.02-.49v-.41l-.02-.14v-.37l.02-.68.02-.44.02-.32.03-.22h.05l.05.02.02-.05.02-.07h.03l.07.03h.08l.07-.03h.25l.19.02.1-.02h.12l.09.03.07-.03.08.02.1-.02h.14l.12-.02.1.07.08-.05.05-.03.08.03.07-.02.09-.03h.08l.14.03.17-.03.12.05.09.02-.02.15.02.24-.05.14v.44l-.02.54-.02.32.02.49.02.37-.02.22-.02.51v.66l-.03.31-.02.63-.02.54v.31l.03.95-.02.14-.12.1-.12.05-.2.17-.08-.03-.12-.05-.12.05-.02.09-.05.05h-.03l-.1-.05-.12.02-.15-.03-.15-.02h-.07l-.05.03-.03.05-.12.02-.07.07h-.05l-.08-.07Z"/>
  </g>
  <path d="M42.25,9.89c-.55-.55-.52-.59-1.07-1.14-.55-.56-.55-.56-1.09-1.12-.56-.54-.57-.55-1.13-1.08-.55-.55-.64-.47-1.19-1.02-.21-.21-.45-.4-.68-.59-.12-.1-.23-.21-.33-.32-.03-.04-.06-.18-.14-.16-.01,0-.03.02-.04.02,0,0,0,0,0,0,0,0-.02,0-.02,0h0s0,0,0,0c-.01,0-.03,0-.04,0-.03.01-.06.02-.08.04-.13.11.06.33.05.43,0,.19-.06.37-.07.56,0,.03,0,.05-.02.07.02.13.03.28.03.5,0,.78-.08.78-.08,1.57,0,.3,0,.47-.01.63-.07,0-.13,0-.23,0-.67-.02-.68-.02-1.35-.03-.67.01-.68.01-1.35.02-.67,0-.68,0-1.35-.01-.68,0-.68.07-1.35.07-.34,0-.51-.03-.68-.07-.2-.03-.21-.07-.97-.07,0,.77.02.77.04.97.02.17.04.34.04.68,0,.67,0,.68.02,1.35.01.56.02.73.03,1.14.09,0,.29,0,.57,0,.66.02.69.02,1.35.04.68,0,.68.05,1.35.05.67,0,.68,0,1.35.02.67-.02.69-.02,1.35-.03.6,0,.69-.09,1.17-.11,0,.02,0,.03,0,.06.01.78.01.79.02,1.56,0,.79,0,.79-.01,1.58,0,.63.01.95.03,1.17.28-.31.57-.62.92-.98.55-.55.65-.45,1.21-1.01.55-.55.5-.61,1.05-1.16.55-.56.55-.56,1.09-1.12.53-.56.55-.57,1.08-1.13.48-.46.62-.59.98-.94-.06-.06-.21-.22-.43-.43Z"/>
</svg>