<?xml version="1.0" encoding="UTF-8"?>
<svg id="Layer_1" data-name="Layer 1" xmlns="http://www.w3.org/2000/svg" viewBox="0 0 32 32">
  <path d="M22.3,11.23c-.27-.71-.83-1.26-1.54-1.53-.48-.18-.99-.27-1.5-.28-.85-.04-1.11-.05-3.27-.05s-2.41,0-3.27.05c-.51,0-1.02.1-1.5.28-.71.27-1.26.83-1.53,1.54-.18.48-.27.99-.28,1.5-.04.85-.05,1.11-.05,3.27s0,2.41.05,3.27c0,.51.1,1.02.28,1.5.27.71.83,1.26,1.54,1.53.48.18.99.27,1.5.28.85.04,1.11.05,3.27.05s2.41,0,3.27-.05c.51,0,1.02-.1,1.5-.28.71-.27,1.26-.83,1.53-1.54.18-.48.27-.99.28-1.5.04-.85.05-1.11.05-3.27s0-2.41-.05-3.27c0-.51-.1-1.02-.28-1.5ZM16,20.15c-2.29,0-4.15-1.86-4.15-4.15s1.86-4.15,4.15-4.15,4.15,1.86,4.15,4.15-1.86,4.15-4.15,4.15ZM20.32,12.65c-.54,0-.97-.43-.97-.97s.43-.97.97-.97.97.43.97.97-.43.97-.97.97Z"/>
  <path d="M16,13.3c-1.49,0-2.7,1.21-2.7,2.7s1.21,2.7,2.7,2.7,2.7-1.21,2.7-2.7-1.21-2.7-2.7-2.7Z"/>
  <path d="M28.61,5.34C21.28-1.16,9.74-1.68,4.04,4.24c-5.61,5.83-5.33,18.27.52,23.19,7.05,5.93,17.49,5.95,23.42.05,5.05-5.03,5.41-17.88.62-22.13ZM24.04,19.33h0c-.01.67-.14,1.33-.38,1.96-.42,1.09-1.28,1.94-2.36,2.36-.63.24-1.29.36-1.96.38-.86.04-1.14.05-3.33.05s-2.47,0-3.33-.05c-.67-.01-1.33-.14-1.96-.38-1.09-.42-1.94-1.28-2.36-2.36-.24-.63-.36-1.29-.38-1.96-.04-.86-.05-1.14-.05-3.33s0-2.47.05-3.33c.01-.67.14-1.33.38-1.96.42-1.09,1.28-1.95,2.37-2.37.63-.24,1.29-.36,1.96-.38.86-.04,1.14-.05,3.33-.05s2.47,0,3.33.05c.67.01,1.33.14,1.96.38,1.09.42,1.94,1.28,2.36,2.37.24.63.36,1.29.38,1.96.04.86.05,1.14.05,3.33s0,2.47-.05,3.33Z"/>
</svg>