<?xml version="1.0" encoding="UTF-8"?>
<svg id="Layer_1" data-name="Layer 1" xmlns="http://www.w3.org/2000/svg" viewBox="0 0 32 32">
  <path d="M28.61,5.34C21.28-1.16,9.74-1.68,4.04,4.24c-5.61,5.83-5.33,18.27.52,23.19,7.05,5.93,17.49,5.95,23.42.05,5.05-5.03,5.41-17.88.62-22.13ZM24.04,14.63c-1.71.18-3.15-.31-4.45-1.39v7.02c0,.25-.4,1.38-.53,1.69-1.76,4.15-7.5,4.61-10.09,1.01-2.96-4.13.47-9.82,5.48-9.16v3.34c-2.27-.46-4.1,1.93-2.7,3.88,1.19,1.67,3.71,1.14,4.44-.68l.2-13.77h2.99c.36.61.37,1.29.69,1.95.74,1.5,2.37,2.33,3.97,2.5v3.61Z"/>
</svg>