<?xml version="1.0" encoding="UTF-8"?>
<svg id="Layer_1" data-name="Layer 1" xmlns="http://www.w3.org/2000/svg" viewBox="0 0 32 32">
  <g>
    <path d="M2.54,14.91l-.1-.04-.02-.05v-.42s.01-.14.01-.14v-.12s-.01-.08-.01-.08l.02-.11-.02-.17v-1.05s-.02-.3-.02-.3v-.25l-.02-.5v-.23l.02-.96v-1.34s-.04-.35-.04-.35v-.29s-.04-.19-.04-.19l-.14-.02-.59.02-.6.05h-.34s-.18.02-.18.02l-.1-.05.02-.06v-.13l.04-.13-.04-.06v-.07s.05-.1.05-.1l-.04-.07.02-.1v-.08s0-.07,0-.07v-.14l.04-.13v-.1s.01-.1.01-.1l.04-.29v-.08s.14-.11.14-.11l.22-.02.22.04h.41l.13.02.17-.02h.17l.12-.02h.64s.37.02.37.02h.25s.24,0,.24,0h.25l.41-.05.37-.04h.55s.14,0,.14,0h.83s.16.01.16.01l.16.02v.13s-.02.14-.02.14l.02.11-.02.12.02.08-.04.06-.02.08-.04.04.02.06v.1s.04.05.04.05v.07s-.05.05-.05.05l-.04.06.08.11-.08.1-.04.1v.07s.06.05.06.05l-.08.07-.07.1h-.1s-.16.02-.16.02l-.12.06-.12.02h-.25s-.9,0-.9,0l-.13.05-.14.08v.23l.02.38v.4s.01,1.04.01,1.04v.23s-.01,1.8-.01,1.8l-.02.28v.23s-.02.24-.02.24v.23s-.01.32-.01.32l-.02.34v.37s0,.17,0,.17l-.07.05-.16.04-.12.11h-.04l-.04-.1-.06.04-.04.02-.05-.02-.05.08v.04s-.02-.08-.02-.08h-.05l-.02.04-.06.02-.07-.02h-.05l-.05-.04-.05.02h-.06s-.08,0-.08,0h-.08s-.06-.02-.06-.02l-.04.02h-.06s-.04.06-.04.06l-.29-.05Z"/>
    <path d="M12.34,15v-.07s-.04-.04-.04-.04h-.02s-.01.05-.01.05l-.02.06-.07-.05-.04-.06v-.1s-.02-.08-.02-.08v-.08s-.01-.07-.01-.07h-.05s.01.1.01.1l-.05.05-.02-.02h-.04s.02.17.02.17v.14s-.07-.11-.07-.11v-.24s-.02-.17-.02-.17l-.04-.11.04-.13.02.02v.12s.11.08.11.08h.1s.02-.04.02-.04v-.06s-.13.01-.13.01v-.08s-.02-.26-.02-.26l.02-.22v-.02s.05.07.05.07l.04.11-.04.04v.05l.04.02.04-.13.04-.19-.05-.05h-.06l-.04.06h-.02l-.02-.14v-.28s0-.25,0-.25v-.2s-.01-.4-.01-.4l-.02-.12v-.54s-.02-.08-.02-.08v-.24s-.08-.05-.08-.05l-.05-.07-.02.04-.05.12-.04.02v-.1s-.01-.08-.01-.08v-.14s-.07-.01-.07-.01h-.68s-.7.04-.7.04h-.13s-.12,0-.12,0l-.13.04h-.28l-.23.02v.19s-.02.35-.02.35v.92s-.01.24-.01.24l-.02.52-.04.42-.02.19-.02.05-.04.05-.02.1-.04.08v.13l-.04.17-.08.06h-.07s-.05.04-.05.04l-.12.02h-.04s-.07.01-.07.01l-.07-.02-.07.05-.05-.04h-.01s-.02.02-.02.02l-.08-.04-.1.02-.07.05-.04-.06h-.04s-.1.02-.1.02l-.11-.04-.08.02-.05.06-.06-.02-.02-.04-.06.04h-.07s-.05-.05-.05-.05l-.05-.1v-.1s-.02-.06-.02-.06v-.06s.02-.17.02-.17v-.1h-.05l-.02-.05v-.6s-.01-.13-.01-.13v-.23s.01-.58.01-.58v-.46s.01-.37.01-.37v-.37s-.01-.58-.01-.58v-.29s-.02-.22-.02-.22v-.46s.02-.24.02-.24v-.4s.01-.25.01-.25v-.16s-.01-.54-.01-.54v-.18s.01-.5.01-.5v-.12s.01-.16.01-.16l.05-.31.06-.37.04-.17.18-.02h.17l.04-.02h.1s.11.02.11.02l.05-.02.06.04.07-.05.08.02h.06s.04,0,.04,0l.1-.02h.1s.01.02.01.02l.05-.04.06-.02h.31s.12,0,.12,0l.12.02v.13s0,.18,0,.18v.26s-.01.16-.01.16l-.02.13v.55s-.01.41-.01.41v.2s0,.18,0,.18v.41s.01.28.01.28l.02.06.05.02h.46s.26,0,.26,0h.01s-.02.04-.02.04h-.04l-.08-.02-.05.04v.02s.28-.01.28-.01l.72.02h.7s.02-.1.02-.1v-.12s.01-.16.01-.16v-.19s-.01-.12-.01-.12l-.02-.14v-.14s.01-.14.01-.14v-.13s.01-.17.01-.17v-.17s.02-.2.02-.2l.02-.34v-.18s.01-.29.01-.29v-.29s.13-.12.13-.12h.16s.11,0,.11,0h.22s.11-.01.11-.01l.12.02h.06s.04.01.04.01h.05l.06-.05.08.02.12-.04h.25s.12.01.12.01l.17.02.02.1v.14s.02.17.02.17v.71l-.02.16v.64s-.01.14-.01.14v.13s0,.17,0,.17v.3s0,.29,0,.29v.11s.01.06.01.06v.08s0,.12,0,.12v.19s0,.31,0,.31v.24l.02.11v.24s.01.42.01.42l.02.25v.37s.01.29.01.29v.43s.01.58.01.58v.1s-.01.17-.01.17v.2s-.02.18-.02.18l-.02.07.02.1v.18s-.04.18-.04.18l-.06.11-.02.07h-.07v.04l-.02.02h-.13s-.05.05-.05.05l-.04-.04-.04-.05h-.05s-.02.06-.02.06l-.02.06h-.05s-.01-.11-.01-.11l-.02-.06h-.01v.13s-.11.02-.11.02l-.06-.02-.02.06h-.01l-.02-.02h-.02s-.01.07-.01.07l-.02.11h-.05l-.04-.06-.06-.04-.04.07-.02.08h-.02v-.04Z"/>
    <path d="M16.03,15.07h-.1s-.13,0-.13,0h-.19s-.13.02-.13.02l-.07-.04h-.12l-.19.04h-.07s-.11-.02-.11-.02l-.06-.04h-.05s-.02-.11-.02-.11l.04-.14v-.18s.04-.24.04-.24v-.32s.01-.19.01-.19v-.34s0-.16,0-.16l.02-.06v-.5s.01-.38.01-.38l.02-.42v-1.04s.01-.4.01-.4v-.23s.01-.37.01-.37l-.02-.42v-.44s-.04-.42-.04-.42v-.23l.02-.44.02-.22v-.2s.01-.42.01-.42v-.19s-.01-.32-.01-.32l.08-.02.05-.05h.06s.11,0,.11,0h.17s.13-.01.13-.01h.06s.22-.01.22-.01h.05s.05-.01.05-.01h.12s.16-.02.16-.02l.07-.04h.13s.22-.01.22-.01h.2s.1-.05.1-.05h.12l.92.05h.17s.14.02.14.02l.17.04h.23s.58-.01.58-.01h.05s.11,0,.11,0h.41s.14.02.14.02h.07s.05.06.05.06l.05.08.02.12.07.08.07.31-.04.14-.02.08v.06l.07.24.04.06-.07.05-.1.05-.11.16-.14.16-.14.11h-.08s-.07-.05-.07-.05h-.05s-.07,0-.07,0h-.19s-.18,0-.18,0l-.06.04h-.35l-1.42.02h-.46v.08s-.01.79-.01.79v.34s0,.14,0,.14l.05.02h.43s.73-.01.73-.01l.36.02h.13l.11.04h.1s.12-.01.12-.01h.12s.08.04.08.04l.1.02.06-.02h.1l.12.12.02.1v.12s.1.1.1.1l-.05.1.06.1-.02.07v.12s.06.08.06.08l-.05.07-.02.1v.1s-.02.07-.02.07l.05.04.04.04-.04.05h-.06s-.08.07-.08.07l-.08.14.04.07v.04l-.14.04-.08.1h-.2l-.53-.02h-.8s-.53.04-.53.04l-.3.04-.1.06v.07s-.04.25-.04.25v.46s-.02.31-.02.31v.23s0,.18,0,.18h.24s.26.01.26.01l.12.02h.35l.14.02.3.04h.29s.84-.01.84-.01l.16-.02h.19s.19,0,.19,0l.14.02.05.07.04.1v.1s.08.06.08.06v.06s-.06.06-.06.06l.05.05.02.08-.05.02h-.04v.05l.06.05.02.08-.05.12-.02.16-.05.08.08.06.05.04-.02.04-.1.04-.11.07-.04.11v.07s0,.04,0,.04l-.07.04-.1.04-.07.05h-.23s-.25.01-.25.01h-.76l-.14.02-.1.02h-.16s-.66.01-.66.01h-.4s-.5.01-.5.01h-.22s-.05.06-.05.06h-.02v-.05Z"/>
    <path d="M2.27,25.14l-.2-.05-.17-.08h-.11l-.05-.02-.16-.06-.25-.12-.16-.08-.1-.07-.16-.1-.11-.08-.11-.06-.08-.08-.12-.1-.1-.11v-.05s-.01-.06-.01-.06v-.06l.04-.05.07-.06.05-.06v-.06l.02-.04.08-.08h.04s.01-.08.01-.08l.05-.05v-.05s.04-.04.04-.04l.1-.08.05-.12.06-.02.04-.11.05-.1.06-.04v-.07s.04-.02.04-.02l.04-.07h.1s.06.04.06.04h.02v-.05s.06-.04.06-.04l.24.16.3.2.23.13.22.04h.25s.31-.11.31-.11l.19-.12.17-.28.13-.4v-.24s-.06-.1-.06-.1l-.06-.13-.05-.14-.05-.06-.06-.07-.08-.05-.06-.06-.08-.11-.08-.1-.1-.08-.06-.07-.08-.06-.37-.31-.24-.25-.17-.19-.34-.4-.24-.42-.07-.19-.07-.29-.02-.34v-.44s.06-.19.06-.19l.16-.3.1-.16.08-.12.06-.08.17-.18.16-.16.16-.13.19-.14.24-.16.31-.11.17-.07.26-.08.5-.06.56.02.34.04.12.02.07.04v.05s-.02.01-.02.01l-.02.02.04.05.06.02v.1s-.05.06-.05.06l.05.17h-.05l.02.04v.06s.01.1.01.1l.04.07v.04h-.05s-.01.06-.01.06l.07.07-.04.04.04.04v.06s-.01.06-.01.06l-.06.02v.02l.04.04.07.04.04.04v.02h-.04s-.06.04-.06.04v.1s.01.1.01.1l-.04.05v.13l-.04.16-.04.05-.08-.06-.29-.08-.22-.04h-.47l-.29.1-.08.07-.1.07-.11.12-.05.26.14.24.25.24.32.31.2.18.19.2.34.34.34.41.3.41.1.2.16.44.08.43.02.29-.02.3-.14.46-.12.25-.25.43-.22.24-.13.11-.08.11-.34.29-.24.16-.25.13-.3.11-.24.07-.19.04-.43.04-.35-.02Z"/>
    <path d="M11.45,25v-.07s-.04-.04-.04-.04h-.02s-.01.05-.01.05l-.02.06-.07-.05-.04-.06v-.1s-.02-.08-.02-.08v-.08s-.01-.07-.01-.07h-.05s.01.1.01.1l-.05.05-.02-.02h-.04s.02.17.02.17v.14s-.07-.11-.07-.11v-.24s-.02-.17-.02-.17l-.04-.11.04-.13.02.02v.12s.11.08.11.08h.1s.02-.04.02-.04v-.06s-.13.01-.13.01v-.08s-.02-.26-.02-.26l.02-.22v-.02s.05.07.05.07l.04.11-.04.04v.05l.04.02.04-.13.04-.19-.05-.05h-.06l-.04.06h-.02l-.02-.14v-.28s0-.25,0-.25v-.2s-.01-.4-.01-.4l-.02-.12v-.54s-.02-.08-.02-.08v-.24s-.08-.05-.08-.05l-.05-.07-.02.04-.05.12-.04.02v-.1s-.01-.08-.01-.08v-.14s-.07-.01-.07-.01h-.68s-.7.04-.7.04h-.13s-.12,0-.12,0l-.13.04h-.28l-.23.02v.19s-.02.35-.02.35v.92s-.01.24-.01.24l-.02.52-.04.42-.02.19-.02.05-.04.05-.02.1-.04.08v.13l-.04.17-.08.06h-.07s-.05.04-.05.04l-.12.02h-.04s-.07.01-.07.01l-.07-.02-.07.05-.05-.04h-.01s-.02.02-.02.02l-.08-.04-.1.02-.07.05-.04-.06h-.04s-.1.02-.1.02l-.11-.04-.08.02-.05.06-.06-.02-.02-.04-.06.04h-.07s-.05-.05-.05-.05l-.05-.1v-.1s-.02-.06-.02-.06v-.06s.02-.17.02-.17v-.1h-.05l-.02-.05v-.6s-.01-.13-.01-.13v-.23s.01-.58.01-.58v-.46s.01-.37.01-.37v-.37s-.01-.58-.01-.58v-.29s-.02-.22-.02-.22v-.46s.02-.24.02-.24v-.4s.01-.25.01-.25v-.16s-.01-.54-.01-.54v-.18s.01-.5.01-.5v-.12s.01-.16.01-.16l.05-.31.06-.37.04-.17.18-.02h.17l.04-.02h.1s.11.02.11.02l.05-.02.06.04.07-.05.08.02h.06s.04,0,.04,0l.1-.02h.1s.01.02.01.02l.05-.04.06-.02h.31s.12,0,.12,0l.12.02v.13s0,.18,0,.18v.26s-.01.16-.01.16l-.02.13v.55s-.01.41-.01.41v.2s0,.18,0,.18v.41s.01.28.01.28l.02.06.05.02h.46s.26,0,.26,0h.01s-.02.04-.02.04h-.04l-.08-.02-.05.04v.02s.28-.01.28-.01l.72.02h.7s.02-.1.02-.1v-.12s.01-.16.01-.16v-.19s-.01-.12-.01-.12l-.02-.14v-.14s.01-.14.01-.14v-.13s.01-.17.01-.17v-.17s.02-.2.02-.2l.02-.34v-.18s.01-.29.01-.29v-.29s.13-.12.13-.12h.16s.11,0,.11,0h.22s.11-.01.11-.01l.12.02h.06s.04.01.04.01h.05l.06-.05.08.02.12-.04h.25s.12.01.12.01l.17.02.02.1v.14s.02.17.02.17v.71l-.02.16v.64s-.01.14-.01.14v.13s0,.17,0,.17v.3s0,.29,0,.29v.11s.01.06.01.06v.08s0,.12,0,.12v.19s0,.31,0,.31v.24l.02.11v.24s.01.42.01.42l.02.25v.37s.01.29.01.29v.43s.01.58.01.58v.1s-.01.17-.01.17v.2s-.02.18-.02.18l-.02.07.02.1v.18s-.04.18-.04.18l-.06.11-.02.07h-.07v.04l-.02.02h-.13s-.05.05-.05.05l-.04-.04-.04-.05h-.05s-.02.06-.02.06l-.02.06h-.05s-.01-.11-.01-.11l-.02-.06h-.01v.13s-.11.02-.11.02l-.06-.02-.02.06h-.01l-.02-.02h-.02s-.01.07-.01.07l-.02.11h-.05l-.04-.06-.06-.04-.04.07-.02.08h-.02v-.04Z"/>
    <path d="M16.47,25.37l-.31-.1-.25-.11-.25-.14-.32-.22-.2-.16-.23-.22-.19-.2-.14-.22-.17-.24-.13-.25-.07-.17-.16-.32-.08-.24-.12-.5-.06-.46v-.82s.04-.2.04-.2v-.17s.05-.34.05-.34l.04-.19.05-.24.07-.2.06-.3.06-.2.07-.13.02-.12.04-.13.05-.13.02-.08.06-.1.06-.18.07-.14.05-.13.12-.14.06-.19.14-.14.12-.19.22-.26.25-.23.26-.19.19-.13.36-.16.3-.12.31-.08.25-.05.22-.05h.19l.5-.04h.18s.25.05.25.05l.25.07.23.1.43.23.34.29.29.31.3.42.18.4.14.4.07.31.05.23.04.31v.22s.04.26.04.26v1.22l-.02.34-.04.26-.04.19-.04.04-.06.23-.06.3v.12s-.05.1-.05.1l.02.11-.04.08-.05.2-.06.32-.12.38-.11.31-.02.11-.06.07-.08.14-.1.13-.06.12-.1.05-.24.24-.37.26-.22.1-.26.1-.26.06-.22.04-.2.05-.08.02h-.61s-.05,0-.05,0h-.06s-.28.07-.28.07l-.47-.02ZM17.54,23.5l.18-.04h.07l.07-.02.05-.05.12-.05.14-.06.05-.05.08-.1.1-.13.11-.14.07-.24.07-.19.02-.12.04-.08v-.13l.05-.13.05-.07v-.07l-.02-.07.02-.08.06-.08-.04-.1.06-.11v-.1s.01-.16.01-.16l.02-.22.02-.17v-.12s.01-.28.01-.28v-.41s-.01-.43-.01-.43v-.13s-.02-.06-.02-.06v-.1s-.07-.2-.07-.2l-.13-.36-.12-.19-.28-.3-.23-.13-.28-.07-.44.06-.19.06h-.13l-.06.02-.12.06-.16.11-.1.08-.02.07-.11.08-.16.23-.1.16-.04.1-.06.14-.02.12-.05.11-.05.2-.05.17-.02.11-.05.17-.04.29-.05.42-.02.36.04.3.02.29.05.32.07.23.04.13.08.16.18.28.38.34.38.23.19.08.05.02-.02.05.05.02.23-.02Z"/>
    <path d="M22.37,25.14l-.05-.04-.04.06-.04.04h-.01l-.02-.05-.06-.06-.05-.07v-.1s-.05-.13-.05-.13v-.14l.02-.06-.02-.08v-.1s0-.28,0-.28v-.31s-.07-.13-.07-.13v-.07s.05-.08.05-.08v-.22s-.01-.18-.01-.18l-.02-.04h-.01v.05h-.04v-.04s0-.18,0-.18v-.36s.01-.24.01-.24l-.02-.12.04-.11-.02-.08.02-.14v-.1s0-.12,0-.12v-.28s-.01-.1-.01-.1v-.1s0-.12,0-.12v-.11s.01-.08.01-.08v-.1s-.01-.08-.01-.08v-.05l.02-.14v-.17l.02-.1v-.13l.02-.12v-.11s-.01-.06-.01-.06v-.06s.05-.07.05-.07v-.3s.01-.2.01-.2v-.26s0-.05,0-.05v-.43s.02-.38.02-.38l.02-.58v-.53s0-.25,0-.25v-.08s.08-.05.08-.05h.05s.11-.02.11-.02l.11.02h.05l.05-.06h.06s.05.02.05.02l.05.05.04-.02.04-.05h.07s.06.02.06.02h.07s.12-.01.12-.01l.07-.04h.12s.12-.02.12-.02h.13s.08,0,.08,0l.06.04.06-.02.05.04h1.02s.49.05.49.05l.2.05.36.12.23.12.4.31.32.36.14.23.2.52.11.56.04.52v.23s-.05.31-.05.31l-.08.28-.08.18-.18.32-.2.31-.22.25-.29.25-.44.3-.37.12-.35.08-.56.06h-.22l-.2.02h-.12s-.05,0-.05,0l-.02.12v.12l-.04.06.04.1v.12l-.05.12.02.08.02.06-.04.08v.14s-.01.24-.01.24v.13s-.01.29-.01.29v.26s-.04.3-.04.3l-.04.31-.08.1-.05.05-.02-.04-.06.02-.06.06-.06.08-.07.08h-.06s-.05.02-.05.02h-.02s-.02.01-.02.01v-.08s-.01-.01-.01-.01h-.02s-.06.05-.06.05l-.02.07v.05s-.06.01-.06.01l-.05-.05v-.06s-.04-.01-.04-.01l-.02.04-.04.04-.06.02-.04.08-.04.06h-.02v-.08h-.05l-.06.08h-.11s-.13-.07-.13-.07ZM24.12,20.27l.44-.08.18-.04.23-.08.19-.12.08-.05.12-.14.12-.3v-.37l-.17-.42-.29-.18-.14-.05h-.11s-.11-.01-.11-.01h-.34l-.31.04-.02.19-.02.25v.1s0,.14,0,.14l-.02.34v.31s-.01.17-.01.17l-.04.18.02.14h.04s.16-.01.16-.01Z"/>
    <path d="M29.85,25.14l-.04-.04-.06-.04-.29.04-.07-.02h-.12l-.06-.04h-.02l-.05.04h-.08s-.07.04-.07.04l-.24-.06-.08.04h-.06s-.06-.01-.06-.01l-.06-.1-.07-.08v-1.43s-.04-.22-.04-.22v-.41s0-.19,0-.19l.06-.04.08-.02.06.02h.06s.07-.01.07-.01l.07-.02.05.02.05-.02.11.02h.08s.02.01.02.01l.04-.02.11.02h.06s.11-.01.11-.01l.08-.02.07.02.13-.04h.16s.11-.02.11-.02l.13.02h.13s.06.18.06.18v.3s.01.4.01.4v.25s.01.35.01.35l-.02.34v.28s0,.1,0,.1l.02.04-.07.14-.05.04-.12.05-.08.07-.05.06h-.08ZM29.02,21.76h-.1s-.08-.02-.08-.02l-.13-.02-.12-.06-.08-.1-.02-.28v-.28s-.04-.13-.04-.13v-.52s-.01-.48-.01-.48v-.23s.01-.28.01-.28l.02-.24v-.37s0-.35,0-.35v-.38s-.01-.26-.01-.26v-.48s.02-.31.02-.31v-.23s.04-.16.04-.16h.07s.01-.02.01-.02v-.05h.04l.05.02h.06l.05-.02h.31s.07,0,.07,0h.08l.06.02.05-.02h.06s.07,0,.07,0h.18s.07.04.07.04l.06-.04.04-.02.06.02h.05s.06-.04.06-.04h.06l.1.02.12-.02.08.04h.06s-.01.12-.01.12v.17s-.02.1-.02.1v.69s-.02.23-.02.23v.35s.02.26.02.26v.16s-.02.36-.02.36v.47l-.02.22v.44s-.02.38-.02.38v.22l.02.67v.1s-.1.07-.1.07l-.08.04-.14.12-.06-.02-.08-.04-.08.04v.06s-.05.04-.05.04h-.02l-.07-.04h-.08s-.11-.01-.11-.01h-.11s-.05-.01-.05-.01l-.04.02-.02.04h-.08s-.05.06-.05.06h-.04l-.06-.05Z"/>
  </g>
  <path d="M30.34,10.42c-.39-.39-.37-.42-.76-.81-.39-.39-.39-.4-.77-.79-.4-.38-.4-.39-.8-.77-.39-.39-.45-.33-.84-.72-.15-.15-.32-.28-.48-.42-.08-.07-.16-.15-.23-.23-.02-.03-.04-.13-.1-.11,0,0-.02.01-.03.02,0,0,0,0,0,0,0,0-.01,0-.02,0h0s0,0,0,0c0,0-.02,0-.03,0-.02,0-.04.02-.05.03-.09.08.04.24.04.31,0,.13-.04.26-.05.39,0,.02,0,.03-.02.05.01.09.02.2.02.35,0,.55-.06.55-.06,1.11,0,.21,0,.33,0,.45-.05,0-.09,0-.16,0-.47-.01-.48-.01-.96-.02-.48,0-.48,0-.96.01-.48,0-.48,0-.96-.01-.48,0-.48.05-.96.05-.24,0-.36-.02-.48-.05-.14-.02-.15-.05-.69-.05,0,.55.01.54.03.69.01.12.03.24.03.48,0,.48,0,.48.01.96,0,.39.01.52.02.8.06,0,.2,0,.4,0,.47.01.49.01.96.03.48,0,.48.03.96.03.48,0,.48,0,.96.01.47-.01.49-.01.96-.02.42,0,.49-.06.82-.08,0,.02,0,.02,0,.04,0,.55,0,.56.01,1.11,0,.56,0,.56-.01,1.12,0,.44.01.67.02.83.2-.22.4-.44.65-.69.39-.39.46-.32.85-.71.39-.39.35-.43.74-.82.39-.39.39-.4.77-.79.38-.4.39-.4.76-.8.34-.33.44-.42.69-.66-.04-.04-.15-.15-.3-.31Z"/>
</svg>