<?xml version="1.0" encoding="UTF-8"?>
<svg id="Layer_1" data-name="Layer 1" xmlns="http://www.w3.org/2000/svg" viewBox="0 0 26.87 5.5">
  <defs>
    <style>
      .cls-1 {
        fill: #e82f25;
      }
    </style>
  </defs>
  <g>
    <path class="cls-1" d="M.63,1.53h-.03s-.02-.02-.02-.02h-.02s-.02-.01-.02-.01h-.03s-.02-.03-.02-.03h-.01s-.02-.02-.02-.02h-.01s-.01-.02-.01-.02h-.01s-.01-.02-.01-.02h-.01s0-.02,0-.02h0s0-.02,0-.02h0s0-.01,0-.01H.42s0-.01,0-.01h.01s0-.01,0-.01h0s0-.01,0-.01h0s0-.01,0-.01h.01s0-.03,0-.03h0s0-.02,0-.02h0s0-.02,0-.02h0s0-.01,0-.01h0s.01-.01.01-.01h0s0,0,0,0h0s0-.01,0-.01l.03.02.04.02.03.02h.03s.03,0,.03,0h.04s.02-.03.02-.03l.02-.03.02-.05v-.03s0-.01,0-.01v-.02s-.01-.02-.01-.02h0s0-.02,0-.02h-.01s0-.01,0-.01h-.01s-.01-.02-.01-.02h-.01s0-.02,0-.02h-.01s-.05-.05-.05-.05l-.03-.03-.02-.02-.04-.05-.03-.05v-.02s-.02-.04-.02-.04v-.04s0-.05,0-.05v-.02s.03-.04.03-.04v-.02s.02-.01.02-.01h0s.02-.03.02-.03l.02-.02.02-.02.02-.02.03-.02h.04s.02-.02.02-.02h.03s.06-.02.06-.02h.07s.04,0,.04,0h.01s0,0,0,0h0s0,0,0,0h0s0,0,0,0h0s0,.01,0,.01h0s0,.03,0,.03h0,0s0,.01,0,.01h0s0,.02,0,.02h0s0,0,0,0h0s0,.01,0,.01h0s0,0,0,0h0s0,.02,0,.02h0s0,0,0,0h0s0,0,0,0h0s0,0,0,0h0s0,.01,0,.01h0s0,.02,0,.02v.04s0,0,0,0h-.01s-.04-.02-.04-.02h-.03s-.06,0-.06,0h-.04s-.01.02-.01.02h-.01s-.01.02-.01.02v.03s.01.03.01.03l.03.03.04.04.03.02.02.03.04.04.04.05.04.05v.03s.03.05.03.05v.05s.01.04.01.04v.04s-.02.06-.02.06v.03s-.05.05-.05.05l-.03.03h-.02s-.01.03-.01.03l-.04.04-.03.02-.03.02h-.04s-.03.02-.03.02h-.02s-.05,0-.05,0h-.04Z"/>
    <path class="cls-1" d="M1.32,1.5h-.01s0-.01,0-.01v-.05s0-.02,0-.02h0v-.03h0s0-.03,0-.03v-.11h0s0-.05,0-.05v-.09s0-.03,0-.03v-.12s0-.14,0-.14v-.03s0-.04,0-.04v-.04s0-.02,0-.02h-.02s-.07,0-.07,0h-.07s-.04,0-.04,0h-.02s-.01,0-.01,0h0v-.04s0,0,0,0h0s0-.02,0-.02h0s0-.02,0-.02h0s0-.02,0-.02v-.03s0-.01,0-.01h0s0-.05,0-.05h0s.02-.02.02-.02h.03s.03,0,.03,0h.07s.02,0,.02,0h.04s.05,0,.05,0h.03s.05,0,.05,0h.03s.03,0,.03,0h.08s.05-.01.05-.01h.07s.02,0,.02,0h.1s.02,0,.02,0h.02s0,.02,0,.02v.02s0,.01,0,.01h0s0,.03,0,.03h0s0,.02,0,.02h0s0,.01,0,.01h0s0,.02,0,.02h0s0,.01,0,.01h0s.01.02.01.02h-.01s0,.02,0,.02h0s0,.01,0,.01h-.01s0,.02,0,.02h-.01s-.02,0-.02,0h-.01s-.01.01-.01.01h-.03s-.11,0-.11,0h-.02s-.02.02-.02.02v.07s0,.05,0,.05v.16s0,.22,0,.22v.03s0,.03,0,.03v.03s0,.03,0,.03v.08s0,.05,0,.05v.02s-.01,0-.01,0h-.02s-.01.02-.01.02h0s0,0,0,0h0s0,0,0,0h0s0,.01,0,.01h0s0-.01,0-.01h0s0,0,0,0h0s0,0,0,0h0s0,0,0,0h0s-.01,0-.01,0h-.01s0,0,0,0h0s0,0,0,0h0s-.04,0-.04,0Z"/>
    <path class="cls-1" d="M2.42,1.51l-.02-.03-.03-.05-.02-.02-.04-.05-.04-.05-.02-.03h-.02s-.02-.04-.02-.04l-.06-.07v-.02h-.02s0,.06,0,.06v.08s0,.03,0,.03v.02s0,.04,0,.04v.06s0,.04,0,.04v.02s-.02,0-.02,0h-.01s-.01,0-.01,0h0s-.01,0-.01,0h-.01s0,0,0,0h-.01s0,0,0,0h-.02s0,0,0,0h0s0,0,0,0h0s-.02,0-.02,0h-.02s-.02,0-.02,0h0s0,0,0,0h0s0-.04,0-.04v-.08s0-.03,0-.03v-.05s0-.03,0-.03v-.04s0-.02,0-.02v-.02s0-.03,0-.03v-.03s0-.04,0-.04v-.04s0-.02,0-.02v-.02s0-.05,0-.05v-.04s0-.03,0-.03v-.02s0-.04,0-.04v-.02s0-.03,0-.03v-.03s0-.06,0-.06h0s0-.04,0-.04v-.02s0-.01,0-.01v-.11s0-.03,0-.03h0s0-.02,0-.02h0s.01,0,.01,0h.03s0,0,0,0h0s.01,0,.01,0h.02s0,0,0,0h.01s0,0,0,0h.05s.03,0,.03,0h0s.01,0,.01,0h0s.02,0,.02,0h.02s.02,0,.02,0h.01s.01,0,.01,0h.05s.01,0,.01,0h.02s.02,0,.02,0h.01s.01,0,.01,0h.04s.03.03.03.03l.02.02v.02s.03.03.03.03v.04s.03.04.03.04v.02s.01.01.01.01v.02s.01.03.01.03v.02s0,.02,0,.02v.02s0,0,0,0v.02s0,.02,0,.02h0s0,.04,0,.04v.03s-.02.02-.02.02l-.03.04h0s-.02.03-.02.03v.02s-.03.01-.03.01h-.02s-.01.03-.01.03v.02s.01.01.01.01l.02.02.04.04.04.05.03.04.02.03.04.05.02.04v.03s.03.02.03.02h-.01s-.01.02-.01.02h0s0,0,0,0h0s0,.01,0,.01h-.02s0,.02,0,.02h0s0,0,0,0h-.01s0,.01,0,.01h0s0,0,0,0h0s0,0,0,0h0s0,.01,0,.01h0s0,0,0,0h0s0,0,0,0h-.02s-.01-.02-.01-.02ZM2.17.91h.03s.04,0,.04,0h0s.02-.02.02-.02l.02-.02.02-.02v-.02s.01-.03.01-.03v-.04s-.02-.04-.02-.04h-.02s-.02-.02-.02-.02h-.03s-.03-.01-.03-.01h-.03s-.03,0-.03,0v.02s0,.04,0,.04v.08s0,.05,0,.05v.03h0s.03,0,.03,0Z"/>
    <path class="cls-1" d="M2.79,1.49h-.01s0,0,0,0h0s0,0,0,0h0s-.01,0-.01,0h-.01s0,0,0,0h0s0,0,0,0h0s0,0,0,0h0s-.01,0-.01,0h0s0,0,0,0h0s0,0,0,0h-.01s0-.02,0-.02v-.03s.02-.04.02-.04v-.03s.02-.05.02-.05v-.05s.02-.03.02-.03v-.03s.02-.04.02-.04v-.05s.02-.06.02-.06v-.03s.02-.06.02-.06v-.03s.02-.07.02-.07v-.04s.02-.03.02-.03v-.05s.02-.05.02-.05v-.05s.02-.04.02-.04v-.04s.02-.03.02-.03v-.03s.01-.02.01-.02h0s0,0,0,0h0s.01,0,.01,0h.01s0,0,0,0h.01s.01,0,.01,0h0s.01,0,.01,0h.01s.01,0,.01,0h.01s0,0,0,0h.01s.01,0,.01,0h.01s.01,0,.01,0h.02s.01,0,.01,0h0s0,0,0,0h0s0,0,0,0h0s.01.03.01.03v.03s.02.04.02.04v.05s.03.04.03.04v.02s.02.05.02.05v.03s.01.02.01.02v.04s.02.03.02.03v.03s.01.03.01.03v.03s.03.08.03.08v.03s.02.06.02.06v.04s.01.01.01.01v.02s.01.03.01.03l.02.08v.02s0,.02,0,.02v.03s.01.03.01.03v.02s0,.02,0,.02h0s0,.02,0,.02h-.01s-.01.01-.01.01h0s0,0,0,0h-.01s0,.01,0,.01h0s-.01,0-.01,0h0s0,0,0,0h0s0,0,0,0h0s0,0,0,0h0s-.01.02-.01.02h0s0,0,0,0h-.02s-.02.01-.02.01h0s0-.05,0-.05v-.04s-.02-.05-.02-.05v-.05s-.03,0-.03,0h-.05s-.11,0-.11,0h-.02s0,.01,0,.01v.02s0,.01,0,.01v.03s-.01.03-.01.03v.03s-.02.03-.02.03h-.01s-.01,0-.01,0h-.01s-.01,0-.01,0h0s0,0,0,0h0s0,0,0,0h0s0,0,0,0ZM3.06,1.09v-.03s-.01-.04-.01-.04v-.02s0-.01,0-.01v-.03s-.01-.03-.01-.03v-.03s-.01-.03-.01-.03h0s0-.02,0-.02h0s0,.03,0,.03v.03s-.01.04-.01.04v.06s-.02.03-.02.03v.04s.01,0,.01,0h.05s.02,0,.02,0h.01Z"/>
    <path class="cls-1" d="M3.5,1.54v-.02s-.02,0-.02,0h0s0,0,0,0v-.02s-.01-.02-.01-.02h0s0-.03,0-.03h0s0-.02,0-.02h0s0-.02,0-.02v-.02h0s0-.02,0-.02v-.05s0,0,0,0v-.02s0-.02,0-.02v-.02s0-.01,0-.01v-.03s0-.11,0-.11v-.02s0-.02,0-.02v-.04h0s0-.02,0-.02h0s0-.05,0-.05v-.03s0-.08,0-.08v-.03s0-.03,0-.03v-.04s0-.04,0-.04v-.05s0-.06,0-.06v-.07s0-.04,0-.04h0s0-.01,0-.01h.01s.01,0,.01,0h.08s0,0,0,0h0s.01,0,.01,0h.01s0,0,0,0h0s.01,0,.01,0h.01s.01,0,.01,0h0s.01,0,.01,0v.03s0,.03,0,.03v.05s0,.02,0,.02v.02s0,.02,0,.02v.02s0,.02,0,.02h0s0,.01,0,.01h0s0,0,0,0h0s0,.01,0,.01h0s0,0,0,0h0s0,.02,0,.02v.05h0s0,.02,0,.02h0s0,0,0,0h0s0,.02,0,.02h0s0,0,0,0h0s0,.02,0,.02h0s0,.02,0,.02h0s0,.01,0,.01h0s0,.01,0,.01h0s0,.01,0,.01h0v.03h0s0,.01,0,.01v.05s0,.03,0,.03v.04s0,.04,0,.04v.09s0,.03,0,.03v.02s0,.04,0,.04v.03s0,.04,0,.04v.04s0,.01,0,.01v.02s0,.01,0,.01h0s-.01.02-.01.02h0s-.01,0-.01,0h0s0,.01,0,.01h0s0,0,0,0h0s0,0,0,0h0s0,0,0,0h0s0,.02,0,.02h0s0-.02,0-.02h-.01s-.01.02-.01.02h0s0,0,0,0h0s0-.01,0-.01h0s0,.02,0,.02h0s0,.01,0,.01h0v-.02h0s0,0,0,0h0s0,.01,0,.01v.02s0,.01,0,.01h0s0-.03,0-.03Z"/>
    <path class="cls-1" d="M4.19,1.56h-.04s-.01,0-.01,0h-.02s-.01-.01-.01-.01h-.01s-.02-.01-.02-.01h-.02s0-.01,0-.01h-.01s0,0,0,0h-.01s-.03-.04-.03-.04l-.02-.02h-.01s0-.01,0-.01l-.02-.02v-.02s-.02-.01-.02-.01h0s-.01-.03-.01-.03v-.03s-.02-.02-.02-.02h0s0-.02,0-.02h0s0-.01,0-.01h0s0-.03,0-.03v-.02s-.01-.03-.01-.03v-.03s0-.01,0-.01v-.03s-.01-.05-.01-.05v-.04s0-.02,0-.02v-.07s0-.03,0-.03v-.02s0,0,0,0v-.02s0-.01,0-.01h0s0-.02,0-.02h0s0-.01,0-.01h0v-.03h0s0-.03,0-.03v-.02s0-.02,0-.02v-.02s.02-.03.02-.03h.01s.01-.03.01-.03l.02-.03v-.02s.02,0,.02,0l.03-.03.02-.02.02-.02h.02s.05-.04.05-.04h.03s0,0,0,0h.02s.02,0,.02,0h.01s.01,0,.01,0h0s.01,0,.01,0h.01s.02,0,.02,0h0s.01,0,.01,0h.01s.02,0,.02,0h.05s.01,0,.01,0h.01s.04.01.04.01h.01s.02,0,.02,0h.02s.03.02.03.02l.03.02.04.02h.01s0,.02,0,.02h0s0,.02,0,.02h-.01s0,.01,0,.01h0s0,.02,0,.02h0s0,.02,0,.02h-.01s0,.01,0,.01h0s0,0,0,0h0s0,0,0,0h0s-.01,0-.01,0h0s0,.01,0,.01h0s0,.01,0,.01h0s0,.02,0,.02h0s0,.01,0,.01h0s0,0,0,0h0s-.02-.01-.02-.01h-.02s-.02-.02-.02-.02h-.04s-.04-.01-.04-.01h0s0,0,0,0h0s0,0,0,0h-.02s-.02,0-.02,0h0s0,.01,0,.01h-.03s-.03.03-.03.03l-.02.02-.02.04-.02.05v.03s0,.03,0,.03v.03s0,.03,0,.03v.02s0,.03,0,.03v.03s0,.01,0,.01v.04s.01.04.01.04v.03s.01.02.01.02v.03s.02.03.02.03v.03s.03.03.03.03l.03.03h.03s.03.02.03.02h.03s.02.01.02.01h.02s.02,0,.02,0h.01s.01-.02.01-.02h.01s0-.03,0-.03v-.03s0-.05,0-.05v-.04s0-.03,0-.03h0s-.01-.01-.01-.01h-.11s-.04.02-.04.02h-.01s0,0,0,0h0s0,0,0,0h0s0-.01,0-.01h0s0-.02,0-.02v-.02s0-.02,0-.02h0s0-.01,0-.01h0s0-.02,0-.02h0s0-.02,0-.02v-.02h0s0-.04,0-.04h0s0-.02,0-.02h0s0-.02,0-.02h.02s.04-.02.04-.02h.05s.05,0,.05,0h.05s.04,0,.04,0h.05s0,0,0,0h.01s.01,0,.01,0h.01s0,0,0,0h.01s0,0,0,0h.01s.01,0,.01,0h0s0,.05,0,.05v.04s0,.05,0,.05v.06s0,.04,0,.04v.07s0,.03,0,.03v.07s0,.03,0,.03v.02s-.01,0-.01,0v.02s-.02.02-.02.02h0s0,.02,0,.02v.02s-.02.01-.02.01l-.02.03-.03.03h-.02s0,.02,0,.02h-.01s-.02.02-.02.02h0s-.01,0-.01,0h-.01s-.01,0-.01,0h-.01s-.02.01-.02.01h-.01s-.01,0-.01,0h-.02s-.02,0-.02,0h-.02s-.02,0-.02,0h-.01s0,0,0,0h0s0,0,0,0Z"/>
    <path class="cls-1" d="M5.33,1.51h0s0-.01,0-.01h0s0,0,0,0h0s0,0,0,0h0s0-.02,0-.02h0s0-.02,0-.02h0s0,0,0,0h0s0,.02,0,.02h0s0,0,0,0v.02s0,.02,0,.02h0s0-.04,0-.04v-.02s0-.01,0-.01v-.02s0,0,0,0h0s.01.02.01.02h.01s0,0,0,0h0s-.01,0-.01,0h0s0-.04,0-.04v-.03s0,0,0,0h0s0,.02,0,.02h0s0,.01,0,.01v-.02s0-.02,0-.02h0s0,0,0,0h0s0,0,0,0v-.02s0-.03,0-.03v-.03s0-.03,0-.03v-.05h0v-.08s0-.01,0-.01v-.02h0s0-.01,0-.01h0s0,0,0,0h0s0,.02,0,.02h0s0-.02,0-.02h0s0-.02,0-.02h0s-.05,0-.05,0h-.03s-.09,0-.09,0h-.02s-.01,0-.01,0h-.02s-.03,0-.03,0h-.03s0,.03,0,.03v.04s0,.08,0,.08v.03s0,.03,0,.03v.06s0,.05,0,.05v.02s0,0,0,0h0s0,.02,0,.02h0v.05s-.01,0-.01,0h0s0,0,0,0h-.01s0,0,0,0h0s0,0,0,0h0s0,0,0,0h0s0,0,0,0h-.01s-.01,0-.01,0h0s0,0,0,0h0s-.01,0-.01,0h-.01s-.01,0-.01,0h0s0,0,0,0h0s0,0,0,0h0s0,0,0,0h0s0-.02,0-.02h0s0-.01,0-.01v-.02s0-.01,0-.01h0v-.08s0-.02,0-.02v-.03s0-.07,0-.07v-.06s0-.05,0-.05v-.05s0-.07,0-.07v-.04s0-.03,0-.03v-.06s0-.03,0-.03v-.05s0-.03,0-.03v-.02s0-.07,0-.07v-.02s0-.06,0-.06h0v-.07s.01-.05.01-.05v-.02s.03,0,.03,0h.02s.01,0,.01,0h.01s0,0,0,0h0s0,0,0,0h.01s0,0,0,0h0s.01,0,.01,0h.01s0,0,0,0h0s0,0,0,0h.04s.01,0,.01,0h.01s0,.02,0,.02v.02s0,.01,0,.01v.02s0,.02,0,.02v.02s0,.03,0,.03v.04s0,.05,0,.05v.03s0,.02,0,.02v.05s0,.03,0,.03h0s0,.01,0,.01h.06s.03,0,.03,0h0s0,0,0,0h-.01s0,0,0,0h0s.03,0,.03,0h.09s.07,0,.07,0h.02s0-.01,0-.01h0s0-.03,0-.03h0s0-.02,0-.02h0s0-.03,0-.03v-.02s0-.02,0-.02v-.02s0-.02,0-.02v-.02s0-.03,0-.03v-.04s0-.02,0-.02v-.04s0-.04,0-.04h.01s.02-.01.02-.01h.01s.02,0,.02,0h.01s.01,0,.01,0h.01s0,0,0,0h0s0,0,0,0h0s.01,0,.01,0h.01s.02,0,.02,0h.01s.01,0,.01,0h.02s0,.01,0,.01v.02s0,.02,0,.02v.11s0,.04,0,.04v.04s0,.02,0,.02v.02s0,.02,0,.02v.04s0,.04,0,.04h0v.02h0s0,.02,0,.02v.02s0,.04,0,.04v.03h0v.03h0v.09s0,.05,0,.05v.09s0,.07,0,.07h0s0,.03,0,.03v.03s0,.02,0,.02h0s0,.02,0,.02v.02s0,.02,0,.02h0s0,.02,0,.02h0s0,0,0,0h-.02s0,0,0,0h0s0-.01,0-.01h0s0,0,0,0h0s0,0,0,0h0s0-.02,0-.02h0v.02s-.01,0-.01,0h0s0,0,0,0h0s0,0,0,0h0s0,.02,0,.02h-.01s0-.01,0-.01h0s0,.02,0,.02h0Z"/>
    <path class="cls-1" d="M5.85,1.5h-.01s0-.01,0-.01v-.05s0-.02,0-.02h0v-.03h0s0-.03,0-.03v-.11h0s0-.05,0-.05v-.09s0-.03,0-.03v-.12s0-.14,0-.14v-.03s0-.04,0-.04v-.04s0-.02,0-.02h-.02s-.07,0-.07,0h-.07s-.04,0-.04,0h-.02s-.01,0-.01,0h0v-.04s0,0,0,0h0s0-.02,0-.02h0s0-.02,0-.02h0s0-.02,0-.02v-.03s0-.01,0-.01h0s0-.05,0-.05h0s.02-.02.02-.02h.03s.03,0,.03,0h.07s.02,0,.02,0h.04s.05,0,.05,0h.03s.05,0,.05,0h.03s.03,0,.03,0h.08s.05-.01.05-.01h.07s.02,0,.02,0h.1s.02,0,.02,0h.02s0,.02,0,.02v.02s0,.01,0,.01h0s0,.03,0,.03h0s0,.02,0,.02h0s0,.01,0,.01h0s0,.02,0,.02h0s0,.01,0,.01h0s.01.02.01.02h-.01s0,.02,0,.02h0s0,.01,0,.01h-.01s0,.02,0,.02h-.01s-.02,0-.02,0h-.01s-.01.01-.01.01h-.03s-.11,0-.11,0h-.02s-.02.02-.02.02v.07s0,.05,0,.05v.16s0,.22,0,.22v.03s0,.03,0,.03v.03s0,.03,0,.03v.08s0,.05,0,.05v.02s-.01,0-.01,0h-.02s-.01.02-.01.02h0s0,0,0,0h0s0,0,0,0h0s0,.01,0,.01h0s0-.01,0-.01h0s0,0,0,0h0s0,0,0,0h0s0,0,0,0h0s-.01,0-.01,0h-.01s0,0,0,0h0s0,0,0,0h0s-.04,0-.04,0Z"/>
  </g>
  <g>
    <path class="cls-1" d="M.7,3.14h-.01s0-.01,0-.01v-.06s0-.02,0-.02v-.02s0-.01,0-.01v-.02s0-.03,0-.03v-.16s0-.05,0-.05v-.12s0-.04,0-.04v-.15s0-.17,0-.17v-.03s0-.05,0-.05v-.04s0-.03,0-.03h-.02s-.09,0-.09,0h-.09s-.05,0-.05,0h-.03s-.01,0-.01,0h0v-.05s0,0,0,0h0s0-.03,0-.03h0s0-.03,0-.03h0s0-.02,0-.02v-.04s0-.01,0-.01h0s0-.06,0-.06h0s.02-.03.02-.03h.03s.03,0,.03,0h.08s.03,0,.03,0h.04s.06,0,.06,0h.04s.06,0,.06,0h.04s.04,0,.04,0h.1s.06-.01.06-.01h.09s.02,0,.02,0h.13s.02,0,.02,0h.02s0,.02,0,.02v.02s0,.02,0,.02v.02s0,.01,0,.01h0s0,.02,0,.02h0s0,.01,0,.01h0s0,.02,0,.02h0s0,.02,0,.02h0s.01.03.01.03h-.01s0,.03,0,.03h0s0,.02,0,.02h-.01s-.01.03-.01.03h-.01s-.02,0-.02,0h-.02s-.02.01-.02.01h-.04s-.14,0-.14,0h-.02s-.02.02-.02.02v.09s0,.06,0,.06v.2s0,.28,0,.28v.04s0,.03,0,.03v.04s0,.04,0,.04v.1s0,.06,0,.06v.03s-.01,0-.01,0h-.02s-.02.02-.02.02h-.01s0,0,0,0h0s0,0,0,0h0s0,.02,0,.02h0s0-.01,0-.01h0s0,0,0,0h-.01s0,0,0,0h0s0,0,0,0h0s-.01,0-.01,0h-.01s0,0,0,0h0s0,0,0,0h0s-.04,0-.04,0Z"/>
    <path class="cls-1" d="M1.74,3.21h-.05s-.04-.03-.04-.03l-.04-.02-.05-.03-.03-.02-.03-.03-.03-.03-.02-.03-.03-.04-.02-.04v-.03s-.04-.05-.04-.05v-.04s-.03-.08-.03-.08v-.07s0-.06,0-.06v-.06s0-.03,0-.03v-.03s0-.05,0-.05v-.03s.01-.04.01-.04v-.03s.02-.05.02-.05v-.03s.02-.02.02-.02v-.02s0-.02,0-.02v-.02s.01-.01.01-.01h0s0-.04,0-.04v-.02s.02-.02.02-.02l.02-.02v-.03s.03-.02.03-.02l.02-.03.03-.04.04-.04.04-.03.03-.02.06-.02.05-.02h.05s.04-.02.04-.02h.03s.03,0,.03,0h.08s.03,0,.03,0h.04s.04.02.04.02h.04s.07.05.07.05l.05.04.04.05.05.06.03.06.02.06v.05s.02.03.02.03v.05s0,.03,0,.03v.04s0,.19,0,.19v.05s0,.04,0,.04v.03s-.01,0-.01,0v.03s-.02.05-.02.05v.02s0,.01,0,.01v.02s0,.01,0,.01v.03s-.02.05-.02.05l-.02.06-.02.05v.02s-.01.01-.01.01v.02s-.03.02-.03.02v.02s-.02,0-.02,0l-.04.04-.06.04h-.03s-.04.03-.04.03h-.04s-.03.01-.03.01h-.03s-.01.01-.01.01h-.09s0,0,0,0h0s-.04.01-.04.01h-.07ZM1.91,2.92h.03s.01,0,.01,0h.01s0-.01,0-.01h.02s.02-.02.02-.02h0s.01-.02.01-.02v-.02s.03-.02.03-.02v-.04s.02-.03.02-.03v-.02s0-.01,0-.01v-.04s.01-.01.01-.01h0s0-.02,0-.02h0s0-.03,0-.03h0s0-.03,0-.03h0s0-.04,0-.04v-.03s0-.03,0-.03v-.02s0-.04,0-.04v-.06s0-.07,0-.07v-.02s0,0,0,0h0s0-.05,0-.05l-.02-.06-.02-.03-.04-.05-.03-.02h-.04s-.07,0-.07,0h-.03s-.02,0-.02,0h0s-.02.01-.02.01l-.02.02h-.01s0,.02,0,.02h-.02s-.02.05-.02.05v.02s-.02.01-.02.01v.02s-.01.02-.01.02v.02s-.01.03-.01.03v.03s-.01.02-.01.02v.03s-.01.04-.01.04v.06s-.01.06-.01.06v.05s0,.04,0,.04v.05s.02.04.02.04v.02s.02.02.02.02l.03.04.06.05.06.04h.03s0,.02,0,.02h0s0,.01,0,.01h.04Z"/>
    <path class="cls-1" d="M3.33,3.14h-.01s0-.01,0-.01v-.06s0-.02,0-.02v-.02s0-.01,0-.01v-.02s0-.03,0-.03v-.16s0-.05,0-.05v-.12s0-.04,0-.04v-.15s0-.17,0-.17v-.03s0-.05,0-.05v-.04s0-.03,0-.03h-.02s-.09,0-.09,0h-.09s-.05,0-.05,0h-.03s-.01,0-.01,0h0v-.05s0,0,0,0h0s0-.03,0-.03h0s0-.03,0-.03h0s0-.02,0-.02v-.04s0-.01,0-.01h0s0-.06,0-.06h0s.02-.03.02-.03h.03s.03,0,.03,0h.08s.03,0,.03,0h.04s.06,0,.06,0h.04s.06,0,.06,0h.04s.04,0,.04,0h.1s.06-.01.06-.01h.09s.02,0,.02,0h.13s.02,0,.02,0h.02s0,.02,0,.02v.02s0,.02,0,.02v.02s0,.01,0,.01h0s0,.02,0,.02h0s0,.01,0,.01h0s0,.02,0,.02h0s0,.02,0,.02h0s.01.03.01.03h-.01s0,.03,0,.03h0s0,.02,0,.02h-.01s-.01.03-.01.03h-.02s-.02,0-.02,0h-.02s-.02.01-.02.01h-.04s-.14,0-.14,0h-.02s-.02.02-.02.02v.09s0,.06,0,.06v.2s0,.28,0,.28v.04s0,.03,0,.03v.04s0,.04,0,.04v.1s0,.06,0,.06v.03s-.01,0-.01,0h-.02s-.02.02-.02.02h-.01s0,0,0,0h0s0,0,0,0h0s0,.02,0,.02h0s0-.01,0-.01h0s0,0,0,0h-.01s0,0,0,0h0s0,0,0,0h0s-.01,0-.01,0h-.01s0,0,0,0h0s0,0,0,0h0s-.05,0-.05,0Z"/>
    <path class="cls-1" d="M4.85,3.15h0s0-.02,0-.02h0s0,0,0,0h0s-.01,0-.01,0h0s0-.02,0-.02h0s0-.03,0-.03h0s0,0,0,0h0s0,.02,0,.02h0s0,0,0,0v.02s0,.02,0,.02v-.02s-.01-.04-.01-.04v-.03s0-.02,0-.02v-.02s0,0,0,0v.02s.02.01.02.01h.01s0,0,0,0h0s-.02,0-.02,0h0s0-.05,0-.05v-.03s0,0,0,0h0s0,.03,0,.03h0s0,.02,0,.02v-.02s.01-.03.01-.03h0s0,0,0,0h0s0,0,0,0v-.02s0-.04,0-.04v-.04s0-.03,0-.03v-.08s0-.05,0-.05v-.04s0-.01,0-.01v-.03h0s-.01-.01-.01-.01h0s0,0,0,0v.02s-.01,0-.01,0h0s0-.03,0-.03h0s0-.02,0-.02h0s-.07,0-.07,0h-.04s-.11,0-.11,0h-.02s-.02,0-.02,0h-.02s-.04,0-.04,0h-.04s0,.03,0,.03v.05s0,.1,0,.1v.04s0,.04,0,.04v.08s0,.06,0,.06v.03s0,0,0,0h0s0,.02,0,.02h0v.06s-.02,0-.02,0h-.01s0,0,0,0h-.02s0,0,0,0h-.01s-.01,0-.01,0h-.01s0,0,0,0h0s0,0,0,0h-.01s-.01,0-.01,0h-.01s0,0,0,0h0s-.01,0-.01,0h-.02s-.01,0-.01,0h0s0,0,0,0h0s0,0,0,0h-.01s0,0,0,0h0s0-.03,0-.03h0s0-.02,0-.02v-.03s0-.01,0-.01h0v-.1s0-.02,0-.02v-.04s0-.09,0-.09v-.07s0-.06,0-.06v-.06s0-.09,0-.09v-.04s0-.03,0-.03v-.07s0-.04,0-.04v-.06s0-.04,0-.04v-.02s0-.08,0-.08v-.03s0-.08,0-.08v-.02s0-.02,0-.02v-.05s.02-.06.02-.06v-.03s.03,0,.03,0h.03s.01,0,.01,0h.02s0,0,0,0h0s.01,0,.01,0h.01s0,0,0,0h0s.01,0,.01,0h.02s0,0,0,0h0s0,0,0,0h.05s.02,0,.02,0h.02s0,.02,0,.02v.03s0,.02,0,.02v.02s0,.02,0,.02v.02s0,.03,0,.03v.05s0,.06,0,.06v.03s0,.03,0,.03v.06s0,.04,0,.04h0s0,.01,0,.01h.07s.04,0,.04,0h0s0,0,0,0h-.02s0,0,0,0h0s.04,0,.04,0h.11s.09,0,.09,0h.02s0-.01,0-.01v-.02s0-.02,0-.02v-.02h0s0-.03,0-.03v-.02s0-.02,0-.02v-.04s0-.03,0-.03v-.03s0-.03,0-.03v-.05s0-.03,0-.03v-.04s0-.04,0-.04l.02-.02h.02s.02,0,.02,0h.03s.02,0,.02,0h.02s0,0,0,0h0s0,0,0,0h0s.01,0,.01,0h.02s.02,0,.02,0h.02s.02,0,.02,0h.03s0,.02,0,.02v.02s0,.03,0,.03v.13s0,.04,0,.04v.05s0,.02,0,.02v.02s0,.03,0,.03v.05s0,.04,0,.04v.02s0,0,0,0h0s0,.03,0,.03v.03s0,.05,0,.05v.05s0,.02,0,.02h0v.12s0,.06,0,.06v.11s0,.09,0,.09h0s0,.04,0,.04v.03s0,.03,0,.03h0s0,.03,0,.03v.03s0,.03,0,.03v.02s-.01.01-.01.01h-.01s0,0,0,0h-.02s0,0,0,0h0s0-.01,0-.01h0s0,0,0,0h0s0,0,0,0h0s0-.02,0-.02h0v.02s-.02,0-.02,0h0s0,0,0,0h0s0,0,0,0h0s0,.03,0,.03h-.01s0-.01,0-.01h0s0,.02,0,.02h0Z"/>
    <path class="cls-1" d="M5.41,3.16h-.01s-.02,0-.02,0h-.03s-.02,0-.02,0h-.01s-.02,0-.02,0h-.03s-.01,0-.01,0h-.02s0,0,0,0h0s0-.02,0-.02v-.02s0-.03,0-.03v-.04s0-.05,0-.05v-.08s0-.02,0-.02h0v-.09s0-.06,0-.06v-.06s0-.11,0-.11v-.05s0-.06,0-.06v-.04s0-.06,0-.06v-.06s0-.07,0-.07v-.06s0-.04,0-.04v-.07s0-.03,0-.03v-.03s0-.07,0-.07v-.03s0-.05,0-.05h.01s0-.01,0-.01h0s.02,0,.02,0h.03s.02,0,.02,0h0s.03,0,.03,0h0s0,0,0,0h.02s.02,0,.02,0h.01s.02,0,.02,0h.03s.03,0,.03,0h.02s.02,0,.02,0h.14s.03,0,.03,0h.02s.03,0,.03,0h.03s.09,0,.09,0h0s.02,0,.02,0h.06s.02,0,.02,0h.01s0,0,0,0h0s0,.03,0,.03h.01s.01.06.01.06v.02s0,.01,0,.01h0s.01.05.01.05h0s-.01.02-.01.02h-.02s-.02.03-.02.03l-.02.02-.02.02h-.01s-.01,0-.01,0h0s-.01,0-.01,0h-.03s-.03,0-.03,0h0s-.05,0-.05,0h-.22s-.07,0-.07,0h0v.19s0,.02,0,.02h0s.07,0,.07,0h.17s.02,0,.02,0h.02s.02,0,.02,0h.04s.01,0,.01,0h.01s0,0,0,0h.01l.02.02h0s0,.03,0,.03h.01s0,.03,0,.03h0s0,.03,0,.03v.02s0,.01,0,.01h0s0,.03,0,.03h0s0,.03,0,.03h0s0,.01,0,.01h0s0,0,0,0h-.01s-.01.03-.01.03h0v.02h-.02s-.01.02-.01.02h-.11s-.06,0-.06,0h-.06s-.08,0-.08,0h-.05s-.01.01-.01.01h0s0,.05,0,.05v.07s0,.05,0,.05v.04s0,.03,0,.03h.04s.04,0,.04,0h.02s.05,0,.05,0h.02s.05,0,.05,0h.04s.13,0,.13,0h.02s.03,0,.03,0h.03s.02,0,.02,0h0s0,.03,0,.03h0s.01.02.01.02h0s0,.02,0,.02h0s0,.02,0,.02h0s0,0,0,0h0s0,.01,0,.01h0s0,.03,0,.03v.02s-.01.01-.01.01h.01s0,.01,0,.01h0s-.02.01-.02.01h-.02s0,.03,0,.03h0s0,.02,0,.02h-.01s-.02.01-.02.01h-.01s-.04,0-.04,0h-.04s-.12,0-.12,0h-.02s-.01,0-.01,0h-.02s-.1,0-.1,0h-.06s-.08,0-.08,0h-.03s0,0,0,0h0Z"/>
  </g>
  <g>
    <path class="cls-1" d="M7.15,3.27l-.07-.02-.05-.03h-.05s-.05-.03-.05-.03l-.08-.04-.05-.03-.03-.02-.05-.03-.04-.03-.04-.02-.03-.03-.04-.03-.03-.04v-.02s0-.02,0-.02v-.04s.04-.02.04-.02l.02-.02v-.02h0s.03-.04.03-.04h.01s0-.03,0-.03l.02-.02v-.02s.01-.01.01-.01l.03-.03.02-.04h.02s.01-.04.01-.04l.02-.03h.02s0-.04,0-.04h0s.01-.03.01-.03h.03s.02.01.02.01h0v-.02s.02-.01.02-.01l.08.05.1.07.07.04h.07s.08.02.08.02l.1-.04.06-.04.05-.09.04-.13v-.08s-.02-.03-.02-.03l-.02-.04-.02-.05-.02-.02-.02-.02-.03-.02-.02-.02-.03-.04-.03-.03-.03-.03-.02-.02-.03-.02-.12-.1-.08-.08-.05-.06-.11-.13-.08-.14-.02-.06-.02-.09v-.11s0-.15,0-.15l.02-.06.05-.1.03-.05.03-.04.02-.03.05-.06.05-.05.05-.04.06-.05.08-.05.1-.04.05-.02.09-.03.16-.02h.18s.11.02.11.02h.04s.02.02.02.02v.02s0,0,0,0h0s.01.02.01.02h.02s0,.04,0,.04v.02s0,.05,0,.05h-.02,0s0,.03,0,.03v.05s.01.01.01.01h-.02s0,.02,0,.02l.02.02h-.01s.01.02.01.02v.02s0,.02,0,.02h-.02v.02h.01s.02.02.02.02h.01v.02h-.01s-.02.01-.02.01v.03s0,.03,0,.03v.02s-.01.04-.01.04v.05s-.02.02-.02.02l-.03-.02-.09-.03h-.07s-.15-.01-.15-.01l-.09.03-.03.02-.03.02-.04.04-.02.09.05.08.08.08.11.1.07.06.06.07.11.11.11.13.1.13.03.07.05.14.03.14v.09s0,.1,0,.1l-.05.15-.04.08-.08.14-.07.08-.04.04-.03.04-.11.09-.08.05-.08.04-.1.04-.08.02h-.06s-.14.02-.14.02h-.11Z"/>
    <path class="cls-1" d="M10.15,3.22v-.02s-.01-.01-.01-.01h0s0,.02,0,.02v.02s-.03-.02-.03-.02v-.02s0-.03,0-.03v-.03s0-.03,0-.03v-.02s-.02,0-.02,0v.03s-.01.02-.01.02h0s-.01,0-.01,0v.05s0,.05,0,.05l-.02-.04v-.08s0-.05,0-.05v-.04s0-.04,0-.04h0s0,.05,0,.05l.03.03h.03s0-.01,0-.01v-.02s-.04,0-.04,0v-.03s0-.09,0-.09v-.07s.01,0,.01,0v.02s.02.04.02.04h-.01v.03h.01s.01-.04.01-.04v-.06s0-.02,0-.02h-.02v.02h-.02v-.05s0-.09,0-.09v-.08s0-.07,0-.07v-.17s0-.1,0-.1v-.08s0-.03,0-.03v-.07h0s-.02-.03-.02-.03l-.02-.02h0s-.02.05-.02.05h-.01s0-.02,0-.02v-.03s0-.03,0-.03v-.02s-.02,0-.02,0h-.22s-.23.01-.23.01h-.04s-.04,0-.04,0h-.04s-.09.01-.09.01h-.07s0,.07,0,.07v.11s0,.21,0,.21v.09s0,.08,0,.08v.17s-.02.14-.02.14v.06s-.02.02-.02.02v.02s-.02.03-.02.03v.03s-.01.04-.01.04v.05s-.04.02-.04.02h-.02s-.02.01-.02.01h-.04s-.01,0-.01,0h-.02s-.02,0-.02,0l-.02.02h-.02s0,0,0,0h0s-.03,0-.03,0h-.03s-.02.02-.02.02v-.02s-.02,0-.02,0h-.03s-.04,0-.04,0h-.03s-.02.03-.02.03h-.02s0-.02,0-.02h-.02s-.02.02-.02.02l-.02-.02-.02-.03v-.03s0-.02,0-.02v-.02s0-.05,0-.05v-.03h-.02v-.02s0-.15,0-.15v-.04s0-.04,0-.04v-.07s0-.19,0-.19v-.15s0-.12,0-.12v-.12s0-.19,0-.19v-.09s0-.07,0-.07v-.15s0-.08,0-.08v-.13s0-.08,0-.08v-.05s0-.18,0-.18v-.06s0-.16,0-.16v-.04s0-.05,0-.05l.02-.1.02-.12v-.05s.07,0,.07,0h.07s.03,0,.03,0h.04s.02,0,.02,0h.02s.02,0,.02,0h.03s.02,0,.02,0h.01s.03,0,.03,0h.03s0,0,0,0h.02s.02-.02.02-.02h.1s.04,0,.04,0h.04s0,.05,0,.05v.06s0,.04,0,.04v.05s0,.05,0,.05v.04s0,.07,0,.07v.11s0,.13,0,.13v.07s0,.06,0,.06v.13s0,.09,0,.09v.02s.02,0,.02,0h.15s.09,0,.09,0h0s0,.01,0,.01h-.04s-.02,0-.02,0h0s.09,0,.09,0h.24s.18,0,.18,0h.05s0-.03,0-.03v-.04s0-.05,0-.05v-.06s0-.04,0-.04v-.05s0-.05,0-.05v-.09s0-.05,0-.05v-.05s0-.07,0-.07v-.11s0-.06,0-.06v-.09s.01-.09.01-.09l.04-.04h.05s.04,0,.04,0h.07s.04,0,.04,0h.04s.02,0,.02,0h.01s.02,0,.02,0l.02-.02h.03s.04,0,.04,0h.08s.04,0,.04,0h.05s0,.04,0,.04v.05s0,.05,0,.05v.28s0,.09,0,.09v.11s0,.05,0,.05v.04s0,.05,0,.05v.1s0,.09,0,.09v.04s0,.02,0,.02v.03s0,.04,0,.04v.06s0,.1,0,.1v.11s0,.05,0,.05v.03s0,.14,0,.14v.08s.01.12.01.12v.24s0,.19,0,.19v.03s0,.05,0,.05v.07s0,.06,0,.06v.02s0,.03,0,.03v.06s-.01.06-.01.06l-.02.04v.02h-.03s0,.02,0,.02h-.04s-.02.02-.02.02h-.01s-.01-.03-.01-.03h-.02s0,.02,0,.02v.02s-.02,0-.02,0v-.03s-.01-.02-.01-.02h0v.04s-.04,0-.04,0h-.02s0,.01,0,.01h-.01s0-.01,0-.01v.03s-.01.04-.01.04h-.02v-.02s-.03-.01-.03-.01v.02s-.02.03-.02.03h-.01Z"/>
    <path class="cls-1" d="M11.78,3.34l-.1-.03-.08-.04-.08-.05-.11-.07-.07-.05-.07-.07-.06-.07-.05-.07-.05-.08-.04-.08-.02-.05-.05-.11-.03-.08-.04-.16-.02-.15v-.27s.01-.07.01-.07v-.05s.02-.11.02-.11v-.06s.03-.08.03-.08l.02-.07.02-.1.02-.07.02-.04v-.04s.02-.04.02-.04l.02-.04v-.03s.03-.03.03-.03l.02-.06.02-.05.02-.04.04-.05.02-.06.05-.05.04-.06.07-.09.08-.07.09-.06.06-.04.12-.05.1-.04.1-.03.08-.02.07-.02h.23s.06,0,.06,0h.08s.08.04.08.04l.07.03.14.07.11.09.09.1.1.14.06.13.05.13.02.1.02.07v.1s.02.07.02.07v.09s0,.4,0,.4v.11s-.02.09-.02.09v.06s-.02.01-.02.01l-.02.07-.02.1v.04s-.02.03-.02.03v.04s0,.03,0,.03l-.02.07-.02.11-.04.13-.04.1v.04s-.03.02-.03.02l-.03.05-.03.04-.02.04-.03.02-.08.08-.12.09-.07.03-.09.03-.09.02h-.07s-.07.03-.07.03h-.03s-.18,0-.18,0h-.02s-.02,0-.02,0h-.02s-.09.02-.09.02h-.15ZM12.13,2.73h.06s.02-.01.02-.01h.02s.02-.02.02-.02l.04-.02.05-.02.02-.02.03-.03.03-.04.04-.05.02-.08.02-.06v-.04s.02-.03.02-.03v-.04l.02-.04.02-.02v-.05s0-.03,0-.03l.02-.03v-.03s0-.04,0-.04v-.03s0-.05,0-.05v-.07s.02-.05.02-.05v-.04s0-.09,0-.09v-.13s0-.14,0-.14v-.04s0-.02,0-.02v-.03s-.02-.07-.02-.07l-.04-.12-.04-.06-.09-.1-.07-.04-.09-.02-.15.02-.06.02h-.06s-.04.03-.04.03l-.05.04-.03.03v.02s-.04.03-.04.03l-.05.07-.03.05v.03s-.03.05-.03.05v.04s-.02.04-.02.04l-.02.07-.02.05v.04s-.02.05-.02.05v.09s-.03.14-.03.14v.12s0,.1,0,.1v.09s.02.11.02.11l.02.07v.04s.04.05.04.05l.06.09.13.11.13.07.06.03h.02s0,.02,0,.02h.02s.07,0,.07,0Z"/>
    <path class="cls-1" d="M13.71,3.27h-.02s-.01,0-.01,0h-.01s0,.01,0,.01v-.02s-.03-.02-.03-.02l-.02-.02v-.03s-.02-.04-.02-.04v-.07s0-.03,0-.03v-.03s0-.09,0-.09v-.1s-.02-.04-.02-.04v-.02s.02-.03.02-.03v-.07s0-.06,0-.06h0s0-.01,0-.01h0s0,.02,0,.02h-.01s0-.07,0-.07v-.12s0-.08,0-.08v-.04s0-.04,0-.04v-.03s0-.05,0-.05v-.03s0-.04,0-.04v-.09s0-.03,0-.03v-.03s0-.04,0-.04v-.04s0-.03,0-.03v-.03s0-.03,0-.03v-.06s0-.05,0-.05v-.03s0-.04,0-.04v-.04s.01-.04.01-.04v-.02s0-.02,0-.02v-.02s.01-.05.01-.05v-.05s0-.07,0-.07v-.09s0-.02,0-.02v-.14s0-.13,0-.13v-.19s.01-.17.01-.17v-.08s0-.03,0-.03l.02-.02h.02s.04,0,.04,0h.03s.02,0,.02,0l.02-.02h.02s.02,0,.02,0l.02.02h.01s.01-.02.01-.02h.02s.02,0,.02,0h.02s.04,0,.04,0h.02s.04,0,.04,0h.04s.04,0,.04,0h.03s.02,0,.02,0h.02s.02,0,.02,0h.33s.16.02.16.02l.07.02.12.04.07.04.13.1.11.12.05.07.07.17.03.18v.17s0,.07,0,.07v.1s-.04.09-.04.09l-.03.06-.06.11-.07.1-.07.08-.09.08-.14.1-.12.04-.11.03-.18.02h-.14s-.04,0-.04,0h-.02s0,.04,0,.04v.06s0,.03,0,.03v.04l-.02.04v.03s.02.02.02.02v.03s-.02.05-.02.05v.12s0,.09,0,.09v.09s-.01.1-.01.1v.1s-.04.03-.04.03l-.02.02h0s-.02,0-.02,0l-.02.02-.02.03-.02.03h-.02s-.02,0-.02,0h0s0,0,0,0v-.02h0s0-.02,0-.02h0s-.02.02-.02.02v.02s-.01.02-.01.02h-.02s-.02-.01-.02-.01v-.02s-.01,0-.01,0h0s-.01.02-.01.02h-.02s-.01.04-.01.04v.02h-.02v-.03h-.02l-.02.03h-.03s-.04-.02-.04-.02ZM14.28,1.67l.14-.03h.06s.07-.04.07-.04l.06-.04.03-.02.04-.05.04-.1v-.12l-.05-.14-.09-.06-.05-.02h-.04s-.03,0-.03,0h-.21s0,.07,0,.07v.08s0,.03,0,.03v.05s-.01.11-.01.11v.1s0,.05,0,.05v.06s0,.05,0,.05h.01s.05,0,.05,0Z"/>
  </g>
  <path class="cls-1" d="M17.28,1.8c-.13-.14-.14-.14-.26-.28-.13-.14-.14-.14-.27-.28-.14-.13-.14-.14-.28-.27-.14-.14-.16-.12-.29-.25-.05-.05-.11-.1-.17-.15-.03-.02-.06-.05-.08-.08,0,0-.02-.04-.03-.04,0,0,0,0,0,0,0,0,0,0,0,0,0,0,0,0,0,0h0s0,0,0,0c0,0,0,0,0,0,0,0-.01,0-.02,0-.03.03.01.08.01.11,0,.05-.01.09-.02.14,0,0,0,.01,0,.02,0,.03,0,.07,0,.12,0,.19-.02.19-.02.39,0,.19,0,.19,0,.39,0,.19,0,.19,0,.39,0,.19,0,.2,0,.39,0,.19,0,.19,0,.39,0,.19,0,.19,0,.39,0,.15,0,.23,0,.29.07-.07.14-.16.22-.24.14-.14.16-.11.3-.25s.12-.15.26-.29c.13-.14.14-.14.27-.28.13-.14.14-.14.27-.28.12-.11.15-.15.24-.23-.02-.02-.05-.05-.1-.11Z"/>
</svg>