<?xml version="1.0" encoding="UTF-8"?>
<svg id="Layer_1" data-name="Layer 1" xmlns="http://www.w3.org/2000/svg" viewBox="0 0 29.41 5.9">
  <g>
    <path d="M1.04,2.58h-.04s-.04-.03-.04-.03h-.03s-.03-.02-.03-.02l-.05-.03-.03-.02h-.02s-.03-.04-.03-.04l-.02-.02h-.02s-.02-.03-.02-.03l-.03-.02-.02-.02h0s0-.02,0-.02h0s0-.02,0-.02h.02s0-.03,0-.03h0s0-.02,0-.02l.02-.02h0s0-.02,0-.02h.01s0-.02,0-.02h0s.02-.03.02-.03v-.03s.02,0,.02,0v-.02s.02-.02.02-.02h.01s0-.02,0-.02h0s0-.02,0-.02h.02s.01,0,.01,0h0,0s.01-.02.01-.02l.05.03.06.04.05.03h.05s.05.01.05.01l.07-.03.04-.03.04-.06.03-.08v-.05s-.01-.02-.01-.02v-.03s-.02-.03-.02-.03h0s-.01-.03-.01-.03h-.02s-.01-.02-.01-.02l-.02-.02-.02-.02-.02-.02v-.02s-.03-.01-.03-.01l-.08-.07-.05-.05-.04-.04-.07-.08-.05-.09v-.04s-.03-.06-.03-.06v-.07s0-.09,0-.09v-.04s.04-.06.04-.06l.02-.03.02-.03v-.02s.05-.04.05-.04l.03-.03.03-.03.04-.03.05-.03.07-.02h.04s.06-.03.06-.03h.11s.12,0,.12,0h.07s.03.01.03.01h.02s0,.02,0,.02h0s0,0,0,0h0s.01.02.01.02v.02s0,.01,0,.01v.04s0,0,0,0h0s0,.02,0,.02v.02h0v.02h0s0,.01,0,.01l.02.02h0s0,.01,0,.01h0v.03h-.01s0,.02,0,.02h.02s0,.01,0,.01h0s0,0,0,0h-.01s0,.02,0,.02v.02h0v.07s-.01,0-.01,0h-.02s-.06-.03-.06-.03h-.05s-.1,0-.1,0l-.06.02h-.02s-.02.03-.02.03l-.02.03v.06s.02.05.02.05l.05.05.07.07.04.04.04.04.07.07.07.09.06.09.02.04.03.09.02.09v.06s0,.06,0,.06l-.03.1-.03.05-.05.09-.04.05-.03.02-.02.02-.07.06-.05.03-.05.03-.06.02h-.05s-.04.02-.04.02h-.09s-.07,0-.07,0Z"/>
    <path d="M2.24,2.53h-.02s0-.02,0-.02v-.09s0-.03,0-.03v-.03s0-.02,0-.02v-.02s0-.04,0-.04v-.22s0-.06,0-.06v-.16s0-.05,0-.05v-.2s0-.24,0-.24v-.04s0-.07,0-.07v-.06s0-.04,0-.04h-.03s-.12,0-.12,0h-.13s-.07.01-.07.01h-.04s-.02,0-.02,0h0v-.07s0-.01,0-.01v-.02s0-.02,0-.02h0s0-.04,0-.04v-.02s0-.01,0-.01v-.06s0-.02,0-.02v-.02s.01-.06.01-.06v-.02s.03-.02.03-.02h.05s.05,0,.05,0h.11s.04,0,.04,0h.06s.08,0,.08,0h.05s.08,0,.08,0h.05s.05,0,.05,0h.14s.08-.02.08-.02h.12s.03,0,.03,0h.17s.03,0,.03,0h.03s0,.03,0,.03v.03s0,.02,0,.02v.03s0,.02,0,.02h0s0,.03,0,.03h0s0,.02,0,.02v.02s0,.01,0,.01h0s-.01.03-.01.03h0s.02.04.02.04l-.02.02v.02s0,.02,0,.02h.01s-.02.03-.02.03l-.02.02h-.02s-.03,0-.03,0h-.02s-.03.02-.03.02h-.05s-.19,0-.19,0h-.03s-.03.03-.03.03v.13s0,.08,0,.08v.27s0,.38,0,.38v.06s0,.05,0,.05v.05s0,.05,0,.05v.14s0,.08,0,.08v.04s-.02.01-.02.01h-.03s-.03.03-.03.03h0v-.02s-.02,0-.02,0h0s0,0,0,0v.02s-.01,0-.01,0v-.02h-.02s-.01.01-.01.01h-.02s0,0,0,0h0s-.01,0-.01,0h-.01s-.02,0-.02,0h-.02s-.01,0-.01,0h0s-.01,0-.01,0h0s-.06,0-.06,0Z"/>
    <path d="M4.12,2.54l-.03-.06-.06-.08-.03-.04-.07-.09-.06-.08-.04-.06-.03-.03-.03-.04-.11-.13-.03-.03h0v.1s0,.05,0,.05v.09s0,.06,0,.06v.03s0,.07,0,.07v.1s0,.06,0,.06l-.02.03h-.03s-.02,0-.02,0h-.02s0,.01,0,.01h-.02s-.03.01-.03.01h-.01s0,0,0,0h-.01s-.01,0-.01,0h-.03s-.01,0-.01,0h-.02s0,0,0,0h0s-.04,0-.04,0h-.03s-.03,0-.03,0h0s0-.01,0-.01h0s0-.07,0-.07v-.14s0-.04,0-.04v-.09s0-.05,0-.05v-.06s0-.04,0-.04v-.03s0-.06,0-.06v-.05s0-.06,0-.06v-.06s0-.03,0-.03v-.04s0-.08,0-.08v-.06s0-.05,0-.05v-.04s0-.06,0-.06v-.03s0-.05,0-.05v-.05s0-.1,0-.1v-.02s0-.04,0-.04v-.04s0-.02,0-.02v-.19s0-.04,0-.04v-.03s0,0,0,0h0s.02,0,.02,0h.05s.01,0,.01,0h0s.02,0,.02,0h.03s.01,0,.01,0h.02s.01,0,.01,0h.08s.05,0,.05,0h.02s.02,0,.02,0h.02s.04,0,.04,0h.04s.03,0,.03,0h.03s.02,0,.02,0h.09s.03,0,.03,0h.04s.03.02.03.02h.02s.02.01.02.01l.07.02.06.04.04.03.03.03.03.05.02.07.02.06v.04s.02.02.02.02v.04s.02.06.02.06v.03s0,.04,0,.04v.04s0,0,0,0v.03s0,.03,0,.03v.02s-.02.05-.02.05l-.02.06v.03s-.06.06-.06.06v.02s-.05.03-.05.03l-.03.03-.02.02-.04.03-.02.02v.03s.03.02.03.02l.04.04.06.07.06.08.05.06.04.05.06.09.04.07.02.05.02.04-.02.02-.02.02h-.01s-.01,0-.01,0h0s0,.03,0,.03h-.02v.02s-.02,0-.02,0h0s-.02.01-.02.01h-.02s0,.02,0,.02h0s-.01,0-.01,0h0s0,.02,0,.02h-.01s-.01.02-.01.02h0s0,0,0,0h-.01s-.01.01-.01.01h-.03s-.02-.03-.02-.03ZM3.69,1.52h.05s.06,0,.06,0h.01s.03-.03.03-.03l.04-.03.03-.03.02-.04v-.05s0-.07,0-.07l-.03-.08-.03-.02h-.03s-.05-.03-.05-.03h-.04s-.05,0-.05,0h-.06s0,.04,0,.04v.21s0,.09,0,.09v.05h0s.06,0,.06,0Z"/>
    <path d="M4.75,2.52h-.03s-.01,0-.01,0h0s0,0,0,0h-.01s-.02,0-.02,0h-.02s-.01,0-.01,0h0s0,0,0,0h-.01s-.02,0-.02,0h-.01s-.02,0-.02,0h-.01s0,0,0,0h0s0,0,0,0h-.02s0-.03,0-.03v-.04s.03-.08.03-.08v-.05s.03-.09.03-.09l.02-.08v-.05s.02-.06.02-.06l.02-.08.02-.08.02-.1v-.06s.03-.11.03-.11v-.06s.03-.11.03-.11v-.07s.03-.06.03-.06l.02-.09.02-.09.02-.09.02-.08.03-.07v-.04s.03-.04.03-.04v-.03s.01-.01.01-.01h.01s0,0,0,0h.03s.02.01.02.01h.01s.02,0,.02,0h.02s0,0,0,0h.02s.02,0,.02,0h.02s.02,0,.02,0h.01s0,0,0,0h.01s.02,0,.02,0h.02s.02,0,.02,0h.04s.03,0,.03,0h.01s.01,0,.01,0h0s0,0,0,0h0s.02.05.02.05l.02.04.02.06.03.08.02.06v.04s.03.08.03.08v.05s.02.03.02.03l.02.06.02.06.02.05v.05s.03.05.03.05l.04.14v.05s.04.1.04.1l.02.07v.02s.01.04.01.04v.05s.04.14.04.14v.03s0,.04,0,.04v.06s.02.05.02.05v.03s.01.03.01.03v.02l-.02.02h-.02s-.02.02-.02.02h-.01s-.01,0-.01,0h-.02s-.01.02-.01.02h0s-.03.01-.03.01h0s0,0,0,0h-.01s0,.02,0,.02h-.02s-.01,0-.01,0h-.01s-.02.03-.02.03h0s0-.01,0-.01h-.04s-.04.02-.04.02v-.02s-.03-.06-.03-.06l-.02-.07-.02-.08-.02-.08h-.04s-.05,0-.05,0h-.04s-.18,0-.18,0h-.04s0,.02,0,.02v.03s-.02.02-.02.02v.06s-.02.05-.02.05v.05s-.03.06-.03.06h-.02s-.02.02-.02.02h-.02s-.02.01-.02.01h0s-.01,0-.01,0h-.02s0,0,0,0h0s0,0,0,0ZM5.21,1.83v-.05s-.02-.07-.02-.07v-.03s-.01-.02-.01-.02v-.05s-.03-.05-.03-.05v-.05s-.03-.05-.03-.05v-.02s-.01,0-.01,0h0s-.01.06-.01.06v.06s-.03.06-.03.06l-.02.1v.05s-.02.06-.02.06h.03s.06,0,.06,0h.04s.03,0,.03,0h.02Z"/>
    <path d="M5.97,2.59v-.03s-.03,0-.03,0h-.01s-.01-.02-.01-.02v-.03s-.02-.03-.02-.03v-.02s-.01-.03-.01-.03v-.02h0v-.04s0-.04,0-.04v-.02s0-.01,0-.01v-.09s0-.01,0-.01v-.03s0-.04,0-.04v-.03s0-.03,0-.03v-.05s0-.19,0-.19v-.03s0-.03,0-.03v-.08s0-.02,0-.02v-.02s0-.06,0-.06v-.05s.01-.13.01-.13v-.04s0-.06,0-.06v-.07s0-.07,0-.07v-.08s0-.1,0-.1v-.12s0-.08,0-.08v-.02s.03,0,.03,0h.02s.02,0,.02,0h.14s.01,0,.01,0h.01s.02,0,.02,0h.02s.01,0,.01,0h0s.02,0,.02,0h.02s.02,0,.02,0h.01s.02,0,.02,0v.05s0,.05,0,.05v.09s0,.04,0,.04v.04s0,.03,0,.03v.04s0,.03,0,.03v.02s0,0,0,0h0s0,0,0,0h0s-.01.02-.01.02h0s0,.01,0,.01v.02s0,.01,0,.01v.1s0,.01,0,.01h0s0,.01,0,.01v.03h0s0,.02,0,.02h0v.04h-.02v.04s0,.01,0,.01h0v.02h0v.02h0s0,.04,0,.04v.03h0s0,.02,0,.02v.09s.01.05.01.05v.08s0,.06,0,.06v.16s0,.05,0,.05v.04s0,.06,0,.06v.05s0,.07,0,.07v.07s0,.03,0,.03v.04s-.01.03-.01.03h-.01s-.02.03-.02.03h-.01s-.02,0-.02,0v.02s-.02,0-.02,0h-.01s-.01,0-.01,0h-.01s-.01,0-.01,0h0s0,0,0,0h0s0,.04,0,.04h0s0-.04,0-.04h-.02s-.02.03-.02.03h0s0,0,0,0h0s-.01-.02-.01-.02h-.01s0,.04,0,.04v.02h-.01v-.03h0s-.01,0-.01,0h-.01s0,.02,0,.02v.03s-.01.02-.01.02h0s0-.06,0-.06Z"/>
    <path d="M7.16,2.63h-.07s-.03-.01-.03-.01h-.04s-.02-.03-.02-.03h-.02s-.04-.03-.04-.03h-.03s-.01-.02-.01-.02h-.02s0,0,0,0l-.03-.02-.05-.04-.03-.03h-.02s-.01-.02-.01-.02l-.03-.04-.02-.04v-.02s-.02-.02-.02-.02l-.03-.03-.02-.05-.02-.04v-.02s0-.02,0-.02h0s0-.02,0-.02v-.02s-.01-.02-.01-.02v-.04s-.02-.06-.02-.06v-.05s-.01-.03-.01-.03v-.05s-.02-.09-.02-.09v-.06s0-.03,0-.03v-.12s0-.05,0-.05v-.03s.01-.01.01-.01v-.03s0-.03,0-.03h0s.01-.03.01-.03v-.02s0,0,0,0v-.02s0-.04,0-.04v-.03s.02-.02.02-.02v-.04s.01-.03.01-.03l.02-.04v-.06s.03-.02.03-.02l.02-.04.03-.06v-.03s.03,0,.03,0l.06-.06.04-.03.04-.04.04-.02.09-.04.06-.02h0s.03,0,.03,0h.04s.02-.02.02-.02h.02s.01,0,.01,0h.02s.02,0,.02,0h.04s.02,0,.02,0h.02s.04,0,.04,0h.08s.02,0,.02,0h.02s.06.02.06.02h.02s.03,0,.03,0h.03s.05.03.05.03l.05.03.06.04.02.02h0s0,.03,0,.03v.02s-.03.01-.03.01h0s0,.03,0,.03h-.01s0,.02,0,.02v.03s-.03,0-.03,0h0s0,.01,0,.01h-.02s0,.01,0,.01v.02s-.02,0-.02,0h0s-.01.02-.01.02h0s-.01.02-.01.02v.03s-.02.01-.02.01h0s-.01.02-.01.02v.02h-.04s-.03-.02-.03-.02l-.04-.02h-.03s-.07-.03-.07-.03h-.06s-.01,0-.01,0h0s-.01,0-.01,0h-.04s-.04,0-.04,0h-.01s0,.02,0,.02h-.05s-.05.05-.05.05l-.04.04-.04.08-.03.09v.05s-.02.04-.02.04v.05s0,.05,0,.05v.03s0,.06,0,.06v.04s0,.02,0,.02v.07s.02.06.02.06v.05s.02.04.02.04l.02.05.02.06.02.04.03.06.06.04.05.02.04.02h.05s.03.02.03.02h.03s.04,0,.04,0h.03s.03-.03.03-.03l.02-.03v-.02s0-.06,0-.06v-.09s-.01-.08-.01-.08v-.07s-.03,0-.03,0l-.18.02h-.08s-.02,0-.02,0h0s0-.01,0-.01h0s0-.02,0-.02h0v-.04s0-.03,0-.03v-.03s0-.01,0-.01h0s0-.03,0-.03v-.02s0-.01,0-.01v-.02s0-.03,0-.03v-.02s0-.06,0-.06h0s0-.03,0-.03v-.02s0,0,0,0l.04-.02h.07s.09-.02.09-.02h.09s.07,0,.07,0h.03s.06,0,.06,0h.08s.01,0,.01,0h.02s.03,0,.03,0h.02s0,0,0,0h.02s.01,0,.01,0h.02s.02,0,.02,0v.02s.01.06.01.06v.08s0,.08,0,.08v.11s0,.08,0,.08v.13s0,.05,0,.05v.13s-.01.05-.01.05v.04s-.03.01-.03.01l-.02.04-.02.04h0s0,.03,0,.03l-.02.03-.02.02-.04.04-.06.05-.04.02h-.01s-.03.03-.03.03l-.03.02v.02h-.05s-.02,0-.02,0h-.02s-.03.02-.03.02h-.02s-.02,0-.02,0h-.03s-.03,0-.03,0h-.03s-.03,0-.03,0h-.03s-.01,0-.01,0h0s-.02,0-.02,0Z"/>
    <path d="M9.11,2.55v-.02s0,0,0,0h0s0,0,0,0h0s-.01,0-.01,0h0s0-.03,0-.03v-.02s0-.02,0-.02v-.02s-.01,0-.01,0v.02s0,0,0,0h0s0,0,0,0v.03s0,.03,0,.03v-.02s-.01-.05-.01-.05v-.04s-.01-.02-.01-.02v-.03s.01,0,.01,0v.03s.02.02.02.02h.02s0,0,0,0h0s-.03,0-.03,0v-.02s0-.06,0-.06v-.05s0,0,0,0v.02s.02.02.02.02h0v.02h0s0-.02,0-.02v-.04s0-.01,0-.01h-.02s0,.01,0,.01v-.03s0-.06,0-.06v-.05s0-.04,0-.04v-.11s0-.06,0-.06v-.05s0-.02,0-.02v-.04h0s-.02-.02-.02-.02v-.02s-.02,0-.02,0v.03s-.02,0-.02,0v-.02s0-.02,0-.02v-.02h0s-.01-.02-.01-.02h-.14s-.15,0-.15,0h-.03s-.03,0-.03,0h-.03s-.06,0-.06,0h-.05s0,.04,0,.04v.07s0,.14,0,.14v.06s0,.05,0,.05v.11s-.01.09-.01.09v.04s-.01,0-.01,0h0s0,.03,0,.03v.02s0,.03,0,.03v.04s-.02.01-.02.01h-.02s0,0,0,0h-.03s0,0,0,0h-.01s-.02,0-.02,0h-.01s-.01,0-.01,0h0s0,0,0,0h-.02s-.02,0-.02,0h-.02s0,0,0,0h0s-.02,0-.02,0h-.02s-.02,0-.02,0h0s-.01,0-.01,0h0s-.01,0-.01,0h-.02s0-.01,0-.01v-.02s-.01-.02-.01-.02h0s0-.03,0-.03v-.04s0-.02,0-.02h-.01v-.14s0-.03,0-.03v-.05s0-.12,0-.12v-.1s0-.08,0-.08v-.08s0-.12,0-.12v-.06s0-.04,0-.04v-.1s0-.05,0-.05v-.08s0-.05,0-.05v-.03s0-.11,0-.11v-.04s0-.11,0-.11v-.02s0-.03,0-.03v-.07s.02-.08.02-.08v-.04s.05,0,.05,0h.04s.02,0,.02,0h.02s0,0,0,0h.01s.01,0,.01,0h.02s.01,0,.01,0h0s.02,0,.02,0h.02s0,0,0,0h.01s.01-.01.01-.01h.07s.03,0,.03,0h.03s0,.03,0,.03v.04s0,.02,0,.02v.03s0,.03,0,.03v.03s0,.05,0,.05v.07s0,.09,0,.09v.04s0,.04,0,.04v.09s0,.06,0,.06h0s.01.02.01.02h.1s.06,0,.06,0h0s0,0,0,0h-.03s0,0,0,0h0s.06,0,.06,0h.15s.12,0,.12,0h.03s0-.02,0-.02v-.03s0-.03,0-.03v-.04s0-.03,0-.03v-.03s0-.03,0-.03v-.06s0-.04,0-.04v-.04s0-.04,0-.04v-.07s0-.04,0-.04v-.06s0-.06,0-.06l.03-.03h.03s.02,0,.02,0h.04s.02,0,.02,0h.03s.01,0,.01,0h0s0,0,0,0h.01s.02,0,.02,0h.02s.03,0,.03,0h.03s.03,0,.03,0h.04s0,.03,0,.03v.03s0,.04,0,.04v.18s0,.06,0,.06v.07s0,.03,0,.03v.03s0,.04,0,.04v.06s0,.06,0,.06v.02s0,.01,0,.01v.02s0,.02,0,.02v.04s0,.07,0,.07v.07s0,.03,0,.03v.02s0,.09,0,.09v.05s0,.08,0,.08v.15s0,.12,0,.12v.02s0,.04,0,.04v.04s0,.04,0,.04v.02s0,.02,0,.02v.04s0,.04,0,.04v.02s-.02.02-.02.02h-.01s0,.01,0,.01h-.03s-.01.01-.01.01h0s0-.02,0-.02h-.01s0,.01,0,.01h0s-.01.01-.01.01v-.02s0-.01,0-.01h0v.03s-.02,0-.02,0h-.01s0,0,0,0h0s0,0,0,0v.02s0,.02,0,.02h-.02s-.01-.02-.01-.02h0s0,.03,0,.03h0Z"/>
    <path d="M10,2.53h-.02s0-.02,0-.02v-.09s0-.03,0-.03v-.03s0-.02,0-.02v-.02s0-.04,0-.04v-.22s0-.06,0-.06v-.16s0-.05,0-.05v-.2s0-.24,0-.24v-.04s0-.07,0-.07v-.06s0-.04,0-.04h-.03s-.12,0-.12,0h-.13s-.07.01-.07.01h-.04s-.02,0-.02,0h0v-.07s0-.01,0-.01v-.02s0-.02,0-.02h0s0-.04,0-.04v-.02s0-.01,0-.01v-.06s0-.02,0-.02v-.02s.01-.06.01-.06v-.02s.03-.02.03-.02h.05s.04,0,.04,0h.11s.04,0,.04,0h.06s.08,0,.08,0h.05s.08,0,.08,0h.05s.05,0,.05,0h.14s.08-.02.08-.02h.12s.03,0,.03,0h.17s.03,0,.03,0h.03s0,.03,0,.03v.03s0,.02,0,.02v.03s0,.02,0,.02h0s0,.03,0,.03h0s0,.02,0,.02v.02s0,.01,0,.01h0s-.01.03-.01.03h0s.02.04.02.04l-.02.02v.02s0,.02,0,.02h.01s-.02.03-.02.03l-.02.02h-.02s-.03,0-.03,0h-.02s-.03.02-.03.02h-.05s-.19,0-.19,0h-.03s-.03.03-.03.03v.13s0,.08,0,.08v.27s0,.38,0,.38v.06s0,.05,0,.05v.05s0,.05,0,.05v.14s0,.08,0,.08v.04s-.02.01-.02.01h-.03s-.03.03-.03.03h0v-.02s-.02,0-.02,0h0s0,0,0,0v.02s-.01,0-.01,0v-.02h-.02s-.01.01-.01.01h-.02s0,0,0,0h0s-.01,0-.01,0h-.01s-.02,0-.02,0h-.02s-.01,0-.01,0h0s-.01,0-.01,0h0s-.06,0-.06,0Z"/>
  </g>
  <g>
    <path d="M1.17,5.34h-.03s0-.02,0-.02v-.11s0-.04,0-.04v-.03s0-.02,0-.02v-.03s0-.04,0-.04v-.28s0-.08,0-.08v-.2s0-.06,0-.06v-.25s0-.3,0-.3v-.06s-.01-.09-.01-.09v-.08s0-.05,0-.05h-.04s-.16,0-.16,0h-.16s-.09.02-.09.02h-.05s-.03,0-.03,0v-.02s0-.03,0-.03v-.03s0-.02,0-.02v-.02s.01-.03.01-.03v-.02s0-.03,0-.03v-.02s0-.02,0-.02v-.07s0-.03,0-.03v-.03s.02-.08.02-.08v-.02s.04-.03.04-.03h.06s.06,0,.06,0h.14s.04,0,.04,0h.08s.1,0,.1,0h.06s.1,0,.1,0h.07s.06,0,.06,0h.17s.1-.02.1-.02h.15s.04,0,.04,0h.22s.04,0,.04,0h.04s0,.04,0,.04v.04s0,.03,0,.03v.03s0,.02,0,.02v.02s-.02.02-.02.02h0s0,.02,0,.02v.03s0,.01,0,.01v.02s-.01.01-.01.01v.02s.01.03.01.03l-.02.03v.02s0,.02,0,.02h.01s-.02.03-.02.03l-.02.03h-.02s-.04,0-.04,0l-.03.02h-.03s-.07,0-.07,0h-.24s-.03.02-.03.02l-.04.02v.16s.01.1.01.1v.34s0,.48,0,.48v.07s-.01.06-.01.06v.06s0,.06,0,.06v.17s0,.1,0,.1v.04s-.02.01-.02.01h-.04s-.03.04-.03.04h0v-.03s-.03,0-.03,0h0s-.01,0-.01,0v.02s-.02,0-.02,0v-.02h-.02s-.02.02-.02.02h-.02s-.01,0-.01,0h-.01s-.01,0-.01,0h-.02s-.02,0-.02,0h-.02s-.02,0-.02,0h0s-.02,0-.02,0h0s-.08,0-.08,0Z"/>
    <path d="M2.96,5.46l-.08-.02-.07-.03-.07-.04-.09-.06-.05-.04-.06-.06-.05-.05-.04-.06-.04-.06-.03-.07-.02-.04-.04-.09-.02-.06-.03-.13-.02-.12v-.22s0-.05,0-.05v-.04s.01-.09.01-.09v-.05s.02-.06.02-.06l.02-.05.02-.08.02-.05.02-.03v-.03s.02-.03.02-.03v-.03s.02-.02.02-.02l.02-.02.02-.05.02-.04v-.03s.04-.04.04-.04l.02-.05.04-.04.03-.05.06-.07.07-.06.07-.05.05-.03.1-.04.08-.03.08-.02h.07s.06-.03.06-.03h.18s.05,0,.05,0h.07s.07.03.07.03l.06.03.11.06.09.08.08.08.08.11.05.1.04.1.02.08v.06s.02.08.02.08v.06s0,.07,0,.07v.41s-.02.07-.02.07v.05s-.02.01-.02.01l-.02.06-.02.08v.03s-.01.02-.01.02v.03s0,.02,0,.02v.05s-.03.09-.03.09l-.03.1-.03.08v.03s-.02.02-.02.02l-.02.04-.03.03-.02.03h-.03s-.06.08-.06.08l-.1.07-.06.03-.07.03-.07.02h-.06s-.05.02-.05.02h-.02s-.15,0-.15,0h-.01s-.01,0-.01,0h-.02s-.07.02-.07.02h-.12ZM3.24,4.97h.05s.02,0,.02,0h.02s.01-.02.01-.02h.03s.04-.03.04-.03h.01s.02-.04.02-.04l.03-.03.03-.04.02-.06.02-.05v-.03s.02-.02.02-.02v-.07s.03-.02.03-.02v-.04s0-.02,0-.02l.02-.02v-.03s0-.03,0-.03v-.02s0-.04,0-.04v-.06s.01-.05.01-.05v-.03s0-.07,0-.07v-.11s0-.11,0-.11v-.03s0-.02,0-.02v-.03s-.02-.05-.02-.05l-.04-.1-.03-.05-.07-.08-.06-.03-.07-.02-.12.02-.05.02h-.05s-.03.02-.03.02l-.04.03-.03.02v.02s-.03.02-.03.02l-.04.06-.03.04v.03s-.03.04-.03.04v.03s-.02.03-.02.03v.05s-.03.04-.03.04v.03s-.02.05-.02.05v.08s-.02.11-.02.11v.1s0,.08,0,.08v.08s.02.09.02.09l.02.06v.03s.03.04.03.04l.05.07.1.09.1.06.05.02h.01s0,.02,0,.02h.01s.06,0,.06,0Z"/>
    <path d="M5.68,5.34h-.02s0-.02,0-.02v-.11s0-.04,0-.04v-.03s0-.02,0-.02v-.03s0-.04,0-.04v-.28s0-.08,0-.08v-.2s0-.06,0-.06v-.25s0-.3,0-.3v-.06s0-.09,0-.09v-.08s0-.05,0-.05h-.04s-.16,0-.16,0h-.16s-.09.02-.09.02h-.05s-.02,0-.02,0v-.02s0-.03,0-.03v-.03s0-.02,0-.02v-.02s.01-.03.01-.03v-.02s0-.03,0-.03v-.02s0-.02,0-.02v-.07s0-.03,0-.03v-.03s.02-.08.02-.08v-.02s.04-.03.04-.03h.06s.06,0,.06,0h.14s.05,0,.05,0h.08s.1,0,.1,0h.06s.1,0,.1,0h.07s.06,0,.06,0h.18s.1-.02.1-.02h.15s.04,0,.04,0h.22s.04,0,.04,0h.04s0,.04,0,.04v.04s0,.03,0,.03v.03s0,.02,0,.02v.02s-.02.02-.02.02h0s0,.02,0,.02v.03s.01.01.01.01v.02s-.01.01-.01.01v.02s.01.03.01.03l-.02.03v.02s0,.02,0,.02h.01s-.02.03-.02.03l-.02.03h-.03s-.04,0-.04,0l-.03.02h-.03s-.07,0-.07,0h-.24s-.03.02-.03.02l-.04.02v.16s0,.1,0,.1v.34s0,.48,0,.48v.07s0,.06,0,.06v.06s0,.06,0,.06v.17s0,.1,0,.1v.04s-.02.01-.02.01h-.04s-.03.04-.03.04h-.01v-.03s-.02,0-.02,0h0s-.01,0-.01,0v.02s-.02,0-.02,0v-.02h-.02s-.02.02-.02.02h-.02s-.01,0-.01,0h-.01s-.01,0-.01,0h-.02s-.02,0-.02,0h-.02s-.02,0-.02,0h0s-.02,0-.02,0h0s-.08,0-.08,0Z"/>
    <path d="M8.28,5.36v-.02s0,0,0,0h0s0,.01,0,.01v.02s-.03-.01-.03-.01v-.02s0-.03,0-.03v-.02s0-.02,0-.02v-.02s-.02,0-.02,0v.02s0,.01,0,.01h0s-.01,0-.01,0v.04s0,.04,0,.04l-.02-.03v-.06s0-.05,0-.05v-.03s0-.03,0-.03h0s0,.04,0,.04l.03.02h.02s0,0,0,0v-.02s-.03,0-.03,0v-.02s0-.07,0-.07v-.06s0,0,0,0v.02s.02.03.02.03h0v.02h0s0-.03,0-.03v-.05s0-.01,0-.01h-.02v.02h-.02v-.04s0-.07,0-.07v-.07s0-.05,0-.05v-.14s0-.08,0-.08v-.06s0-.02,0-.02v-.05h0s-.02-.02-.02-.02v-.02s-.02.01-.02.01v.03s-.02,0-.02,0v-.03s0-.02,0-.02v-.04s-.02,0-.02,0h-.18s-.18,0-.18,0h-.04s-.03,0-.03,0h-.04s-.07.01-.07.01h-.06s0,.06,0,.06v.09s0,.17,0,.17v.07s0,.06,0,.06v.14s-.02.11-.02.11v.05s-.01.01-.01.01h-.01s0,.04,0,.04v.02s0,.03,0,.03v.04s-.03.02-.03.02h-.02s-.01,0-.01,0h-.03s0,0,0,0h-.02s-.02,0-.02,0h-.02s-.01,0-.01,0h0s0,0,0,0h-.02s-.02,0-.02,0h-.02s-.01,0-.01,0h0s-.02,0-.02,0h-.03s-.02,0-.02,0v.02s-.03,0-.03,0h0s-.02,0-.02,0h-.02s-.01-.01-.01-.01v-.02s-.02-.03-.02-.03v-.02s0-.02,0-.02v-.04s0-.03,0-.03h-.02v-.17s0-.03,0-.03v-.06s0-.15,0-.15v-.12s0-.1,0-.1v-.1s0-.15,0-.15v-.08s0-.06,0-.06v-.12s0-.06,0-.06v-.1s0-.07,0-.07v-.04s0-.14,0-.14v-.05s0-.13,0-.13v-.03s0-.04,0-.04v-.08s.03-.1.03-.1v-.04s.06,0,.06,0h.05s.02,0,.02,0h.03s.01,0,.01,0h.02s.02,0,.02,0h.02s.02,0,.02,0h0s.02,0,.02,0h.03s0,0,0,0h.01s.02-.02.02-.02h.08s.03,0,.03,0h.03s0,.04,0,.04v.05s0,.03,0,.03v.04s0,.04,0,.04v.03s0,.06,0,.06v.09s0,.11,0,.11v.05s0,.05,0,.05v.11s0,.07,0,.07v.02s.02,0,.02,0h.12s.07,0,.07,0h0s0,.01,0,.01h-.03s-.01,0-.01,0h0s.07,0,.07,0h.19s.15,0,.15,0h.04s0-.03,0-.03v-.03s0-.04,0-.04v-.05s0-.03,0-.03v-.04s0-.04,0-.04v-.07s0-.04,0-.04v-.04s0-.05,0-.05v-.09s0-.05,0-.05v-.08s0-.08,0-.08l.03-.03h.04s.03,0,.03,0h.06s.03,0,.03,0h.03s.02,0,.02,0h0s.01,0,.01,0h.02s.02,0,.02,0h.03s.04-.01.04-.01h.03s.03,0,.03,0h.04s0,.03,0,.03v.04s0,.05,0,.05v.23s0,.08,0,.08v.09s0,.04,0,.04v.03s0,.04,0,.04v.08s0,.08,0,.08v.03s0,.02,0,.02v.02s0,.03,0,.03v.05s0,.08,0,.08v.09s0,.04,0,.04v.03s0,.11,0,.11v.07s0,.1,0,.1v.19s0,.15,0,.15v.03s0,.04,0,.04v.05s0,.05,0,.05v.02s0,.03,0,.03v.05s-.01.05-.01.05l-.02.03v.02h-.02s0,.02,0,.02h-.04s-.01.01-.01.01h0s0-.02,0-.02h-.01s0,.02,0,.02v.02s-.02,0-.02,0v-.03s0-.02,0-.02h0v.03s-.03,0-.03,0h-.02s0,0,0,0h0s0,0,0,0v.02s0,.03,0,.03h-.01v-.02s-.03,0-.03,0v.02s-.02.02-.02.02h0Z"/>
    <path d="M9.25,5.38h-.02s-.04,0-.04,0h-.05s-.04,0-.04,0h-.02s-.03,0-.03,0h-.05s-.02,0-.02,0h-.03s-.02-.01-.02-.01h-.01s0-.03,0-.03v-.04s.01-.05.01-.05v-.06s0-.09,0-.09v-.14s0-.04,0-.04v-.02s0-.06,0-.06v-.07s0-.1,0-.1v-.11s0-.19,0-.19v-.09s0-.1,0-.1v-.06s0-.1,0-.1v-.11s0-.12,0-.12v-.11s0-.06,0-.06v-.12s.01-.06.01-.06v-.05s0-.11,0-.11v-.05s0-.09,0-.09h.02s.01-.02.01-.02h.02s.03,0,.03,0h.05s.03,0,.03,0h.02s.06,0,.06,0h.01s.01,0,.01,0h.03s.04,0,.04,0h.02s.04,0,.04,0h.06s.05,0,.05,0h.03s.03-.01.03-.01h.25s.04.02.04.02h.04s.05.01.05.01h.06s.15,0,.15,0h.01s.03,0,.03,0h.11s.04,0,.04,0h.02s.01.02.01.02v.02s.02.03.02.03l.02.02.02.08v.04s-.02.02-.02.02v.02l.02.06v.02s0,.01,0,.01h-.03s-.03.05-.03.05l-.04.04-.04.03h-.02s-.02-.01-.02-.01h-.01s-.02,0-.02,0h-.05s-.05,0-.05,0h-.02s-.09,0-.09,0h-.38s-.12,0-.12,0v.02s0,.21,0,.21v.09s0,.04,0,.04h.01s.11,0,.11,0h.29s.04,0,.04,0h.03s.03,0,.03,0h.06s.02.01.02.01h.02s.02,0,.02,0h.02l.03.03v.02s.01.03.01.03l.02.03v.03s0,.02,0,.02v.02s0,.03,0,.03v.02s0,.02,0,.02v.03s0,.03,0,.03v.02s0,.01,0,.01h0s0,.02,0,.02h-.02s-.02.02-.02.02l-.02.04v.02s0,.01,0,.01h-.04s-.02.03-.02.03h-.19s-.11,0-.11,0h-.11s-.14,0-.14,0h-.08s-.02.03-.02.03v.02s0,.07,0,.07v.12s0,.08,0,.08v.06s0,.05,0,.05h.06s.07,0,.07,0h.03s.09,0,.09,0h.04s.08.02.08.02h.08s.22,0,.22,0h.04s.05,0,.05,0h.05s.04,0,.04,0v.02s.02.02.02.02v.03s.02.02.02.02v.02s-.02.02-.02.02h.01s0,.03,0,.03h-.01s-.01.01-.01.01h0s.02.02.02.02v.02s0,.03,0,.03v.04s-.02.02-.02.02l.02.02h.01s0,.02,0,.02h-.03s-.03.03-.03.03v.03s0,.02,0,.02h0s-.02.02-.02.02h-.03s-.02.02-.02.02h-.06s-.07,0-.07,0h-.24s-.02.01-.02.01h-.04s-.17,0-.17,0h-.11s-.13,0-.13,0h-.06s-.01.02-.01.02h0Z"/>
  </g>
  <g>
    <path d="M12.16,5.33l-.11-.03-.09-.05h-.08s-.08-.04-.08-.04l-.13-.06-.08-.05-.05-.04-.08-.05-.06-.04-.06-.03-.04-.04-.06-.05-.05-.06v-.03s0-.03,0-.03v-.03l.02-.03.04-.03.03-.03v-.05s.06-.05.06-.05h.02s0-.04,0-.04l.03-.03v-.03s.02-.02.02-.02l.05-.04.03-.06h.03s.02-.07.02-.07l.03-.05.03-.02v-.04s.02-.01.02-.01l.02-.04h.05s.03.02.03.02h.01v-.03s.03-.02.03-.02l.13.08.16.11.12.07.12.02h.13s.17-.06.17-.06l.1-.06.09-.15.07-.21v-.13s-.03-.05-.03-.05l-.03-.07-.03-.08-.03-.03-.03-.04-.04-.03-.03-.03-.04-.06-.05-.05-.05-.05-.03-.04-.04-.03-.2-.17-.13-.13-.09-.1-.18-.21-.13-.22-.04-.1-.04-.15v-.18s0-.24,0-.24l.03-.1.08-.16.05-.08.04-.06.03-.04.09-.1.08-.08.08-.07.1-.08.13-.08.17-.06.09-.04.14-.05.27-.03h.3s.18.03.18.03h.06s.04.03.04.03v.03s-.01,0-.01,0h-.01s.02.04.02.04h.03s0,.06,0,.06l-.02.03.03.09h-.03v.02s.02.03.02.03v.05l.02.04v.02h-.03s0,.03,0,.03l.04.04-.02.02.02.02v.03s0,.03,0,.03h-.03v.03l.02.02.04.02.02.02h0s-.02.02-.02.02h-.03s0,.06,0,.06v.05l-.02.03v.07l-.02.08-.02.03-.04-.03-.15-.05-.12-.02h-.25l-.15.05-.05.04-.05.04-.06.06-.03.14.08.13.13.13.17.17.11.1.1.11.18.18.18.22.16.22.05.11.08.24.04.23v.15s0,.16,0,.16l-.08.24-.06.13-.13.23-.12.13-.07.06-.05.06-.18.15-.13.08-.13.07-.16.06-.13.04-.1.02-.23.02h-.19Z"/>
    <path d="M17.06,5.25v-.04s-.02-.02-.02-.02h-.01s0,.03,0,.03v.03s-.05-.03-.05-.03l-.02-.03v-.05s-.01-.04-.01-.04v-.05s0-.04,0-.04h-.03s0,.05,0,.05l-.03.03h-.01s-.02,0-.02,0v.08s0,.08,0,.08l-.03-.06v-.13s-.01-.09-.01-.09l-.02-.06.02-.07h.01s0,.08,0,.08l.05.05h.05s.01-.02.01-.02v-.03s-.07,0-.07,0v-.04s-.01-.14-.01-.14v-.12s.02-.01.02-.01l.02.04.02.06-.02.02v.03h.02s.02-.06.02-.06l.02-.1-.03-.03h-.03l-.02.03h-.01v-.08s0-.15,0-.15v-.13s-.01-.11-.01-.11v-.28s-.01-.16-.01-.16v-.13s-.01-.04-.01-.04v-.13s-.05-.03-.05-.03l-.03-.04v.02s-.04.06-.04.06h-.02s0-.04,0-.04v-.04s-.01-.05-.01-.05v-.03s-.04,0-.04,0h-.37s-.37.02-.37.02h-.07s-.06,0-.06,0l-.07.02h-.27s0,.12,0,.12v.19s0,.35,0,.35v.15s0,.13,0,.13v.28s-.03.22-.03.22v.1s-.03.03-.03.03l-.02.03v.05s-.03.04-.03.04v.07l-.02.09-.05.03h-.04s-.03.02-.03.02h-.06s-.02,0-.02,0h-.04s-.04,0-.04,0l-.04.03-.03-.02h0s-.01.01-.01.01l-.05-.02h-.05s-.04.04-.04.04l-.02-.03h-.02s-.05.01-.05.01l-.06-.02h-.05s-.03.04-.03.04h-.03s-.01-.03-.01-.03l-.03.02h-.04s-.03-.03-.03-.03l-.03-.05v-.05s-.01-.03-.01-.03v-.03s.01-.09.01-.09v-.05h-.03v-.03s-.01-.25-.01-.25v-.07s0-.07,0-.07v-.12s0-.31,0-.31v-.24s0-.2,0-.2v-.2s0-.31,0-.31v-.15s-.01-.12-.01-.12v-.24s.01-.13.01-.13v-.21s0-.13,0-.13v-.08s0-.29,0-.29v-.1s0-.27,0-.27v-.06s0-.08,0-.08l.03-.17.03-.2.02-.09h.1s.09-.01.09-.01h.02s.05,0,.05,0h.06s.03,0,.03,0l.03.02.04-.03h.04s.03,0,.03,0h.02s.05,0,.05,0h.05s0,.01,0,.01l.03-.02h.03s.12-.01.12-.01h.05s.06,0,.06,0h.06s0,.08,0,.08v.1s0,.06,0,.06v.08s0,.08,0,.08v.07s-.01.12-.01.12v.18s0,.22,0,.22v.11s0,.1,0,.1v.22s0,.15,0,.15v.03s.04.01.04.01h.24s.14,0,.14,0h0s-.01.02-.01.02h-.06s-.03,0-.03,0h0s.14,0,.14,0h.38s.29.01.29.01h.08s.01-.05.01-.05v-.06s0-.08,0-.08v-.1s0-.06,0-.06v-.08s0-.08,0-.08v-.15s0-.09,0-.09v-.09s.01-.11.01-.11v-.18s0-.1,0-.1v-.15s.02-.15.02-.15l.06-.06h.08s.06,0,.06,0h.12s.06,0,.06,0h.06s.03,0,.03,0h.02s.03.01.03.01l.03-.03h.04s.06,0,.06,0h.13s.06,0,.06,0h.09s.01.06.01.06v.08s.01.09.01.09v.46s-.01.15-.01.15v.19s0,.08,0,.08v.07s0,.09,0,.09v.16s0,.15,0,.15v.06s0,.03,0,.03v.05s0,.06,0,.06v.1s0,.17,0,.17v.19s.01.08.01.08v.05s0,.22,0,.22v.13s.02.2.02.2v.38s0,.31,0,.31v.05s0,.09,0,.09v.11s-.01.1-.01.1v.04s0,.05,0,.05v.1s-.02.1-.02.1l-.03.06v.04h-.05v.02h-.01s-.07.02-.07.02l-.03.02-.02-.02-.02-.03h-.03s-.01.03-.01.03v.03s-.04,0-.04,0v-.05s-.02-.03-.02-.03h0v.07s-.06.01-.06.01h-.03s-.01.02-.01.02h-.02s-.01-.02-.01-.02v.04s-.02.06-.02.06h-.03l-.02-.03-.03-.02-.02.04v.04h-.03v-.02Z"/>
    <path d="M19.74,5.45l-.17-.05-.13-.06-.13-.08-.17-.12-.11-.08-.12-.12-.1-.11-.08-.12-.09-.13-.07-.13-.04-.09-.08-.17-.04-.13-.06-.27-.03-.24v-.44s.02-.11.02-.11v-.09s.03-.18.03-.18l.02-.1.03-.13.04-.11.03-.16.03-.11.04-.07v-.06s.03-.07.03-.07l.03-.07v-.04s.05-.05.05-.05l.03-.1.04-.08.03-.07.06-.08.03-.1.08-.08.06-.1.12-.14.13-.12.14-.1.1-.07.19-.08.16-.06.17-.04.13-.03.12-.03h.1l.27-.02h.1s.13.03.13.03l.13.04.12.05.23.12.18.15.15.17.16.22.1.21.08.21.04.17.03.12.02.17v.12s.02.14.02.14v.83s-.03.14-.03.14l-.02.1-.02.02-.03.12-.03.16v.06s-.03.05-.03.05v.06s0,.05,0,.05l-.03.11-.03.17-.06.2-.06.17v.06s-.04.04-.04.04l-.04.08-.05.07-.03.06-.05.03-.13.13-.2.14-.11.05-.14.05-.14.03-.12.02-.11.03h-.04s-.3.01-.3.01h-.03s-.03,0-.03,0h-.03s-.15.04-.15.04h-.25ZM20.31,4.45l.1-.02h.08s.03-.04.03-.04l.06-.03.08-.03.03-.03.05-.05.05-.07.06-.08.04-.13.04-.1v-.06s.03-.04.03-.04v-.07l.03-.07.03-.04v-.08s0-.05,0-.05l.03-.04-.02-.05.03-.06v-.05s0-.08,0-.08v-.12s.03-.09.03-.09v-.06s0-.15,0-.15v-.22s0-.23,0-.23v-.07s-.01-.03-.01-.03v-.05s-.04-.11-.04-.11l-.07-.19-.06-.1-.15-.16-.12-.07-.15-.04-.24.03-.1.03h-.1s-.06.04-.06.04l-.08.06-.05.05v.04s-.07.04-.07.04l-.08.12-.05.08-.02.05-.03.08v.06s-.04.06-.04.06l-.03.11-.03.09v.06s-.04.09-.04.09l-.02.15-.03.22v.19s0,.16,0,.16v.15s.04.17.04.17l.04.12.02.07.04.08.1.15.2.18.2.12.1.04h.03s-.01.04-.01.04h.03s.12,0,.12,0Z"/>
    <path d="M22.89,5.33l-.03-.02-.02.03-.02.02h0v-.03s-.04-.03-.04-.03l-.03-.04v-.05s-.03-.07-.03-.07v-.11s0-.04,0-.04v-.05s0-.15,0-.15v-.17s-.04-.07-.04-.07v-.04s.03-.05.03-.05v-.12s0-.1,0-.1v-.02h-.02s0,.03,0,.03h-.01v-.02s0-.1,0-.1v-.19s0-.13,0-.13v-.06s0-.06,0-.06v-.04s0-.08,0-.08v-.05s0-.06,0-.06v-.15s0-.05,0-.05v-.05s0-.06,0-.06v-.06s0-.05,0-.05v-.05s0-.04,0-.04v-.1s.01-.09.01-.09v-.05s.01-.07.01-.07v-.06s.02-.06.02-.06v-.03s0-.03,0-.03l.02-.04v-.16s0-.11,0-.11v-.14s0-.03,0-.03v-.23s.01-.2.01-.2v-.31s.02-.28.02-.28v-.13s0-.05,0-.05l.04-.03h.03s.06-.01.06-.01h.06s.03.01.03.01l.03-.03h.03s.03.01.03.01l.03.03h.02s.02-.04.02-.04h.04s.03.01.03.01h.04s.06,0,.06,0l.04-.02h.06s.06-.01.06-.01h.07s.04,0,.04,0l.03.02h.03s.03,0,.03,0h.54s.26.03.26.03l.11.03.19.06.12.06.21.17.17.19.08.12.11.28.06.3.02.28v.12s-.03.17-.03.17l-.04.15-.04.1-.1.17-.11.17-.12.13-.15.13-.24.16-.2.06-.19.05-.3.03h-.22s-.06,0-.06,0h-.03s-.01.07-.01.07v.06l-.02.03.02.05v.06l-.03.06v.05s.03.03.03.03l-.02.04v.08s0,.13,0,.13v.07s0,.15,0,.15v.14s-.02.16-.02.16l-.02.17-.04.05-.03.03v-.02s-.04.01-.04.01l-.03.03-.03.04-.04.04h-.03s-.03.01-.03.01h-.01s-.01,0-.01,0v-.04s0,0,0,0h-.01s-.03.03-.03.03v.04s-.02.03-.02.03h-.03s-.03-.02-.03-.02v-.03s-.02,0-.02,0v.02s-.03.02-.03.02h-.03s-.02.06-.02.06l-.02.03h-.01v-.04h-.03l-.03.04h-.06s-.07-.04-.07-.04ZM23.82,2.73l.24-.05.1-.02.12-.04.1-.06.04-.03.06-.08.06-.16v-.2l-.09-.22-.15-.1-.08-.03h-.06s-.06,0-.06,0h-.18l-.17.02v.1s-.03.13-.03.13v.05s0,.08,0,.08v.18s-.02.17-.02.17v.09l-.02.1v.08s.03,0,.03,0h.08Z"/>
  </g>
  <path d="M28.74,2.95c-.21-.22-.22-.24-.44-.46-.22-.23-.22-.23-.45-.45-.23-.22-.23-.22-.46-.44-.22-.22-.26-.19-.48-.42-.09-.09-.18-.16-.27-.24-.05-.04-.09-.08-.13-.13-.01-.02-.03-.07-.06-.07,0,0-.01,0-.02,0,0,0,0,0,0,0,0,0,0,0,0,0h0s0,0,0,0c0,0-.01,0-.01,0-.01,0-.02,0-.03.02-.05.05.02.14.02.18,0,.08-.02.15-.03.23,0,.01,0,.02,0,.03,0,.05.01.12.01.2,0,.32-.03.32-.03.64,0,.32,0,.32,0,.64,0,.32,0,.32,0,.64,0,.31,0,.32-.01.64,0,.32,0,.32,0,.64,0,.32,0,.32,0,.64,0,.24,0,.38.01.47.11-.12.23-.26.37-.39.22-.22.26-.19.49-.41s.2-.25.43-.47c.22-.23.22-.23.45-.45.22-.23.22-.23.44-.46.19-.18.25-.24.4-.38-.03-.03-.09-.09-.17-.17Z"/>
</svg>