<?xml version="1.0" encoding="UTF-8"?>
<svg id="Layer_1" data-name="Layer 1" xmlns="http://www.w3.org/2000/svg" viewBox="0 0 26.87 5.5">
  <defs>
    <style>
      .cls-1 {
        fill: #e82f25;
      }
    </style>
  </defs>
  <g>
    <path class="cls-1" d="M.68,1.77h-.03s-.02-.02-.02-.02h-.02s-.02-.01-.02-.01l-.04-.02h-.02s-.01-.02-.01-.02h-.02s-.02-.03-.02-.03h-.02s-.01-.02-.01-.02h-.02s-.01-.03-.01-.03h0s0-.02,0-.02H.4s0-.02,0-.02h.01s0-.02,0-.02H.43s0-.01,0-.01h.01s0-.01,0-.01h0s0-.02,0-.02h0s0-.01,0-.01h.01s0-.03,0-.03h0s0-.02,0-.02h0s0-.02,0-.02h0s0-.01,0-.01h0s.01-.01.01-.01h0s0,0,0,0h0s.01-.01.01-.01l.04.02.04.03.03.02h.03s.04,0,.04,0l.05-.02.03-.02.02-.04.02-.06v-.04s0-.01,0-.01v-.02s-.02-.02-.02-.02h0s0-.02,0-.02h-.01s0-.02,0-.02v-.02s-.02-.01-.02-.01h-.01s0-.02,0-.02h-.01s-.05-.05-.05-.05l-.04-.04-.02-.03-.05-.06-.04-.06v-.03s-.02-.04-.02-.04v-.05s0-.06,0-.06v-.03s.03-.04.03-.04v-.02s.03-.02.03-.02h0s.02-.04.02-.04l.02-.02.02-.02.03-.02.04-.02.05-.02h.02s.04-.02.04-.02h.07s.08,0,.08,0h.05s.02,0,.02,0h.01s0,.01,0,.01h0s0,0,0,0h0s0,.01,0,.01h0s0,.02,0,.02v.02s0,0,0,0h0s0,.01,0,.01h0s0,.02,0,.02h0s0,0,0,0h0s.01.02.01.02h0s0,.01,0,.01h0v.02h0s0,.01,0,.01h.01s0,.01,0,.01h0s0,0,0,0h0s0,.02,0,.02h0s0,.02,0,.02v.04s-.01,0-.01,0h-.01s-.04-.02-.04-.02h-.03s-.07,0-.07,0h-.04s-.01.02-.01.02h-.01s-.02.03-.02.03v.04s.01.04.01.04l.04.03.05.05.03.03.03.03.05.05.05.06.04.06v.03s.04.06.04.06v.06s.02.04.02.04v.04s-.02.07-.02.07l-.02.04-.04.06-.03.04-.02.02v.02s-.06.04-.06.04l-.04.02-.04.02-.04.02h-.04s-.03.02-.03.02h-.06s-.05,0-.05,0Z"/>
    <path class="cls-1" d="M1.51,1.74h-.01s0-.01,0-.01v-.06s0-.02,0-.02v-.02s0-.01,0-.01v-.02s0-.02,0-.02v-.15s0-.04,0-.04v-.11s0-.03,0-.03v-.14s0-.16,0-.16v-.03s0-.05,0-.05v-.04s0-.03,0-.03h-.02s-.09,0-.09,0h-.09s-.05,0-.05,0h-.03s-.01,0-.01,0h0v-.05s0,0,0,0h0s0-.02,0-.02h0s0-.02,0-.02h0s0-.02,0-.02v-.04s0-.01,0-.01h0s0-.06,0-.06h0s.02-.03.02-.03h.03s.03,0,.03,0h.08s.02,0,.02,0h.04s.06,0,.06,0h.04s.05,0,.05,0h.04s.04,0,.04,0h.1s.05-.01.05-.01h.08s.02,0,.02,0h.12s.02,0,.02,0h.02s0,.02,0,.02v.02s0,.02,0,.02v.02s0,.01,0,.01h0s0,.02,0,.02h0s0,.01,0,.01h0s0,.02,0,.02h0s0,.02,0,.02h0s.01.02.01.02h-.01s0,.03,0,.03h0s0,.02,0,.02h-.01s-.01.02-.01.02h-.01s-.02,0-.02,0h-.02s-.02.01-.02.01h-.04s-.13,0-.13,0h-.02s-.02.02-.02.02v.09s0,.06,0,.06v.19s0,.26,0,.26v.04s0,.03,0,.03v.04s0,.03,0,.03v.1s0,.05,0,.05v.02s-.01,0-.01,0h-.02s-.02.02-.02.02h-.01s0,0,0,0h0s0,0,0,0h0s0,.02,0,.02h0s0-.01,0-.01h0s0,0,0,0h-.01s0,0,0,0h0s0,0,0,0h0s-.01,0-.01,0h-.01s0,0,0,0h0s0,0,0,0h0s-.04,0-.04,0Z"/>
    <path class="cls-1" d="M2.82,1.74l-.02-.04-.04-.06-.02-.03-.05-.06-.04-.06-.03-.04-.02-.02-.02-.03-.08-.09-.02-.02h0v.07s0,.04,0,.04v.06s0,.04,0,.04v.02s0,.05,0,.05v.07s0,.04,0,.04v.02s-.03,0-.03,0h-.01s-.02,0-.02,0h0s-.01,0-.01,0h-.02s0,0,0,0h-.01s0,0,0,0h-.02s-.01,0-.01,0h-.01s0,0,0,0h0s-.02,0-.02,0h-.02s-.02,0-.02,0h0s0,0,0,0h0s0-.05,0-.05v-.1s0-.03,0-.03v-.06s0-.03,0-.03v-.04s0-.03,0-.03v-.02s0-.04,0-.04v-.04s0-.04,0-.04v-.04s0-.02,0-.02v-.02s0-.06,0-.06v-.04s0-.03,0-.03v-.03s0-.04,0-.04v-.02s0-.03,0-.03v-.03s0-.07,0-.07v-.02s0-.03,0-.03v-.03s0-.01,0-.01v-.13s0-.03,0-.03v-.02s0,0,0,0h0s.01,0,.01,0h.03s0,0,0,0h0s.01,0,.01,0h.02s0,0,0,0h.02s.01,0,.01,0h.06s.03,0,.03,0h.01s.01,0,.01,0h.01s.02,0,.02,0h.03s.02,0,.02,0h.02s.02,0,.02,0h.06s.02,0,.02,0h.02s.02.01.02.01h.01s.01.01.01.01l.05.02.04.02.02.02.02.02.02.04.02.05v.04s.02.03.02.03h0s0,.04,0,.04v.04s.01.02.01.02v.03s0,.02,0,.02h0s0,.03,0,.03v.02h0s0,.05,0,.05l-.02.04v.02s-.04.04-.04.04h0s-.02.03-.02.03l-.02.02h-.02s-.02.03-.02.03h-.02s0,.03,0,.03v.02s.03.03.03.03l.04.05.04.06.03.04.03.04.04.06.03.05.02.03v.03s0,.01,0,.01h-.01s0,.02,0,.02h-.01s0,.02,0,.02h-.02v.02s-.01,0-.01,0h0s-.01.01-.01.01h-.01s0,.01,0,.01h0s-.01,0-.01,0h0s0,.01,0,.01h0s-.01.02-.01.02h0s0,0,0,0h0s0,0,0,0h-.02s-.02-.02-.02-.02ZM2.53,1.03h.03s.04,0,.04,0h.01s.02-.02.02-.02l.03-.02.02-.02v-.03s.01-.03.01-.03v-.05s-.03-.05-.03-.05h-.02s-.02-.02-.02-.02h-.04s-.03-.02-.03-.02h-.04s-.04,0-.04,0v.02s0,.05,0,.05v.1s0,.06,0,.06v.04h0s.04,0,.04,0Z"/>
    <path class="cls-1" d="M3.26,1.73h-.02s-.01,0-.01,0h0s0,0,0,0h0s-.01,0-.01,0h-.01s0,0,0,0h0s0,0,0,0h0s-.01,0-.01,0h-.01s-.01,0-.01,0h0s0,0,0,0h0s0,0,0,0h-.01s0-.02,0-.02v-.03s.02-.05.02-.05v-.03s.02-.06.02-.06v-.06s.02-.04.02-.04v-.04s.02-.05.02-.05v-.06s.02-.07.02-.07v-.04s.02-.08.02-.08v-.04s.02-.08.02-.08v-.05s.02-.04.02-.04l.02-.06v-.06s.03-.06.03-.06v-.05s.03-.05.03-.05v-.03s.02-.03.02-.03v-.02s.01,0,.01,0h0s0,0,0,0h.02s.01,0,.01,0h0s.02,0,.02,0h.01s0,0,0,0h.01s.01,0,.01,0h.01s.02,0,.02,0h0s0,0,0,0h0s.02,0,.02,0h.01s.01,0,.01,0h.03s.02,0,.02,0h0s0,0,0,0h0s0,0,0,0h0s.01.03.01.03v.03s.03.04.03.04l.02.05v.04s.02.03.02.03v.05s.02.03.02.03v.02s.02.04.02.04v.04s.02.03.02.03v.03s.02.04.02.04l.02.1v.03s.02.07.02.07v.05s.01.01.01.01v.03s.02.03.02.03l.02.1v.02s0,.03,0,.03v.04s.02.04.02.04v.02s0,.02,0,.02v.02h-.01s-.01.02-.01.02h-.02s0,.01,0,.01h-.02s0,.01,0,.01h0s-.02,0-.02,0h0s0,0,0,0h0s0,.01,0,.01h-.01s-.01,0-.01,0h0s-.01.02-.01.02h0s0,0,0,0h-.02s-.02.02-.02.02h-.01s-.01-.06-.01-.06v-.05s-.03-.06-.03-.06v-.05s-.04,0-.04,0h-.06s-.13,0-.13,0h-.03s0,.01,0,.01v.02s-.01.02-.01.02v.04s-.02.03-.02.03v.03s-.02.04-.02.04h-.01s-.01.01-.01.01h-.01s-.01,0-.01,0h0s0,0,0,0h-.01s0,0,0,0h0s0,0,0,0ZM3.58,1.25v-.03s-.01-.05-.01-.05v-.02s0-.01,0-.01v-.04s-.02-.03-.02-.03v-.03s-.02-.04-.02-.04v-.02s0,0,0,0h0s0,.04,0,.04v.04s-.02.04-.02.04v.07s-.02.03-.02.03v.04s.01,0,.01,0h.06s.02,0,.02,0h.01Z"/>
    <path class="cls-1" d="M4.11,1.78v-.02s-.02,0-.02,0h0s0-.01,0-.01v-.02s-.01-.02-.01-.02h0s0-.03,0-.03v-.02h0v-.02h0v-.04h0s0-.02,0-.02v-.06s0,0,0,0v-.02s0-.03,0-.03v-.02s0-.02,0-.02v-.04s0-.13,0-.13v-.02s0-.02,0-.02v-.04h0s0-.03,0-.03v-.02s0-.04,0-.04v-.03s0-.09,0-.09v-.03s0-.04,0-.04v-.05s0-.05,0-.05v-.06s0-.07,0-.07v-.08s0-.05,0-.05h0s.01-.02.01-.02h.01s.02,0,.02,0h.1s0,0,0,0h0s.01,0,.01,0h.01s0,0,0,0h0s.01,0,.01,0h.02s.01,0,.01,0h.01s.01,0,.01,0v.04s0,.03,0,.03v.06s0,.03,0,.03v.02s0,.02,0,.02v.03s0,.02,0,.02h0s0,.02,0,.02h0s0,0,0,0h0s0,.01,0,.01h0s0,.01,0,.01h0s0,.02,0,.02v.07s0,0,0,0h0s0,.01,0,.01v.02h0s0,.01,0,.01h0s0,.03,0,.03h0s0,.02,0,.02h0s0,.01,0,.01h0s0,.01,0,.01h0s0,.02,0,.02v.02s0,.02,0,.02h0s0,.01,0,.01v.06s.01.04.01.04v.05s0,.04,0,.04v.11s0,.04,0,.04v.03s0,.04,0,.04v.03s0,.05,0,.05v.05s0,.02,0,.02v.02s0,.02,0,.02h0s-.01.02-.01.02h-.01s-.01,0-.01,0h0s0,.01,0,.01h0s0,0,0,0h0s0,0,0,0h0s0,0,0,0h0s0,.03,0,.03h0s0-.03,0-.03h-.01s-.01.02-.01.02h0s0,0,0,0h0s0-.01,0-.01h0s0,.03,0,.03h0s0,.01,0,.01h0v-.02h0s0,0,0,0h0s0,.02,0,.02v.02s0,.01,0,.01h0s0-.04,0-.04Z"/>
    <path class="cls-1" d="M4.94,1.81h-.05s-.02,0-.02,0h-.02s-.02-.02-.02-.02h-.02s-.02-.02-.02-.02h-.02s0-.02,0-.02h-.01s0,0,0,0h-.02s-.03-.04-.03-.04l-.02-.02h-.01s0-.02,0-.02l-.02-.02v-.03s-.02-.02-.02-.02h0s-.02-.03-.02-.03v-.04s-.02-.03-.02-.03v-.02s0-.01,0-.01h0s0-.02,0-.02v-.02s0-.01,0-.01v-.03s-.01-.04-.01-.04v-.04s0-.02,0-.02v-.04s-.02-.06-.02-.06v-.04s0-.02,0-.02v-.09s0-.03,0-.03v-.02s0-.01,0-.01v-.02s0-.02,0-.02h0s0-.02,0-.02h0s0-.02,0-.02h0v-.06s.01-.01.01-.01v-.02s.01-.02.01-.02v-.03s.02-.04.02-.04h.01s.01-.04.01-.04l.02-.04v-.02s.02,0,.02,0l.04-.04.03-.02.03-.02.02-.02.06-.03h.04s0,0,0,0h.02s.02-.01.02-.01h.02s.01,0,.01,0h.01s.01,0,.01,0h.01s.02,0,.02,0h.01s.01,0,.01,0h.01s.03,0,.03,0h.05s.01,0,.01,0h.01s.04.01.04.01h.01s.02,0,.02,0h.02s.04.02.04.02l.03.02.04.03h.02s0,.02,0,.02h0s0,.03,0,.03h-.01s0,.02,0,.02h0s0,.02,0,.02h0v.02h0s-.01.02-.01.02h0s0,0,0,0h-.01s0,.01,0,.01h0s-.01.01-.01.01h0s0,.02,0,.02h0s-.01.01-.01.01v.02s-.02,0-.02,0h0s0,.01,0,.01h-.01s-.01.01-.01.01h0s-.02-.01-.02-.01l-.02-.02h-.02s-.05-.02-.05-.02h-.04s-.01,0-.01,0h0s0,0,0,0h-.02s-.03,0-.03,0h-.01s0,.01,0,.01h-.03s-.04.03-.04.03l-.03.02-.03.05-.02.06v.04s-.01.03-.01.03v.04s0,.03,0,.03v.02s0,.04,0,.04v.03s0,.01,0,.01v.05s.01.04.01.04v.03s.01.03.01.03v.04s.03.04.03.04v.03s.03.04.03.04l.04.03h.03s.03.03.03.03h.04s.02.01.02.01h.02s.03,0,.03,0h.02s.02-.02.02-.02l.02-.02h0s0-.05,0-.05v-.06s0-.05,0-.05v-.04h0s-.02-.01-.02-.01h-.13s-.05.02-.05.02h-.01s0,0,0,0h0s0,0,0,0h0s0-.02,0-.02h0s0-.02,0-.02v-.02s0-.02,0-.02h0s0-.02,0-.02h0s0-.03,0-.03h0s0-.02,0-.02v-.02h0s0-.05,0-.05h0s0-.02,0-.02v-.02s0,0,0,0h.02s.05-.02.05-.02h.06s.06,0,.06,0h.06s.04,0,.04,0h.06s.01,0,.01,0h.01s.02,0,.02,0h.01s0,0,0,0h.01s.01,0,.01,0h.02s.01,0,.01,0h0s0,.06,0,.06v.05s0,.05,0,.05v.07s0,.05,0,.05v.09s0,.04,0,.04v.09s0,.04,0,.04v.02s-.02,0-.02,0v.03s-.02.02-.02.02h0s0,.02,0,.02v.02s-.03.02-.03.02l-.03.03-.04.03-.03.02h0s-.02.02-.02.02h-.02s0,.02,0,.02h-.03s-.01,0-.01,0h-.01s-.02.01-.02.01h-.01s-.02,0-.02,0h-.02s-.02,0-.02,0h-.02s-.02,0-.02,0h-.02s-.01,0-.01,0h0s-.01,0-.01,0Z"/>
    <path class="cls-1" d="M6.3,1.75h0s0-.02,0-.02h0s0,0,0,0h0s-.01,0-.01,0h0s0-.02,0-.02h0s0-.02,0-.02h0s0,0,0,0h0s0,.02,0,.02h0s0,0,0,0v.02s0,.02,0,.02v-.02s-.01-.04-.01-.04v-.02s0-.02,0-.02v-.02s0,0,0,0v.02s.02.01.02.01h.01s0,0,0,0h0s-.02,0-.02,0h0s0-.05,0-.05v-.03s0,0,0,0h0s0,.03,0,.03h0s0,.02,0,.02v-.02s.01-.03.01-.03h0s0,0,0,0h0s0,0,0,0v-.02s0-.04,0-.04v-.04s0-.03,0-.03v-.08s0-.04,0-.04v-.04s0-.01,0-.01v-.03h0s-.01-.01-.01-.01h0s0,0,0,0v.02s-.01,0-.01,0h0s0-.03,0-.03h0s0-.02,0-.02h0s-.06,0-.06,0h-.04s-.1,0-.1,0h-.02s-.02,0-.02,0h-.02s-.04,0-.04,0h-.03s0,.03,0,.03v.05s0,.09,0,.09v.04s0,.04,0,.04v.08s0,.06,0,.06v.03s0,0,0,0h0s0,.02,0,.02h0v.06s-.02,0-.02,0h-.01s0,0,0,0h-.02s0,0,0,0h-.01s-.01,0-.01,0h-.01s0,0,0,0h0s0,0,0,0h-.01s-.01,0-.01,0h-.01s0,0,0,0h0s-.01,0-.01,0h-.02s-.01,0-.01,0h0s0,0,0,0h0s0,0,0,0h-.01s0,0,0,0h0s0-.03,0-.03h0s0-.02,0-.02v-.02s0-.01,0-.01h0v-.09s0-.02,0-.02v-.03s0-.08,0-.08v-.07s0-.05,0-.05v-.05s0-.08,0-.08v-.04s0-.03,0-.03v-.07s0-.04,0-.04v-.06s0-.04,0-.04v-.02s0-.08,0-.08v-.03s0-.07,0-.07v-.02s0-.02,0-.02v-.05s.02-.05.02-.05v-.02s.03,0,.03,0h.03s.01,0,.01,0h.02s0,0,0,0h0s.01,0,.01,0h.01s0,0,0,0h0s.01,0,.01,0h.01s0,0,0,0h0s0,0,0,0h.05s.02,0,.02,0h.02s0,.02,0,.02v.03s0,.02,0,.02v.02s0,.02,0,.02v.02s0,.03,0,.03v.05s0,.06,0,.06v.03s0,.03,0,.03v.06s0,.04,0,.04h0s0,.01,0,.01h.07s.04,0,.04,0h0s0,0,0,0h-.02s0,0,0,0h0s.04,0,.04,0h.11s.08,0,.08,0h.02s0-.01,0-.01v-.02s0-.02,0-.02v-.02h0s0-.03,0-.03v-.02s0-.02,0-.02v-.04s0-.02,0-.02v-.02s0-.03,0-.03v-.05s0-.03,0-.03v-.04s0-.04,0-.04l.02-.02h.02s.02,0,.02,0h.03s.02,0,.02,0h.02s0,0,0,0h0s0,0,0,0h0s.01,0,.01,0h.02s.02,0,.02,0h.02s.02,0,.02,0h.02s0,.02,0,.02v.02s0,.02,0,.02v.13s0,.04,0,.04v.05s0,.02,0,.02v.02s0,.02,0,.02v.04s0,.04,0,.04v.02s0,0,0,0h0s0,.03,0,.03v.03s0,.05,0,.05v.05s0,.02,0,.02h0v.11s0,.05,0,.05v.11s0,.08,0,.08h0s0,.04,0,.04v.03s0,.03,0,.03h0s0,.02,0,.02v.03s0,.03,0,.03v.02s-.01.01-.01.01h-.01s0,0,0,0h-.02s0,0,0,0h0s0-.01,0-.01h0s0,0,0,0h0s0,0,0,0h0s0-.02,0-.02h0v.02s-.02,0-.02,0h0s0,0,0,0h0s0,0,0,0h0s0,.03,0,.03h-.01s0-.01,0-.01h0s0,.02,0,.02h0Z"/>
    <path class="cls-1" d="M6.92,1.74h-.01s0-.01,0-.01v-.06s0-.02,0-.02v-.02s0-.01,0-.01v-.02s0-.02,0-.02v-.15s0-.04,0-.04v-.11s0-.03,0-.03v-.14s0-.16,0-.16v-.03s0-.05,0-.05v-.04s0-.03,0-.03h-.02s-.09,0-.09,0h-.09s-.05,0-.05,0h-.03s-.01,0-.01,0h0v-.05s0,0,0,0h0s0-.02,0-.02h0s0-.02,0-.02h0s0-.02,0-.02v-.04s0-.01,0-.01h0s0-.06,0-.06h0s.02-.03.02-.03h.03s.03,0,.03,0h.08s.02,0,.02,0h.04s.06,0,.06,0h.04s.05,0,.05,0h.04s.04,0,.04,0h.1s.05-.01.05-.01h.08s.02,0,.02,0h.12s.02,0,.02,0h.02s0,.02,0,.02v.02s0,.02,0,.02v.02s0,.01,0,.01h0s0,.02,0,.02h0s0,.01,0,.01h0s0,.02,0,.02h0s0,.02,0,.02h0s.01.02.01.02h-.01s0,.03,0,.03h0s0,.02,0,.02h-.01s-.01.02-.01.02h-.01s-.02,0-.02,0h-.02s-.02.01-.02.01h-.04s-.13,0-.13,0h-.02s-.02.02-.02.02v.09s0,.06,0,.06v.19s0,.26,0,.26v.04s0,.03,0,.03v.04s0,.03,0,.03v.1s0,.05,0,.05v.02s-.01,0-.01,0h-.02s-.02.02-.02.02h-.01s0,0,0,0h0s0,0,0,0h0s0,.02,0,.02h0s0-.01,0-.01h0s0,0,0,0h-.01s0,0,0,0h0s0,0,0,0h0s-.01,0-.01,0h-.01s0,0,0,0h0s0,0,0,0h0s-.04,0-.04,0Z"/>
  </g>
  <g>
    <path class="cls-1" d="M.76,3.7h-.02s0-.02,0-.02v-.08s0-.03,0-.03v-.02s0-.02,0-.02v-.02s0-.03,0-.03v-.19s0-.06,0-.06v-.14s0-.04,0-.04v-.18s0-.21,0-.21v-.04s0-.06,0-.06v-.05s0-.04,0-.04h-.03s-.11,0-.11,0h-.11s-.06.01-.06.01h-.03s-.02,0-.02,0h0v-.06s0-.01,0-.01h0s.01-.03.01-.03h0s0-.03,0-.03v-.02s0-.01,0-.01v-.05s0-.02,0-.02v-.02s.01-.05.01-.05v-.02s.03-.02.03-.02h.04s.04,0,.04,0h.1s.03,0,.03,0h.05s.07,0,.07,0h.04s.07,0,.07,0h.05s.04,0,.04,0h.12s.07-.02.07-.02h.1s.03,0,.03,0h.15s.03,0,.03,0h.03s0,.03,0,.03v.03s0,.02,0,.02v.02s0,.02,0,.02h0s0,.03,0,.03h0s0,.02,0,.02v.02s0,0,0,0h0s-.01.02-.01.02h0s.02.03.02.03l-.02.02v.02s0,.01,0,.01h0s-.02.02-.02.02v.02s-.03,0-.03,0h-.03s-.02.01-.02.01h-.02s-.05,0-.05,0h-.17s-.02.01-.02.01l-.03.02v.11s0,.07,0,.07v.23s0,.33,0,.33v.05s0,.04,0,.04v.04s0,.04,0,.04v.12s0,.07,0,.07v.03s-.02,0-.02,0h-.03s-.02.03-.02.03h0v-.02s-.02,0-.02,0h0s0,0,0,0v.02s-.01,0-.01,0v-.02h-.02s-.01.01-.01.01h-.01s0,0,0,0h0s0,0,0,0h-.01s-.02,0-.02,0h-.02s-.01,0-.01,0h0s-.01,0-.01,0h0s-.05,0-.05,0Z"/>
    <path class="cls-1" d="M2.01,3.78l-.06-.02-.05-.02-.05-.03-.06-.04-.04-.03-.04-.04-.04-.04-.03-.04-.03-.04-.02-.05v-.03s-.04-.06-.04-.06l-.02-.04-.02-.09v-.08s-.01-.08-.01-.08v-.07s0-.04,0-.04v-.03s0-.06,0-.06v-.04s.02-.04.02-.04v-.04s.02-.06.02-.06v-.04s.02-.02.02-.02v-.02s.01-.02.01-.02v-.02s.01-.02.01-.02v-.02s.02-.03.02-.03v-.03s.02-.02.02-.02l.02-.03v-.04s.04-.03.04-.03l.02-.04.04-.05.05-.04.05-.04.04-.02.07-.03.06-.02.06-.02h.05s.04-.02.04-.02h.13s.03,0,.03,0h.05s.05.02.05.02l.04.02.08.04.06.05.05.06.06.08.03.07.03.07v.06s.02.04.02.04v.06s0,.04,0,.04v.05s0,.23,0,.23v.06s-.01.05-.01.05v.04s-.01,0-.01,0v.04s-.02.06-.02.06v.02s0,.02,0,.02v.02s0,.02,0,.02v.04s-.02.06-.02.06l-.02.07-.02.06v.02s-.02.01-.02.01l-.02.03-.02.02v.02s-.03,0-.03,0l-.04.04-.07.05-.04.02-.05.02h-.05s-.04.02-.04.02h-.04s-.02.01-.02.01h-.11s0,0,0,0h-.01s-.05.01-.05.01h-.09ZM2.21,3.43h.03s.01,0,.01,0h.01s0-.01,0-.01h.02s.03-.02.03-.02h0s.02-.03.02-.03l.02-.02.02-.03v-.04s.03-.04.03-.04v-.02s.01-.02.01-.02v-.05s.02-.01.02-.01h0s0-.03,0-.03v-.02s.02-.02.02-.02v-.02s0-.02,0-.02v-.02s0-.03,0-.03v-.04s0-.03,0-.03v-.02s0-.05,0-.05v-.08s0-.08,0-.08v-.02s0-.01,0-.01v-.02s-.01-.04-.01-.04l-.02-.07-.02-.04-.05-.06-.04-.02h-.05s-.08,0-.08,0h-.04s-.02.01-.02.01h-.01s-.02.02-.02.02l-.03.02-.02.02h0s-.02.03-.02.03l-.03.04-.02.03v.02s-.02.03-.02.03v.02s-.01.02-.01.02v.04s-.02.03-.02.03v.02s-.01.03-.01.03v.05s-.02.08-.02.08v.07s0,.06,0,.06v.05s.01.06.01.06v.04s.02.02.02.02l.02.03.03.05.07.06.07.04.04.02h0s0,.01,0,.01h0s.04,0,.04,0Z"/>
    <path class="cls-1" d="M3.91,3.7h-.02s0-.02,0-.02v-.08s0-.03,0-.03v-.02s0-.02,0-.02v-.02s0-.03,0-.03v-.19s0-.06,0-.06v-.14s0-.04,0-.04v-.18s0-.21,0-.21v-.04s0-.06,0-.06v-.05s0-.04,0-.04h-.03s-.11,0-.11,0h-.11s-.06.01-.06.01h-.03s-.02,0-.02,0h0v-.06s0-.01,0-.01h0s.01-.03.01-.03h0s0-.03,0-.03v-.02s0-.01,0-.01v-.05s0-.02,0-.02v-.02s.01-.05.01-.05v-.02s.03-.02.03-.02h.04s.04,0,.04,0h.1s.03,0,.03,0h.05s.07,0,.07,0h.04s.07,0,.07,0h.05s.04,0,.04,0h.12s.07-.02.07-.02h.1s.03,0,.03,0h.15s.03,0,.03,0h.03s0,.03,0,.03v.03s0,.02,0,.02v.02s0,.02,0,.02h0s0,.03,0,.03h0s0,.02,0,.02v.02s0,0,0,0h0s-.01.02-.01.02h0s.02.03.02.03l-.02.02v.02s0,.01,0,.01h0s-.02.02-.02.02v.02s-.03,0-.03,0h-.03s-.02.01-.02.01h-.02s-.05,0-.05,0h-.17s-.02.01-.02.01l-.03.02v.11s0,.07,0,.07v.23s0,.33,0,.33v.05s0,.04,0,.04v.04s0,.04,0,.04v.12s0,.07,0,.07v.03s-.02,0-.02,0h-.03s-.02.03-.02.03h0v-.02s-.02,0-.02,0h0s0,0,0,0v.02s-.01,0-.01,0v-.02h-.02s-.01.01-.01.01h-.01s0,0,0,0h0s0,0,0,0h-.01s-.02,0-.02,0h-.02s-.01,0-.01,0h0s-.01,0-.01,0h0s-.05,0-.05,0Z"/>
    <path class="cls-1" d="M5.72,3.71h0s0-.02,0-.02h0s0,0,0,0h0s-.01,0-.01,0h0s0-.03,0-.03v-.02s0-.02,0-.02h0s0-.01,0-.01v.02s0,0,0,0h0s0,0,0,0v.03s0,.03,0,.03v-.02s-.01-.04-.01-.04v-.03s0-.02,0-.02v-.02s.01,0,.01,0v.02s.02.02.02.02h.02s0,0,0,0h0s-.02,0-.02,0v-.02s0-.05,0-.05v-.04s0,0,0,0h0s0,.03,0,.03h0v.02h0s0-.02,0-.02v-.04s0,0,0,0h-.02s0,.01,0,.01v-.03s0-.05,0-.05v-.05s0-.04,0-.04v-.1s0-.06,0-.06v-.04s0-.02,0-.02v-.04h0s-.01-.02-.01-.02h0s0,0,0,0v.02s-.02,0-.02,0v-.02s0-.02,0-.02v-.02h0s-.01-.01-.01-.01h-.13s-.13,0-.13,0h-.02s-.02,0-.02,0h-.02s-.05,0-.05,0h-.04s0,.04,0,.04v.06s0,.12,0,.12v.05s0,.04,0,.04v.1s-.01.08-.01.08v.04s0,0,0,0h0s0,.03,0,.03v.02s0,.02,0,.02v.03s-.02.01-.02.01h-.01s0,0,0,0h-.02s0,0,0,0h-.01s-.01,0-.01,0h-.01s0,0,0,0h0s0,0,0,0h-.02s-.02,0-.02,0h-.01s0,0,0,0h0s-.02,0-.02,0h-.02s-.02,0-.02,0h0s-.01,0-.01,0h0s-.01,0-.01,0h-.01s0,0,0,0v-.02s-.01-.02-.01-.02h0s0-.02,0-.02v-.03s0-.02,0-.02h-.01v-.12s0-.02,0-.02v-.04s0-.11,0-.11v-.08s0-.07,0-.07v-.07s0-.11,0-.11v-.05s0-.04,0-.04v-.08s0-.04,0-.04v-.07s0-.05,0-.05v-.03s0-.1,0-.1v-.03s0-.09,0-.09v-.02s0-.03,0-.03v-.06s.02-.07.02-.07v-.03s.04,0,.04,0h.04s.02,0,.02,0h.02s0,0,0,0h.01s.01,0,.01,0h.02s.01,0,.01,0h0s.02,0,.02,0h.02s0,0,0,0h0s.01-.01.01-.01h.06s.02,0,.02,0h.02s0,.03,0,.03v.03s0,.02,0,.02v.03s0,.03,0,.03v.02s0,.04,0,.04v.06s0,.08,0,.08v.04s0,.03,0,.03v.08s0,.05,0,.05h0s0,.02,0,.02h.08s.05,0,.05,0h0s0,0,0,0h-.02s0,0,0,0h0s.05,0,.05,0h.13s.1,0,.1,0h.03s0-.02,0-.02v-.02s0-.03,0-.03v-.04s0-.02,0-.02v-.03s0-.03,0-.03v-.05s0-.03,0-.03v-.03s0-.04,0-.04v-.06s0-.03,0-.03v-.05s0-.05,0-.05l.02-.02h.03s.02,0,.02,0h.04s.02,0,.02,0h.02s.01,0,.01,0h0s0,0,0,0h.01s.02,0,.02,0h.02s.02,0,.02,0h.02s.02,0,.02,0h.03s0,.02,0,.02v.03s0,.03,0,.03v.16s0,.05,0,.05v.06s0,.03,0,.03v.02s0,.03,0,.03v.06s0,.05,0,.05v.02s0,.01,0,.01v.02s0,.02,0,.02v.04s0,.06,0,.06v.06s0,.03,0,.03v.02s0,.08,0,.08v.05s0,.07,0,.07v.13s0,.11,0,.11v.02s0,.03,0,.03v.04s0,.03,0,.03h0s0,.03,0,.03v.03s0,.03,0,.03v.02s-.02.01-.02.01h-.01s0,.01,0,.01h-.02s0,0,0,0h0s0-.02,0-.02h0s0,.01,0,.01h0s0,0,0,0v-.02s0-.01,0-.01h0v.02s-.02,0-.02,0h-.01s0,0,0,0h0s0,0,0,0v.02s0,.02,0,.02h-.02s-.01-.02-.01-.02h0s0,.03,0,.03h0Z"/>
    <path class="cls-1" d="M6.4,3.72h-.02s-.02,0-.02,0h-.03s-.02,0-.02,0h-.01s-.02,0-.02,0h-.03s-.01,0-.01,0h-.02s-.01,0-.01,0h0s0-.02,0-.02v-.03s0-.03,0-.03v-.04s0-.06,0-.06v-.1s0-.03,0-.03h0v-.1s0-.07,0-.07v-.08s0-.13,0-.13v-.06s0-.07,0-.07v-.04s0-.07,0-.07v-.08s0-.08,0-.08v-.08s0-.04,0-.04v-.08s0-.04,0-.04v-.04s0-.08,0-.08v-.04s0-.06,0-.06h.02s0-.01,0-.01h.01s.02,0,.02,0h.03s.02,0,.02,0h.01s.04,0,.04,0h0s0,0,0,0h.02s.03,0,.03,0h.01s.02,0,.02,0h.04s.04,0,.04,0h.02s.02,0,.02,0h.17s.03.01.03.01h.03s.03,0,.03,0h.04s.11,0,.11,0h0s.02,0,.02,0h.08s.03,0,.03,0h.01s0,.01,0,.01v.02s.01.02.01.02v.02s.03.06.03.06v.03s-.01.02-.01.02h0s.01.06.01.06h0s-.01.02-.01.02h-.02s-.02.04-.02.04l-.03.03-.03.02h-.02s-.01,0-.01,0h0s-.01,0-.01,0h-.04s-.03,0-.03,0h-.01s-.06,0-.06,0h-.26s-.08,0-.08,0v.02s0,.15,0,.15v.06s0,.03,0,.03h0s.08,0,.08,0h.2s.02,0,.02,0h.02s.02,0,.02,0h.04s.02,0,.02,0h.02s.01,0,.01,0h.02l.02.02v.02s0,.02,0,.02l.02.02v.02s0,.02,0,.02h0s0,.04,0,.04v.02s0,.01,0,.01v.02s0,.02,0,.02h0s0,.02,0,.02h0s0,.02,0,.02h-.01s-.02.01-.02.01l-.02.03h0v.02h-.03s-.02.02-.02.02h-.14s-.07,0-.07,0h-.07s-.1,0-.1,0h-.06s-.02.02-.02.02h0s0,.06,0,.06v.08s0,.06,0,.06v.04s0,.03,0,.03h.04s.05,0,.05,0h.02s.06,0,.06,0h.03s.06.01.06.01h.05s.15,0,.15,0h.03s.04,0,.04,0h.04s.03,0,.03,0h0s0,.03,0,.03v.02s.02.01.02.01h0s0,.02,0,.02h0s0,.02,0,.02h0s0,0,0,0h0s.01.02.01.02v.02s0,.02,0,.02v.03s-.01.02-.01.02h.02s0,.02,0,.02h0s-.02.01-.02.01h-.02s0,.03,0,.03h0s0,.02,0,.02h-.01s-.02.01-.02.01h-.01s-.04,0-.04,0h-.05s-.14,0-.14,0h-.03s-.02,0-.02,0h-.03s-.12,0-.12,0h-.07s-.09,0-.09,0h-.04s0,.01,0,.01h0Z"/>
  </g>
  <g>
    <path class="cls-1" d="M8.48,3.85l-.08-.02-.07-.03h-.06s-.06-.03-.06-.03l-.1-.05-.06-.03-.04-.03-.06-.04-.04-.03-.04-.02-.03-.03-.05-.04-.04-.04v-.02s0-.02,0-.02v-.04s.04-.02.04-.02l.02-.02v-.02h0s.03-.05.03-.05h.01s0-.03,0-.03l.02-.02v-.02s.01-.01.01-.01l.04-.03.02-.05h.02s.01-.05.01-.05l.02-.04h.02s0-.04,0-.04h0s.01-.04.01-.04h.04s.02.01.02.01h0v-.02s.02-.01.02-.01l.09.06.12.08.09.05h.08s.1.02.1.02l.12-.05.08-.05.07-.11.05-.15v-.09s-.02-.04-.02-.04l-.02-.05-.02-.06-.02-.02-.02-.03-.03-.02-.02-.02-.03-.04-.03-.04-.04-.03-.02-.03-.03-.02-.15-.12-.09-.1-.07-.07-.13-.15-.09-.16-.03-.07-.03-.11v-.13s0-.17,0-.17l.02-.07.06-.12.04-.06.03-.05.02-.03.07-.07.06-.06.06-.05.07-.06.09-.06.12-.04.07-.03.1-.03.2-.02h.22s.13.02.13.02h.05s.03.02.03.02v.02s0,0,0,0h0s.01.03.01.03h.02s0,.05,0,.05v.02s0,.07,0,.07h-.02,0s0,.04,0,.04v.07s.01.01.01.01h-.02s0,.02,0,.02l.03.03h-.01s.01.03.01.03v.02s0,.02,0,.02h-.02v.02h.01s.03.03.03.03h.01v.02h-.01s-.02.01-.02.01v.04s0,.04,0,.04v.02s-.01.05-.01.05v.06s-.03.02-.03.02l-.03-.02-.11-.03h-.08s-.18-.01-.18-.01l-.11.04-.03.03-.04.03-.04.05-.02.1.06.09.1.09.13.12.08.07.08.08.13.13.13.16.12.16.04.08.06.17.03.17v.11s0,.12,0,.12l-.06.18-.05.1-.1.17-.08.09-.05.04-.03.04-.13.11-.09.06-.1.05-.12.04-.09.03h-.07s-.17.03-.17.03h-.14Z"/>
    <path class="cls-1" d="M12.06,3.79v-.03s-.01-.01-.01-.01h0s0,.02,0,.02v.02s-.04-.02-.04-.02v-.02s0-.04,0-.04v-.03s0-.03,0-.03v-.03s-.03,0-.03,0v.03s-.01.02-.01.02h0s-.01,0-.01,0v.06s0,.06,0,.06l-.02-.04v-.09s0-.07,0-.07v-.04s0-.05,0-.05h0s0,.06,0,.06l.04.03h.04s0-.01,0-.01v-.02s-.05,0-.05,0v-.03s0-.1,0-.1v-.08s.01,0,.01,0v.03s.03.04.03.04h-.01v.03h.01s.01-.04.01-.04v-.08s0-.02,0-.02h-.02v.02h-.02v-.06s0-.11,0-.11v-.1s0-.08,0-.08v-.2s0-.12,0-.12v-.09s0-.03,0-.03v-.08h0s-.03-.03-.03-.03l-.02-.03h0s-.02.06-.02.06h-.01s0-.03,0-.03v-.03s0-.03,0-.03v-.02s-.03,0-.03,0h-.27s-.27.01-.27.01h-.05s-.05,0-.05,0h-.05s-.11.01-.11.01h-.09s0,.08,0,.08v.14s0,.25,0,.25v.11s0,.09,0,.09v.2s-.02.16-.02.16v.08s-.02.02-.02.02v.02s-.02.04-.02.04v.03s-.01.05-.01.05v.07s-.05.02-.05.02h-.03s-.02.01-.02.01h-.05s-.01,0-.01,0h-.03s-.03,0-.03,0l-.03.02h-.02s0,0,0,0h0s-.03,0-.03,0h-.04s-.03.03-.03.03v-.02s-.03,0-.03,0h-.04s-.04,0-.04,0h-.03s-.02.03-.02.03h-.02s0-.02,0-.02h-.02s-.03.02-.03.02l-.02-.02-.02-.04v-.04s0-.02,0-.02v-.02s0-.07,0-.07v-.04h-.02v-.02s0-.18,0-.18v-.05s0-.05,0-.05v-.09s0-.23,0-.23v-.18s0-.15,0-.15v-.15s0-.23,0-.23v-.11s0-.08,0-.08v-.18s0-.09,0-.09v-.15s0-.1,0-.1v-.06s0-.21,0-.21v-.07s0-.2,0-.2v-.05s0-.06,0-.06l.02-.12.02-.15v-.07s.08,0,.08,0h.08s.04,0,.04,0h.04s.02,0,.02,0h.02s.03,0,.03,0h.03s.02,0,.02,0h.01s.04,0,.04,0h.04s0,0,0,0h.02s.02-.02.02-.02h.12s.05,0,.05,0h.05s0,.06,0,.06v.07s0,.04,0,.04v.06s0,.06,0,.06v.05s0,.08,0,.08v.13s0,.16,0,.16v.08s0,.07,0,.07v.16s0,.11,0,.11v.02s.03,0,.03,0h.18s.1,0,.1,0h0s0,.01,0,.01h-.05s-.02,0-.02,0h0s.1,0,.1,0h.28s.22,0,.22,0h.06s0-.04,0-.04v-.05s0-.06,0-.06v-.07s0-.05,0-.05v-.06s0-.06,0-.06v-.11s0-.07,0-.07v-.07s0-.08,0-.08v-.13s0-.07,0-.07v-.11s.01-.11.01-.11l.05-.05h.06s.04,0,.04,0h.08s.04,0,.04,0h.05s.02,0,.02,0h.01s.02,0,.02,0l.02-.02h.03s.05,0,.05,0h.1s.05,0,.05,0h.07s0,.05,0,.05v.06s0,.07,0,.07v.34s0,.11,0,.11v.14s0,.06,0,.06v.05s0,.07,0,.07v.12s0,.11,0,.11v.04s0,.02,0,.02v.03s0,.05,0,.05v.07s0,.12,0,.12v.14s0,.06,0,.06v.04s0,.16,0,.16v.1s.01.15.01.15v.28s0,.22,0,.22v.04s0,.07,0,.07v.08s0,.07,0,.07v.03s0,.04,0,.04v.07s-.01.07-.01.07l-.02.04v.03h-.04s0,.02,0,.02h-.05s-.02.02-.02.02h-.01s-.01-.03-.01-.03h-.02s0,.02,0,.02v.02s-.03,0-.03,0v-.04s-.01-.02-.01-.02h0v.05s-.04,0-.04,0h-.02s0,.01,0,.01h-.01s0-.01,0-.01v.03s-.01.04-.01.04h-.02v-.02s-.04-.01-.04-.01v.03s-.02.03-.02.03h-.01Z"/>
    <path class="cls-1" d="M14.02,3.94l-.12-.04-.1-.04-.1-.06-.13-.08-.08-.06-.09-.08-.07-.08-.06-.08-.07-.09-.05-.1-.03-.07-.06-.13-.03-.09-.05-.2-.02-.18v-.32s.01-.08.01-.08v-.07s.02-.13.02-.13v-.08s.03-.09.03-.09l.03-.08.02-.12.02-.08.03-.05v-.05s.02-.05.02-.05l.02-.05v-.03s.03-.04.03-.04l.02-.07.03-.06.02-.05.05-.06.02-.08.06-.06.05-.07.08-.1.1-.09.1-.08.08-.05.14-.06.12-.05.12-.03.1-.02.08-.02h.27s.07,0,.07,0h.1s.1.04.1.04l.09.04.17.09.13.11.11.12.12.16.07.15.06.15.03.12.02.09v.12s.02.08.02.08v.1s0,.48,0,.48v.13s-.02.1-.02.1v.08s-.03.01-.03.01l-.02.09-.02.12v.05s-.02.04-.02.04v.04s0,.03,0,.03l-.02.08-.02.13-.05.15-.04.12v.04s-.03.03-.03.03l-.03.06-.04.05-.02.05-.04.02-.09.09-.15.1-.08.04-.1.04-.1.02h-.08s-.08.03-.08.03h-.03s-.22,0-.22,0h-.02s-.02,0-.02,0h-.02s-.11.03-.11.03h-.18ZM14.44,3.21h.07s.03-.01.03-.01h.03s.02-.03.02-.03l.05-.02.06-.02.02-.02.03-.04.04-.05.04-.06.03-.09.03-.08v-.05s.02-.03.02-.03v-.05l.02-.05.02-.03v-.06s0-.03,0-.03l.02-.03v-.04s0-.04,0-.04v-.04s0-.06,0-.06v-.08s.02-.07.02-.07v-.05s0-.11,0-.11v-.16s0-.17,0-.17v-.05s0-.02,0-.02v-.04s-.03-.08-.03-.08l-.05-.14-.05-.07-.11-.12-.09-.05-.11-.03-.17.02-.07.02h-.08s-.05.03-.05.03l-.06.04-.04.03v.03s-.05.03-.05.03l-.06.09-.04.06v.04s-.04.06-.04.06v.05s-.03.04-.03.04l-.02.08-.02.07v.04s-.03.07-.03.07v.11s-.03.16-.03.16v.14s0,.12,0,.12v.11s.03.13.03.13l.03.09v.05s.05.06.05.06l.07.11.15.13.15.09.07.03h.02s0,.03,0,.03h.02s.09,0,.09,0Z"/>
    <path class="cls-1" d="M16.33,3.85h-.02s-.01,0-.01,0h-.01s0,.01,0,.01v-.02s-.03-.02-.03-.02l-.02-.03v-.04s-.02-.05-.02-.05v-.08s0-.03,0-.03v-.04s0-.11,0-.11v-.12s-.03-.05-.03-.05v-.03s.02-.03.02-.03v-.08s0-.07,0-.07h0s0-.01,0-.01h0s0,.02,0,.02h-.01s0-.08,0-.08v-.14s0-.09,0-.09v-.05s0-.04,0-.04v-.03s0-.06,0-.06v-.04s0-.05,0-.05v-.11s0-.04,0-.04v-.04s0-.05,0-.05v-.04s0-.03,0-.03v-.04s0-.03,0-.03v-.07s0-.07,0-.07v-.04s0-.05,0-.05v-.05s.01-.04.01-.04v-.02s0-.02,0-.02v-.03s.01-.06.01-.06v-.06s0-.08,0-.08v-.1s0-.02,0-.02v-.17s0-.15,0-.15v-.22s.01-.21.01-.21v-.1s0-.03,0-.03l.03-.02h.02s.04,0,.04,0h.04s.02,0,.02,0l.02-.02h.02s.02,0,.02,0l.02.02h.01s.01-.03.01-.03h.03s.02,0,.02,0h.03s.05,0,.05,0h.03s.05,0,.05,0h.05s.05,0,.05,0h.03s.02,0,.02,0h.02s.02,0,.02,0h.4s.19.02.19.02l.08.02.14.05.09.05.15.12.13.14.06.09.08.2.04.22v.2s0,.09,0,.09v.12s-.05.11-.05.11l-.03.07-.07.13-.08.12-.08.1-.11.1-.17.12-.15.05-.14.03-.22.02h-.16s-.05,0-.05,0h-.02s0,.05,0,.05v.07s0,.04,0,.04v.05l-.02.05v.03s.02.02.02.02v.03s-.02.06-.02.06v.15s0,.11,0,.11v.1s-.01.12-.01.12v.12s-.05.04-.05.04l-.02.02h0s-.02,0-.02,0l-.02.02-.02.03-.03.03h-.02s-.02,0-.02,0h0s0,0,0,0v-.02h0s0-.02,0-.02h0s-.02.02-.02.02v.03s-.01.02-.01.02h-.02s-.02-.01-.02-.01v-.02s-.01,0-.01,0h0s-.01.03-.01.03h-.02s-.01.04-.01.04v.02h-.02v-.03h-.02l-.02.03h-.04s-.05-.03-.05-.03ZM17.01,1.95l.17-.03h.07s.09-.05.09-.05l.08-.05.03-.02.05-.06.05-.12v-.15l-.07-.16-.11-.07-.06-.02h-.04s-.04,0-.04,0h-.25s0,.09,0,.09v.1s0,.04,0,.04v.06s-.01.13-.01.13v.12s0,.07,0,.07v.07s0,.06,0,.06h.01s.06,0,.06,0Z"/>
  </g>
  <path class="cls-1" d="M20.59,2.09c-.15-.16-.16-.17-.32-.34-.16-.16-.16-.17-.32-.33-.16-.16-.17-.16-.33-.32-.16-.16-.19-.14-.35-.3-.06-.06-.13-.12-.2-.18-.03-.03-.07-.06-.1-.09-.01-.01-.02-.05-.04-.05,0,0,0,0-.01,0,0,0,0,0,0,0,0,0,0,0,0,0h0s0,0,0,0c0,0,0,0-.01,0,0,0-.02,0-.02.01-.04.03.02.1.01.13,0,.05-.02.11-.02.16,0,0,0,.01,0,.02,0,.04,0,.08,0,.15,0,.23-.02.23-.02.46,0,.23,0,.23,0,.46,0,.23,0,.23,0,.46,0,.23,0,.23,0,.46,0,.23,0,.23,0,.46,0,.23,0,.23,0,.46,0,.18,0,.28,0,.34.08-.09.17-.19.27-.28.16-.16.19-.14.35-.3s.15-.18.31-.34c.16-.16.16-.17.32-.33.16-.16.16-.17.32-.33.14-.13.18-.17.29-.27-.02-.02-.06-.06-.12-.13Z"/>
</svg>