<?xml version="1.0" encoding="UTF-8"?>
<svg id="Layer_1" data-name="Layer 1" xmlns="http://www.w3.org/2000/svg" viewBox="0 0 37.69 3.55">
  <g>
    <path d="M1.07,3.22l-.07-.02-.06-.03h-.05s-.05-.03-.05-.03l-.09-.04-.05-.03-.03-.02-.05-.03-.04-.03-.04-.02-.03-.03-.04-.03-.03-.04v-.02s0-.02,0-.02v-.04s.04-.02.04-.02l.02-.02v-.02h0s.03-.04.03-.04h.01s0-.03,0-.03l.02-.02v-.02s.01-.01.01-.01l.03-.03.02-.04h.02s.01-.05.01-.05l.02-.03h.02s0-.04,0-.04h0s.01-.03.01-.03h.03s.02.01.02.01h0v-.02s.02-.01.02-.01l.08.05.1.07.08.05h.07s.09.02.09.02l.11-.04.07-.04.06-.09.05-.14v-.08s-.02-.03-.02-.03l-.02-.05-.02-.05-.02-.02-.02-.02-.03-.02-.02-.02-.03-.04-.03-.03-.03-.03-.02-.03-.03-.02-.13-.11-.08-.09-.06-.07-.12-.14-.08-.14-.02-.07-.03-.1v-.12s0-.15,0-.15l.02-.07.05-.1.03-.05.03-.04.02-.03.06-.06.05-.05.05-.05.07-.05.08-.05.11-.04.06-.02.09-.03.17-.02h.19s.11.02.11.02h.04s.03.02.03.02v.02s0,0,0,0h0s.01.02.01.02h.02s0,.04,0,.04v.02s0,.06,0,.06h-.02,0s0,.03,0,.03v.06s.01.01.01.01h-.02s0,.02,0,.02l.03.03h-.01s.01.02.01.02v.02s0,.02,0,.02h-.02v.02h.01s.03.03.03.03h.01v.02h-.01s-.02.01-.02.01v.03s0,.03,0,.03v.02s-.01.05-.01.05v.05s-.02.02-.02.02l-.03-.02-.1-.03h-.07s-.16-.01-.16-.01l-.1.03-.03.02-.03.03-.04.04-.02.09.05.08.09.08.11.11.07.06.07.07.12.12.11.14.1.14.03.07.05.15.03.15v.1s0,.1,0,.1l-.05.16-.04.09-.09.15-.07.08-.05.04-.03.04-.12.1-.08.05-.09.05-.1.04-.08.02h-.07s-.15.03-.15.03h-.12Z"/>
    <path d="M3.03,3.14h-.03s0-.03,0-.03v-.14s0-.05,0-.05v-.04s0-.03,0-.03v-.04s0-.06,0-.06v-.36s0-.1,0-.1v-.26s0-.08,0-.08v-.33s0-.39,0-.39v-.07s-.01-.12-.01-.12v-.1s-.01-.07-.01-.07h-.05s-.2,0-.2,0l-.21.02h-.12s-.06,0-.06,0l-.03-.02v-.02s0-.05,0-.05v-.05s0-.02,0-.02v-.03s.02-.03.02-.03v-.02s0-.03,0-.03v-.03s0-.02,0-.02v-.09s0-.03,0-.03v-.03s.02-.1.02-.1v-.03s.05-.04.05-.04h.07s.07,0,.07,0h.19s.06,0,.06,0h.1s.14,0,.14,0h.08s.13,0,.13,0h.09s.08,0,.08,0h.09l.14-.02h.13s.1-.01.1-.01h.09s.05,0,.05,0h.28s.05,0,.05,0h.05s0,.05,0,.05v.05s0,.04,0,.04v.04s0,.03,0,.03v.02s-.02.03-.02.03h-.01s0,.03,0,.03v.03s.01.02.01.02v.02s-.02.02-.02.02v.02s.02.04.02.04l-.03.03v.03s0,.03,0,.03l.02.02-.03.03-.03.03h-.03s-.05,0-.05,0l-.04.02h-.04s-.09,0-.09,0h-.31s-.05.02-.05.02l-.05.03v.21s.01.14.01.14v.44s0,.62,0,.62v.1s-.01.08-.01.08v.08s0,.08,0,.08v.23s0,.13,0,.13v.06s-.03.02-.03.02h-.05s-.04.05-.04.05h-.01v-.03s-.03.01-.03.01h-.01s-.02,0-.02,0l-.02.03h0s0-.02,0-.02h-.03s-.02.02-.02.02h-.03s-.02,0-.02,0h-.02s-.02,0-.02,0h-.02s-.03,0-.03,0h-.03s-.02,0-.02,0h-.01s-.02.01-.02.01v.02s-.11-.02-.11-.02Z"/>
    <path d="M6.11,3.16l-.05-.09-.09-.13-.05-.07-.11-.15-.1-.13-.07-.09-.05-.04-.05-.06-.18-.21-.04-.05h-.02v.16s0,.09,0,.09v.14s0,.09,0,.09v.05s-.01.11-.01.11v.17s0,.1,0,.1l-.03.05h-.04s-.03,0-.03,0h-.04s-.01.02-.01.02h-.03s-.04.02-.04.02h-.02s0-.01,0-.01h-.02s-.02,0-.02,0h-.05s-.02,0-.02,0h-.03s-.02,0-.02,0h-.02s-.06.02-.06.02h-.05s-.05,0-.05,0h-.02s0-.02,0-.02v-.11s0-.08,0-.08v-.15s0-.07,0-.07v-.15s0-.07,0-.07v-.1s0-.07,0-.07v-.05s0-.09,0-.09v-.09s0-.1,0-.1v-.1s0-.05,0-.05v-.06s0-.14,0-.14v-.1s0-.08,0-.08v-.07s0-.1,0-.1v-.05s0-.08,0-.08v-.08s0-.17,0-.17v-.04s0-.06,0-.06v-.07s0-.03,0-.03v-.31s0-.07,0-.07v-.04s0,0,0,0h0s.03-.01.03-.01h.08s.02,0,.02,0h0s.03,0,.03,0h.05s.02,0,.02,0h.04s.02,0,.02,0h.13s.07-.01.07-.01h.03s.03,0,.03,0h.03s.06,0,.06,0h.07s.05-.02.05-.02h.04s.04,0,.04,0h.15s.04.02.04.02h.06s.05.03.05.03h.03s.03.02.03.02l.11.04.09.06.06.05.04.05.04.08.04.11.03.1.02.06v.03s.02.07.02.07l.03.09v.05s0,.06,0,.06l.02.06v.02s-.02.05-.02.05v.05l-.02.03-.02.08-.04.09-.02.05-.07.1-.02.03-.06.05-.04.05-.04.03-.06.04-.04.03.02.05.02.04.06.07.1.12.1.14.07.1.06.09.1.14.07.11.04.07.03.06-.03.03-.03.03h-.02s-.02.01-.02.01v.02s-.02.02-.02.02h-.04l-.02.04h-.01s-.01,0-.01,0h0s-.03.02-.03.02h-.03s-.01.03-.01.03h-.02s-.02.02-.02.02v.02s-.03,0-.03,0l-.02.02-.02.02h-.02s-.01.02-.01.02h-.02s-.02.02-.02.02h-.05s-.04-.05-.04-.05ZM5.41,1.49h.08s.1-.01.1-.01l.02-.02.05-.04.07-.05.05-.05.03-.07v-.08s-.01-.11-.01-.11l-.05-.12-.05-.03-.05-.02-.08-.03h-.07s-.09-.01-.09-.01h-.09s0,.06,0,.06v.34s0,.15,0,.15v.08h.01s.09.01.09.01Z"/>
    <path d="M7.15,3.11h-.02l-.03-.02h-.02s0,0,0,0h-.03s-.03.02-.03.02h-.03s-.02-.01-.02-.01l-.02-.02v.02s-.03.02-.03.02l-.03-.02-.02-.02h-.03s-.02,0-.02,0h-.01s-.01.02-.01.02v-.02s-.04-.01-.04-.01v-.03s.01-.07.01-.07l.03-.12.02-.08.03-.14.03-.13.02-.08.02-.09.03-.12.03-.13.03-.16.02-.09.04-.18.02-.09.03-.19.02-.12.03-.09.04-.15.03-.14.04-.14.03-.12.04-.11.02-.07.02-.07.02-.05v-.02s.02,0,.02,0h.02s.04,0,.04,0h.03s.02,0,.02,0h.04s.03.02.03.02h.02s.03,0,.03,0h.03s.03,0,.03,0h.04s.02,0,.02,0h.03s.04,0,.04,0h.03s.03,0,.03,0h.07s.04,0,.04,0h.02s.02-.01.02-.01h.02s.01,0,.01,0h0s.03.07.03.07l.03.07.04.1.04.13.03.1.02.07.03.13.02.08v.05s.04.1.04.1l.03.09.03.08.02.08.03.08.06.23.02.08.04.16.03.12v.03s.02.07.02.07l.02.08.05.22v.05s.02.06.02.06l.02.09.02.08v.05s.02.05.02.05v.04l-.03.03h-.03s-.04.03-.04.03h-.02s-.02.01-.02.01h-.03s-.02.03-.02.03h-.02s-.04.02-.04.02h-.01s-.02,0-.02,0h-.02s-.01.03-.01.03l-.03.02h-.02s-.02,0-.02,0l-.03.04h-.01s-.02-.02-.02-.02l-.06.02h-.06s-.02-.02-.02-.02l-.03-.1-.03-.12-.03-.14-.03-.13h-.06s-.08,0-.08,0h-.07s-.3,0-.3,0h-.06s0,.03,0,.03v.05s-.03.04-.03.04l-.02.09-.02.08-.02.08-.03.09-.03.02h-.03s-.03.03-.03.03h-.05s-.02,0-.02,0l-.03-.02-.02.03h0s0,0,0,0ZM7.89,1.99v-.08s-.03-.11-.03-.11v-.05s-.02-.03-.02-.03l-.02-.08-.02-.08-.02-.07-.02-.08v-.04s-.02,0-.02,0h0s-.02.09-.02.09l-.02.09-.02.1-.03.16-.02.07-.02.1h.05s.09,0,.09,0h.06s.05,0,.05,0h.03Z"/>
    <path d="M9.14,3.24v-.05s-.05,0-.05,0h-.02s-.02-.03-.02-.03l-.02-.05v-.05s-.03-.03-.03-.03v-.04s0-.04,0-.04v-.02s.01-.02.01-.02l.02-.03v-.09s0-.02,0-.02v-.15s0-.02,0-.02v-.05s0-.06,0-.06v-.05s0-.04,0-.04v-.08s0-.31,0-.31v-.05s0-.05,0-.05v-.14s0-.04,0-.04v-.04s0-.1,0-.1v-.08s.02-.21.02-.21v-.07s0-.09,0-.09v-.11s0-.11,0-.11v-.14s0-.16,0-.16v-.2s0-.12,0-.12l.02-.03h.03s.03,0,.03,0h.04s.21,0,.21,0h.02s.02,0,.02,0h.02s.03,0,.03,0h.03s.02,0,.02,0h.02s.03-.02.03-.02l.04.02h.05s.03,0,.03,0v.09s0,.08,0,.08v.15s0,.06,0,.06v.06s0,.05,0,.05v.06s0,.05,0,.05v.03s0,.01,0,.01h.02s0,0,0,0v.02s-.02,0-.02,0h0s0,.02,0,.02v.03s.02.02.02.02v.17s-.02.02-.02.02h-.01s0,.02,0,.02v.06s.02,0,.02,0h0v.06h-.02v.02s0,.01,0,.01v.03s0,.02,0,.02h.01v.04s-.01.02-.01.02v.02s0,.04,0,.04v.05h.02s0,.03,0,.03v.07l.02.08v.09s.01.12.01.12v.1s0,.12,0,.12v.13s0,.09,0,.09v.07s0,.1,0,.1v.08s-.01.12-.01.12v.11s-.01.04-.01.04l-.02.06v.04s-.02.02-.02.02l-.03.02h-.02s-.03.01-.03.01v.03s-.03,0-.03,0h-.02s-.02,0-.02,0h-.02s-.02,0-.02,0h-.02s-.01-.02-.01-.02v.02s-.02.04-.02.04v-.06h-.03v.02s-.05.03-.05.03h0s0,.02,0,.02v-.02s-.03-.01-.03-.01l-.02.02v.05s-.01.03-.01.03h0v-.02s0-.03,0-.03h0s-.02,0-.02,0h-.02s0,.04,0,.04v.05s-.02.03-.02.03h0s0-.09,0-.09Z"/>
    <path d="M11.09,3.3l-.11-.02h-.04l-.06-.02-.04-.02h-.04s-.06-.04-.06-.04h-.05s-.02-.04-.02-.04h-.03s-.01-.02-.01-.02l-.04-.03-.07-.07-.05-.05h-.03s-.02-.04-.02-.04l-.05-.06-.03-.07-.02-.04-.02-.03-.04-.05-.03-.08-.03-.06v-.04s0-.03,0-.03v-.02s-.02-.02-.02-.02v-.04s-.02-.03-.02-.03v-.07s-.03-.1-.03-.1v-.09s-.02-.04-.02-.04v-.09s-.04-.14-.04-.14l-.02-.1v-.05s0-.15,0-.15v-.05s0-.07,0-.07l.02-.05v-.02s0-.05,0-.05v-.04s0-.02,0-.02l.02-.03v-.03s0-.01,0-.01l.02-.03v-.06l.02-.04v-.03s.03-.06.03-.06v-.05s.03-.07.03-.07l.02-.09.03-.03.03-.06.05-.09.02-.05.03-.02.09-.09.06-.05.07-.06.06-.04.14-.07.09-.03h.02s.05,0,.05,0h.06s.04-.03.04-.03h.03s.02,0,.02,0h.03s.03,0,.03,0h.07s.03,0,.03,0h.03s.07,0,.07,0h.13s.03.01.03.01h.03s.1.03.1.03h.03s.05.02.05.02l.05.02.09.04.08.05.1.07.04.03v.02s0,.02,0,.02l-.02.04-.03.02-.02.02v.03s-.03.01-.03.01h-.02v.04l-.02.03-.03.02v.02s0,0,0,0h-.03s0,.02,0,.02v.03s-.03,0-.03,0v.02s-.03.02-.03.02v.02s-.03,0-.03,0l-.02.04-.02.02v.02s-.03.01-.03.01l-.02.03h-.03s-.05-.03-.05-.03l-.06-.04-.05-.02-.11-.03h-.1s-.02-.01-.02-.01h0s-.02-.01-.02-.01h-.06s-.07.02-.07.02h-.02s-.02.03-.02.03l-.08.02-.09.05-.06.06-.06.12-.05.14-.02.09v.07s-.01.09-.01.09v.08s-.02.05-.02.05v.09s.02.07.02.07v.15s.03.1.03.1l.02.08.02.07.03.09.03.09.03.07.05.09.09.07.07.03.07.03.08.02h.05s.05,0,.05,0h.06s.04-.02.04-.02l.04-.03.04-.04v-.03s0-.09,0-.09v-.14s-.02-.12-.02-.12v-.11s-.05,0-.05,0l-.3.03-.12.02h-.03s0-.01,0-.01h0s0-.02,0-.02l-.02-.02v-.02s0-.02,0-.02v-.03s0-.05,0-.05v-.05s0-.02,0-.02v-.02s0-.03,0-.03v-.03s0-.02,0-.02v-.03s0-.05,0-.05v-.03s0-.09,0-.09v-.02s0-.03,0-.03v-.04s.01-.01.01-.01l.06-.03.12-.02h.14s.15-.01.15-.01h.15s.1,0,.1,0h.13s.02,0,.02,0h.03s.04,0,.04,0h.03s.02,0,.02,0h.03s.02,0,.02,0h.04s.03,0,.03,0v.03s.02.1.02.1v.12s0,.13,0,.13v.17s-.01.12-.01.12v.21s.01.08.01.08v.12l-.02.08v.09s-.02.06-.02.06l-.03.02-.03.07-.03.06h0s-.02.05-.02.05l-.03.05-.03.04-.07.07-.09.08-.06.04-.02.02-.04.03-.05.03-.02.03h-.07s-.03,0-.03,0l-.03.02h-.05s-.03,0-.03,0h-.09s-.05,0-.05,0h-.05s-.05,0-.05,0h-.04s-.02.01-.02.01h0s-.03,0-.03,0Z"/>
    <path d="M14.28,3.17v-.03s-.01-.01-.01-.01h0s0,.02,0,.02v.02s-.03-.02-.03-.02v-.02s0-.03,0-.03v-.03s0-.03,0-.03v-.03s-.02,0-.02,0v.03s-.01.02-.01.02h0s-.01,0-.01,0v.05s0,.05,0,.05l-.02-.04v-.08s0-.06,0-.06v-.04s0-.05,0-.05h0s0,.05,0,.05l.03.03h.03s0-.01,0-.01v-.02s-.05,0-.05,0v-.03s0-.09,0-.09v-.07s.01,0,.01,0v.03s.03.04.03.04h-.01v.03h.01s.01-.04.01-.04v-.07s0-.02,0-.02h-.02v.02h-.02v-.05s0-.09,0-.09v-.09s0-.07,0-.07v-.18s0-.1,0-.1v-.08s0-.03,0-.03v-.07h0s-.03-.03-.03-.03l-.02-.03h0s-.02.05-.02.05h-.01s0-.03,0-.03v-.03s0-.03,0-.03v-.02s-.03,0-.03,0h-.23s-.24.01-.24.01h-.05s-.04,0-.04,0h-.05s-.09.01-.09.01h-.08s0,.07,0,.07v.12s0,.22,0,.22v.09s0,.08,0,.08v.18s-.02.14-.02.14v.07s-.02.02-.02.02v.02s-.02.03-.02.03v.03s-.01.05-.01.05v.06s-.04.02-.04.02h-.03s-.02.01-.02.01h-.04s-.01,0-.01,0h-.02s-.03,0-.03,0l-.02.02h-.02s0,0,0,0h0s-.03,0-.03,0h-.03s-.03.03-.03.03v-.02s-.02,0-.02,0h-.03s-.04,0-.04,0h-.03s-.02.03-.02.03h-.02s0-.02,0-.02h-.02s-.03.02-.03.02l-.02-.02-.02-.03v-.03s0-.02,0-.02v-.02s0-.06,0-.06v-.03h-.02v-.02s0-.16,0-.16v-.05s0-.05,0-.05v-.08s0-.2,0-.2v-.16s0-.13,0-.13v-.13s0-.2,0-.2v-.1s0-.07,0-.07v-.16s0-.08,0-.08v-.14s0-.09,0-.09v-.05s0-.19,0-.19v-.06s0-.17,0-.17v-.04s0-.05,0-.05l.02-.11.02-.13v-.06s.07,0,.07,0h.07s.03,0,.03,0h.04s.02,0,.02,0h.02s.02,0,.02,0h.03s.02,0,.02,0h.01s.03,0,.03,0h.03s0,0,0,0h.02s.02-.02.02-.02h.11s.04,0,.04,0h.04s0,.05,0,.05v.06s0,.04,0,.04v.05s0,.05,0,.05v.05s0,.07,0,.07v.11s0,.14,0,.14v.07s0,.06,0,.06v.14s0,.09,0,.09v.02s.03,0,.03,0h.16s.09,0,.09,0h0s0,.01,0,.01h-.04s-.02,0-.02,0h0s.09,0,.09,0h.25s.19,0,.19,0h.05s0-.03,0-.03v-.04s0-.05,0-.05v-.07s0-.04,0-.04v-.05s0-.05,0-.05v-.09s0-.06,0-.06v-.06s0-.07,0-.07v-.12s0-.06,0-.06v-.1s.01-.1.01-.1l.04-.04h.05s.04,0,.04,0h.07s.04,0,.04,0h.04s.02,0,.02,0h.01s.02,0,.02,0l.02-.02h.03s.04,0,.04,0h.09s.04,0,.04,0h.06s0,.04,0,.04v.05s0,.06,0,.06v.3s0,.1,0,.1v.12s0,.05,0,.05v.05s0,.06,0,.06v.1s0,.1,0,.1v.04s0,.02,0,.02v.03s0,.04,0,.04v.07s0,.11,0,.11v.12s0,.05,0,.05v.03s0,.14,0,.14v.09s.01.13.01.13v.25s0,.2,0,.2v.03s0,.06,0,.06v.07s0,.06,0,.06v.03s0,.03,0,.03v.06s-.01.06-.01.06l-.02.04v.03h-.03s0,.02,0,.02h-.05s-.02.02-.02.02h-.01s-.01-.03-.01-.03h-.02s0,.02,0,.02v.02s-.03,0-.03,0v-.03s-.01-.02-.01-.02h0v.05s-.04,0-.04,0h-.02s0,.01,0,.01h-.01s0-.01,0-.01v.03s-.01.04-.01.04h-.02v-.02s-.03-.01-.03-.01v.02s-.02.03-.02.03h-.01Z"/>
    <path d="M15.74,3.14h-.03s0-.03,0-.03v-.14s0-.05,0-.05v-.04s0-.03,0-.03v-.04s0-.06,0-.06v-.36s0-.1,0-.1v-.26s0-.08,0-.08v-.33s0-.39,0-.39v-.07s-.01-.12-.01-.12v-.1s-.01-.07-.01-.07h-.05s-.2,0-.2,0l-.21.02h-.12s-.06,0-.06,0l-.03-.02v-.02s0-.05,0-.05v-.05s0-.02,0-.02v-.03s.02-.03.02-.03v-.02s0-.03,0-.03v-.03s0-.02,0-.02v-.09s0-.03,0-.03v-.03s.02-.1.02-.1v-.03s.05-.04.05-.04h.07s.07,0,.07,0h.19s.06,0,.06,0h.1s.14,0,.14,0h.08s.13,0,.13,0h.09s.08,0,.08,0h.09l.14-.02h.13s.1-.01.1-.01h.09s.05,0,.05,0h.28s.05,0,.05,0h.05s0,.05,0,.05v.05s0,.04,0,.04v.04s0,.03,0,.03v.02s-.02.03-.02.03h-.01s0,.03,0,.03v.03s.01.02.01.02v.02s-.02.02-.02.02v.02s.02.04.02.04l-.03.03v.03s0,.03,0,.03l.02.02-.03.03-.03.03h-.03s-.05,0-.05,0l-.04.02h-.04s-.09,0-.09,0h-.31s-.05.02-.05.02l-.05.03v.21s.01.14.01.14v.44s0,.62,0,.62v.1s-.01.08-.01.08v.08s0,.08,0,.08v.23s0,.13,0,.13v.06s-.03.02-.03.02h-.05s-.04.05-.04.05h-.01v-.03s-.03.01-.03.01h-.01s-.02,0-.02,0l-.02.03h0s0-.02,0-.02h-.03s-.02.02-.02.02h-.03s-.02,0-.02,0h-.02s-.02,0-.02,0h-.02s-.03,0-.03,0h-.03s-.02,0-.02,0h-.01s-.02.01-.02.01v.02s-.11-.02-.11-.02Z"/>
  </g>
  <g>
    <path d="M18.16,1.83h-.02s0-.02,0-.02v-.08s0-.03,0-.03v-.02s0-.02,0-.02v-.02s0-.03,0-.03v-.2s0-.06,0-.06v-.14s0-.04,0-.04v-.18s0-.21,0-.21v-.04s0-.06,0-.06v-.05s0-.04,0-.04h-.03s-.11,0-.11,0h-.11s-.06.01-.06.01h-.03s-.02,0-.02,0h0v-.06s0-.01,0-.01h0s.01-.03.01-.03h0s0-.03,0-.03v-.02s0-.01,0-.01v-.05s0-.02,0-.02v-.02s.01-.05.01-.05v-.02s.03-.02.03-.02h.04s.04,0,.04,0h.1s.03,0,.03,0h.05s.07,0,.07,0h.04s.07,0,.07,0h.05s.04,0,.04,0h.12s.07-.02.07-.02h.1s.03,0,.03,0h.15s.03,0,.03,0h.03s0,.03,0,.03v.03s0,.02,0,.02v.02s0,.02,0,.02h0s0,.03,0,.03h0s0,.02,0,.02v.02s0,0,0,0h0s-.01.02-.01.02h0s.02.03.02.03l-.02.02v.02s0,.01,0,.01h0s-.02.02-.02.02v.02s-.03,0-.03,0h-.03s-.02.01-.02.01h-.02s-.05,0-.05,0h-.17s-.02.01-.02.01l-.03.02v.11s0,.07,0,.07v.24s0,.33,0,.33v.05s0,.04,0,.04v.04s0,.04,0,.04v.12s0,.07,0,.07v.03s-.02,0-.02,0h-.03s-.02.03-.02.03h0v-.02s-.02,0-.02,0h0s0,0,0,0v.02s-.01,0-.01,0v-.02h-.02s-.01.01-.01.01h-.01s0,0,0,0h0s0,0,0,0h-.01s-.02,0-.02,0h-.02s-.01,0-.01,0h0s-.01,0-.01,0h0s-.05,0-.05,0Z"/>
    <path d="M19.41,1.91l-.06-.02-.05-.02-.05-.03-.06-.04-.04-.03-.04-.04-.04-.04-.03-.04-.03-.04-.02-.05v-.03s-.04-.06-.04-.06l-.02-.04-.02-.09v-.08s-.01-.08-.01-.08v-.07s0-.04,0-.04v-.03s0-.06,0-.06v-.04s.02-.04.02-.04v-.04s.02-.06.02-.06v-.04s.02-.02.02-.02v-.02s.01-.02.01-.02v-.02s.01-.02.01-.02v-.02s.02-.03.02-.03v-.03s.02-.02.02-.02l.02-.03v-.04s.04-.03.04-.03l.02-.04.04-.05.05-.04.05-.04.04-.02.07-.03.06-.02.06-.02h.05s.04-.02.04-.02h.13s.03,0,.03,0h.05s.05.02.05.02l.04.02.08.04.06.05.05.06.06.08.03.07.03.07v.06s.02.04.02.04v.06s0,.04,0,.04v.05s0,.23,0,.23v.06s-.01.05-.01.05v.04s-.01,0-.01,0v.04s-.02.06-.02.06v.02s0,.02,0,.02v.02s0,.02,0,.02v.04s-.02.06-.02.06l-.02.07-.02.06v.02s-.02.01-.02.01l-.02.03-.02.02v.02s-.03,0-.03,0l-.04.04-.07.05-.04.02-.05.02h-.05s-.04.02-.04.02h-.04s-.02.01-.02.01h-.11s0,0,0,0h-.01s-.05.01-.05.01h-.09ZM19.61,1.57h.03s.01,0,.01,0h.01s0-.01,0-.01h.02s.03-.02.03-.02h0s.02-.03.02-.03l.02-.02.02-.03v-.04s.03-.04.03-.04v-.02s.01-.02.01-.02v-.05s.02-.01.02-.01h0s0-.03,0-.03v-.02s.02-.02.02-.02v-.02s0-.02,0-.02v-.02s0-.03,0-.03v-.04s0-.03,0-.03v-.02s0-.05,0-.05v-.08s0-.08,0-.08v-.02s0-.01,0-.01v-.02s-.01-.04-.01-.04l-.02-.07-.02-.04-.05-.06-.04-.02h-.05s-.08,0-.08,0h-.04s-.02.01-.02.01h-.01s-.02.02-.02.02l-.03.02-.02.02h0s-.02.03-.02.03l-.03.04-.02.03v.02s-.02.03-.02.03v.02s-.01.02-.01.02v.04s-.02.03-.02.03v.02s-.01.03-.01.03v.05s-.02.08-.02.08v.07s0,.06,0,.06v.05s.01.06.01.06v.04s.02.02.02.02l.02.03.03.05.07.06.07.04.04.02h0s0,.01,0,.01h0s.04,0,.04,0Z"/>
  </g>
  <g>
    <path d="M18.02,3.24h-.01s0-.01,0-.01v-.05s0-.02,0-.02h0v-.03h0s0-.03,0-.03v-.11h0s0-.05,0-.05v-.09s0-.03,0-.03v-.12s0-.14,0-.14v-.03s0-.04,0-.04v-.04s0-.02,0-.02h-.02s-.07,0-.07,0h-.07s-.04,0-.04,0h-.02s-.01,0-.01,0h0v-.04s0,0,0,0h0s0-.02,0-.02h0s0-.02,0-.02h0s0-.02,0-.02v-.03s0-.01,0-.01h0s0-.05,0-.05h0s.02-.02.02-.02h.03s.03,0,.03,0h.07s.02,0,.02,0h.04s.05,0,.05,0h.03s.05,0,.05,0h.03s.03,0,.03,0h.08s.05-.01.05-.01h.07s.02,0,.02,0h.1s.02,0,.02,0h.02s0,.02,0,.02v.02s0,.01,0,.01h0s0,.03,0,.03h0s0,.02,0,.02h0s0,.01,0,.01h0s0,.02,0,.02h0s0,.01,0,.01h0s.01.02.01.02h-.01s0,.02,0,.02h0s0,.01,0,.01h-.01s0,.02,0,.02h-.01s-.02,0-.02,0h-.02s-.01.01-.01.01h-.03s-.11,0-.11,0h-.02s-.02.02-.02.02v.07s0,.05,0,.05v.16s0,.22,0,.22v.03s0,.03,0,.03v.03s0,.03,0,.03v.08s0,.05,0,.05v.02s-.01,0-.01,0h-.02s-.01.02-.01.02h0s0,0,0,0h0s0,0,0,0h0s0,.01,0,.01h0s0-.01,0-.01h0s0,0,0,0h0s0,0,0,0h0s0,0,0,0h0s-.01,0-.01,0h-.01s0,0,0,0h0s0,0,0,0h0s-.04,0-.04,0Z"/>
    <path d="M19.22,3.25h0s0-.01,0-.01h0s0,0,0,0h0s0,0,0,0h0s0-.02,0-.02h0s0-.02,0-.02h0s0,0,0,0h0s0,.02,0,.02h0s0,0,0,0v.02s0,.02,0,.02h0s0-.04,0-.04v-.02s0-.01,0-.01v-.02s0,0,0,0h0s.01.02.01.02h.01s0,0,0,0h0s-.01,0-.01,0h0s0-.04,0-.04v-.03s0,0,0,0h0s0,.02,0,.02h0s0,.01,0,.01v-.02s0-.02,0-.02h0s0,0,0,0h0s0,0,0,0v-.02s0-.03,0-.03v-.03s0-.03,0-.03v-.05h0v-.08s0-.01,0-.01v-.02h0s0-.01,0-.01h0s0,0,0,0h0s0,.02,0,.02h0s0-.02,0-.02h0s0-.02,0-.02h0s-.05,0-.05,0h-.03s-.08,0-.08,0h-.02s-.01,0-.01,0h-.02s-.03,0-.03,0h-.03s0,.03,0,.03v.04s0,.08,0,.08v.03s0,.03,0,.03v.06s0,.05,0,.05v.02s0,0,0,0h0s0,.02,0,.02h0v.05s-.01,0-.01,0h0s0,0,0,0h-.01s0,0,0,0h0s0,0,0,0h0s0,0,0,0h0s0,0,0,0h-.01s-.01,0-.01,0h0s0,0,0,0h0s-.01,0-.01,0h-.01s-.01,0-.01,0h0s0,0,0,0h0s0,0,0,0h0s0,0,0,0h0s0-.02,0-.02h0s0-.01,0-.01v-.02s0-.01,0-.01h0v-.08s0-.02,0-.02v-.03s0-.07,0-.07v-.06s0-.05,0-.05v-.05s0-.07,0-.07v-.04s0-.03,0-.03v-.06s0-.03,0-.03v-.05s0-.03,0-.03v-.02s0-.07,0-.07v-.02s0-.06,0-.06h0v-.07s.01-.05.01-.05v-.02s.03,0,.03,0h.03s.01,0,.01,0h.01s0,0,0,0h0s0,0,0,0h.01s0,0,0,0h0s.01,0,.01,0h.01s0,0,0,0h0s0,0,0,0h.04s.02,0,.02,0h.01s0,.02,0,.02v.02s0,.01,0,.01v.02s0,.02,0,.02v.02s0,.03,0,.03v.04s0,.05,0,.05v.03s0,.02,0,.02v.05s0,.03,0,.03h0s0,.01,0,.01h.06s.03,0,.03,0h0s0,0,0,0h-.01s0,0,0,0h0s.03,0,.03,0h.09s.07,0,.07,0h.02s0-.01,0-.01h0s0-.03,0-.03h0s0-.02,0-.02h0s0-.03,0-.03v-.02s0-.02,0-.02v-.02s0-.02,0-.02v-.02s0-.03,0-.03v-.04s0-.02,0-.02v-.04s0-.04,0-.04h.02s.02-.01.02-.01h.01s.02,0,.02,0h.01s.01,0,.01,0h.02s0,0,0,0h0s0,0,0,0h0s.01,0,.01,0h.01s.02,0,.02,0h.01s.02,0,.02,0h.02s0,.01,0,.01v.02s0,.02,0,.02v.11s0,.04,0,.04v.04s0,.02,0,.02v.02s0,.02,0,.02v.04s0,.04,0,.04h0v.02h0s0,.02,0,.02v.02s0,.04,0,.04v.03h0v.03h0v.09s0,.05,0,.05v.09s0,.07,0,.07h0s0,.03,0,.03v.03s0,.02,0,.02h0s0,.02,0,.02v.02s0,.02,0,.02h0s0,.02,0,.02h0s0,0,0,0h-.02s0,0,0,0h0s0-.01,0-.01h0s0,0,0,0h0s0,0,0,0h0s0-.02,0-.02h0v.02s-.01,0-.01,0h0s0,0,0,0h0s0,0,0,0h0s0,.02,0,.02h-.01s0-.01,0-.01h0s0,.02,0,.02h0Z"/>
    <path d="M19.67,3.25h-.01s-.02,0-.02,0h-.02s-.02,0-.02,0h0s-.02,0-.02,0h-.02s0,0,0,0h-.01s0,0,0,0h0s0-.01,0-.01v-.02s0-.02,0-.02v-.03s0-.04,0-.04v-.06s0-.02,0-.02h0v-.07s0-.05,0-.05v-.05s0-.09,0-.09v-.04s0-.05,0-.05v-.03s0-.05,0-.05v-.05s0-.05,0-.05v-.05s0-.03,0-.03v-.05s0-.03,0-.03v-.02s0-.05,0-.05v-.02s0-.04,0-.04h.01s0,0,0,0h0s.01,0,.01,0h.02s.02,0,.02,0h0s.03,0,.03,0h0s0,0,0,0h.01s.02,0,.02,0h0s.02,0,.02,0h.03s.03,0,.03,0h.01s.01,0,.01,0h.11s.02,0,.02,0h.02s.02,0,.02,0h.03s.07,0,.07,0h0s.01,0,.01,0h.05s.02,0,.02,0h0s0,0,0,0h0s0,.02,0,.02h0s0,.05,0,.05v.02s0,.01,0,.01h0s0,.04,0,.04h0s0,.01,0,.01h-.01s-.01.03-.01.03l-.02.02h-.02s-.01.01-.01.01h0s0,0,0,0h0s-.02,0-.02,0h-.02s0,0,0,0h-.22s-.06,0-.06,0h0v.15s0,.02,0,.02h0s.05,0,.05,0h.13s.02,0,.02,0h.01s.01,0,.01,0h.03s.01,0,.01,0h.01s0,0,0,0h.03s0,.03,0,.03h0s.01.03.01.03h0s0,.02,0,.02h0s0,.02,0,.02h0s0,.02,0,.02h0s0,.02,0,.02h0s0,.01,0,.01h0s0,.01,0,.01h0s-.01,0-.01,0v.02s0,0,0,0h0s-.02,0-.02,0h-.01s-.02.01-.02.01h-.07s-.05,0-.05,0h-.05s-.06,0-.06,0h-.04s-.01.01-.01.01h0s0,.04,0,.04v.06s0,.04,0,.04v.03s0,.02,0,.02h.03s.03,0,.03,0h.02s.04,0,.04,0h.02s.04,0,.04,0h.04s.1,0,.1,0h.02s.02,0,.02,0h.02s.02,0,.02,0h0s0,.02,0,.02h0s0,.02,0,.02h0s0,.01,0,.01h0s0,.02,0,.02h0s0,0,0,0h0s0,.01,0,.01h0s0,.03,0,.03v.02s0,.01,0,.01h.01s0,.01,0,.01h0s-.01,0-.01,0h-.01s0,.02,0,.02h0s0,.01,0,.01h0s-.01,0-.01,0h0s-.03,0-.03,0h-.03s-.09,0-.09,0h-.02s-.01,0-.01,0h-.02s-.08,0-.08,0h-.05s-.06,0-.06,0h-.03s0,0,0,0h0Z"/>
  </g>
  <g>
    <path d="M21.59,3.18l-.07-.02-.06-.03h-.05s-.05-.03-.05-.03l-.08-.04-.05-.03-.03-.02-.05-.03-.04-.03-.04-.02-.03-.03-.04-.03-.03-.04v-.02s0-.02,0-.02v-.04s.04-.02.04-.02l.02-.02v-.02h0s.03-.04.03-.04h.01s0-.03,0-.03l.02-.02v-.02s.01-.01.01-.01l.03-.03.02-.04h.02s.01-.04.01-.04l.02-.03h.02s0-.04,0-.04h0s.01-.03.01-.03h.03s.02.01.02.01h0v-.02s.02-.01.02-.01l.08.05.1.07.08.04h.07s.08.02.08.02l.1-.04.06-.04.06-.09.04-.13v-.08s-.02-.03-.02-.03l-.02-.04-.02-.05-.02-.02-.02-.02-.03-.02-.02-.02-.03-.04-.03-.03-.03-.03-.02-.02-.03-.02-.12-.1-.08-.08-.06-.06-.11-.13-.08-.14-.02-.06-.02-.1v-.11s0-.15,0-.15l.02-.06.05-.1.03-.05.03-.04.02-.03.06-.06.05-.05.05-.04.06-.05.08-.05.1-.04.06-.02.09-.03.17-.02h.19s.11.02.11.02h.04s.02.02.02.02v.02s0,0,0,0h0s.01.02.01.02h.02s0,.04,0,.04v.02s0,.06,0,.06h-.02,0s0,.03,0,.03v.06s.01.01.01.01h-.02s0,.02,0,.02l.02.02h-.01s.01.02.01.02v.02s0,.02,0,.02h-.02v.02h.01s.02.02.02.02h.01v.02h-.01s-.02.01-.02.01v.03s0,.03,0,.03v.02s-.01.04-.01.04v.05s-.02.02-.02.02l-.03-.02-.1-.03h-.07s-.16-.01-.16-.01l-.1.03-.03.02-.03.02-.04.04-.02.09.05.08.08.08.11.1.07.06.06.07.11.11.11.14.1.14.03.07.05.15.03.14v.1s0,.1,0,.1l-.05.15-.04.08-.08.14-.07.08-.04.04-.03.04-.11.1-.08.05-.08.04-.1.04-.08.02h-.06s-.14.02-.14.02h-.12Z"/>
    <path d="M24.64,3.13v-.02s-.01-.01-.01-.01h0s0,.02,0,.02v.02s-.03-.02-.03-.02v-.02s0-.03,0-.03v-.03s0-.03,0-.03v-.02s-.02,0-.02,0v.03s-.01.02-.01.02h0s-.01,0-.01,0v.05s0,.05,0,.05l-.02-.04v-.08s0-.06,0-.06v-.04s0-.04,0-.04h0s0,.05,0,.05l.03.03h.03s0-.01,0-.01v-.02s-.04,0-.04,0v-.03s0-.09,0-.09v-.07s.01,0,.01,0v.02s.02.04.02.04h-.01v.03h.01s.01-.04.01-.04v-.06s0-.02,0-.02h-.02v.02h-.02v-.05s0-.09,0-.09v-.08s0-.07,0-.07v-.17s0-.1,0-.1v-.08s0-.03,0-.03v-.07h0s-.02-.03-.02-.03l-.02-.02h0s-.02.05-.02.05h-.01s0-.02,0-.02v-.03s0-.03,0-.03v-.02s-.02,0-.02,0h-.23s-.23.01-.23.01h-.04s-.04,0-.04,0h-.04s-.09.01-.09.01h-.08s0,.07,0,.07v.12s0,.22,0,.22v.09s0,.08,0,.08v.17s-.02.14-.02.14v.06s-.02.02-.02.02v.02s-.02.03-.02.03v.03s-.01.04-.01.04v.06s-.04.02-.04.02h-.02s-.02.01-.02.01h-.04s-.01,0-.01,0h-.02s-.02,0-.02,0l-.02.02h-.02s0,0,0,0h0s-.03,0-.03,0h-.03s-.02.02-.02.02v-.02s-.02,0-.02,0h-.03s-.04,0-.04,0h-.03s-.02.03-.02.03h-.02s0-.02,0-.02h-.02s-.02.02-.02.02l-.02-.02-.02-.03v-.03s0-.02,0-.02v-.02s0-.06,0-.06v-.03h-.02v-.02s0-.16,0-.16v-.04s0-.04,0-.04v-.08s0-.19,0-.19v-.15s0-.12,0-.12v-.12s0-.19,0-.19v-.1s0-.07,0-.07v-.15s0-.08,0-.08v-.13s0-.08,0-.08v-.05s0-.18,0-.18v-.06s0-.17,0-.17v-.04s0-.05,0-.05l.02-.1.02-.12v-.06s.07,0,.07,0h.07s.03,0,.03,0h.04s.02,0,.02,0h.02s.02,0,.02,0h.03s.02,0,.02,0h.01s.03,0,.03,0h.03s0,0,0,0h.02s.02-.02.02-.02h.1s.04,0,.04,0h.04s0,.05,0,.05v.06s0,.04,0,.04v.05s0,.05,0,.05v.04s0,.07,0,.07v.11s0,.14,0,.14v.07s0,.06,0,.06v.14s0,.09,0,.09v.02s.02,0,.02,0h.15s.09,0,.09,0h0s0,.01,0,.01h-.04s-.02,0-.02,0h0s.09,0,.09,0h.24s.18,0,.18,0h.05s0-.03,0-.03v-.04s0-.05,0-.05v-.06s0-.04,0-.04v-.05s0-.05,0-.05v-.09s0-.06,0-.06v-.06s0-.07,0-.07v-.11s0-.06,0-.06v-.1s.01-.1.01-.1l.04-.04h.05s.04,0,.04,0h.07s.04,0,.04,0h.04s.02,0,.02,0h.01s.02,0,.02,0l.02-.02h.03s.04,0,.04,0h.08s.04,0,.04,0h.06s0,.04,0,.04v.05s0,.06,0,.06v.29s0,.1,0,.1v.12s0,.05,0,.05v.04s0,.06,0,.06v.1s0,.1,0,.1v.04s0,.02,0,.02v.03s0,.04,0,.04v.06s0,.1,0,.1v.12s0,.05,0,.05v.03s0,.14,0,.14v.08s.01.12.01.12v.24s0,.19,0,.19v.03s0,.06,0,.06v.07s0,.06,0,.06v.02s0,.03,0,.03v.06s-.01.06-.01.06l-.02.04v.02h-.03s0,.02,0,.02h-.04s-.02.02-.02.02h-.01s-.01-.03-.01-.03h-.02s0,.02,0,.02v.02s-.02,0-.02,0v-.03s-.01-.02-.01-.02h0v.04s-.04,0-.04,0h-.02s0,.01,0,.01h-.01s0-.01,0-.01v.03s-.01.04-.01.04h-.02v-.02s-.03-.01-.03-.01v.02s-.02.03-.02.03h-.01Z"/>
    <path d="M26.3,3.25l-.1-.03-.08-.04-.08-.05-.11-.07-.07-.05-.08-.07-.06-.07-.05-.07-.06-.08-.04-.08-.02-.06-.05-.11-.03-.08-.04-.17-.02-.15v-.27s.01-.07.01-.07v-.06s.02-.11.02-.11v-.06s.03-.08.03-.08l.02-.07.02-.1.02-.07.02-.04v-.04s.02-.04.02-.04l.02-.04v-.03s.03-.03.03-.03l.02-.06.02-.05.02-.04.04-.05.02-.06.05-.05.04-.06.07-.09.08-.08.09-.06.06-.04.12-.05.1-.04.1-.03.08-.02.07-.02h.23s.06,0,.06,0h.08s.08.04.08.04l.08.03.14.08.11.1.1.1.1.14.06.13.05.13.02.1.02.08v.1s.02.07.02.07v.09s0,.41,0,.41v.11s-.02.09-.02.09v.06s-.02.01-.02.01l-.02.08-.02.1v.04s-.02.03-.02.03v.04s0,.03,0,.03l-.02.07-.02.11-.04.13-.04.1v.04s-.03.02-.03.02l-.03.05-.03.04-.02.04-.03.02-.08.08-.12.09-.07.03-.09.03-.09.02h-.07s-.07.03-.07.03h-.03s-.19,0-.19,0h-.02s-.02,0-.02,0h-.02s-.09.02-.09.02h-.16ZM26.66,2.63h.06s.02-.01.02-.01h.02s.02-.02.02-.02l.04-.02.05-.02.02-.02.03-.03.03-.04.04-.05.02-.08.02-.06v-.04s.02-.03.02-.03v-.04l.02-.04.02-.02v-.05s0-.03,0-.03l.02-.03v-.03s0-.04,0-.04v-.03s0-.05,0-.05v-.07s.02-.06.02-.06v-.04s0-.09,0-.09v-.14s0-.14,0-.14v-.04s0-.02,0-.02v-.03s-.02-.07-.02-.07l-.04-.12-.04-.06-.09-.1-.08-.04-.09-.02-.15.02-.06.02h-.06s-.04.03-.04.03l-.05.04-.03.03v.02s-.04.03-.04.03l-.05.08-.03.05v.03s-.03.05-.03.05v.04s-.02.04-.02.04l-.02.07-.02.06v.04s-.02.06-.02.06v.1s-.03.14-.03.14v.12s0,.1,0,.1v.1s.02.11.02.11l.02.08v.04s.04.05.04.05l.06.09.13.11.13.08.06.03h.02s0,.02,0,.02h.02s.08,0,.08,0Z"/>
    <path d="M28.27,3.18h-.02s-.01,0-.01,0h-.01s0,.01,0,.01v-.02s-.03-.02-.03-.02l-.02-.02v-.03s-.02-.04-.02-.04v-.07s0-.03,0-.03v-.03s0-.09,0-.09v-.1s-.02-.04-.02-.04v-.02s.02-.03.02-.03v-.07s0-.06,0-.06h0s0-.01,0-.01h0s0,.02,0,.02h-.01s0-.07,0-.07v-.12s0-.08,0-.08v-.04s0-.04,0-.04v-.03s0-.05,0-.05v-.03s0-.04,0-.04v-.09s0-.03,0-.03v-.03s0-.04,0-.04v-.04s0-.03,0-.03v-.03s0-.03,0-.03v-.06s0-.06,0-.06v-.03s0-.04,0-.04v-.04s.01-.04.01-.04v-.02s0-.02,0-.02v-.02s.01-.05.01-.05v-.05s0-.07,0-.07v-.09s0-.02,0-.02v-.14s0-.13,0-.13v-.19s.01-.18.01-.18v-.08s0-.03,0-.03l.02-.02h.02s.04,0,.04,0h.04s.02,0,.02,0l.02-.02h.02s.02,0,.02,0l.02.02h.01s.01-.02.01-.02h.02s.02,0,.02,0h.02s.04,0,.04,0h.02s.04,0,.04,0h.04s.04,0,.04,0h.03s.02,0,.02,0h.02s.02,0,.02,0h.34s.16.02.16.02l.07.02.12.04.08.04.13.1.11.12.05.08.07.17.04.19v.17s0,.08,0,.08v.1s-.04.09-.04.09l-.03.06-.06.11-.07.1-.07.08-.1.08-.15.1-.12.04-.12.03-.19.02h-.14s-.04,0-.04,0h-.02s0,.04,0,.04v.06s0,.03,0,.03v.04l-.02.04v.03s.02.02.02.02v.03s-.02.05-.02.05v.12s0,.1,0,.1v.09s-.01.1-.01.1v.1s-.04.03-.04.03l-.02.02h0s-.02,0-.02,0l-.02.02-.02.03-.02.03h-.02s-.02,0-.02,0h0s0,0,0,0v-.02h0s0-.02,0-.02h0s-.02.02-.02.02v.02s-.01.02-.01.02h-.02s-.02-.01-.02-.01v-.02s-.01,0-.01,0h0s-.01.02-.01.02h-.02s-.01.04-.01.04v.02h-.02v-.03h-.02l-.02.03h-.04s-.04-.02-.04-.02ZM28.85,1.56l.15-.03h.06s.08-.04.08-.04l.06-.04.03-.02.04-.05.04-.1v-.12l-.06-.14-.1-.06-.05-.02h-.04s-.04,0-.04,0h-.22s0,.08,0,.08v.08s0,.03,0,.03v.05s-.01.11-.01.11v.1s0,.06,0,.06v.06s0,.05,0,.05h.01s.05,0,.05,0Z"/>
  </g>
  <path d="M31.9,1.68c-.13-.14-.14-.15-.27-.29-.14-.14-.14-.14-.27-.28-.14-.13-.14-.14-.28-.27-.14-.14-.16-.12-.3-.26-.05-.05-.11-.1-.17-.15-.03-.03-.06-.05-.08-.08,0,0-.02-.04-.03-.04,0,0,0,0,0,0,0,0,0,0,0,0,0,0,0,0,0,0h0s0,0,0,0c0,0,0,0,0,0,0,0-.01,0-.02,0-.03.03.01.08.01.11,0,.05-.02.09-.02.14,0,0,0,.01,0,.02,0,.03,0,.07,0,.13,0,.2-.02.2-.02.39,0,.19,0,.2,0,.39,0,.2,0,.2,0,.39,0,.19,0,.2,0,.39,0,.2,0,.2,0,.39,0,.2,0,.2,0,.39,0,.15,0,.24,0,.29.07-.07.14-.16.23-.24.14-.14.16-.12.3-.25s.13-.15.26-.29c.14-.14.14-.14.27-.28.13-.14.14-.14.27-.28.12-.11.15-.15.24-.23-.02-.02-.05-.05-.11-.11Z"/>
</svg>