<?xml version="1.0" encoding="UTF-8"?>
<svg id="Layer_1" data-name="Layer 1" xmlns="http://www.w3.org/2000/svg" viewBox="0 0 26.87 5.5">
  <g>
    <path d="M.76,2.17h-.04s-.03-.02-.03-.02h-.03s-.03-.02-.03-.02l-.05-.02-.03-.02h-.02s-.03-.03-.03-.03l-.02-.02h-.02s-.02-.03-.02-.03l-.02-.02-.02-.02h0s0-.02,0-.02H.41s0-.02,0-.02h.01s0-.02,0-.02H.44s0-.02,0-.02l.02-.02h0s0-.02,0-.02h0s0-.02,0-.02h0s.02-.02.02-.02v-.02s.02,0,.02,0v-.02s.02-.02.02-.02h.01s0-.02,0-.02h0s0-.02,0-.02h.02s.01,0,.01,0h0,0s.01-.02.01-.02l.04.03.06.04.04.02h.04s.05,0,.05,0l.06-.02.04-.02.03-.05.02-.07v-.04s-.01-.02-.01-.02v-.02s-.02-.03-.02-.03h0s-.01-.02-.01-.02h-.02s-.01-.02-.01-.02l-.02-.02-.02-.02-.02-.02h-.01s-.02-.02-.02-.02l-.07-.06-.04-.05-.03-.04-.06-.07-.04-.08v-.04s-.03-.05-.03-.05v-.06s0-.08,0-.08v-.04s.04-.06.04-.06l.02-.03.02-.02v-.02s.04-.03.04-.03l.03-.03.03-.02.04-.03.04-.03.06-.02h.03s.05-.03.05-.03h.09s.11,0,.11,0h.06s.02.01.02.01h.01s0,.02,0,.02h0s0,0,0,0h0s.01.01.01.01v.02s0,.01,0,.01v.03s0,0,0,0h0s0,.02,0,.02v.02h0v.02h0s0,.01,0,.01h.01s0,.02,0,.02h0s0,.02,0,.02h0s-.01.02-.01.02h0s0,.01,0,.01h.01s0,.01,0,.01h0s0,0,0,0h-.01s0,.02,0,.02v.02h0v.06s-.01,0-.01,0h-.02s-.05-.03-.05-.03h-.04s-.09,0-.09,0l-.05.02h-.02s-.02.03-.02.03l-.02.02v.05s.02.04.02.04l.05.04.06.06.04.03.04.04.06.06.06.08.06.08.02.04.03.08.02.08v.05s0,.06,0,.06l-.03.08-.02.05-.05.08-.04.04-.02.02-.02.02-.06.05-.04.03-.05.02-.06.02h-.04s-.04.02-.04.02h-.08s-.06,0-.06,0Z"/>
    <path d="M1.82,2.13h-.02s0-.02,0-.02v-.08s0-.03,0-.03v-.02s0-.02,0-.02v-.02s0-.03,0-.03v-.2s0-.06,0-.06v-.14s0-.04,0-.04v-.18s0-.21,0-.21v-.04s0-.06,0-.06v-.05s0-.04,0-.04h-.03s-.11,0-.11,0h-.11s-.06.01-.06.01h-.03s-.02,0-.02,0h0v-.06s0-.01,0-.01h0s.01-.03.01-.03h0s0-.03,0-.03v-.02s0-.01,0-.01v-.05s0-.02,0-.02v-.02s.01-.05.01-.05v-.02s.03-.02.03-.02h.04s.04,0,.04,0h.1s.03,0,.03,0h.05s.07,0,.07,0h.04s.07,0,.07,0h.05s.04,0,.04,0h.12s.07-.02.07-.02h.1s.03,0,.03,0h.15s.03,0,.03,0h.03s0,.03,0,.03v.03s0,.02,0,.02v.02s0,.02,0,.02h0s0,.03,0,.03h0s0,.02,0,.02v.02s0,0,0,0h0s-.01.02-.01.02h0s.02.03.02.03l-.02.02v.02s0,.01,0,.01h0s-.02.02-.02.02v.02s-.03,0-.03,0h-.03s-.02.01-.02.01h-.02s-.05,0-.05,0h-.17s-.02.01-.02.01l-.03.02v.11s0,.07,0,.07v.24s0,.33,0,.33v.05s0,.04,0,.04v.04s0,.04,0,.04v.12s0,.07,0,.07v.03s-.02,0-.02,0h-.03s-.02.03-.02.03h0v-.02s-.02,0-.02,0h0s0,0,0,0v.02s-.01,0-.01,0v-.02h-.02s-.01.01-.01.01h-.01s0,0,0,0h0s0,0,0,0h-.01s-.02,0-.02,0h-.02s-.01,0-.01,0h0s-.01,0-.01,0h0s-.05,0-.05,0Z"/>
    <path d="M3.49,2.14l-.03-.05-.05-.07-.03-.04-.06-.08-.05-.07-.04-.05-.03-.02-.03-.03-.1-.11-.02-.02h0v.09s0,.05,0,.05v.08s0,.05,0,.05v.03s0,.06,0,.06v.09s0,.06,0,.06l-.02.03h-.02s-.02,0-.02,0h-.02s0,.01,0,.01h-.02s-.02,0-.02,0h-.01s0,0,0,0h-.01s-.01,0-.01,0h-.02s-.01,0-.01,0h-.01s0,0,0,0h0s-.03,0-.03,0h-.02s-.02,0-.02,0h0s0-.01,0-.01h0s0-.06,0-.06v-.12s0-.04,0-.04v-.08s0-.04,0-.04v-.06s0-.04,0-.04v-.03s0-.05,0-.05v-.05s0-.06,0-.06v-.06s0-.03,0-.03v-.03s0-.07,0-.07v-.06s0-.04,0-.04v-.04s0-.05,0-.05v-.03s0-.04,0-.04v-.04s0-.09,0-.09v-.02s0-.03,0-.03v-.04s0-.02,0-.02v-.17s0-.04,0-.04v-.02s0,0,0,0h0s.02,0,.02,0h.04s0,0,0,0h0s.02,0,.02,0h.03s.01,0,.01,0h.02s.01,0,.01,0h.07s.04,0,.04,0h.01s.02,0,.02,0h.01s.03,0,.03,0h.04s.03,0,.03,0h.02s.02,0,.02,0h.08s.02,0,.02,0h.03s.03.01.03.01h.02s.02.01.02.01l.06.02.05.03.03.03.02.03.02.04.02.06.02.06v.03s.02.02.02.02v.04s.02.05.02.05v.02s0,.03,0,.03v.03s0,0,0,0v.03s0,.03,0,.03v.02s-.02.04-.02.04l-.02.05v.02s-.05.06-.05.06v.02s-.04.03-.04.03l-.02.03-.02.02-.03.02-.02.02v.02s.02.02.02.02l.03.04.05.06.05.07.04.05.03.05.05.08.04.06.02.04.02.03h-.02s-.02.03-.02.03h-.01s0,0,0,0h0s0,.02,0,.02h-.02v.02s-.02,0-.02,0h0s-.01.01-.01.01h-.02s0,.02,0,.02h0s-.01,0-.01,0h0s0,.01,0,.01h-.01s-.01.02-.01.02h0s0,0,0,0h-.01s-.01.01-.01.01h-.02s-.02-.03-.02-.03ZM3.11,1.24h.04s.06,0,.06,0h.01s.03-.03.03-.03l.04-.03.03-.03.02-.04v-.04s0-.06,0-.06l-.03-.07-.03-.02h-.02s-.04-.02-.04-.02h-.04s-.05,0-.05,0h-.05s0,.03,0,.03v.18s0,.08,0,.08v.04h0s.05,0,.05,0Z"/>
    <path d="M4.05,2.12h-.02s-.01,0-.01,0h0s0,0,0,0h-.01s-.02,0-.02,0h-.02s-.01,0-.01,0h0s0,0,0,0h-.01s-.01,0-.01,0h-.01s-.02,0-.02,0h-.01s0,0,0,0h0s0,0,0,0h-.02s0-.02,0-.02v-.04s.02-.07.02-.07v-.04s.02-.08.02-.08l.02-.07v-.04s.02-.05.02-.05l.02-.07v-.07s.03-.09.03-.09v-.05s.03-.1.03-.1v-.05s.03-.1.03-.1v-.06s.02-.05.02-.05l.02-.08.02-.08.02-.08.02-.07.02-.06v-.04s.02-.04.02-.04v-.03s.01-.01.01-.01h0s0,0,0,0h.02s.02.01.02.01h.01s.02,0,.02,0h.02s0,0,0,0h.02s.02,0,.02,0h.02s.02,0,.02,0h0s0,0,0,0h0s.02,0,.02,0h.02s.02,0,.02,0h.04s.02,0,.02,0h0s.01,0,.01,0h0s0,0,0,0h0s.02.04.02.04l.02.04.02.06.02.07.02.06v.04s.03.07.03.07v.04s.02.02.02.02l.02.05v.05s.03.04.03.04v.04s.02.04.02.04l.03.12v.04s.03.09.03.09l.02.07v.02s.01.04.01.04v.04s.04.12.04.12v.03s0,.03,0,.03v.05s.02.04.02.04v.03s0,.03,0,.03v.02h-.01s-.02.02-.02.02h-.02s0,.02,0,.02h-.03s-.01.02-.01.02h0s-.02.01-.02.01h0s0,0,0,0h0s0,.01,0,.01h-.01s-.01,0-.01,0h-.01s-.02.02-.02.02h0s0-.01,0-.01h-.03s-.03.02-.03.02v-.02s-.03-.06-.03-.06l-.02-.06-.02-.07-.02-.07h-.03s-.04,0-.04,0h-.04s-.16,0-.16,0h-.03s0,.02,0,.02v.03s-.01.02-.01.02v.05s-.02.04-.02.04v.04s-.03.05-.03.05h-.02s-.02.01-.02.01h-.02s-.02.01-.02.01h0s-.01,0-.01,0h-.01s0,0,0,0h0s0,0,0,0ZM4.46,1.51v-.04s-.02-.06-.02-.06v-.03s-.01-.02-.01-.02v-.04s-.02-.04-.02-.04v-.04s-.02-.04-.02-.04v-.02s-.01,0-.01,0h0s0,.05,0,.05v.05s-.02.06-.02.06l-.02.09v.04s-.02.06-.02.06h.02s.05,0,.05,0h.03s.03,0,.03,0h.02Z"/>
    <path d="M5.13,2.18v-.03s-.03,0-.03,0h-.01s-.01-.01-.01-.01v-.03s-.02-.03-.02-.03v-.02s-.01-.02-.01-.02v-.02h0v-.04s0-.03,0-.03v-.02s0,0,0,0v-.08s0,0,0,0v-.03s0-.03,0-.03v-.02s0-.02,0-.02v-.04s0-.17,0-.17v-.03s0-.03,0-.03v-.07s0-.02,0-.02v-.02s0-.06,0-.06v-.04s.01-.12.01-.12v-.04s0-.05,0-.05v-.06s0-.06,0-.06v-.07s0-.08,0-.08v-.11s0-.07,0-.07v-.02s.02,0,.02,0h.02s.02,0,.02,0h.12s.01,0,.01,0h.01s.02,0,.02,0h.02s.01,0,.01,0h0s.02,0,.02,0h.02s.02,0,.02,0h.01s.02,0,.02,0v.05s0,.04,0,.04v.08s0,.03,0,.03v.03s0,.03,0,.03v.03s0,.03,0,.03v.02s0,0,0,0h0s0,0,0,0h0s-.01.02-.01.02h0s0,.01,0,.01v.02s0,.01,0,.01v.09s0,.01,0,.01h0s0,.01,0,.01v.02h0s0,.01,0,.01h0v.03h-.01v.03s0,.01,0,.01h0s0,.02,0,.02h0s0,.02,0,.02v.02s0,.03,0,.03h0s0,.02,0,.02v.08s.01.05.01.05v.07s0,.05,0,.05v.14s0,.05,0,.05v.04s0,.06,0,.06v.04s0,.06,0,.06v.06s0,.02,0,.02v.03s-.01.02-.01.02h-.01s-.02.02-.02.02h-.01s-.02,0-.02,0h0s0,.02,0,.02h-.01s-.01,0-.01,0h-.01s-.01,0-.01,0h0s0,0,0,0h0s0,.03,0,.03h0s0-.03,0-.03h-.02s-.02.03-.02.03h0s0,0,0,0h0s-.01-.02-.01-.02h0s0,.04,0,.04v.02h-.01v-.03h0s0,0,0,0h-.01s0,.02,0,.02v.03s0,.02,0,.02h0s0-.05,0-.05Z"/>
    <path d="M6.19,2.22h-.06s-.02-.01-.02-.01h-.03s-.02-.02-.02-.02h-.02s-.03-.02-.03-.02h-.02s-.01-.02-.01-.02h-.02s0,0,0,0l-.02-.02-.04-.04-.03-.03h-.02s0-.02,0-.02l-.02-.03-.02-.04v-.02s-.02-.02-.02-.02l-.02-.03-.02-.04-.02-.03v-.02s0-.01,0-.01h0s0-.02,0-.02v-.02s-.01-.02-.01-.02v-.04s-.02-.05-.02-.05v-.05s-.01-.02-.01-.02v-.05s-.02-.08-.02-.08v-.06s0-.03,0-.03v-.11s0-.04,0-.04v-.03s.01-.01.01-.01v-.02s0-.02,0-.02h0s0-.02,0-.02v-.02s0,0,0,0v-.02s0-.03,0-.03v-.02s.02-.02.02-.02v-.03s.01-.02.01-.02v-.04s.03-.05.03-.05l.02-.02.02-.03.03-.05v-.02s.02,0,.02,0l.05-.05.03-.03.04-.03.03-.02.08-.04h.05s0-.01,0-.01h.02s.03-.01.03-.01h.02s.02,0,.02,0h.01s.02,0,.02,0h.02s.02,0,.02,0h.01s.02,0,.02,0h.02s.04,0,.04,0h.07s.02,0,.02,0h.02s.06.02.06.02h.02s.03,0,.03,0h.02s.05.03.05.03l.04.02.05.04.02.02h0s0,.02,0,.02v.02s-.02.01-.02.01h0s0,.03,0,.03h-.01s0,.01,0,.01v.02h0s-.02.02-.02.02h0s0,.01,0,.01h-.01s0,.01,0,.01h0s-.02.01-.02.01h0s-.01.02-.01.02h0s-.01.02-.01.02v.02s-.02,0-.02,0h0s-.01.02-.01.02h-.01s-.01.01-.01.01h0s-.03-.02-.03-.02l-.03-.02h-.03s-.06-.03-.06-.03h-.06s-.01,0-.01,0h0s-.01,0-.01,0h-.03s-.04,0-.04,0h-.01s0,.02,0,.02h-.04s-.05.04-.05.04l-.03.03-.03.07-.02.08v.05s-.01.04-.01.04v.05s0,.04,0,.04v.02s0,.05,0,.05v.04s0,.02,0,.02v.06s.02.06.02.06v.04s.02.04.02.04l.02.05.02.05.02.04.02.05.05.04.04.02.04.02h.04s.03.02.03.02h.03s.03,0,.03,0h.02s.02-.03.02-.03l.02-.02v-.02s0-.05,0-.05v-.08s-.01-.07-.01-.07v-.06s-.02,0-.02,0l-.16.02h-.07s-.02,0-.02,0h0s0,0,0,0h0s0-.02,0-.02h0v-.03s0-.02,0-.02v-.02s0-.01,0-.01h0s0-.02,0-.02v-.02s0,0,0,0v-.02s0-.03,0-.03h0s0-.06,0-.06h0s0-.02,0-.02v-.02s0,0,0,0h.03s.06-.03.06-.03h.08s.08,0,.08,0h.08s.05,0,.05,0h.07s.01,0,.01,0h.02s.02,0,.02,0h.02s0,0,0,0h.02s.01,0,.01,0h.02s.02,0,.02,0v.02s.01.05.01.05v.07s0,.07,0,.07v.09s0,.07,0,.07v.11s0,.04,0,.04v.11s-.01.05-.01.05v.03s-.02,0-.02,0v.04s-.03.03-.03.03h0s0,.02,0,.02l-.02.03-.02.02-.04.04-.05.04-.03.02h-.01s-.02.02-.02.02l-.03.02h-.01s-.02.01-.02.01h-.02s-.02,0-.02,0h-.02s-.03.02-.03.02h-.02s-.02,0-.02,0h-.03s-.02,0-.02,0h-.03s-.03,0-.03,0h-.02s-.01,0-.01,0h0s-.01,0-.01,0Z"/>
    <path d="M7.92,2.15h0s0-.02,0-.02h0s0,0,0,0h0s-.01,0-.01,0h0s0-.03,0-.03v-.02s0-.02,0-.02h0s0-.01,0-.01v.02s0,0,0,0h0s0,0,0,0v.03s0,.03,0,.03v-.02s-.01-.04-.01-.04v-.03s0-.02,0-.02v-.02s.01,0,.01,0v.02s.02.02.02.02h.02s0,0,0,0h0s-.02,0-.02,0v-.02s0-.05,0-.05v-.04s0,0,0,0h0s0,.03,0,.03h0v.02h0s0-.02,0-.02v-.04s0,0,0,0h-.02s0,.01,0,.01v-.03s0-.05,0-.05v-.05s0-.04,0-.04v-.1s0-.06,0-.06v-.04s0-.02,0-.02v-.04h0s-.01-.02-.01-.02h0s0,0,0,0v.02s-.02,0-.02,0v-.02s0-.02,0-.02v-.02h0s-.01-.01-.01-.01h-.13s-.13,0-.13,0h-.02s-.02,0-.02,0h-.02s-.05,0-.05,0h-.04s0,.04,0,.04v.06s0,.12,0,.12v.05s0,.04,0,.04v.1s-.01.08-.01.08v.04s0,0,0,0h0s0,.03,0,.03v.02s0,.02,0,.02v.03s-.02.01-.02.01h-.01s0,0,0,0h-.02s0,0,0,0h-.01s-.01,0-.01,0h-.01s0,0,0,0h0s0,0,0,0h-.02s-.02,0-.02,0h-.01s0,0,0,0h0s-.02,0-.02,0h-.02s-.02,0-.02,0h0s-.01,0-.01,0h0s-.01,0-.01,0h-.01s0,0,0,0v-.02s-.01-.02-.01-.02h0s0-.02,0-.02v-.03s0-.02,0-.02h-.01v-.12s0-.02,0-.02v-.04s0-.11,0-.11v-.08s0-.07,0-.07v-.07s0-.11,0-.11v-.05s0-.04,0-.04v-.08s0-.04,0-.04v-.07s0-.05,0-.05v-.03s0-.1,0-.1v-.03s0-.09,0-.09v-.02s0-.03,0-.03v-.06s.02-.07.02-.07v-.03s.04,0,.04,0h.04s.02,0,.02,0h.02s0,0,0,0h.01s.01,0,.01,0h.02s.01,0,.01,0h0s.02,0,.02,0h.02s0,0,0,0h0s.01-.01.01-.01h.06s.02,0,.02,0h.02s0,.03,0,.03v.03s0,.02,0,.02v.03s0,.03,0,.03v.02s0,.04,0,.04v.06s0,.08,0,.08v.04s0,.03,0,.03v.08s0,.05,0,.05h0s0,.02,0,.02h.08s.05,0,.05,0h0s0,0,0,0h-.02s0,0,0,0h0s.05,0,.05,0h.13s.1,0,.1,0h.03s0-.02,0-.02v-.02s0-.03,0-.03v-.04s0-.02,0-.02v-.03s0-.03,0-.03v-.05s0-.03,0-.03v-.03s0-.04,0-.04v-.06s0-.03,0-.03v-.05s0-.05,0-.05l.02-.02h.03s.02,0,.02,0h.04s.02,0,.02,0h.02s.01,0,.01,0h0s0,0,0,0h.01s.02,0,.02,0h.02s.02,0,.02,0h.02s.02,0,.02,0h.03s0,.02,0,.02v.03s0,.03,0,.03v.16s0,.05,0,.05v.06s0,.03,0,.03v.02s0,.03,0,.03v.06s0,.05,0,.05v.02s0,.01,0,.01v.02s0,.02,0,.02v.04s0,.06,0,.06v.06s0,.03,0,.03v.02s0,.08,0,.08v.05s0,.07,0,.07v.13s0,.11,0,.11v.02s0,.03,0,.03v.04s0,.03,0,.03h0s0,.03,0,.03v.03s0,.03,0,.03v.02s-.02.01-.02.01h-.01s0,.01,0,.01h-.02s0,0,0,0h0s0-.02,0-.02h0s0,.01,0,.01h0s0,0,0,0v-.02s0-.01,0-.01h0v.02s-.02,0-.02,0h-.01s0,0,0,0h0s0,0,0,0v.02s0,.02,0,.02h-.02s-.01-.02-.01-.02h0s0,.03,0,.03h0Z"/>
    <path d="M8.71,2.13h-.02s0-.02,0-.02v-.08s0-.03,0-.03v-.02s0-.02,0-.02v-.02s0-.03,0-.03v-.2s0-.06,0-.06v-.14s0-.04,0-.04v-.18s0-.21,0-.21v-.04s0-.06,0-.06v-.05s0-.04,0-.04h-.03s-.11,0-.11,0h-.11s-.06.01-.06.01h-.03s-.02,0-.02,0h0v-.06s0-.01,0-.01h0s.01-.03.01-.03h0s0-.03,0-.03v-.02s0-.01,0-.01v-.05s0-.02,0-.02v-.02s.01-.05.01-.05v-.02s.03-.02.03-.02h.04s.04,0,.04,0h.1s.03,0,.03,0h.05s.07,0,.07,0h.04s.07,0,.07,0h.05s.04,0,.04,0h.12s.07-.02.07-.02h.1s.03,0,.03,0h.15s.03,0,.03,0h.03s0,.03,0,.03v.03s0,.02,0,.02v.02s0,.02,0,.02h0s0,.03,0,.03h0s0,.02,0,.02v.02s0,0,0,0h0s-.01.02-.01.02h0s.02.03.02.03l-.02.02v.02s0,.01,0,.01h0s-.02.02-.02.02v.02s-.03,0-.03,0h-.03s-.02.01-.02.01h-.02s-.05,0-.05,0h-.17s-.02.01-.02.01l-.03.02v.11s0,.07,0,.07v.24s0,.33,0,.33v.05s0,.04,0,.04v.04s0,.04,0,.04v.12s0,.07,0,.07v.03s-.02,0-.02,0h-.03s-.02.03-.02.03h0v-.02s-.02,0-.02,0h0s0,0,0,0v.02s-.01,0-.01,0v-.02h-.02s-.01.01-.01.01h-.01s0,0,0,0h0s0,0,0,0h-.01s-.02,0-.02,0h-.02s-.01,0-.01,0h0s-.01,0-.01,0h0s-.05,0-.05,0Z"/>
  </g>
  <g>
    <path d="M.87,4.62h-.02s0-.02,0-.02v-.1s0-.03,0-.03v-.03s0-.02,0-.02v-.03s0-.04,0-.04v-.25s0-.07,0-.07v-.18s0-.05,0-.05v-.23s0-.27,0-.27v-.05s0-.08,0-.08v-.07s0-.05,0-.05h-.03s-.14,0-.14,0h-.14s-.08.01-.08.01h-.04s-.02,0-.02,0h0v-.08s0-.01,0-.01v-.02s.01-.02.01-.02v-.02s0-.02,0-.02v-.02s0-.02,0-.02v-.06s0-.02,0-.02v-.02s.01-.07.01-.07v-.02s.03-.03.03-.03h.05s.05,0,.05,0h.13s.04,0,.04,0h.07s.09,0,.09,0h.06s.09,0,.09,0h.06s.06,0,.06,0h.15s.09-.02.09-.02h.13s.03,0,.03,0h.19s.04,0,.04,0h.04s0,.04,0,.04v.03s0,.03,0,.03v.03s0,.02,0,.02h0s0,.03,0,.03h0s0,.02,0,.02v.02s0,.01,0,.01v.02s-.01.01-.01.01h0s.02.04.02.04l-.02.02v.02s0,.02,0,.02h.01s-.02.03-.02.03l-.02.02h-.02s-.04,0-.04,0h-.03s-.03.02-.03.02h-.06s-.21,0-.21,0h-.03s-.03.03-.03.03v.14s0,.09,0,.09v.3s0,.42,0,.42v.07s0,.05,0,.05v.06s0,.05,0,.05v.15s0,.09,0,.09v.04s-.02.01-.02.01h-.04s-.03.03-.03.03h0v-.02s-.02,0-.02,0h0s-.01,0-.01,0v.02s-.01,0-.01,0v-.02h-.02s-.01.01-.01.01h-.02s-.01,0-.01,0h-.01s-.01,0-.01,0h-.01s-.02,0-.02,0h-.02s-.01,0-.01,0h0s-.01,0-.01,0h0s-.07,0-.07,0Z"/>
    <path d="M2.46,4.73l-.07-.02-.06-.03-.06-.03-.08-.05-.05-.04-.05-.05-.05-.05-.03-.05-.04-.06-.03-.06-.02-.04-.04-.08-.02-.06-.03-.12v-.11s-.01-.1-.01-.1v-.09s0-.05,0-.05v-.04s.01-.08.01-.08v-.05s.02-.06.02-.06l.02-.05v-.07s.03-.05.03-.05l.02-.03v-.03s.01-.03.01-.03v-.03s.02-.02.02-.02v-.02s.03-.04.03-.04l.02-.03v-.03s.04-.03.04-.03v-.05s.05-.03.05-.03l.03-.04.05-.06.06-.05.06-.05.05-.03.08-.04.07-.03.07-.02h.06s.05-.02.05-.02h.16s.04,0,.04,0h.06s.06.02.06.02l.05.02.1.05.08.07.07.07.07.1.04.09.03.09.02.07v.05s.02.07.02.07v.05s0,.06,0,.06v.37s-.01.06-.01.06v.04s-.02,0-.02,0v.05s-.03.07-.03.07v.03s-.01.02-.01.02v.03s0,.02,0,.02v.05s-.03.08-.03.08l-.03.09-.03.07v.03s-.02.02-.02.02l-.02.03-.02.03v.03s-.04.01-.04.01l-.06.06-.09.06-.05.02-.06.02h-.06s-.05.02-.05.02h-.05s-.02.02-.02.02h-.14s-.01,0-.01,0h-.01s-.07.02-.07.02h-.11ZM2.71,4.29h.04s.02,0,.02,0h.02s.01-.02.01-.02h.03s.03-.03.03-.03h.01s.02-.03.02-.03l.02-.03.03-.03.02-.06.02-.05v-.03s.01-.02.01-.02v-.06s.02-.02.02-.02v-.03s0-.02,0-.02v-.02s0-.02,0-.02v-.03s.01-.02.01-.02v-.04s.01-.05.01-.05v-.04s0-.03,0-.03v-.06s0-.06,0-.06v-.03s0-.1,0-.1v-.03s0-.01,0-.01v-.02s-.02-.05-.02-.05l-.03-.08-.03-.05-.07-.07-.05-.03-.07-.02h-.1s-.05.03-.05.03h-.04s-.03.02-.03.02l-.04.03-.02.02v.02s-.03.02-.03.02l-.04.05-.02.04v.02s-.02.03-.02.03v.03s-.02.02-.02.02v.05s-.02.04-.02.04v.03s-.02.04-.02.04v.07s-.02.1-.02.1v.08s0,.07,0,.07v.07s.02.08.02.08l.02.05v.03s.03.04.03.04l.04.06.09.08.09.05.05.02h.01s0,.02,0,.02h.01s.05,0,.05,0Z"/>
    <path d="M4.88,4.62h-.02s0-.02,0-.02v-.1s0-.03,0-.03v-.03s0-.02,0-.02v-.03s0-.04,0-.04v-.25s0-.07,0-.07v-.18s0-.05,0-.05v-.23s0-.27,0-.27v-.05s0-.08,0-.08v-.07s0-.05,0-.05h-.03s-.14,0-.14,0h-.14s-.08.01-.08.01h-.04s-.02,0-.02,0h0v-.08s0-.01,0-.01v-.02s.01-.02.01-.02v-.02s0-.02,0-.02v-.02s0-.02,0-.02v-.06s0-.02,0-.02v-.02s.01-.07.01-.07v-.02s.03-.03.03-.03h.05s.05,0,.05,0h.13s.04,0,.04,0h.07s.09,0,.09,0h.06s.09,0,.09,0h.06s.06,0,.06,0h.16s.09-.02.09-.02h.13s.03,0,.03,0h.19s.04,0,.04,0h.04s0,.04,0,.04v.03s0,.03,0,.03v.03s0,.02,0,.02h0s0,.03,0,.03h0s0,.02,0,.02v.02s0,.01,0,.01v.02s-.01.01-.01.01h0s.02.04.02.04l-.02.02v.02s0,.02,0,.02h.01s-.02.03-.02.03l-.02.02h-.02s-.04,0-.04,0h-.03s-.03.02-.03.02h-.06s-.21,0-.21,0h-.03s-.03.03-.03.03v.14s0,.09,0,.09v.3s0,.42,0,.42v.07s0,.05,0,.05v.06s0,.05,0,.05v.15s0,.09,0,.09v.04s-.02.01-.02.01h-.04s-.03.03-.03.03h0v-.02s-.02,0-.02,0h0s-.01,0-.01,0v.02s-.01,0-.01,0v-.02h-.02s-.01.01-.01.01h-.02s-.01,0-.01,0h-.01s-.01,0-.01,0h-.01s-.02,0-.02,0h-.02s-.01,0-.01,0h0s-.01,0-.01,0h0s-.07,0-.07,0Z"/>
    <path d="M7.18,4.64v-.02s0,0,0,0h0s0,.01,0,.01h0s-.02,0-.02,0h0s0-.04,0-.04v-.02s0-.02,0-.02v-.02s-.02,0-.02,0v.02s0,.01,0,.01h0s0,0,0,0v.04s0,.03,0,.03l-.02-.02v-.06s0-.04,0-.04v-.02s0-.03,0-.03h0s0,.03,0,.03l.02.02h.02s0,0,0,0h0s-.03-.01-.03-.01v-.02s0-.06,0-.06v-.05s0,0,0,0v.02s.02.02.02.02h0v.02h0s0-.03,0-.03v-.04s0-.01,0-.01h-.02s0,.01,0,.01v-.03s0-.06,0-.06v-.06s0-.05,0-.05v-.12s0-.07,0-.07v-.06s0-.02,0-.02v-.05h0s-.02-.02-.02-.02v-.02s-.02,0-.02,0v.03s-.02,0-.02,0v-.02s0-.02,0-.02v-.02h0s-.01-.02-.01-.02h-.16s-.16,0-.16,0h-.03s-.03,0-.03,0h-.03s-.06,0-.06,0h-.05s0,.05,0,.05v.08s0,.15,0,.15v.06s0,.06,0,.06v.12s-.01.1-.01.1v.05s-.01.01-.01.01h0s0,.03,0,.03v.02s0,.03,0,.03v.04s-.03.01-.03.01h-.02s-.01,0-.01,0h-.03s0,0,0,0h-.02s-.02,0-.02,0h-.02s-.01,0-.01,0h0s0,0,0,0h-.02s-.02,0-.02,0h-.02s0,0,0,0h0s-.02,0-.02,0h-.03s-.02,0-.02,0h-.01s-.01,0-.01,0h0s-.02,0-.02,0h-.02s-.01-.01-.01-.01v-.02s-.01-.02-.01-.02h0s0-.03,0-.03v-.04s0-.02,0-.02h-.02v-.15s0-.03,0-.03v-.05s0-.13,0-.13v-.11s0-.09,0-.09v-.09s0-.13,0-.13v-.07s0-.05,0-.05v-.11s0-.06,0-.06v-.09s0-.06,0-.06v-.04s0-.13,0-.13v-.04s0-.12,0-.12v-.03s0-.04,0-.04v-.07s.02-.09.02-.09v-.04s.05,0,.05,0h.05s.02,0,.02,0h.02s.01,0,.01,0h.01s.02,0,.02,0h.02s.02,0,.02,0h0s.02,0,.02,0h.02s0,0,0,0h.01s.01-.01.01-.01h.07s.03,0,.03,0h.03s0,.04,0,.04v.04s0,.02,0,.02v.04s0,.04,0,.04v.03s0,.05,0,.05v.08s0,.1,0,.1v.05s0,.04,0,.04v.1s0,.06,0,.06h0s.01.02.01.02h.11s.06,0,.06,0h0s0,0,0,0h-.03s-.01,0-.01,0h0s.06,0,.06,0h.17s.13,0,.13,0h.03s0-.02,0-.02v-.03s0-.04,0-.04v-.04s0-.03,0-.03v-.03s0-.03,0-.03v-.06s0-.04,0-.04v-.04s0-.05,0-.05v-.08s0-.04,0-.04v-.07s0-.07,0-.07l.03-.03h.04s.03,0,.03,0h.05s.02,0,.02,0h.03s.01,0,.01,0h0s.01,0,.01,0h.01s.02,0,.02,0h.03s.03,0,.03,0h.03s.03,0,.03,0h.04s0,.03,0,.03v.03s0,.04,0,.04v.2s0,.07,0,.07v.08s0,.03,0,.03v.03s0,.04,0,.04v.07s0,.07,0,.07v.02s0,.01,0,.01v.02s0,.03,0,.03v.05s0,.07,0,.07v.08s0,.03,0,.03v.02s0,.1,0,.1v.06s0,.09,0,.09v.17s0,.13,0,.13v.02s0,.04,0,.04v.05s0,.04,0,.04v.02s0,.02,0,.02v.04s0,.04,0,.04v.03s-.02.02-.02.02h-.02s0,.01,0,.01h-.03s-.01.01-.01.01h0s0-.02,0-.02h-.01s0,.01,0,.01h0s-.01.01-.01.01v-.02s0-.01,0-.01h0v.03s-.02,0-.02,0h-.02s0,0,0,0h0s0,0,0,0v.02s0,.02,0,.02h-.02s-.02-.02-.02-.02v.02s-.01.02-.01.02h0Z"/>
    <path d="M8.05,4.66h-.02s-.03,0-.03,0h-.04s-.03,0-.03,0h-.02s-.03,0-.03,0h-.04s-.02,0-.02,0h-.02s-.01-.01-.01-.01h-.01s0-.03,0-.03v-.03s.01-.04.01-.04v-.06s0-.08,0-.08v-.12s0-.04,0-.04h0v-.13s0-.09,0-.09v-.1s0-.17,0-.17v-.08s0-.09,0-.09v-.05s0-.09,0-.09v-.1s0-.1,0-.1v-.1s0-.05,0-.05v-.1s.01-.05.01-.05v-.05s0-.1,0-.1v-.04s0-.08,0-.08h.02s.01-.02.01-.02h.02s.02,0,.02,0h.04s.03,0,.03,0h.02s.05,0,.05,0h.01s.01,0,.01,0h.03s.04,0,.04,0h.02s.03,0,.03,0h.05s.05,0,.05,0h.02s.03,0,.03,0h.22s.04.01.04.01h.03s.04.01.04.01h.05s.14,0,.14,0h.01s.02,0,.02,0h.1s.03,0,.03,0h.02s.01.01.01.01v.02s.02.03.02.03l.02.02.02.07v.03s-.01.02-.01.02h0s.02.07.02.07h0s-.02.02-.02.02h-.02s-.02.05-.02.05l-.03.04-.03.03h-.02s-.02-.01-.02-.01h-.01s-.02,0-.02,0h-.05s-.04,0-.04,0h-.01s-.08,0-.08,0h-.33s-.11,0-.11,0v.02s0,.19,0,.19v.08s0,.03,0,.03h.01s.1,0,.1,0h.26s.03,0,.03,0h.02s.02,0,.02,0h.06s.02,0,.02,0h.02s.02,0,.02,0h.02l.03.03v.02s0,.03,0,.03l.02.02v.02s0,.02,0,.02v.02s0,.03,0,.03v.02s0,.02,0,.02v.02s0,.02,0,.02v.02s0,0,0,0h0s0,.02,0,.02h-.01s-.02.02-.02.02l-.02.03v.02s0,0,0,0h-.03s-.02.03-.02.03h-.17s-.1,0-.1,0h-.09s-.12,0-.12,0h-.07s-.02.02-.02.02v.02s0,.06,0,.06v.11s0,.07,0,.07v.05s0,.04,0,.04h.06s.06,0,.06,0h.03s.08,0,.08,0h.03s.07.01.07.01h.07s.2,0,.2,0h.04s.05,0,.05,0h.05s.03,0,.03,0v.02s.02.02.02.02v.02s.02.01.02.01h0s-.01.03-.01.03h.01s0,.03,0,.03h-.01s0,0,0,0h0s.02.02.02.02v.02s0,.03,0,.03v.04s-.02.02-.02.02h.02s.01.02.01.02h0s-.02.02-.02.02l-.02.02v.03s0,.02,0,.02h0s-.02.02-.02.02h-.02s-.02.02-.02.02h-.05s-.06,0-.06,0h-.21s-.02.01-.02.01h-.04s-.15,0-.15,0h-.09s-.12,0-.12,0h-.05s-.01.01-.01.01h0Z"/>
  </g>
  <g>
    <path d="M10.68,4.82l-.1-.02-.08-.04h-.08s-.08-.04-.08-.04l-.13-.06-.08-.04-.05-.04-.08-.05-.05-.04-.05-.03-.04-.04-.06-.05-.05-.05v-.02s0-.03,0-.03v-.03l.02-.02.04-.03.02-.03v-.05s.05-.04.05-.04h.02s0-.04,0-.04l.02-.02v-.02s.02-.02.02-.02l.05-.04.02-.06h.03s.02-.07.02-.07l.02-.05.03-.02v-.04s.02-.01.02-.01l.02-.04h.05s.03.02.03.02h.01v-.02s.03-.02.03-.02l.12.08.15.1.11.07.11.02h.13s.16-.05.16-.05l.1-.06.08-.14.07-.2v-.12s-.03-.05-.03-.05l-.03-.07-.02-.07-.02-.03-.03-.04-.04-.02-.03-.03-.04-.05-.04-.05-.05-.04-.03-.04-.04-.03-.19-.16-.12-.13-.08-.1-.17-.2-.12-.21-.04-.1-.04-.14v-.17s0-.22,0-.22l.02-.1.08-.15.05-.08.04-.06.03-.04.08-.09.08-.08.08-.07.1-.07.12-.08.16-.05.08-.04.13-.04.25-.03h.28s.17.03.17.03h.06s.04.03.04.03v.02s-.01,0-.01,0h-.01s.02.04.02.04h.03s0,.06,0,.06l-.02.03.02.08h-.02v.02s.02.03.02.03v.05l.02.04v.02h-.02s0,.03,0,.03l.04.04-.02.02.02.02v.03s0,.03,0,.03h-.03v.02l.02.02.04.02.02.02h0s-.02.02-.02.02h-.03s0,.06,0,.06v.05l-.02.02v.07l-.02.08-.02.02-.04-.03-.14-.04-.11-.02h-.23l-.14.05-.04.04-.05.04-.05.06-.02.13.07.12.13.12.16.16.1.09.1.1.17.17.17.2.15.2.05.1.08.22.04.21v.14s0,.15,0,.15l-.07.23-.06.13-.13.21-.11.12-.07.05-.04.05-.17.14-.12.08-.13.07-.15.05-.12.04-.1.02-.21.02h-.17Z"/>
    <path d="M15.24,4.75v-.04s-.02-.02-.02-.02h-.01s0,.02,0,.02v.03s-.05-.02-.05-.02l-.02-.03v-.05s-.01-.04-.01-.04v-.04s0-.04,0-.04h-.02s0,.05,0,.05l-.02.02h-.01s-.02,0-.02,0v.08s0,.07,0,.07l-.03-.05v-.12s-.01-.08-.01-.08l-.02-.05.02-.07h.01s0,.07,0,.07l.05.04h.05s.01-.02.01-.02v-.03s-.07,0-.07,0v-.04s-.01-.13-.01-.13v-.11s.02-.01.02-.01l.02.04.02.05-.02.02v.02h.02s.02-.05.02-.05l.02-.1-.02-.02h-.03l-.02.03h-.01v-.07s0-.14,0-.14v-.13s-.01-.1-.01-.1v-.26s-.01-.15-.01-.15v-.12s-.01-.04-.01-.04v-.12s-.04-.02-.04-.02l-.02-.04v.02s-.04.06-.04.06h-.02s0-.04,0-.04v-.04s-.01-.04-.01-.04v-.03s-.04,0-.04,0h-.34s-.35.02-.35.02h-.07s-.06,0-.06,0l-.07.02h-.25s0,.11,0,.11v.17s0,.32,0,.32v.14s0,.12,0,.12v.26s-.03.21-.03.21v.1s-.02.02-.02.02l-.02.02v.05s-.03.04-.03.04v.07l-.02.08-.04.03h-.04s-.02.02-.02.02h-.06s-.02,0-.02,0h-.04s-.04,0-.04,0l-.04.02-.02-.02h0s-.01.01-.01.01l-.04-.02h-.05s-.04.04-.04.04l-.02-.03h-.02s-.05.01-.05.01l-.05-.02h-.04s-.02.04-.02.04h-.03s-.01-.03-.01-.03l-.03.02h-.04s-.02-.02-.02-.02l-.02-.05v-.05s-.01-.03-.01-.03v-.03s.01-.08.01-.08v-.05h-.02v-.02s-.01-.23-.01-.23v-.07s0-.07,0-.07v-.11s0-.29,0-.29v-.23s0-.19,0-.19v-.18s0-.29,0-.29v-.14s-.01-.11-.01-.11v-.23s.01-.12.01-.12v-.2s0-.13,0-.13v-.08s0-.27,0-.27v-.09s0-.25,0-.25v-.06s0-.08,0-.08l.02-.16.03-.19.02-.08h.09s.08-.01.08-.01h.02s.05,0,.05,0h.05s.02,0,.02,0l.03.02.04-.02h.04s.03,0,.03,0h.02s.05,0,.05,0h.05s0,.01,0,.01l.02-.02h.03s.11-.01.11-.01h.04s.06,0,.06,0h.06s0,.08,0,.08v.09s0,.05,0,.05v.08s0,.08,0,.08v.07s-.01.11-.01.11v.17s0,.2,0,.2v.1s0,.09,0,.09v.2s0,.14,0,.14v.03s.04.01.04.01h.23s.13,0,.13,0h0s-.01.02-.01.02h-.06s-.02,0-.02,0h0s.13,0,.13,0h.36s.27.01.27.01h.07s.01-.05.01-.05v-.06s0-.08,0-.08v-.1s0-.06,0-.06v-.07s0-.07,0-.07v-.14s0-.08,0-.08v-.08s.01-.1.01-.1v-.17s0-.09,0-.09v-.14s.02-.14.02-.14l.06-.06h.08s.05,0,.05,0h.11s.05,0,.05,0h.06s.03,0,.03,0h.02s.02.01.02.01l.03-.02h.04s.06,0,.06,0h.13s.06,0,.06,0h.08s.01.06.01.06v.07s.01.08.01.08v.43s-.01.14-.01.14v.17s0,.07,0,.07v.07s0,.08,0,.08v.15s0,.14,0,.14v.05s0,.03,0,.03v.04s0,.06,0,.06v.1s0,.16,0,.16v.17s.01.07.01.07v.05s0,.21,0,.21v.13s.02.19.02.19v.36s0,.29,0,.29v.05s0,.08,0,.08v.1s-.01.09-.01.09v.04s0,.05,0,.05v.09s-.02.09-.02.09l-.03.05v.04h-.05v.02h-.01s-.07.02-.07.02l-.02.02-.02-.02-.02-.02h-.02s-.01.03-.01.03v.03s-.04,0-.04,0v-.05s-.02-.03-.02-.03h0v.07s-.05.01-.05.01h-.03s-.01.02-.01.02h-.02s-.01-.02-.01-.02v.04s-.02.05-.02.05h-.02l-.02-.03-.03-.02-.02.04v.04h-.02v-.02Z"/>
    <path d="M17.73,4.93l-.16-.05-.13-.05-.13-.07-.16-.11-.1-.08-.11-.11-.1-.1-.07-.11-.08-.12-.07-.13-.04-.08-.08-.16-.04-.12-.06-.25-.03-.23v-.41s.02-.1.02-.1v-.08s.02-.17.02-.17l.02-.1.02-.12.04-.1.03-.15.03-.1.04-.07v-.06s.03-.07.03-.07l.02-.07v-.04s.04-.05.04-.05l.03-.09.04-.07.02-.07.06-.07.03-.1.07-.07.06-.1.11-.13.13-.11.13-.1.1-.07.18-.08.15-.06.16-.04.13-.02.11-.02h.1l.25-.02h.09s.13.02.13.02l.13.04.11.05.21.11.17.14.14.16.15.21.09.2.07.2.04.16.02.11.02.16v.11s.02.13.02.13v.78s-.03.13-.03.13l-.02.1-.02.02-.03.11-.03.15v.06s-.02.05-.02.05v.05s0,.04,0,.04l-.02.1-.03.16-.06.19-.05.16v.05s-.04.04-.04.04l-.04.07-.05.07-.03.06-.05.02-.12.12-.19.13-.11.05-.13.05-.13.03-.11.02-.1.02h-.04s-.28.01-.28.01h-.02s-.02,0-.02,0h-.03s-.14.04-.14.04h-.23ZM18.27,4l.09-.02h.07s.02-.04.02-.04l.06-.02.07-.03.02-.02.04-.05.05-.07.05-.07.04-.12.04-.1v-.06s.03-.04.03-.04v-.07l.02-.07.02-.04v-.07s0-.04,0-.04l.03-.04-.02-.05.03-.05v-.05s0-.08,0-.08v-.11s.02-.08.02-.08v-.06s0-.14,0-.14v-.2s0-.21,0-.21v-.07s-.01-.03-.01-.03v-.05s-.04-.1-.04-.1l-.07-.18-.06-.1-.14-.15-.11-.07-.14-.04-.22.03-.1.03h-.1s-.06.04-.06.04l-.08.05-.05.04v.04s-.07.04-.07.04l-.08.11-.05.08-.02.05-.03.07v.06s-.04.05-.04.05l-.02.1-.02.08v.05s-.04.08-.04.08l-.02.14-.02.21v.18s0,.15,0,.15v.14s.04.16.04.16l.04.11.02.07.04.08.09.14.19.17.19.11.1.04h.02s-.01.04-.01.04h.02s.11,0,.11,0Z"/>
    <path d="M20.67,4.82l-.02-.02-.02.03-.02.02h0v-.02s-.04-.03-.04-.03l-.02-.04v-.05s-.02-.07-.02-.07v-.1s0-.04,0-.04v-.05s0-.14,0-.14v-.16s-.04-.07-.04-.07v-.04s.02-.04.02-.04v-.11s0-.09,0-.09v-.02h-.02s0,.02,0,.02h-.01v-.02s0-.09,0-.09v-.18s0-.12,0-.12v-.06s0-.05,0-.05v-.04s0-.07,0-.07v-.05s0-.06,0-.06v-.14s0-.05,0-.05v-.05s0-.06,0-.06v-.05s0-.04,0-.04v-.05s0-.04,0-.04v-.1s.01-.08.01-.08v-.05s.01-.07.01-.07v-.06s.02-.05.02-.05v-.03s0-.03,0-.03l.02-.04v-.15s0-.1,0-.1v-.13s0-.02,0-.02v-.21s.01-.19.01-.19v-.29s.02-.26.02-.26v-.13s0-.04,0-.04l.04-.02h.02s.05-.01.05-.01h.05s.02.01.02.01l.02-.03h.03s.02.01.02.01l.02.02h.02s.02-.04.02-.04h.04s.03.01.03.01h.04s.06,0,.06,0l.04-.02h.06s.06-.01.06-.01h.07s.04,0,.04,0l.03.02h.03s.02,0,.02,0h.51s.24.02.24.02l.1.02.18.06.11.06.2.16.16.18.07.11.1.26.05.28.02.26v.11s-.02.16-.02.16l-.04.14-.04.09-.09.16-.1.16-.11.13-.14.13-.22.15-.19.06-.17.04-.28.03h-.21s-.06,0-.06,0h-.02s-.01.07-.01.07v.06l-.02.03.02.05v.06l-.02.06v.04s.02.03.02.03l-.02.04v.07s0,.12,0,.12v.07s0,.14,0,.14v.13s-.02.15-.02.15l-.02.16-.04.05-.02.02v-.02s-.04.01-.04.01l-.03.03-.03.04-.04.04h-.03s-.02.01-.02.01h-.01s-.01,0-.01,0v-.04s0,0,0,0h-.01s-.03.02-.03.02v.04s-.02.02-.02.02h-.02s-.02-.02-.02-.02v-.03s-.02,0-.02,0v.02s-.03.02-.03.02h-.03s-.02.05-.02.05l-.02.03h-.01v-.04h-.02l-.03.04h-.05s-.07-.04-.07-.04ZM21.54,2.4l.22-.04.09-.02.11-.04.1-.06.04-.02.06-.07.06-.15v-.18l-.08-.21-.14-.09-.07-.02h-.05s-.05,0-.05,0h-.17l-.15.02v.1s-.02.13-.02.13v.05s0,.07,0,.07v.17s-.02.16-.02.16v.08l-.02.09v.07s.03,0,.03,0h.08Z"/>
  </g>
  <path d="M26.09,2.58c-.2-.21-.21-.22-.4-.43-.2-.21-.21-.21-.41-.42-.21-.2-.21-.21-.42-.41-.21-.21-.24-.18-.44-.39-.08-.08-.17-.15-.25-.22-.04-.04-.09-.08-.12-.12-.01-.01-.02-.07-.05-.06,0,0,0,0-.01,0,0,0,0,0,0,0,0,0,0,0,0,0h0s0,0,0,0c0,0,0,0-.01,0-.01,0-.02,0-.03.01-.05.04.02.13.02.16,0,.07-.02.14-.02.21,0,0,0,.02,0,.03,0,.05.01.11.01.19,0,.29-.03.29-.03.59,0,.29,0,.3,0,.59,0,.29,0,.3,0,.59,0,.29,0,.3-.01.59,0,.29,0,.29,0,.59,0,.29,0,.29,0,.59,0,.22,0,.35.01.44.1-.11.22-.24.34-.36.21-.21.24-.17.45-.38s.19-.23.4-.43c.2-.21.21-.21.41-.42.2-.21.21-.22.41-.42.18-.17.23-.22.36-.35-.02-.02-.08-.08-.16-.16Z"/>
</svg>