<?xml version="1.0" encoding="UTF-8"?>
<svg id="Layer_1" data-name="Layer 1" xmlns="http://www.w3.org/2000/svg" viewBox="0 0 37.69 3.55">
  <g>
    <path d="M.98,3.24h-.06s-.05-.04-.05-.04h-.05s-.05-.03-.05-.03l-.07-.04-.05-.03-.03-.02-.05-.03-.03-.03-.03-.02-.02-.03-.04-.03-.03-.03h0s0-.03,0-.03v-.02h.01s.02-.03.02-.03v-.02s.01-.02.01-.02h0s.03-.04.03-.04h.01s0-.03,0-.03h.01s0-.03,0-.03h0s.03-.04.03-.04v-.04s.03,0,.03,0v-.03s.02-.03.02-.03h.02s0-.03,0-.03h0s.01-.03.01-.03h.03s.02.01.02.01h0,0s.02-.02.02-.02l.07.05.09.06.07.04h.06s.07.01.07.01l.09-.04.06-.04.05-.08.04-.12v-.07s-.02-.03-.02-.03l-.02-.04v-.04s-.03-.02-.03-.02l-.02-.02h-.03s-.02-.03-.02-.03l-.03-.03-.02-.03-.03-.03-.02-.02-.02-.02-.11-.09-.07-.07-.05-.06-.1-.12-.07-.12-.02-.06-.02-.08v-.1s0-.13,0-.13v-.06s.06-.09.06-.09l.03-.05.03-.04.02-.03.05-.05.05-.05.05-.04.06-.04.07-.05.09-.03.05-.02.08-.03.15-.02h.17s.1.02.1.02h.04s.02.02.02.02h0s-.01.02-.01.02h0s.01.02.01.02h.02s0,.04,0,.04v.02s0,.05,0,.05h-.01,0s0,.03,0,.03v.05s.01.01.01.01h-.01s0,.02,0,.02l.02.02h-.01s.01.02.01.02v.02s0,.02,0,.02h-.02s.01.03.01.03h.02s.01.02.01.02h0s-.01.01-.01.01h-.02s0,.03,0,.03v.03h-.01v.1s-.02.01-.02.01l-.03-.02-.08-.03h-.06s-.14-.01-.14-.01l-.08.03-.03.02-.03.02-.03.04v.08s.03.07.03.07l.07.07.1.09.06.05.06.06.1.1.1.12.09.12.03.06.05.13.02.13v.09s0,.09,0,.09l-.04.13-.04.07-.07.13-.06.07-.04.03-.03.03-.1.09-.07.05-.07.04-.09.03-.07.02h-.06s-.13.02-.13.02h-.1Z"/>
    <path d="M2.67,3.18h-.03s0-.03,0-.03v-.12s0-.04,0-.04v-.04s0-.03,0-.03v-.03s0-.05,0-.05v-.31s0-.09,0-.09v-.22s0-.07,0-.07v-.28s0-.33,0-.33v-.06s-.01-.1-.01-.1v-.08s-.01-.06-.01-.06h-.04s-.17,0-.17,0h-.18s-.1.02-.1.02h-.05s-.03-.01-.03-.01v-.02s0-.04,0-.04v-.04s0-.02,0-.02v-.02s.01-.03.01-.03v-.02s0-.03,0-.03v-.03s0-.02,0-.02v-.08s0-.03,0-.03v-.03s.02-.08.02-.08v-.03s.04-.03.04-.03h.06s.06,0,.06,0h.16s.05,0,.05,0h.08s.12,0,.12,0h.07s.11,0,.11,0h.07s.07,0,.07,0h.19s.11-.02.11-.02h.16s.04,0,.04,0h.24s.05,0,.05,0h.05s0,.05,0,.05v.04s0,.03,0,.03v.04s0,.03,0,.03v.02s-.02.03-.02.03h-.01s0,.03,0,.03v.03s.01.01.01.01v.02s-.01.01-.01.01v.02s.01.03.01.03l-.03.03v.03s0,.02,0,.02h.01s-.03.04-.03.04l-.02.03h-.03s-.05,0-.05,0l-.03.02h-.04s-.07,0-.07,0h-.27s-.04.02-.04.02l-.04.02v.18s.01.12.01.12v.37s0,.53,0,.53v.08s-.01.07-.01.07v.07s0,.07,0,.07v.19s0,.11,0,.11v.05s-.03.01-.03.01h-.05s-.04.04-.04.04h-.01v-.03s-.03.01-.03.01h-.01s-.01,0-.01,0v.03s-.02.01-.02.01v-.02h-.03s-.02.02-.02.02h-.02s-.01,0-.01,0h-.01s-.01,0-.01,0h-.02s-.03,0-.03,0h-.03s-.02,0-.02,0h-.01s-.02.01-.02.01h-.01s-.08,0-.08,0Z"/>
    <path d="M5.31,3.19l-.05-.08-.08-.11-.05-.06-.09-.13-.08-.11-.06-.08-.04-.04-.05-.05-.15-.18-.04-.04h-.01v.14s0,.07,0,.07v.12s0,.08,0,.08v.04s-.01.09-.01.09v.15s0,.09,0,.09l-.02.05h-.04s-.03,0-.03,0h-.03s-.01.02-.01.02h-.03s-.04.01-.04.01h-.02s0-.01,0-.01h-.02s-.02,0-.02,0h-.04s-.02,0-.02,0h-.02s-.01,0-.01,0h-.01s-.05.01-.05.01h-.04s-.04,0-.04,0h-.01s0-.02,0-.02v-.1s0-.07,0-.07v-.13s0-.06,0-.06v-.13s0-.06,0-.06v-.09s0-.06,0-.06v-.05s0-.08,0-.08v-.07s0-.09,0-.09v-.09s0-.05,0-.05v-.05s0-.12,0-.12v-.09s0-.07,0-.07v-.06s0-.08,0-.08v-.05s0-.07,0-.07v-.07s0-.15,0-.15v-.03s0-.05,0-.05v-.06s0-.03,0-.03v-.27s0-.06,0-.06v-.04s0,0,0,0h0s.03-.01.03-.01h.07s.01,0,.01,0h0s.02,0,.02,0h.04s.02,0,.02,0h.03s.02,0,.02,0h.11s.06-.01.06-.01h.02s.03,0,.03,0h.02s.05,0,.05,0h.06s.04-.01.04-.01h.04s.03,0,.03,0h.13s.04.01.04.01h.05s.04.02.04.02h.03s.03.02.03.02l.09.03.08.05.05.04.04.05.04.07.03.1.03.09.02.05v.03s.02.06.02.06l.02.08v.04s0,.05,0,.05v.05s.01.01.01.01v.04s-.01.05-.01.05v.02s-.03.07-.03.07l-.03.08-.02.04-.06.09v.02s-.06.05-.06.05l-.04.04-.03.02-.05.04-.03.03.02.04.02.03.05.06.08.1.08.12.06.08.05.07.09.12.06.09.03.06.03.05-.03.02-.03.02h-.02s-.01.01-.01.01v.02s-.02.02-.02.02h-.03l-.02.03h-.01s-.01,0-.01,0h0s-.02.02-.02.02h-.02s-.01.03-.01.03h-.01s-.02.01-.02.01v.02s-.03,0-.03,0h-.02s-.02.03-.02.03h-.01s-.01.01-.01.01h-.02s-.02.02-.02.02h-.04s-.03-.04-.03-.04ZM4.71,1.76h.07s.09-.01.09-.01h.02s.05-.05.05-.05l.06-.04.04-.04.03-.06v-.07s-.01-.1-.01-.1l-.04-.11-.04-.03h-.04s-.07-.04-.07-.04h-.06s-.07-.01-.07-.01h-.08s0,.05,0,.05v.29s0,.13,0,.13v.07h.01s.08.01.08.01Z"/>
    <path d="M6.2,3.15h-.04s-.02,0-.02,0h0s-.01-.01-.01-.01h-.02s-.03.01-.03.01h-.03s-.02-.01-.02-.01h-.01s-.01,0-.01,0h-.02s-.02,0-.02,0l-.02-.02h-.03s-.02,0-.02,0h-.01s-.01.02-.01.02h-.01s-.03-.03-.03-.03v-.03s.01-.06.01-.06l.02-.11v-.07s.04-.12.04-.12l.03-.11v-.07s.03-.08.03-.08l.03-.11.02-.11.03-.14v-.08s.05-.16.05-.16l.02-.08.03-.16.02-.1.02-.08.03-.13.03-.12.03-.12.03-.11.04-.1.02-.06.02-.06.02-.04v-.02s.02,0,.02,0h.01s.04,0,.04,0h.03s.02,0,.02,0h.03s.03.02.03.02h.01s.03,0,.03,0h.03s.03,0,.03,0h.03s.01,0,.01,0h.03s.03,0,.03,0h.03s.03,0,.03,0h.06s.04,0,.04,0h.01s.02-.01.02-.01h.01s.01,0,.01,0h0s.03.06.03.06l.02.06.03.09.04.11.03.09.02.06.03.11.02.07v.04s.03.08.03.08l.02.08.02.07v.07s.04.07.04.07l.05.2.02.07.03.14.03.11v.03s.02.06.02.06l.02.07.04.19v.05s.01.05.01.05v.08s.03.07.03.07v.05s.01.04.01.04v.03l-.02.02h-.03s-.03.03-.03.03h-.01s-.02.01-.02.01h-.03s-.02.03-.02.03h-.01s-.04.02-.04.02h-.01s-.01,0-.01,0h-.01s-.01.02-.01.02h-.02s-.02,0-.02,0h-.02s-.03.04-.03.04h-.01s-.01-.02-.01-.02l-.05.02h-.05s-.02-.01-.02-.01l-.02-.09-.03-.1-.03-.12-.03-.11h-.05s-.07,0-.07,0h-.06s-.26,0-.26,0h-.05s0,.03,0,.03v.04s-.02.03-.02.03l-.02.08v.07s-.03.07-.03.07l-.03.08-.03.02h-.02s-.03.02-.03.02h-.04s-.02,0-.02,0l-.02-.02v.02s-.02,0-.02,0h0ZM6.84,2.18v-.07s-.03-.1-.03-.1v-.05s-.02-.03-.02-.03l-.02-.07v-.07s-.03-.06-.03-.06l-.02-.07v-.03s-.02,0-.02,0h0s-.01.08-.01.08l-.02.08-.02.09-.02.14v.06s-.03.09-.03.09h.04s.08,0,.08,0h.05s.05,0,.05,0h.03Z"/>
    <path d="M7.91,3.26v-.05s-.05,0-.05,0h-.02s-.02-.02-.02-.02l-.02-.04v-.05s-.02-.03-.02-.03v-.04s0-.03,0-.03v-.02s.01-.02.01-.02v-.03s.01-.05.01-.05v-.02s0-.01,0-.01v-.13s0-.01,0-.01v-.04s0-.05,0-.05v-.04s0-.04,0-.04v-.07s0-.27,0-.27v-.05s0-.05,0-.05v-.12s0-.03,0-.03v-.03s0-.09,0-.09v-.07s.02-.18.02-.18v-.06s0-.08,0-.08v-.1s0-.09,0-.09v-.12s0-.13,0-.13v-.17s0-.11,0-.11l.02-.03h.02s.03,0,.03,0h.03s.18,0,.18,0h.01s.02,0,.02,0h.02s.03,0,.03,0h.03s.02,0,.02,0h.01s.03-.01.03-.01h.03s.03.01.03.01h.02s.03,0,.03,0v.07s0,.07,0,.07v.13s0,.05,0,.05v.05s0,.05,0,.05v.05s0,.05,0,.05v.03s0,.01,0,.01h.01s0,0,0,0v.02s-.02,0-.02,0h0s0,.02,0,.02v.03s.01.02.01.02v.15s-.01.02-.01.02h-.01s0,.02,0,.02v.05s.01,0,.01,0h0v.05h-.02v.05s0,.02,0,.02h.01v.02h-.01v.05s0,.04,0,.04v.04h.01s0,.03,0,.03v.13s.02.07.02.07v.11s0,.08,0,.08v.22s0,.07,0,.07v.06s0,.09,0,.09v.07s-.01.1-.01.1v.09s-.01.04-.01.04v.05s-.02.04-.02.04l-.02.02-.03.02h-.02s-.03.01-.03.01v.02s-.02,0-.02,0h-.02s-.02,0-.02,0h-.02s-.02,0-.02,0h-.01s-.01-.01-.01-.01v.02s-.02.03-.02.03v-.05h-.04s-.03.04-.03.04h0s0,.01,0,.01h0s-.02-.03-.02-.03h-.01s0,.06,0,.06v.03h-.01v-.02s0-.03,0-.03h0s-.01,0-.01,0h-.02s0,.03,0,.03v.05s-.01.03-.01.03h0s0-.08,0-.08Z"/>
    <path d="M9.58,3.31l-.1-.02h-.04l-.05-.02h-.03s-.03-.03-.03-.03l-.05-.03h-.04s-.02-.03-.02-.03h-.03s-.01-.01-.01-.01l-.04-.03-.06-.06-.04-.05h-.02s-.01-.03-.01-.03l-.04-.05-.03-.06v-.03s-.03-.03-.03-.03l-.04-.04-.03-.07-.03-.05v-.03s0-.02,0-.02v-.02s-.02-.01-.02-.01v-.03s-.02-.03-.02-.03v-.06s-.03-.08-.03-.08v-.07s-.02-.04-.02-.04v-.07s-.03-.12-.03-.12l-.02-.09v-.04s0-.13,0-.13v-.05s0-.06,0-.06v-.04s.02-.02.02-.02v-.04s0-.04,0-.04h0s.01-.04.01-.04v-.03s0-.01,0-.01v-.03s.01-.05.01-.05v-.04s.03-.03.03-.03v-.05s.02-.04.02-.04l.02-.06.02-.08.03-.03.03-.05.04-.08.02-.04h.02s.08-.09.08-.09l.05-.04.06-.05.05-.03.12-.06.08-.02h.01s.04,0,.04,0h.05s.03-.03.03-.03h.03s.02,0,.02,0h.03s.03,0,.03,0h.06s.03,0,.03,0h.03s.06,0,.06,0h.11s.03.01.03.01h.03s.09.03.09.03h.03s.05.01.05.01h.04s.07.05.07.05l.07.04.08.06.03.02v.02s0,.02,0,.02v.03s-.04.02-.04.02v.02s-.02.03-.02.03h-.02s-.01.02-.01.02v.05s-.04.01-.04.01h0s0,.02,0,.02h-.02s0,.02,0,.02v.02s-.02,0-.02,0v.02s-.03.01-.03.01v.02s-.03,0-.03,0l-.02.04h-.01s-.01.03-.01.03h-.02s-.02.03-.02.03h-.03s-.05-.03-.05-.03l-.05-.03-.05-.02-.1-.02h-.09s-.02-.01-.02-.01h0s-.02-.01-.02-.01h-.05s-.06.01-.06.01h-.02s-.01.03-.01.03l-.07.02-.07.05-.05.05-.05.11-.04.12-.02.07v.06s-.01.07-.01.07v.07s-.01.04-.01.04v.08s.01.06.01.06v.13s.03.09.03.09v.07s.03.06.03.06l.02.07.03.08.03.06.04.08.08.06.06.03.06.03.07.02h.05s.05,0,.05,0h.05s.04-.02.04-.02l.04-.03.03-.04v-.03s0-.08,0-.08v-.12s-.02-.11-.02-.11v-.1s-.04,0-.04,0l-.25.03h-.11s-.03.01-.03.01h0s0-.01,0-.01h0s-.01-.03-.01-.03h0v-.05s0-.04,0-.04v-.04s0-.02,0-.02h0s0-.04,0-.04v-.03s0-.01,0-.01v-.02s0-.04,0-.04v-.02s0-.08,0-.08h0s0-.04,0-.04v-.03s.01-.01.01-.01l.05-.02.1-.02h.12s.13-.01.13-.01h.13s.09,0,.09,0h.11s.02,0,.02,0h.03s.04,0,.04,0h.03s.01,0,.01,0h.03s.02,0,.02,0h.03s.03,0,.03,0v.03s.02.08.02.08v.11s0,.11,0,.11v.15s-.01.11-.01.11v.18s.01.07.01.07v.18s-.02.07-.02.07v.05s-.04.01-.04.01l-.02.06-.02.05h0s-.01.04-.01.04l-.03.04-.03.03-.06.06-.08.07-.05.03-.02.02-.04.02-.04.02-.02.02h-.06s-.03,0-.03,0l-.03.02h-.04s-.03,0-.03,0h-.08s-.04,0-.04,0h-.04s-.04,0-.04,0h-.04s-.02.01-.02.01h0s-.02,0-.02,0Z"/>
    <path d="M12.33,3.2v-.02s-.01-.01-.01-.01h0s0,.01,0,.01v.02s-.03-.01-.03-.01v-.02s0-.03,0-.03v-.03s0-.02,0-.02v-.02s-.02,0-.02,0v.03s-.01.01-.01.01h0s-.01,0-.01,0v.05s0,.04,0,.04l-.02-.03v-.07s0-.05,0-.05v-.03s0-.04,0-.04h0s0,.04,0,.04l.03.02h.03s0-.01,0-.01v-.02s-.04,0-.04,0v-.03s0-.08,0-.08v-.06s.01,0,.01,0v.02s.02.03.02.03h-.01v.03h.01s.01-.03.01-.03v-.06s0-.01,0-.01h-.02v.02h-.02v-.04s0-.08,0-.08v-.07s0-.06,0-.06v-.15s0-.09,0-.09v-.07s0-.03,0-.03v-.06h0s-.02-.03-.02-.03v-.02s-.02.01-.02.01v.04s-.02,0-.02,0v-.03s0-.03,0-.03v-.04s-.02,0-.02,0h-.2s-.21.01-.21.01h-.04s-.04,0-.04,0h-.04s-.08.01-.08.01h-.07s0,.06,0,.06v.1s0,.19,0,.19v.08s0,.07,0,.07v.15s-.02.12-.02.12v.06s-.01.01-.01.01h-.01s0,.04,0,.04v.02s-.01.04-.01.04v.05s-.03.02-.03.02h-.02s-.01.01-.01.01h-.04s-.01,0-.01,0h-.02s-.02,0-.02,0h-.02s-.01,0-.01,0h0s0,0,0,0h-.03s-.03,0-.03,0h-.02s-.01,0-.01,0h-.01s-.03,0-.03,0h-.03s-.03,0-.03,0v.02s-.03,0-.03,0h0s-.02,0-.02,0h-.02s-.01-.01-.01-.01v-.03s-.02-.03-.02-.03v-.02s0-.02,0-.02v-.05s0-.03,0-.03h-.02v-.19s0-.04,0-.04v-.07s0-.17,0-.17v-.13s0-.11,0-.11v-.11s0-.17,0-.17v-.09s0-.06,0-.06v-.13s0-.07,0-.07v-.12s0-.07,0-.07v-.05s0-.16,0-.16v-.05s0-.15,0-.15v-.03s0-.05,0-.05v-.09s.03-.11.03-.11v-.05s.06,0,.06,0h.06s.03,0,.03,0h.03s.01,0,.01,0h.02s.02,0,.02,0h.03s.02,0,.02,0h.01s.03,0,.03,0h.03s0,0,0,0h.01s.02-.02.02-.02h.09s.04,0,.04,0h.04s0,.05,0,.05v.05s0,.03,0,.03v.05s0,.05,0,.05v.04s0,.06,0,.06v.1s0,.12,0,.12v.06s0,.05,0,.05v.12s0,.08,0,.08v.02s.02,0,.02,0h.13s.08,0,.08,0h0s0,.01,0,.01h-.04s-.01,0-.01,0h0s.08,0,.08,0h.21s.16,0,.16,0h.04s0-.03,0-.03v-.04s0-.05,0-.05v-.06s0-.04,0-.04v-.04s0-.04,0-.04v-.08s0-.05,0-.05v-.05s0-.06,0-.06v-.1s0-.05,0-.05v-.08s.01-.08.01-.08l.04-.04h.05s.03,0,.03,0h.06s.03,0,.03,0h.04s.02,0,.02,0h.01s.01,0,.01,0h.02s.03,0,.03,0h.03s.04-.01.04-.01h.04s.04,0,.04,0h.05s0,.04,0,.04v.04s0,.05,0,.05v.25s0,.09,0,.09v.1s0,.04,0,.04v.04s0,.05,0,.05v.09s0,.09,0,.09v.03s0,.02,0,.02v.03s0,.03,0,.03v.06s0,.09,0,.09v.1s0,.04,0,.04v.03s0,.12,0,.12v.07s.01.11.01.11v.21s0,.17,0,.17v.03s0,.05,0,.05v.06s0,.05,0,.05v.02s0,.03,0,.03v.05s-.01.05-.01.05l-.02.03v.02h-.03s0,.02,0,.02h-.04s-.01.01-.01.01h-.01s-.01-.03-.01-.03h-.01s0,.02,0,.02v.02s-.02,0-.02,0v-.03s-.01-.02-.01-.02h0v.04s-.03,0-.03,0h-.02s0,.01,0,.01h-.01s0-.01,0-.01v.03s-.01.03-.01.03h-.01v-.02s-.03-.01-.03-.01v.02s-.02.03-.02.03h-.01Z"/>
    <path d="M13.58,3.18h-.03s0-.03,0-.03v-.12s0-.04,0-.04v-.04s0-.03,0-.03v-.03s0-.05,0-.05v-.31s0-.09,0-.09v-.22s0-.07,0-.07v-.28s0-.33,0-.33v-.06s-.01-.1-.01-.1v-.08s-.01-.06-.01-.06h-.04s-.17,0-.17,0h-.18s-.1.02-.1.02h-.05s-.03-.01-.03-.01v-.02s0-.04,0-.04v-.04s0-.02,0-.02v-.02s.01-.03.01-.03v-.02s0-.03,0-.03v-.03s0-.02,0-.02v-.08s0-.03,0-.03v-.03s.02-.08.02-.08v-.03s.04-.03.04-.03h.06s.06,0,.06,0h.16s.05,0,.05,0h.08s.12,0,.12,0h.07s.11,0,.11,0h.07s.07,0,.07,0h.19s.11-.02.11-.02h.16s.04,0,.04,0h.24s.05,0,.05,0h.05s0,.05,0,.05v.04s0,.03,0,.03v.04s0,.03,0,.03v.02s-.02.03-.02.03h-.01s0,.03,0,.03v.03s.01.01.01.01v.02s-.01.01-.01.01v.02s.01.03.01.03l-.03.03v.03s0,.02,0,.02h.01s-.03.04-.03.04l-.02.03h-.03s-.05,0-.05,0l-.03.02h-.04s-.07,0-.07,0h-.27s-.04.02-.04.02l-.04.02v.18s.01.12.01.12v.37s0,.53,0,.53v.08s-.01.07-.01.07v.07s0,.07,0,.07v.19s0,.11,0,.11v.05s-.03.01-.03.01h-.05s-.04.04-.04.04h-.01v-.03s-.03.01-.03.01h-.01s-.01,0-.01,0v.03s-.02.01-.02.01v-.02h-.03s-.02.02-.02.02h-.02s-.01,0-.01,0h-.01s-.01,0-.01,0h-.02s-.03,0-.03,0h-.02s-.02,0-.02,0h-.01s-.02.01-.02.01h-.01s-.08,0-.08,0Z"/>
  </g>
  <g>
    <path d="M15.66,2.05h-.02s0-.01,0-.01v-.07s0-.02,0-.02v-.02s0-.01,0-.01v-.02s0-.03,0-.03v-.17s0-.05,0-.05v-.12s0-.04,0-.04v-.15s0-.18,0-.18v-.03s0-.06,0-.06v-.05s0-.03,0-.03h-.02s-.09,0-.09,0h-.1s-.05,0-.05,0h-.03s-.02,0-.02,0h0v-.05s0,0,0,0h0s0-.03,0-.03h0s0-.03,0-.03h0s0-.02,0-.02v-.04s0-.02,0-.02v-.02s0-.05,0-.05h0s.02-.03.02-.03h.03s.03,0,.03,0h.09s.03,0,.03,0h.05s.06,0,.06,0h.04s.06,0,.06,0h.04s.04,0,.04,0h.11s.06-.01.06-.01h.09s.02,0,.02,0h.13s.02,0,.02,0h.02s0,.02,0,.02v.02s0,.02,0,.02v.02s0,.01,0,.01h0s0,.02,0,.02h0s0,.01,0,.01v.02s0,0,0,0h0s0,.02,0,.02h0s.01.03.01.03v.02s-.02.01-.02.01h0s0,.02,0,.02h-.01s-.01.03-.01.03h-.01s-.03,0-.03,0h-.02s-.02.01-.02.01h-.04s-.14,0-.14,0h-.02s-.02.02-.02.02v.1s0,.06,0,.06v.2s0,.29,0,.29v.04s0,.04,0,.04v.04s0,.04,0,.04v.11s0,.06,0,.06v.03s-.01,0-.01,0h-.02s-.02.02-.02.02h0v-.02s-.02,0-.02,0h0s0,0,0,0h0s0,.02,0,.02h0s0-.01,0-.01h0s0,0,0,0h-.01s0,0,0,0h0s0,0,0,0h0s-.01,0-.01,0h-.01s0,0,0,0h0s0,0,0,0h0s-.05,0-.05,0Z"/>
    <path d="M16.74,2.12h-.05s-.04-.03-.04-.03l-.04-.02-.05-.03-.03-.02-.04-.03-.03-.03-.02-.03-.03-.04-.02-.04v-.03s-.04-.05-.04-.05v-.04s-.03-.08-.03-.08v-.07s0-.07,0-.07v-.06s0-.03,0-.03v-.03s0-.05,0-.05v-.03s.01-.04.01-.04v-.03s.02-.05.02-.05v-.03s.02-.02.02-.02v-.02s0-.02,0-.02v-.02s.01-.01.01-.01h0s0-.04,0-.04v-.02s.02-.02.02-.02l.02-.02v-.03s.03-.02.03-.02l.02-.03.03-.04.04-.04.04-.03.03-.02.06-.02.05-.02h.05s.04-.02.04-.02h.03s.03,0,.03,0h.08s.03,0,.03,0h.04s.04.02.04.02l.04.02.07.04.05.05.05.05.05.07.03.06.02.06v.05s.02.04.02.04v.05s0,.03,0,.03v.04s0,.19,0,.19v.05s0,.04,0,.04v.03s-.01,0-.01,0v.04s-.02.05-.02.05v.02s0,.01,0,.01v.02s0,.01,0,.01v.03s-.02.05-.02.05l-.02.06-.02.05v.02s-.01.01-.01.01v.02s-.03.02-.03.02v.02s-.02,0-.02,0l-.04.04-.06.04-.03.02-.04.02h-.04s-.03.02-.03.02h-.03s-.01.01-.01.01h-.1s0,0,0,0h0s-.04.01-.04.01h-.07ZM16.91,1.82h.03s.01,0,.01,0h.01s0-.01,0-.01h.02s.02-.02.02-.02h0s.01-.02.01-.02l.02-.02.02-.02v-.04s.02-.03.02-.03v-.02s0-.01,0-.01v-.04s.02-.01.02-.01h0s0-.02,0-.02h0s0-.03,0-.03v-.02s0-.02,0-.02h0s0-.04,0-.04v-.03s0-.03,0-.03v-.02s0-.04,0-.04v-.06s0-.07,0-.07v-.02s0,0,0,0v-.02s-.01-.03-.01-.03l-.02-.06-.02-.03-.04-.05-.04-.02h-.04s-.07,0-.07,0h-.03s-.02,0-.02,0h0s-.02.01-.02.01l-.02.02h-.02s0,.02,0,.02h-.02s-.02.05-.02.05l-.02.02v.02s-.02.02-.02.02v.02s-.01.02-.01.02v.03s-.02.03-.02.03v.02s-.01.03-.01.03v.05s-.01.07-.01.07v.06s0,.05,0,.05v.05s.01.05.01.05v.04s.02.02.02.02v.02s.04.04.04.04l.06.05.06.04h.03s0,.02,0,.02h0s0,.01,0,.01h.04Z"/>
  </g>
  <g>
    <path d="M15.54,3.25h0s0,0,0,0v-.04s0-.02,0-.02h0v-.02h0s0-.03,0-.03v-.1h0s0-.04,0-.04v-.08s0-.02,0-.02v-.1s0-.12,0-.12v-.02s0-.04,0-.04v-.03s0-.02,0-.02h-.02s-.06,0-.06,0h-.06s-.04,0-.04,0h-.02s0,0,0,0h0v-.02h0s0-.02,0-.02h0s0-.02,0-.02h0s0-.02,0-.02h0s0-.02,0-.02v-.02h0s0-.02,0-.02h0s0-.04,0-.04h0s.01-.02.01-.02h.02s.02,0,.02,0h.06s.02,0,.02,0h.03s.04,0,.04,0h.03s.04,0,.04,0h.03s.02,0,.02,0h.07s.04,0,.04,0h.06s.01,0,.01,0h.09s.02,0,.02,0h.02s0,.02,0,.02v.02s0,.01,0,.01h0s0,.02,0,.02h0s0,.02,0,.02h0s0,0,0,0h0s0,.02,0,.02h0s0,.01,0,.01h0s0,.02,0,.02h0s0,.02,0,.02h0s0,.01,0,.01h0s0,.02,0,.02h-.01s-.02,0-.02,0h-.01s-.01,0-.01,0h-.03s-.09,0-.09,0h-.01s-.02.01-.02.01v.06s0,.04,0,.04v.13s0,.19,0,.19v.03s0,.02,0,.02v.03s0,.02,0,.02v.07s0,.04,0,.04v.02s0,0,0,0h-.02s-.01.02-.01.02h0s0,0,0,0h0s0,0,0,0h0s0,.01,0,.01h0s0,0,0,0h0s0,0,0,0h0s0,0,0,0h0s0,0,0,0h0s0,0,0,0h0s0,0,0,0h0s0,0,0,0h0s-.03,0-.03,0Z"/>
    <path d="M16.57,3.26h0s0-.01,0-.01h0s0,0,0,0h0s0,0,0,0h0s0-.02,0-.02h0s0-.02,0-.02h0s0,0,0,0h0s0,.01,0,.01h0s0,0,0,0v.02s0,.02,0,.02h0s0-.04,0-.04v-.02s0-.01,0-.01h0s0-.01,0-.01h0s.01.02.01.02h0s0,0,0,0h0s-.01,0-.01,0h0s0-.04,0-.04v-.02s0,0,0,0h0s0,.02,0,.02h0s0,.01,0,.01h0s0-.03,0-.03h0s0,0,0,0h0s0,0,0,0v-.02s0-.03,0-.03v-.03s0-.02,0-.02v-.04h0v-.07s0,0,0,0v-.02h0s0,0,0,0h0s0,0,0,0h0s0,.02,0,.02h0s0-.02,0-.02h0s0-.02,0-.02h0s-.05,0-.05,0h-.03s-.07,0-.07,0h-.01s-.01,0-.01,0h-.01s-.03,0-.03,0h-.02s0,.02,0,.02v.04s0,.07,0,.07v.03s0,.03,0,.03v.05s0,.04,0,.04v.02s0,0,0,0h0s0,.02,0,.02h0v.04s-.01,0-.01,0h0s0,0,0,0h-.01s0,0,0,0h0s0,0,0,0h0s0,0,0,0h0s0,0,0,0h0s0,0,0,0h0s0,0,0,0h0s0,0,0,0h-.01s0,0,0,0h0s0,0,0,0h0s0,0,0,0h0s0,0,0,0h0s0-.02,0-.02h0s0-.01,0-.01v-.02s0-.01,0-.01h0v-.05h0s0-.03,0-.03v-.02s0-.06,0-.06v-.05s0-.04,0-.04v-.04s0-.06,0-.06v-.03s0-.02,0-.02v-.05s0-.03,0-.03v-.04s0-.03,0-.03v-.02s0-.06,0-.06v-.02s0-.05,0-.05h0v-.06s.01-.04.01-.04v-.02s.02,0,.02,0h.02s0,0,0,0h.01s0,0,0,0h0s0,0,0,0h0s0,0,0,0h0s0,0,0,0h.01s0,0,0,0h0s0,0,0,0h.03s.01,0,.01,0h.01s0,.02,0,.02v.02s0,.01,0,.01v.02s0,.02,0,.02h0v.07s0,.04,0,.04v.02s0,.02,0,.02v.04s0,.03,0,.03h0s0,0,0,0h.05s.03,0,.03,0h0s0,0,0,0h-.01s0,0,0,0h0s.03,0,.03,0h.08s.06,0,.06,0h.02s0-.01,0-.01h0s0-.03,0-.03h0s0-.02,0-.02h0s0-.03,0-.03v-.02s0-.02,0-.02h0s0-.03,0-.03v-.02s0-.02,0-.02v-.04s0-.02,0-.02v-.03s0-.03,0-.03h.01s.02-.01.02-.01h.01s.01,0,.01,0h0s.01,0,.01,0h.01s0,0,0,0h0s0,0,0,0h0s0,0,0,0h.01s.01,0,.01,0h.01s.01,0,.01,0h.02s0,.01,0,.01v.02s0,.02,0,.02v.09s0,.03,0,.03v.04s0,.02,0,.02h0s0,.03,0,.03v.03s0,.03,0,.03h0v.02h0s0,.02,0,.02v.02s0,.03,0,.03v.03h0v.03h0v.08s0,.04,0,.04v.08s0,.06,0,.06h0s0,.03,0,.03v.02s0,.02,0,.02h0s0,.02,0,.02v.02s0,.02,0,.02h0s0,.02,0,.02h0s0,0,0,0h-.01s0,0,0,0h0s0,0,0,0h0s0,0,0,0h0s0,0,0,0h0s0-.02,0-.02h0s0,.02,0,.02h0s0,0,0,0h0s0,0,0,0h0s0,.02,0,.02h0s0,0,0,0h0s0,.02,0,.02h0Z"/>
    <path d="M16.96,3.27h0s-.01,0-.01,0h-.02s-.01,0-.01,0h0s-.01,0-.01,0h-.02s0,0,0,0h-.01s0,0,0,0h0s0-.01,0-.01v-.02s0-.02,0-.02v-.02s0-.03,0-.03v-.06s0-.02,0-.02h0v-.06s0-.04,0-.04v-.04s0-.08,0-.08v-.03s0-.04,0-.04v-.02s0-.04,0-.04v-.04s0-.05,0-.05v-.04s0-.02,0-.02v-.05s0-.02,0-.02v-.02s0-.04,0-.04v-.02s0-.03,0-.03h0s0,0,0,0h0s.01,0,.01,0h.02s.01,0,.01,0h0s.02,0,.02,0h0s0,0,0,0h.01s.02,0,.02,0h0s.01,0,.01,0h.02s.02,0,.02,0h.01s.01,0,.01,0h.1s.02,0,.02,0h.02s.02,0,.02,0h.02s.06,0,.06,0h0s.01,0,.01,0h.04s.02,0,.02,0h0s0,0,0,0h0s0,.02,0,.02h0s0,.04,0,.04v.02s0,0,0,0h0s0,.03,0,.03h0s0,.01,0,.01h-.01s-.01.02-.01.02l-.02.02h-.01s0,.01,0,.01h0s0,0,0,0h0s-.02,0-.02,0h-.02s0,0,0,0h-.19s-.05,0-.05,0h0v.13s0,.02,0,.02h0s.04,0,.04,0h.11s.01,0,.01,0h.01s.01,0,.01,0h.03s0,0,0,0h0s0,0,0,0h.02s0,.02,0,.02h0s0,.02,0,.02h0s0,.02,0,.02h0s0,.02,0,.02h0s0,.02,0,.02h0s0,.02,0,.02h0s0,.01,0,.01h0s0,0,0,0h0s0,0,0,0v.02s0,0,0,0h0s-.01,0-.01,0h0s-.02.01-.02.01h-.06s-.04,0-.04,0h-.04s-.06,0-.06,0h-.03s0,.01,0,.01h0s0,.03,0,.03v.05s0,.03,0,.03v.02s0,.02,0,.02h.03s.03,0,.03,0h.01s.04,0,.04,0h.02s.03,0,.03,0h.03s.09,0,.09,0h.02s.02,0,.02,0h.02s.01,0,.01,0h0s0,.02,0,.02h0s0,.02,0,.02h0s0,.01,0,.01h0s0,.01,0,.01h0s0,0,0,0h0s0,0,0,0h0s0,.02,0,.02v.02s0,0,0,0h0s0,.01,0,.01h0s-.01,0-.01,0h-.01s0,.02,0,.02h0s0,.01,0,.01h0s-.01,0-.01,0h0s-.02,0-.02,0h-.03s-.08,0-.08,0h-.02s0,0,0,0h-.02s-.07,0-.07,0h-.04s-.05,0-.05,0h-.02s0,0,0,0h0Z"/>
  </g>
  <g>
    <path d="M18.61,3.2h-.06s-.05-.04-.05-.04h-.04s-.04-.02-.04-.02l-.07-.03-.04-.02-.03-.02-.04-.03-.03-.02-.03-.02-.02-.02-.03-.03-.03-.03h0s0-.03,0-.03v-.02h.01s.02-.03.02-.03v-.02s.01-.02.01-.02h0s.02-.03.02-.03h.01s0-.02,0-.02h.01s0-.03,0-.03h0s.03-.03.03-.03v-.03s.03,0,.03,0v-.03s.02-.03.02-.03h.02s0-.03,0-.03h0s.01-.03.01-.03h.03s.02.01.02.01h0,0s.02-.02.02-.02l.07.04.09.06.07.04h.06s.07.01.07.01l.09-.03.05-.03.05-.08.04-.11v-.07s-.02-.03-.02-.03l-.02-.04v-.04s-.03-.02-.03-.02l-.02-.02h-.02s-.02-.03-.02-.03l-.02-.03-.02-.03-.03-.02-.02-.02-.02-.02-.11-.09-.07-.07-.05-.05-.1-.11-.07-.12-.02-.05-.02-.08v-.1s0-.13,0-.13v-.05s.06-.09.06-.09l.03-.04.02-.03.02-.02.05-.05.04-.04.04-.04.05-.04.07-.04.09-.03.05-.02.08-.02.14-.02h.16s.1.02.1.02h.03s.02.02.02.02h0s-.01.02-.01.02h0s.01.02.01.02h.02s0,.03,0,.03v.02s0,.05,0,.05h-.01,0s0,.03,0,.03v.05s.01.01.01.01h-.01s0,.02,0,.02l.02.02h-.01s.01.02.01.02v.02s0,.02,0,.02h-.02s.01.02.01.02h.02s.01.02.01.02h0s-.01.01-.01.01h-.02s0,.03,0,.03v.03h-.01v.1s-.02.01-.02.01l-.02-.02-.08-.02h-.06s-.13-.01-.13-.01l-.08.03-.02.02-.03.02-.03.03v.08s.03.07.03.07l.07.07.09.09.06.05.05.06.1.1.1.12.09.12.03.06.04.13.02.12v.08s0,.09,0,.09l-.04.13-.03.07-.07.12-.06.07-.04.03-.02.03-.1.08-.07.04-.07.04-.09.03-.07.02h-.05s-.12.02-.12.02h-.1Z"/>
    <path d="M21.23,3.16v-.02s-.01-.01-.01-.01h0s0,.01,0,.01v.02s-.03-.01-.03-.01v-.02s0-.03,0-.03v-.02s0-.02,0-.02v-.02s-.02,0-.02,0v.02s-.01.01-.01.01h0s-.01,0-.01,0v.04s0,.04,0,.04l-.02-.03v-.07s0-.05,0-.05v-.03s0-.04,0-.04h0s0,.04,0,.04l.03.02h.03s0-.01,0-.01v-.02s-.04,0-.04,0v-.02s0-.08,0-.08v-.06s.01,0,.01,0v.02s.02.03.02.03h-.01v.02h.01s.01-.03.01-.03v-.05s0-.01,0-.01h-.02v.02h-.02v-.04s0-.08,0-.08v-.07s0-.06,0-.06v-.15s0-.09,0-.09v-.07s0-.02,0-.02v-.06h0s-.02-.02-.02-.02v-.02s-.02.01-.02.01v.03s-.02,0-.02,0v-.03s0-.02,0-.02v-.04s-.02,0-.02,0h-.2s-.2.01-.2.01h-.04s-.03,0-.03,0h-.04s-.08.01-.08.01h-.07s0,.06,0,.06v.1s0,.19,0,.19v.08s0,.07,0,.07v.15s-.02.12-.02.12v.05s-.01.01-.01.01h-.01s0,.04,0,.04v.02s-.01.04-.01.04v.05s-.03.02-.03.02h-.02s-.01.01-.01.01h-.03s-.01,0-.01,0h-.02s-.02,0-.02,0h-.02s-.01,0-.01,0h0s0,0,0,0h-.02s-.03,0-.03,0h-.02s-.01,0-.01,0h-.01s-.03,0-.03,0h-.03s-.02,0-.02,0v.02s-.03,0-.03,0h0s-.02,0-.02,0h-.02s-.01-.01-.01-.01v-.03s-.02-.03-.02-.03v-.02s0-.02,0-.02v-.05s0-.03,0-.03h-.02v-.18s0-.04,0-.04v-.07s0-.16,0-.16v-.13s0-.11,0-.11v-.11s0-.16,0-.16v-.08s0-.06,0-.06v-.13s0-.07,0-.07v-.11s0-.07,0-.07v-.04s0-.15,0-.15v-.05s0-.14,0-.14v-.03s0-.04,0-.04v-.09s.03-.11.03-.11v-.05s.06,0,.06,0h.06s.03,0,.03,0h.03s.01,0,.01,0h.02s.02,0,.02,0h.02s.02,0,.02,0h.01s.03,0,.03,0h.03s0,0,0,0h.01s.02-.02.02-.02h.09s.03,0,.03,0h.03s0,.04,0,.04v.05s0,.03,0,.03v.04s0,.04,0,.04v.04s0,.06,0,.06v.1s0,.12,0,.12v.06s0,.05,0,.05v.12s0,.08,0,.08v.02s.02,0,.02,0h.13s.08,0,.08,0h0s0,.01,0,.01h-.03s-.01,0-.01,0h0s.08,0,.08,0h.21s.16,0,.16,0h.04s0-.03,0-.03v-.03s0-.04,0-.04v-.05s0-.03,0-.03v-.04s0-.04,0-.04v-.08s0-.05,0-.05v-.05s0-.06,0-.06v-.1s0-.05,0-.05v-.08s.01-.08.01-.08l.03-.03h.04s.03,0,.03,0h.06s.03,0,.03,0h.03s.02,0,.02,0h.01s.01,0,.01,0h.02s.02,0,.02,0h.03s.04-.01.04-.01h.03s.03,0,.03,0h.05s0,.03,0,.03v.04s0,.05,0,.05v.25s0,.08,0,.08v.1s0,.04,0,.04v.04s0,.05,0,.05v.09s0,.08,0,.08v.03s0,.02,0,.02v.02s0,.03,0,.03v.05s0,.09,0,.09v.1s0,.04,0,.04v.03s0,.12,0,.12v.07s.01.11.01.11v.21s0,.16,0,.16v.03s0,.05,0,.05v.06s0,.05,0,.05v.02s0,.03,0,.03v.05s-.01.05-.01.05l-.02.03v.02h-.03s0,.02,0,.02h-.04s-.01.01-.01.01h-.01s-.01-.02-.01-.02h-.01s0,.02,0,.02v.02s-.02,0-.02,0v-.03s-.01-.02-.01-.02h0v.04s-.03,0-.03,0h-.02s0,.01,0,.01h-.01s0-.01,0-.01v.02s-.01.03-.01.03h-.01v-.02s-.03-.01-.03-.01v.02s-.02.02-.02.02h-.01Z"/>
    <path d="M22.66,3.27l-.09-.03-.07-.03-.07-.04-.09-.06-.06-.04-.07-.06-.05-.06-.04-.06-.05-.07-.04-.07-.02-.05-.04-.09-.02-.07-.03-.14-.02-.13v-.23s.01-.06.01-.06v-.05s.01-.1.01-.1v-.05s.02-.07.02-.07l.02-.06.02-.09.02-.06.02-.04v-.03s.02-.04.02-.04v-.04s.02-.02.02-.02l.02-.03.02-.05.02-.04v-.04s.05-.04.05-.04l.02-.05.04-.04.03-.05.06-.08.07-.07.08-.05.05-.04.1-.04.09-.03.09-.02h.07s.06-.03.06-.03h.2s.05,0,.05,0h.07s.07.03.07.03l.07.03.12.07.1.08.08.09.09.12.05.11.04.11.02.09v.07s.02.09.02.09v.06s.01.08.01.08v.45s-.02.08-.02.08v.05s-.02.01-.02.01l-.02.07-.02.09v.03s-.01.03-.01.03v.03s0,.02,0,.02v.06s-.03.09-.03.09l-.03.11-.03.09v.03s-.02.02-.02.02l-.02.04-.03.04-.02.03h-.03s-.07.08-.07.08l-.11.08-.06.03-.08.03-.08.02h-.06s-.06.02-.06.02h-.02s-.16,0-.16,0h-.01s-.01,0-.01,0h-.02s-.08.02-.08.02h-.13ZM22.97,2.73h.05s.02-.01.02-.01h.02s.01-.02.01-.02h.03s.04-.03.04-.03h.01s.02-.04.02-.04l.03-.04.03-.04.02-.07.02-.05v-.03s.02-.02.02-.02v-.08s.03-.02.03-.02v-.04s0-.02,0-.02l.02-.02v-.03s0-.03,0-.03v-.03s0-.04,0-.04v-.06s.01-.05.01-.05v-.03s0-.08,0-.08v-.12s0-.12,0-.12v-.04s0-.02,0-.02v-.03s-.02-.06-.02-.06l-.04-.1-.03-.05-.08-.09-.07-.04-.08-.02-.13.02-.05.02h-.05s-.03.02-.03.02l-.04.03-.03.02v.02s-.04.02-.04.02l-.04.07-.03.04v.03s-.03.04-.03.04v.03s-.02.03-.02.03v.06s-.03.05-.03.05v.03s-.02.05-.02.05v.08s-.02.12-.02.12v.1s0,.09,0,.09v.08s.02.09.02.09l.02.07v.04s.03.04.03.04l.05.08.11.1.11.07.05.02h.01s0,.02,0,.02h.01s.07,0,.07,0Z"/>
    <path d="M24.35,3.2h-.01s-.01,0-.01,0h-.01s0,.01,0,.01h0s-.02-.03-.02-.03v-.02s-.02-.03-.02-.03v-.04s-.01-.04-.01-.04v-.02s0-.02,0-.02v-.03s0-.08,0-.08v-.09s-.02-.04-.02-.04v-.02s.01-.02.01-.02v-.06s0-.05,0-.05h0s0-.01,0-.01h0s0,.01,0,.01h-.01s0-.06,0-.06v-.1s0-.07,0-.07v-.03s0-.03,0-.03v-.02s0-.04,0-.04v-.03s0-.03,0-.03v-.08s0-.03,0-.03v-.03s0-.03,0-.03v-.03s0-.02,0-.02v-.03s0-.02,0-.02h0s0-.05,0-.05v-.08s0-.04,0-.04v-.03s.01-.03.01-.03v-.02s0-.02,0-.02v-.02s.01-.04.01-.04v-.04s0-.06,0-.06v-.08s0-.01,0-.01v-.12s0-.11,0-.11v-.16s.01-.15.01-.15v-.07s0-.02,0-.02h.02s.01-.01.01-.01h.03s.03,0,.03,0h.01v-.02s.03,0,.03,0h.01s.01.02.01.02h.01s.01-.02.01-.02h.02s.02,0,.02,0h.02s.03,0,.03,0h.02s.03,0,.03,0h.03s.04,0,.04,0h.02s.02,0,.02,0h.02s.01,0,.01,0h.29s.14.01.14.01h.06s.1.05.1.05l.07.03.11.09.09.1.04.07.06.15.03.16v.15s0,.07,0,.07v.09s-.03.08-.03.08l-.02.05-.05.09-.06.09-.06.07-.08.07-.13.09-.11.03-.1.02-.16.02h-.12s-.03,0-.03,0h-.01s0,.04,0,.04v.05s0,.03,0,.03v.07s0,.02,0,.02v.02s0,.02,0,.02v.04s0,.07,0,.07v.04s0,.08,0,.08v.08s-.01.09-.01.09v.09s-.03.03-.03.03h-.01s0,0,0,0h-.02s-.02.02-.02.02l-.02.02-.02.02h-.02s-.01,0-.01,0h0s0,0,0,0h0s0-.02,0-.02h0s0,0,0,0h-.02s0,.03,0,.03h0s-.01.02-.01.02h-.01s0-.03,0-.03h0s0,0,0,0h-.01s-.02.02-.02.02v.02s-.02.02-.02.02h0v-.02h-.01l-.02.02h-.03s-.04-.02-.04-.02ZM24.85,1.81l.13-.02h.05s.07-.03.07-.03l.05-.03h.02s.03-.05.03-.05l.03-.09v-.11l-.05-.12-.08-.05h-.04s-.03-.01-.03-.01h-.03s-.1,0-.1,0h-.09s0,.07,0,.07v.07s0,.03,0,.03v.04s-.01.1-.01.1v.09s0,.05,0,.05v.05s0,.04,0,.04h.01s.04,0,.04,0Z"/>
  </g>
  <path d="M27.47,1.92c-.11-.12-.12-.13-.23-.25-.12-.12-.12-.12-.24-.24-.12-.12-.12-.12-.24-.23-.12-.12-.14-.1-.26-.22-.05-.05-.1-.09-.15-.13-.02-.02-.05-.04-.07-.07,0,0-.01-.04-.03-.03,0,0,0,0,0,0,0,0,0,0,0,0,0,0,0,0,0,0h0s0,0,0,0c0,0,0,0,0,0,0,0-.01,0-.02,0-.03.02.01.07.01.09,0,.04-.01.08-.01.12,0,0,0,.01,0,.02,0,.03,0,.06,0,.11,0,.17-.02.17-.02.34,0,.17,0,.17,0,.34,0,.17,0,.17,0,.34,0,.17,0,.17,0,.34,0,.17,0,.17,0,.34,0,.17,0,.17,0,.34,0,.13,0,.2,0,.25.06-.06.12-.14.2-.21.12-.12.14-.1.26-.22s.11-.13.23-.25c.12-.12.12-.12.24-.24.11-.12.12-.12.23-.24.1-.1.13-.13.21-.2-.01-.01-.05-.05-.09-.09Z"/>
</svg>