<?xml version="1.0" encoding="UTF-8"?>
<svg id="Layer_1" data-name="Layer 1" xmlns="http://www.w3.org/2000/svg" viewBox="0 0 21.11 8.18">
  <g>
    <path d="M1.08,1.78h-.03s-.03-.02-.03-.02h-.03s-.03-.01-.03-.01l-.04-.02h-.03s-.02-.03-.02-.03l-.03-.02h-.02s-.02-.02-.02-.02h-.01s-.02-.03-.02-.03l-.02-.02h0s0-.02,0-.02h0s0-.02,0-.02h.01s0-.02,0-.02h0s0-.02,0-.02h.01s0-.02,0-.02h0s0-.02,0-.02h0s0-.01,0-.01h.02s0-.03,0-.03h.01s0-.02,0-.02v-.02s.02,0,.02,0h0s0-.02,0-.02h0s.02-.01.02-.01h.01s0,0,0,0h0s.01-.01.01-.01l.04.03.05.03.04.02h.04s.04,0,.04,0l.05-.02.03-.02.03-.05.02-.07v-.04s0-.02,0-.02v-.02s-.02-.02-.02-.02h0s-.01-.02-.01-.02h-.01s0-.02,0-.02v-.02s-.03-.02-.03-.02h-.02s-.01-.03-.01-.03h-.01s-.06-.06-.06-.06l-.04-.04-.03-.03-.06-.07-.04-.07v-.03s-.02-.05-.02-.05v-.06s0-.07,0-.07v-.03s.03-.05.03-.05l.02-.03v-.02s.02-.01.02-.01l.03-.03.03-.03.03-.02.03-.02.04-.03.05-.02h.03s.04-.03.04-.03h.08s.09,0,.09,0h.06s.02,0,.02,0h.01s0,.01,0,.01h0s0,0,0,0h0s0,.01,0,.01v.02s0,.01,0,.01v.03s0,0,0,0h0s0,.02,0,.02v.02h0v.02h0s0,0,0,0h.01s0,.02,0,.02h0s0,.02,0,.02h0s0,.01,0,.01h0s0,.01,0,.01h.01s0,.01,0,.01h0s0,0,0,0h-.01s0,.02,0,.02v.02h0v.06s-.01,0-.01,0h-.01s-.05-.02-.05-.02h-.04s-.08,0-.08,0l-.05.02h-.01s-.02.02-.02.02l-.02.02v.04s.02.04.02.04l.04.04.05.05.03.03.03.03.06.06.06.07.05.07.02.03.03.07v.07s.02.05.02.05v.05s-.03.08-.03.08l-.02.04-.04.07-.04.04-.02.02v.02s-.07.05-.07.05l-.04.03-.04.02-.05.02h-.04s-.03.02-.03.02h-.07s-.06,0-.06,0Z"/>
    <path d="M2.03,1.75h-.02s0-.01,0-.01v-.07s0-.02,0-.02v-.02s0-.01,0-.01v-.02s0-.03,0-.03v-.18s0-.05,0-.05v-.13s0-.04,0-.04v-.16s0-.19,0-.19v-.04s0-.06,0-.06v-.05s0-.03,0-.03h-.02s-.1,0-.1,0h-.1s-.06.01-.06.01h-.03s-.02,0-.02,0h0v-.05s0,0,0,0h0s0-.03,0-.03h0s0-.03,0-.03h0s0-.03,0-.03v-.05s0-.02,0-.02v-.02s0-.05,0-.05h0s.02-.03.02-.03h.04s.04,0,.04,0h.09s.03,0,.03,0h.05s.07,0,.07,0h.04s.06,0,.06,0h.04s.04,0,.04,0h.11s.06-.01.06-.01h.09s.02,0,.02,0h.14s.03,0,.03,0h.03s0,.03,0,.03v.02s0,.02,0,.02v.02s0,.01,0,.01h0s0,.02,0,.02h0s0,.02,0,.02v.02s0,0,0,0h0s0,.02,0,.02h0s.01.03.01.03v.02s-.02.02-.02.02h0s0,.02,0,.02h-.01s-.01.03-.01.03h-.02s-.03,0-.03,0h-.02s-.02.01-.02.01h-.04s-.15,0-.15,0h-.02s-.02.02-.02.02v.1s0,.07,0,.07v.21s0,.3,0,.3v.05s0,.04,0,.04v.04s0,.04,0,.04v.11s0,.06,0,.06v.03s-.01,0-.01,0h-.03s-.02.02-.02.02h0v-.02s-.02,0-.02,0h0s0,0,0,0h0s0,.02,0,.02h0s0-.01,0-.01h0s0,0,0,0h-.01s0,0,0,0h0s0,0,0,0h0s-.01,0-.01,0h-.01s0,0,0,0h0s-.01,0-.01,0h0s-.05,0-.05,0Z"/>
    <path d="M3.52,1.75l-.03-.05-.05-.06-.03-.03-.05-.07-.05-.06-.03-.05-.02-.02-.03-.03-.09-.1-.02-.02h0v.08s0,.04,0,.04v.07s0,.05,0,.05v.02s0,.05,0,.05v.08s0,.05,0,.05v.03s-.03,0-.03,0h-.02s-.02,0-.02,0h0s-.02,0-.02,0h-.02s0,0,0,0h-.01s-.01,0-.01,0h-.02s-.01,0-.01,0h-.01s0,0,0,0h0s-.03,0-.03,0h-.02s-.02,0-.02,0h0s0,0,0,0h0s0-.05,0-.05v-.11s0-.03,0-.03v-.07s0-.04,0-.04v-.05s0-.03,0-.03v-.03s0-.04,0-.04v-.04s0-.05,0-.05v-.05s0-.03,0-.03v-.03s0-.07,0-.07v-.05s0-.04,0-.04v-.03s0-.05,0-.05v-.03s0-.04,0-.04v-.04s0-.08,0-.08v-.02s0-.03,0-.03v-.03s0-.02,0-.02v-.15s0-.04,0-.04v-.02s0,0,0,0h0s.02,0,.02,0h.04s0,0,0,0h0s.01,0,.01,0h.02s0,0,0,0h.02s.01,0,.01,0h.06s.04,0,.04,0h.01s.02,0,.02,0h.01s.03,0,.03,0h.03s.02,0,.02,0h.02s.02,0,.02,0h.07s.02,0,.02,0h.03s.02.01.02.01h.01s.01.01.01.01l.05.02.05.03.03.02.02.03.02.04.02.05.02.05v.03s.02.02.02.02v.03s.02.04.02.04v.02s0,.03,0,.03v.03s0,0,0,0v.02s0,.03,0,.03h0s0,.05,0,.05l-.02.04v.02s-.04.05-.04.05h0s-.03.04-.03.04l-.02.02h-.02s-.03.03-.03.03l-.02.02v.02s.02.02.02.02l.03.03.05.06.05.07.04.05.03.04.05.07.03.05.02.04.02.03h-.01s-.02.03-.02.03h0s0,0,0,0h0s0,.02,0,.02h-.02v.02s-.02,0-.02,0h0s-.01.01-.01.01h-.01s0,.01,0,.01h0s-.01,0-.01,0h0s0,.01,0,.01h-.01s-.01.02-.01.02h0s0,0,0,0h0s-.01,0-.01,0h-.02s-.02-.02-.02-.02ZM3.18.94h.04s.05,0,.05,0h.01s.03-.03.03-.03l.03-.02.02-.02v-.03s.02-.04.02-.04v-.06s-.03-.06-.03-.06l-.02-.02h-.02s-.04-.02-.04-.02h-.04s-.04,0-.04,0h-.04s0,.03,0,.03v.16s0,.07,0,.07v.04h0s.04,0,.04,0Z"/>
    <path d="M4.03,1.73h-.02s-.01,0-.01,0h0s0,0,0,0h-.01s-.02,0-.02,0h-.02s-.01,0-.01,0h0s0,0,0,0h0s-.01,0-.01,0h-.01s-.02,0-.02,0h0s0,0,0,0h0s0,0,0,0h-.01s0-.02,0-.02v-.04s.02-.06.02-.06v-.04s.02-.07.02-.07v-.06s.02-.04.02-.04v-.04s.02-.06.02-.06v-.06s.03-.08.03-.08v-.05s.03-.09.03-.09v-.05s.03-.09.03-.09v-.06s.02-.05.02-.05l.02-.07.02-.07.02-.07v-.06s.03-.06.03-.06v-.03s.02-.04.02-.04v-.02s.01,0,.01,0h0s0,0,0,0h.02s.02,0,.02,0h0s.02,0,.02,0h.01s0,0,0,0h.02s.02,0,.02,0h.02s.02,0,.02,0h0s0,0,0,0h0s.02,0,.02,0h.01s.02,0,.02,0h.03s.02,0,.02,0h0s0,0,0,0h0s0,0,0,0h0s.02.04.02.04v.04s.03.05.03.05l.02.06.02.05v.03s.03.06.03.06v.04s.02.02.02.02v.05s.03.04.03.04v.04s.02.04.02.04v.04s.04.11.04.11v.04s.03.08.03.08v.06s.02.02.02.02v.03s.02.04.02.04l.02.11v.03s0,.03,0,.03v.05s.02.04.02.04v.03s0,.02,0,.02v.02h-.01s-.01.02-.01.02h-.02s0,.02,0,.02h-.03s-.01.02-.01.02h0s-.02,0-.02,0h0s0,0,0,0h0s0,.01,0,.01h-.01s-.01,0-.01,0h-.01s-.02.02-.02.02h0s0,0,0,0h-.03s-.03.02-.03.02h-.01s-.01-.06-.01-.06l-.02-.06-.02-.07-.02-.06h-.03s-.04,0-.04,0h-.03s-.15,0-.15,0h-.03s0,.02,0,.02v.02s-.01.02-.01.02v.04s-.02.04-.02.04v.04s-.02.05-.02.05h-.01s-.01.01-.01.01h-.01s-.02,0-.02,0h0s0,0,0,0h-.01s0,0,0,0h0s0,0,0,0ZM4.39,1.18v-.04s-.02-.05-.02-.05v-.03s-.01-.02-.01-.02v-.04s-.02-.04-.02-.04v-.04s-.02-.04-.02-.04v-.02s0,0,0,0h0s0,.05,0,.05v.05s-.02.05-.02.05v.08s-.02.04-.02.04v.05s.01,0,.01,0h.07s.03,0,.03,0h.02Z"/>
    <path d="M4.99,1.79v-.03s-.03,0-.03,0h-.01s0-.01,0-.01v-.02s-.01-.03-.01-.03h0s0-.03,0-.03v-.02h0v-.04s0-.03,0-.03h0s0-.02,0-.02v-.07s0,0,0,0v-.02s0-.03,0-.03v-.02s0-.02,0-.02v-.04s0-.15,0-.15v-.03s0-.03,0-.03v-.07s0-.02,0-.02v-.02s0-.05,0-.05v-.04s0-.1,0-.1v-.03s0-.05,0-.05v-.05s0-.05,0-.05v-.07s0-.08,0-.08v-.1s0-.06,0-.06v-.02s.02,0,.02,0h.02s.02,0,.02,0h.11s.01,0,.01,0h0s.01,0,.01,0h.01s0,0,0,0h0s.02,0,.02,0h.02s.01,0,.01,0h.01s.01,0,.01,0v.04s0,.04,0,.04v.07s0,.03,0,.03v.03s0,.03,0,.03v.03s0,.03,0,.03h0s0,.02,0,.02h0s0,0,0,0h0s0,.02,0,.02h0s0,.01,0,.01h0s0,.03,0,.03v.08s0,.01,0,.01h0s0,.01,0,.01v.02h0s0,.01,0,.01h0v.02h0s0,.01,0,.01h0s0,.03,0,.03h0s0,.02,0,.02h0s0,.02,0,.02h0s0,.02,0,.02v.02s0,.02,0,.02h0s0,.01,0,.01v.07s.01.04.01.04v.06s0,.05,0,.05v.12s0,.04,0,.04v.03s0,.05,0,.05v.04s0,.06,0,.06v.05s0,.02,0,.02v.03s-.01.02-.01.02h0s-.01.02-.01.02h-.01s-.01,0-.01,0h0s0,.01,0,.01h0s-.01,0-.01,0h0s-.01,0-.01,0h0s0,0,0,0h0s0,.03,0,.03h0s0-.03,0-.03h-.01s-.02.02-.02.02h0s0,0,0,0h0s0-.01,0-.01h0s0,.03,0,.03v.02h0v-.03h0s0,0,0,0h0s0,.02,0,.02v.03s0,.02,0,.02h0s0-.04,0-.04Z"/>
    <path d="M5.94,1.82h-.05s-.02-.01-.02-.01h-.03s-.02-.02-.02-.02h-.02s-.03-.02-.03-.02h-.02s0-.02,0-.02h-.01s0,0,0,0l-.02-.02-.04-.03-.02-.03h-.01s0-.02,0-.02l-.02-.03-.02-.03v-.02s-.02-.01-.02-.01l-.02-.02v-.04s-.03-.03-.03-.03v-.02s0-.01,0-.01h0s0-.02,0-.02v-.02s-.01-.02-.01-.02v-.03s-.02-.05-.02-.05v-.04s-.01-.02-.01-.02v-.04s-.02-.07-.02-.07v-.05s0-.02,0-.02v-.1s0-.04,0-.04v-.02s.01-.01.01-.01v-.02s0-.02,0-.02h0s0-.02,0-.02h0s0-.02,0-.02v-.02s0-.03,0-.03v-.02s.01-.02.01-.02v-.03s.01-.02.01-.02v-.03s.02-.04.02-.04v-.02s.03-.03.03-.03l.02-.04v-.02s.02,0,.02,0l.04-.04.03-.02.03-.03.03-.02.07-.03h.05s0-.01,0-.01h.02s.03-.01.03-.01h.02s.01,0,.01,0h.01s.02,0,.02,0h.02s.02,0,.02,0h.01s.02,0,.02,0h.02s.03,0,.03,0h.06s.01,0,.01,0h.02s.05.02.05.02h.01s.03,0,.03,0h.02s.04.03.04.03l.04.02.05.03h.02s0,.02,0,.02h0s0,.03,0,.03h-.01s0,.02,0,.02v.02s-.01,0-.01,0h0v.02h0s-.01.02-.01.02h0s0,.01,0,.01h-.01s0,.01,0,.01h0s-.02.01-.02.01h0s0,.02,0,.02h0s-.01.02-.01.02v.02s-.02,0-.02,0h0s-.01.01-.01.01h-.01s-.01.01-.01.01h0s-.03-.02-.03-.02l-.03-.02h-.03s-.06-.02-.06-.02h-.05s-.01,0-.01,0h0s-.01,0-.01,0h-.03s-.03,0-.03,0h-.01s0,.01,0,.01h-.04s-.04.04-.04.04l-.03.03-.03.06-.02.07v.04s-.01.04-.01.04v.04s0,.04,0,.04v.02s0,.05,0,.05v.03s0,.01,0,.01v.06s.01.05.01.05v.04s.02.03.02.03v.04s.03.04.03.04l.02.03.02.04.05.04h.04s.04.03.04.03h.04s.03.01.03.01h.03s.03,0,.03,0h.02s.02-.02.02-.02l.02-.02h0s0-.06,0-.06v-.07s-.01-.06-.01-.06v-.04h0s-.02-.02-.02-.02l-.14.02h-.06s-.02,0-.02,0h0s0,0,0,0h0s0-.02,0-.02h0v-.02h0s0-.04,0-.04v-.02s0-.01,0-.01h0s0-.02,0-.02v-.02s0,0,0,0h0v-.04h0s0-.06,0-.06h0s0-.02,0-.02v-.02s0,0,0,0h.03s.06-.02.06-.02h.07s.07,0,.07,0h.07s.05,0,.05,0h.06s.01,0,.01,0h.02s.02,0,.02,0h.01s0,0,0,0h.01s.01,0,.01,0h.02s.02,0,.02,0v.02s0,.05,0,.05v.06s0,.06,0,.06v.08s0,.06,0,.06v.1s0,.04,0,.04v.1s0,.04,0,.04v.03s-.02,0-.02,0v.03s-.03.03-.03.03h0s0,.02,0,.02l-.02.02-.02.02-.03.03-.05.04-.03.02h0s-.02.02-.02.02h-.02s-.01.03-.01.03h-.03s-.01,0-.01,0h-.02s-.02.01-.02.01h-.02s-.02,0-.02,0h-.03s-.02,0-.02,0h-.02s-.02,0-.02,0h-.02s-.01,0-.01,0h0s-.01,0-.01,0Z"/>
    <path d="M7.49,1.76h0s0-.02,0-.02h0s0,0,0,0h0s-.01,0-.01,0h0s0-.03,0-.03h0s0-.03,0-.03h0s0-.01,0-.01h0s0,.02,0,.02h0s0,0,0,0v.03s0,.02,0,.02v-.02s-.01-.04-.01-.04v-.03s0-.02,0-.02v-.02s.01,0,.01,0v.02s.02.01.02.01h.02s0,0,0,0h0s-.02,0-.02,0h0s0-.06,0-.06v-.04s0,0,0,0h0s0,.03,0,.03h0s0,.02,0,.02v-.02s.01-.03.01-.03h0s0,0,0,0h0s0,.01,0,.01v-.02s0-.05,0-.05v-.04s0-.03,0-.03v-.09s0-.05,0-.05v-.04s0-.01,0-.01v-.03h0s-.01-.01-.01-.01h0s0,0,0,0v.02s-.01,0-.01,0v-.02s0-.01,0-.01h0s0-.02,0-.02h-.01s-.07,0-.07,0h-.04s-.12,0-.12,0h-.02s-.02,0-.02,0h-.02s-.05,0-.05,0h-.04s0,.04,0,.04v.06s0,.11,0,.11v.05s0,.04,0,.04v.09s0,.07,0,.07v.03s0,0,0,0h0s0,.02,0,.02h0v.06s-.02.01-.02.01h-.01s0,0,0,0h-.02s0,0,0,0h-.01s-.01,0-.01,0h-.01s0,0,0,0h0s0,0,0,0h-.01s-.02,0-.02,0h-.01s0,0,0,0h0s-.02,0-.02,0h-.02s-.01,0-.01,0h0s-.01,0-.01,0h0s0,0,0,0h-.01s0,0,0,0v-.02s-.01-.02-.01-.02h0s0-.02,0-.02v-.03s0-.02,0-.02h0v-.11s0-.02,0-.02v-.04s0-.1,0-.1v-.08s0-.06,0-.06v-.06s0-.1,0-.1v-.05s0-.04,0-.04v-.08s0-.04,0-.04v-.07s0-.04,0-.04v-.03s0-.09,0-.09v-.03s0-.08,0-.08v-.02s0-.03,0-.03v-.05s.02-.06.02-.06v-.03s.04,0,.04,0h.03s.02,0,.02,0h.02s0,0,0,0h.01s.01,0,.01,0h.01s0,0,0,0h0s.02,0,.02,0h.02s0,0,0,0h0s0,0,0,0h.05s.02,0,.02,0h.02s0,.03,0,.03v.03s0,.02,0,.02v.03s0,.03,0,.03v.02s0,.04,0,.04v.06s0,.07,0,.07v.03s0,.03,0,.03v.07s0,.05,0,.05h0s0,.01,0,.01h.08s.04,0,.04,0h0s0,0,0,0h-.02s0,0,0,0h0s.04,0,.04,0h.12s.09,0,.09,0h.02s0-.02,0-.02v-.02s0-.03,0-.03v-.02h0s0-.03,0-.03v-.02s0-.02,0-.02v-.05s0-.03,0-.03v-.03s0-.03,0-.03v-.06s0-.03,0-.03v-.05s0-.05,0-.05l.02-.02h.03s.02,0,.02,0h.04s.02,0,.02,0h.02s.01,0,.01,0h0s0,0,0,0h.01s.01,0,.01,0h.02s.02,0,.02,0h.02s.02,0,.02,0h.03s0,.02,0,.02v.02s0,.03,0,.03v.14s0,.05,0,.05v.06s0,.02,0,.02v.02s0,.03,0,.03v.05s0,.05,0,.05v.02s0,.01,0,.01h0s0,.03,0,.03v.03s0,.05,0,.05v.06s0,.02,0,.02v.02s0,.07,0,.07v.04s0,.06,0,.06v.12s0,.1,0,.1v.02s0,.03,0,.03v.03s0,.03,0,.03h0s0,.03,0,.03v.03s0,.03,0,.03v.02s-.01.01-.01.01h-.01s0,0,0,0h-.02s0,0,0,0h0s0-.01,0-.01h0s0,0,0,0h0s0,0,0,0v-.02s0,0,0,0h0v.02s-.02,0-.02,0h0s0,0,0,0h0s0,0,0,0h0s0,.03,0,.03h-.01s0-.02,0-.02h0s0,.03,0,.03h0Z"/>
    <path d="M8.2,1.75h-.02s0-.01,0-.01v-.07s0-.02,0-.02v-.02s0-.01,0-.01v-.02s0-.03,0-.03v-.18s0-.05,0-.05v-.13s0-.04,0-.04v-.16s0-.19,0-.19v-.04s0-.06,0-.06v-.05s0-.03,0-.03h-.02s-.1,0-.1,0h-.1s-.06.01-.06.01h-.03s-.02,0-.02,0h0v-.05s0,0,0,0h0s0-.03,0-.03h0s0-.03,0-.03h0s0-.03,0-.03v-.05s0-.02,0-.02v-.02s0-.05,0-.05h0s.02-.03.02-.03h.04s.04,0,.04,0h.09s.03,0,.03,0h.05s.07,0,.07,0h.04s.06,0,.06,0h.04s.04,0,.04,0h.11s.06-.01.06-.01h.09s.02,0,.02,0h.14s.03,0,.03,0h.03s0,.03,0,.03v.02s0,.02,0,.02v.02s0,.01,0,.01h0s0,.02,0,.02h0s0,.02,0,.02v.02s0,0,0,0h0s0,.02,0,.02h0s.01.03.01.03v.02s-.02.02-.02.02h0s0,.02,0,.02h-.01s-.01.03-.01.03h-.02s-.03,0-.03,0h-.02s-.02.01-.02.01h-.04s-.15,0-.15,0h-.02s-.02.02-.02.02v.1s0,.07,0,.07v.21s0,.3,0,.3v.05s0,.04,0,.04v.04s0,.04,0,.04v.11s0,.06,0,.06v.03s-.01,0-.01,0h-.03s-.02.02-.02.02h0v-.02s-.02,0-.02,0h0s0,0,0,0h0s0,.02,0,.02h0s0-.01,0-.01h0s0,0,0,0h-.01s0,0,0,0h0s0,0,0,0h0s-.01,0-.01,0h-.01s-.01,0-.01,0h0s-.01,0-.01,0h0s-.05,0-.05,0Z"/>
    <path d="M9.79,1.75h-.02s0-.01,0-.01v-.07s0-.02,0-.02v-.02s0-.01,0-.01v-.02s0-.03,0-.03v-.18s0-.05,0-.05v-.13s0-.04,0-.04v-.16s0-.19,0-.19v-.04s0-.06,0-.06v-.05s0-.03,0-.03h-.02s-.1,0-.1,0h-.1s-.06.01-.06.01h-.03s-.02,0-.02,0h0v-.05s0,0,0,0h0s0-.03,0-.03h0s0-.03,0-.03h0s0-.03,0-.03v-.05s0-.02,0-.02v-.02s0-.05,0-.05h0s.02-.03.02-.03h.04s.04,0,.04,0h.09s.03,0,.03,0h.05s.07,0,.07,0h.04s.06,0,.06,0h.04s.04,0,.04,0h.11s.06-.01.06-.01h.09s.02,0,.02,0h.14s.03,0,.03,0h.03s0,.03,0,.03v.02s0,.02,0,.02v.02s0,.01,0,.01h0s0,.02,0,.02h0s0,.02,0,.02v.02s0,0,0,0h0s0,.02,0,.02h0s.01.03.01.03v.02s-.02.02-.02.02h0s0,.02,0,.02h-.01s-.01.03-.01.03h-.02s-.03,0-.03,0h-.02s-.02.01-.02.01h-.04s-.15,0-.15,0h-.02s-.02.02-.02.02v.1s0,.07,0,.07v.21s0,.3,0,.3v.05s0,.04,0,.04v.04s0,.04,0,.04v.11s0,.06,0,.06v.03s-.01,0-.01,0h-.03s-.02.02-.02.02h0v-.02s-.02,0-.02,0h0s0,0,0,0h0s0,.02,0,.02h0s0-.01,0-.01h0s0,0,0,0h-.01s0,0,0,0h0s0,0,0,0h0s-.01,0-.01,0h-.01s0,0,0,0h0s-.01,0-.01,0h0s-.05,0-.05,0Z"/>
    <path d="M10.92,1.82l-.05-.02-.04-.02-.04-.02-.05-.04-.03-.03-.04-.04-.03-.03-.02-.04-.03-.04-.02-.04v-.03s-.04-.05-.04-.05v-.04s-.03-.08-.03-.08v-.08s0-.07,0-.07v-.07s0-.03,0-.03v-.03s0-.06,0-.06v-.03s.01-.04.01-.04v-.03s.02-.05.02-.05v-.03s.02-.02.02-.02v-.02s.01-.02.01-.02v-.02s.01-.01.01-.01v-.02s.02-.03.02-.03v-.02s.02-.02.02-.02l.02-.02v-.03s.03-.02.03-.02l.02-.03.04-.04.04-.04.04-.03.03-.02.06-.03.05-.02h.05s.04-.02.04-.02h.04s.03,0,.03,0h.08s.03,0,.03,0h.04s.04.02.04.02l.04.02.07.04.06.05.05.05.05.07.03.07.02.07v.05s.02.04.02.04v.05s0,.04,0,.04v.04s0,.2,0,.2v.06s0,.04,0,.04v.03s-.01,0-.01,0v.04s-.02.05-.02.05v.02s0,.02,0,.02v.02s0,.01,0,.01v.03s-.02.05-.02.05l-.02.06-.02.05v.02s-.01.01-.01.01v.02s-.03.02-.03.02v.02s-.03,0-.03,0l-.04.04-.06.04-.04.02-.04.02h-.04s-.04.02-.04.02h-.03s-.01.01-.01.01h-.1s0,0,0,0h0s-.05.01-.05.01h-.08ZM11.1,1.51h.03s.01,0,.01,0h.01s0-.01,0-.01h.02s.02-.02.02-.02h0s.01-.02.01-.02l.02-.02.02-.02v-.04s.02-.03.02-.03v-.02s0-.01,0-.01v-.04s.02-.01.02-.01h0s0-.02,0-.02h0s.01-.03.01-.03v-.02s0-.02,0-.02v-.02s0-.03,0-.03v-.04s0-.03,0-.03v-.02s0-.05,0-.05v-.07s0-.07,0-.07v-.02s0-.01,0-.01v-.02s-.01-.03-.01-.03l-.02-.06-.02-.03-.05-.05-.04-.02h-.05s-.07,0-.07,0h-.03s-.02,0-.02,0h0s-.02.01-.02.01l-.03.02h-.02s0,.03,0,.03h-.02s-.03.05-.03.05l-.02.03v.02s-.02.02-.02.02v.02s-.01.02-.01.02v.03s-.02.03-.02.03v.02s-.01.03-.01.03v.05s-.01.07-.01.07v.06s0,.05,0,.05v.05s.01.05.01.05v.04s.02.02.02.02v.03s.04.05.04.05l.06.06.06.04h.03s0,.02,0,.02h0s0,.01,0,.01h.04Z"/>
    <path d="M12.63,1.75h-.02s0-.01,0-.01v-.07s0-.02,0-.02v-.02s0-.01,0-.01v-.02s0-.03,0-.03v-.18s0-.05,0-.05v-.13s0-.04,0-.04v-.16s0-.19,0-.19v-.04s0-.06,0-.06v-.05s0-.03,0-.03h-.02s-.1,0-.1,0h-.1s-.06.01-.06.01h-.03s-.02,0-.02,0h0v-.05s0,0,0,0h0s0-.03,0-.03h0s0-.03,0-.03h0s0-.03,0-.03v-.05s0-.02,0-.02v-.02s0-.05,0-.05h0s.02-.03.02-.03h.04s.04,0,.04,0h.09s.03,0,.03,0h.05s.07,0,.07,0h.04s.06,0,.06,0h.04s.04,0,.04,0h.11s.06-.01.06-.01h.09s.02,0,.02,0h.14s.03,0,.03,0h.03s0,.03,0,.03v.02s0,.02,0,.02v.02s0,.01,0,.01h0s0,.02,0,.02h0s0,.02,0,.02v.02s0,0,0,0h0s-.01.02-.01.02h0s.01.03.01.03v.02s-.02.02-.02.02h0s0,.02,0,.02h-.01s-.01.03-.01.03h-.02s-.03,0-.03,0h-.02s-.02.01-.02.01h-.04s-.15,0-.15,0h-.02s-.02.02-.02.02v.1s0,.07,0,.07v.21s0,.3,0,.3v.05s0,.04,0,.04v.04s0,.04,0,.04v.11s0,.06,0,.06v.03s-.01,0-.01,0h-.03s-.02.02-.02.02h0v-.02s-.02,0-.02,0h0s0,0,0,0h0s0,.02,0,.02h0s0-.01,0-.01h0s0,0,0,0h-.01s0,0,0,0h0s0,0,0,0h0s-.01,0-.01,0h-.01s0,0,0,0h0s0,0,0,0h0s-.05,0-.05,0Z"/>
    <path d="M14.26,1.76h0s0-.02,0-.02h0s0,0,0,0h0s-.01,0-.01,0h0s0-.03,0-.03h0s0-.03,0-.03h0s0-.01,0-.01h0s0,.02,0,.02h0s0,0,0,0v.03s0,.02,0,.02v-.02s-.01-.04-.01-.04v-.03s0-.02,0-.02v-.02s0,0,0,0v.02s.02.01.02.01h.02s0,0,0,0h0s-.02,0-.02,0h0s0-.06,0-.06v-.04s0,0,0,0h0s0,.03,0,.03h0s0,.02,0,.02v-.02s.01-.03.01-.03h0s0,0,0,0h0s0,.01,0,.01v-.02s0-.05,0-.05v-.04s0-.03,0-.03v-.09s0-.05,0-.05v-.04s0-.01,0-.01v-.03h0s-.01-.01-.01-.01h0s0,0,0,0v.02s-.01,0-.01,0v-.02s0-.01,0-.01h0s0-.02,0-.02h0s-.07,0-.07,0h-.04s-.12,0-.12,0h-.02s-.02,0-.02,0h-.02s-.05,0-.05,0h-.04s0,.04,0,.04v.06s0,.11,0,.11v.05s0,.04,0,.04v.09s0,.07,0,.07v.03s0,0,0,0h0s0,.02,0,.02h0v.06s-.02.01-.02.01h-.01s0,0,0,0h-.02s0,0,0,0h-.01s-.01,0-.01,0h-.01s0,0,0,0h0s0,0,0,0h-.01s-.02,0-.02,0h-.01s0,0,0,0h0s-.02,0-.02,0h-.02s-.01,0-.01,0h0s0,0,0,0h0s-.01,0-.01,0h-.01s0,0,0,0v-.02s0-.02,0-.02h0s0-.02,0-.02v-.03s0-.02,0-.02h-.01v-.11s0-.02,0-.02v-.04s0-.1,0-.1v-.08s0-.06,0-.06v-.06s0-.1,0-.1v-.05s0-.04,0-.04v-.08s0-.04,0-.04v-.07s0-.04,0-.04v-.03s0-.09,0-.09v-.03s0-.08,0-.08v-.02s0-.03,0-.03v-.05s.02-.06.02-.06v-.03s.04,0,.04,0h.03s.02,0,.02,0h.02s0,0,0,0h0s.01,0,.01,0h.01s.01,0,.01,0h0s.02,0,.02,0h.02s0,0,0,0h0s0,0,0,0h.05s.02,0,.02,0h.02s0,.03,0,.03v.03s0,.02,0,.02v.03s0,.03,0,.03v.02s0,.04,0,.04v.06s0,.07,0,.07v.03s0,.03,0,.03v.07s0,.05,0,.05h0s0,.01,0,.01h.08s.04,0,.04,0h0s0,0,0,0h-.02s0,0,0,0h0s.04,0,.04,0h.12s.09,0,.09,0h.02s0-.02,0-.02v-.02s0-.03,0-.03v-.02h0s0-.03,0-.03v-.02s0-.02,0-.02v-.05s0-.03,0-.03v-.03s0-.03,0-.03v-.06s0-.03,0-.03v-.05s0-.05,0-.05l.02-.02h.03s.02,0,.02,0h.04s.02,0,.02,0h.02s0,0,0,0h0s0,0,0,0h0s.01,0,.01,0h.02s.02,0,.02,0h.02s.02,0,.02,0h.03s0,.02,0,.02v.02s0,.03,0,.03v.14s0,.05,0,.05v.06s0,.02,0,.02v.02s0,.03,0,.03v.05s0,.05,0,.05v.02s0,.01,0,.01h0s0,.03,0,.03v.03s0,.05,0,.05v.06s0,.02,0,.02v.02s0,.07,0,.07v.04s0,.06,0,.06v.12s0,.1,0,.1v.02s0,.03,0,.03v.03s0,.03,0,.03h0s0,.03,0,.03v.03s0,.03,0,.03v.02s-.01.01-.01.01h-.01s0,0,0,0h-.02s0,0,0,0h0s0-.01,0-.01h0s0,0,0,0h0s0,0,0,0v-.02s0,0,0,0h0v.02s-.02,0-.02,0h-.01s0,0,0,0h0s0,0,0,0h0s0,.03,0,.03h-.01s-.01-.02-.01-.02h0s0,.03,0,.03h0Z"/>
    <path d="M14.88,1.77h-.02s-.02,0-.02,0h-.03s-.02,0-.02,0h-.01s-.02,0-.02,0h-.03s-.01,0-.01,0h-.02s0,0,0,0h0s0-.02,0-.02v-.02s0-.03,0-.03v-.04s0-.05,0-.05v-.09s0-.03,0-.03h0v-.09s0-.06,0-.06v-.07s0-.12,0-.12v-.05s0-.07,0-.07v-.04s0-.06,0-.06v-.07s0-.07,0-.07v-.07s0-.04,0-.04v-.07s0-.04,0-.04v-.03s0-.07,0-.07v-.03s0-.05,0-.05h.01s0-.01,0-.01h.01s.02,0,.02,0h.03s.02,0,.02,0h.01s.04,0,.04,0h0s0,0,0,0h.02s.03,0,.03,0h.01s.02,0,.02,0h.04s.03,0,.03,0h.02s.02,0,.02,0h.15s.03.01.03.01h.02s.03,0,.03,0h.04s.1,0,.1,0h0s.02,0,.02,0h.07s.02,0,.02,0h.01s0,.01,0,.01h0s0,.03,0,.03h.01s.01.07.01.07v.02s0,.01,0,.01h0s.01.05.01.05h0s-.01.02-.01.02h-.02s-.02.03-.02.03l-.02.03-.02.02h-.01s-.01,0-.01,0h0s-.01,0-.01,0h-.03s-.03,0-.03,0h0s-.06,0-.06,0h-.24s-.08,0-.08,0h0v.2s0,.02,0,.02h0s.07,0,.07,0h.18s.02,0,.02,0h.02s.02,0,.02,0h.04s.01,0,.01,0h.02s.01,0,.01,0h.02l.02.02v.02s0,.02,0,.02v.02s0,.02,0,.02v.02s0,.01,0,.01v.02s0,.01,0,.01h0s0,.03,0,.03v.02s0,.01,0,.01h0s0,.01,0,.01h0s0,0,0,0h-.01s-.01.03-.01.03h0v.02h-.02s-.01.02-.01.02h-.12s-.07,0-.07,0h-.07s-.09,0-.09,0h-.05s-.02.02-.02.02h0s0,.05,0,.05v.08s0,.05,0,.05v.04s0,.03,0,.03h.04s.04,0,.04,0h.02s.06,0,.06,0h.02s.05,0,.05,0h.05s.14,0,.14,0h.03s.03,0,.03,0h.03s.02,0,.02,0h0s0,.03,0,.03v.02s.01.01.01.01h0s0,.02,0,.02h0s0,.02,0,.02h0s0,0,0,0h0s.01.01.01.01h0s0,.03,0,.03v.03s-.01.01-.01.01h.01s0,.02,0,.02h0s-.02.01-.02.01h-.02s0,.03,0,.03h0s0,.02,0,.02h-.01s-.02.01-.02.01h-.01s-.04,0-.04,0h-.04s-.13,0-.13,0h-.02s-.02,0-.02,0h-.03s-.11,0-.11,0h-.07s-.08,0-.08,0h-.04s0,.01,0,.01h0Z"/>
  </g>
  <g>
    <path d="M1.23,7.59l-.12-.03-.1-.05h-.09s-.09-.05-.09-.05l-.15-.07-.09-.05-.06-.04-.09-.06-.06-.05-.06-.04-.05-.05-.07-.06-.06-.06v-.03s0-.04,0-.04v-.04l.02-.03.04-.04.03-.04v-.06s.06-.05.06-.05h.02s0-.05,0-.05l.03-.03v-.03s.02-.02.02-.02l.06-.05.03-.07h.04s.02-.08.02-.08l.03-.06.04-.02v-.04s.02-.01.02-.01l.02-.04h.06s.03.02.03.02h.01v-.03s.04-.02.04-.02l.14.09.17.12.13.08.13.02h.15s.18-.06.18-.06l.11-.07.1-.16.08-.23v-.14s-.03-.06-.03-.06l-.04-.08-.03-.08-.03-.04-.04-.04-.05-.03-.04-.04-.05-.06-.05-.06-.06-.05-.04-.04-.05-.04-.22-.18-.14-.15-.1-.11-.2-.23-.14-.25-.04-.11-.04-.17v-.2s0-.26,0-.26l.03-.11.09-.18.06-.09.05-.07.04-.05.1-.1.09-.09.09-.08.11-.08.14-.09.18-.06.1-.04.15-.05.29-.04h.33s.2.04.2.04h.07s.04.04.04.04v.03s-.01,0-.01,0h-.01s.02.04.02.04h.03s0,.07,0,.07l-.02.04.03.1h-.03v.02s.02.03.02.03v.06l.02.04v.02h-.03s0,.04,0,.04l.04.04-.02.02.02.02v.04s0,.04,0,.04h-.04v.03l.02.02.04.02.02.02h0s-.02.02-.02.02h-.04s0,.07,0,.07v.06l-.02.03v.08l-.02.09-.02.03-.05-.03-.17-.05-.13-.02h-.27l-.17.06-.05.04-.06.04-.06.07-.03.15.08.14.15.14.19.18.12.1.11.12.2.2.2.24.18.24.06.12.09.26.05.25v.17s0,.17,0,.17l-.08.27-.07.15-.15.25-.13.14-.08.06-.05.06-.2.17-.14.09-.15.08-.17.06-.14.04-.11.02-.25.02h-.2Z"/>
    <path d="M6.59,7.51v-.04s-.02-.02-.02-.02h-.01s0,.03,0,.03v.04s-.06-.03-.06-.03l-.02-.04v-.06s-.01-.05-.01-.05v-.05s0-.04,0-.04h-.03s0,.06,0,.06l-.03.03h-.01s-.02,0-.02,0v.09s0,.08,0,.08l-.04-.06v-.14s-.01-.1-.01-.1l-.02-.06.02-.08h.01s0,.08,0,.08l.06.05h.06s.01-.02.01-.02v-.04s-.08,0-.08,0v-.05s-.01-.15-.01-.15v-.13s.02-.01.02-.01l.02.04.02.06-.02.02v.03h.02s.02-.06.02-.06l.02-.11-.03-.03h-.04l-.02.04h-.01v-.08s0-.16,0-.16v-.15s-.01-.12-.01-.12v-.3s-.01-.18-.01-.18v-.14s-.01-.05-.01-.05v-.14s-.05-.03-.05-.03l-.03-.04v.02s-.04.07-.04.07h-.02s0-.04,0-.04v-.05s-.01-.05-.01-.05v-.04s-.04,0-.04,0h-.4s-.41.02-.41.02h-.08s-.07,0-.07,0l-.08.02h-.29s0,.13,0,.13v.2s0,.38,0,.38v.16s0,.14,0,.14v.3s-.04.25-.04.25v.11s-.03.03-.03.03l-.02.03v.06s-.03.05-.03.05v.08l-.02.1-.05.04h-.04s-.03.02-.03.02h-.07s-.02,0-.02,0h-.04s-.04,0-.04,0l-.04.03-.03-.02h0s-.01.01-.01.01l-.05-.02h-.06s-.04.04-.04.04l-.02-.04h-.02s-.06.01-.06.01l-.06-.02h-.05s-.03.05-.03.05h-.04s-.01-.04-.01-.04l-.03.02h-.04s-.03-.03-.03-.03l-.03-.06v-.06s-.01-.03-.01-.03v-.04s.01-.1.01-.1v-.06h-.03v-.03s-.01-.27-.01-.27v-.08s0-.08,0-.08v-.13s0-.34,0-.34v-.27s0-.22,0-.22v-.22s0-.34,0-.34v-.17s-.01-.13-.01-.13v-.27s.01-.14.01-.14v-.23s0-.15,0-.15v-.09s0-.32,0-.32v-.1s0-.29,0-.29v-.07s0-.09,0-.09l.03-.18.04-.22.02-.1h.1s.1-.01.1-.01h.02s.06,0,.06,0h.06s.03,0,.03,0l.04.02.04-.03h.05s.04,0,.04,0h.02s.06,0,.06,0h.06s0,.01,0,.01l.03-.02h.04s.13-.01.13-.01h.05s.07,0,.07,0h.07s0,.09,0,.09v.1s0,.06,0,.06v.09s0,.09,0,.09v.08s-.01.13-.01.13v.2s0,.24,0,.24v.12s0,.11,0,.11v.24s0,.16,0,.16v.04s.04.01.04.01h.27s.15,0,.15,0h0s-.01.02-.01.02h-.07s-.03,0-.03,0h0s.15,0,.15,0h.42s.32.01.32.01h.08s.01-.06.01-.06v-.07s0-.09,0-.09v-.11s0-.07,0-.07v-.08s0-.08,0-.08v-.16s0-.1,0-.1v-.1s.01-.12.01-.12v-.2s0-.1,0-.1v-.17s.02-.17.02-.17l.07-.07h.09s.06,0,.06,0h.13s.06,0,.06,0h.07s.04,0,.04,0h.02s.03.01.03.01l.04-.03h.05s.07,0,.07,0h.15s.07,0,.07,0h.1s.01.07.01.07v.08s.01.1.01.1v.5s-.01.17-.01.17v.2s0,.08,0,.08v.08s0,.1,0,.1v.18s0,.17,0,.17v.06s0,.04,0,.04v.05s0,.07,0,.07v.11s0,.18,0,.18v.2s.01.08.01.08v.06s0,.25,0,.25v.15s.02.22.02.22v.42s0,.34,0,.34v.06s0,.1,0,.1v.12s-.01.1-.01.1v.04s0,.06,0,.06v.1s-.02.1-.02.1l-.03.06v.04h-.06v.02h-.01s-.08.02-.08.02l-.03.02-.02-.02-.02-.03h-.03s-.01.03-.01.03v.04s-.04,0-.04,0v-.06s-.02-.04-.02-.04h0v.08s-.06.01-.06.01h-.03s-.01.02-.01.02h-.02s-.01-.02-.01-.02v.05s-.02.06-.02.06h-.03l-.02-.03-.04-.02-.02.04v.05h-.03v-.02Z"/>
    <path d="M9.51,7.73l-.18-.06-.15-.06-.15-.08-.19-.13-.12-.09-.13-.13-.11-.12-.08-.13-.1-.14-.08-.15-.04-.1-.09-.19-.05-.14-.07-.29-.03-.27v-.48s.02-.12.02-.12v-.1s.03-.2.03-.2l.02-.11.03-.14.04-.12.03-.17.04-.12.04-.08v-.07s.04-.08.04-.08l.03-.08v-.05s.05-.06.05-.06l.03-.1.04-.08.03-.08.07-.08.04-.11.08-.08.07-.11.13-.15.15-.13.15-.11.11-.08.21-.09.18-.07.18-.05.15-.03.13-.03h.11l.29-.02h.1s.15.03.15.03l.15.04.13.06.25.13.2.17.17.18.17.25.11.23.08.23.04.18.03.13.02.18v.13s.02.15.02.15v.91s-.03.15-.03.15l-.02.11-.02.02-.04.13-.04.18v.07s-.03.06-.03.06v.06s0,.05,0,.05l-.03.12-.04.19-.07.22-.06.18v.06s-.05.04-.05.04l-.05.08-.06.08-.03.07-.06.03-.14.14-.22.15-.13.06-.15.06-.15.03-.13.02-.12.03h-.05s-.33.01-.33.01h-.03s-.03,0-.03,0h-.04s-.16.04-.16.04h-.27ZM10.14,6.63l.1-.02h.08s.03-.04.03-.04l.07-.03.08-.04.03-.03.05-.06.06-.08.06-.08.04-.14.04-.11v-.07s.03-.05.03-.05v-.08l.03-.08.03-.04v-.08s0-.05,0-.05l.04-.05-.02-.06.04-.06v-.06s0-.09,0-.09v-.13s.03-.1.03-.1v-.07s0-.16,0-.16v-.24s0-.25,0-.25v-.08s-.01-.04-.01-.04v-.06s-.04-.12-.04-.12l-.08-.21-.07-.11-.16-.18-.13-.08-.16-.04-.26.04-.11.04h-.11s-.07.05-.07.05l-.09.06-.06.05v.04s-.08.05-.08.05l-.09.13-.06.09-.02.06-.04.08v.07s-.04.06-.04.06l-.03.12-.03.1v.06s-.04.1-.04.1l-.02.17-.03.25v.21s0,.17,0,.17v.17s.04.19.04.19l.04.13.02.08.05.09.11.16.22.2.22.13.11.05h.03s-.01.04-.01.04h.03s.13,0,.13,0Z"/>
    <path d="M12.96,7.59l-.03-.02-.02.04-.02.02h0v-.03s-.05-.04-.05-.04l-.03-.04v-.06s-.03-.08-.03-.08v-.12s0-.05,0-.05v-.06s0-.16,0-.16v-.18s-.04-.08-.04-.08v-.04s.03-.05.03-.05v-.13s0-.1,0-.1v-.02h-.02s0,.03,0,.03h-.01v-.02s0-.1,0-.1v-.21s0-.14,0-.14v-.07s0-.06,0-.06v-.05s0-.08,0-.08v-.06s0-.07,0-.07v-.16s0-.06,0-.06v-.06s0-.07,0-.07v-.06s0-.05,0-.05v-.06s0-.05,0-.05v-.11s.01-.1.01-.1v-.06s.01-.08.01-.08v-.07s.02-.06.02-.06v-.04s0-.04,0-.04l.02-.04v-.17s0-.12,0-.12v-.15s0-.03,0-.03v-.25s.01-.22.01-.22v-.34s.02-.31.02-.31v-.15s0-.05,0-.05l.04-.03h.03s.06-.01.06-.01h.06s.03.01.03.01l.03-.04h.04s.03.01.03.01l.03.03h.02s.02-.04.02-.04h.04s.04.01.04.01h.04s.07,0,.07,0l.04-.02h.07s.07-.01.07-.01h.08s.05,0,.05,0l.04.02h.04s.03,0,.03,0h.59s.29.03.29.03l.12.03.21.07.13.07.23.18.19.21.08.13.12.3.06.33.02.3v.13s-.03.18-.03.18l-.05.16-.05.1-.11.19-.12.18-.13.15-.17.15-.26.18-.22.07-.2.05-.33.04h-.25s-.07,0-.07,0h-.03s-.01.08-.01.08v.07l-.02.04.02.06v.07l-.03.07v.05s.03.04.03.04l-.02.05v.08s0,.14,0,.14v.08s0,.17,0,.17v.15s-.02.17-.02.17l-.02.18-.05.06-.03.03v-.02s-.05.01-.05.01l-.04.04-.04.05-.04.05h-.04s-.03.01-.03.01h-.01s-.01,0-.01,0v-.05s0,0,0,0h-.01s-.04.03-.04.03v.04s-.02.03-.02.03h-.03s-.03-.02-.03-.02v-.03s-.02,0-.02,0v.02s-.04.02-.04.02h-.04s-.02.06-.02.06l-.02.03h-.01v-.05h-.03l-.04.05h-.06s-.08-.04-.08-.04ZM13.98,4.75l.26-.05.11-.02.13-.05.11-.07.05-.03.07-.08.07-.18v-.22l-.1-.25-.17-.11-.08-.03h-.06s-.06,0-.06,0h-.2l-.18.02v.11s-.03.15-.03.15v.06s0,.08,0,.08v.2s-.02.18-.02.18v.1l-.02.1v.08s.04,0,.04,0h.09Z"/>
  </g>
  <path d="M20.53,3.8c-.32-.34-.34-.36-.66-.7-.34-.34-.34-.35-.68-.69-.34-.33-.35-.34-.7-.67-.34-.34-.39-.29-.73-.64-.13-.13-.28-.25-.42-.37-.07-.06-.14-.13-.2-.2-.02-.02-.04-.11-.09-.1,0,0-.02.01-.02.01,0,0,0,0,0,0,0,0,0,0-.01,0h0s0,0,0,0c0,0-.02,0-.02,0-.02,0-.03.01-.04.02-.08.07.03.21.03.27,0,.11-.04.23-.04.34,0,.02,0,.03-.01.04.01.08.02.18.02.31,0,.48-.05.48-.05.97,0,.48,0,.49-.01.97,0,.48,0,.49.01.97,0,.48,0,.49-.02.97,0,.48,0,.49.01.97,0,.48,0,.49,0,.97,0,.37,0,.58.02.72.17-.18.36-.39.56-.6.34-.34.4-.28.74-.63s.31-.37.65-.72c.34-.34.34-.35.68-.69.33-.34.34-.35.67-.7.29-.28.38-.36.6-.58-.04-.04-.13-.13-.26-.26Z"/>
</svg>