<?xml version="1.0" encoding="UTF-8"?>
<svg id="Layer_1" data-name="Layer 1" xmlns="http://www.w3.org/2000/svg" viewBox="0 0 37.69 3.55">
  <g>
    <path d="M.89,2.81h-.05s-.04-.03-.04-.03h-.04s-.04-.02-.04-.02l-.06-.03-.04-.02-.02-.02-.04-.02-.03-.02h-.03s-.02-.04-.02-.04l-.03-.02-.02-.03h0s0-.03,0-.03v-.02h0s.02-.03.02-.03v-.02s.01-.01.01-.01h0s.02-.03.02-.03h0s0-.02,0-.02h.01s0-.02,0-.02h0s.02-.03.02-.03v-.03s.03,0,.03,0v-.03s.02-.02.02-.02h.02s0-.03,0-.03h0s0-.02,0-.02h.02s.02,0,.02,0h0,0s.02-.02.02-.02l.06.04.07.05.06.03h.05s.06.01.06.01l.08-.03.05-.03.04-.07.03-.1v-.06s-.01-.02-.01-.02l-.02-.03v-.04s-.02-.02-.02-.02l-.02-.02h-.02s-.01-.03-.01-.03l-.02-.03-.02-.02-.02-.02-.02-.02h-.02s-.09-.09-.09-.09l-.06-.06-.04-.05-.08-.1-.06-.1-.02-.05-.02-.07v-.08s0-.11,0-.11v-.05s.05-.07.05-.07l.02-.04.02-.03v-.02s.06-.04.06-.04l.04-.04.04-.03.05-.04.06-.04.08-.03.04-.02.07-.02.12-.02h.14s.08.02.08.02h.03s.02.01.02.01h0s0,.02,0,.02h0s0,.02,0,.02h.01s0,.03,0,.03v.02s0,.04,0,.04h-.01,0s0,.02,0,.02v.04s0,0,0,0h-.01s0,.01,0,.01l.02.02h0s0,.02,0,.02v.02s0,.01,0,.01h-.01s0,.02,0,.02h.02s0,.02,0,.02h0s0,0,0,0h-.02s0,.03,0,.03v.02h0v.08s-.02.01-.02.01h-.02s-.07-.04-.07-.04h-.05s-.12,0-.12,0l-.07.02-.02.02-.02.02-.03.03v.07s.02.06.02.06l.06.06.08.08.05.04.05.05.08.08.08.1.07.1.02.05.04.11.02.11v.07s0,.07,0,.07l-.04.11-.03.06-.06.11-.05.06-.03.03-.02.03-.08.07-.06.04-.06.03-.07.03-.06.02h-.05s-.11.02-.11.02h-.09Z"/>
    <path d="M2.3,2.75h-.02s0-.02,0-.02v-.1s0-.04,0-.04v-.03s0-.02,0-.02v-.03s0-.04,0-.04v-.26s0-.07,0-.07v-.19s0-.06,0-.06v-.24s0-.28,0-.28v-.05s0-.09,0-.09v-.07s0-.05,0-.05h-.04s-.15,0-.15,0h-.15s-.08.02-.08.02h-.04s-.02,0-.02,0v-.02s0-.03,0-.03v-.03s0-.01,0-.01v-.02s.01-.02.01-.02v-.02s0-.02,0-.02v-.02s0-.02,0-.02v-.07s0-.02,0-.02v-.02s.01-.07.01-.07v-.02s.04-.03.04-.03h.05s.05,0,.05,0h.13s.04,0,.04,0h.07s.1,0,.1,0h.06s.09,0,.09,0h.06s.06,0,.06,0h.16s.09-.02.09-.02h.14s.04,0,.04,0h.2s.04,0,.04,0h.04s0,.04,0,.04v.04s0,.03,0,.03v.03s0,.02,0,.02h0s0,.04,0,.04h0s0,.02,0,.02v.02s0,.01,0,.01v.02s-.01.01-.01.01h0s.02.04.02.04l-.02.02v.02s0,.02,0,.02h.01s-.02.03-.02.03l-.02.02h-.02s-.04,0-.04,0h-.03s-.03.02-.03.02h-.06s-.22,0-.22,0h-.03s-.04.03-.04.03v.15s0,.1,0,.1v.31s0,.44,0,.44v.07s0,.06,0,.06v.06s0,.06,0,.06v.16s0,.09,0,.09v.04s-.02.01-.02.01h-.04s-.03.04-.03.04h0v-.02s-.02,0-.02,0h0s-.01,0-.01,0v.02s-.02,0-.02,0v-.02h-.02s-.01.01-.01.01h-.02s-.01,0-.01,0h-.01s-.01,0-.01,0h-.01s-.02,0-.02,0h-.02s-.01,0-.01,0h0s-.02,0-.02,0h0s-.07,0-.07,0Z"/>
    <path d="M4.51,2.76l-.04-.07-.07-.09-.04-.05-.08-.11-.07-.09-.05-.07-.03-.03-.04-.04-.13-.15-.03-.03h-.01v.11s0,.06,0,.06v.1s0,.07,0,.07v.04s0,.08,0,.08v.12s0,.07,0,.07l-.02.04h-.03s-.02,0-.02,0h-.03s0,.01,0,.01h-.02s-.03.01-.03.01h-.01s0,0,0,0h-.01s-.02,0-.02,0h-.03s-.02,0-.02,0h-.02s-.01,0-.01,0h-.01s-.04.01-.04.01h-.03s-.03,0-.03,0h-.01s0-.01,0-.01v-.08s0-.06,0-.06v-.11s0-.05,0-.05v-.11s0-.05,0-.05v-.07s0-.05,0-.05v-.04s0-.07,0-.07v-.06s0-.07,0-.07v-.07s0-.04,0-.04v-.04s0-.1,0-.1v-.07s0-.06,0-.06v-.05s0-.07,0-.07v-.04s0-.06,0-.06v-.06s0-.12,0-.12v-.03s0-.04,0-.04v-.05s0-.02,0-.02v-.22s0-.05,0-.05v-.03s0,0,0,0h0s.02,0,.02,0h.06s.01,0,.01,0h0s.02,0,.02,0h.03s.01,0,.01,0h.03s.02,0,.02,0h.09s.05,0,.05,0h.02s.02,0,.02,0h.02s.04,0,.04,0h.05s.04-.01.04-.01h.03s.03,0,.03,0h.11s.03.01.03.01h.04s.04.02.04.02h.02s.02.02.02.02l.08.03.07.04.04.04.03.04.03.06.03.08.02.07.02.04v.02s.01.05.01.05l.02.07v.03s0,.04,0,.04v.04s0,.01,0,.01v.03s0,.04,0,.04v.02s-.02.06-.02.06l-.03.07v.03s-.07.07-.07.07v.02s-.05.04-.05.04l-.03.04-.03.02-.04.03-.03.02.02.03v.03s.06.05.06.05l.07.09.07.1.05.07.04.06.07.1.05.08.03.05.02.04-.02.02-.02.02h-.01s-.01,0-.01,0h0s0,.03,0,.03h-.03v.03s-.02,0-.02,0h-.01s-.02.02-.02.02h-.02s0,.02,0,.02h-.01s-.02.01-.02.01v.02s-.02,0-.02,0h-.02s-.02.03-.02.03h-.01s0,.01,0,.01h-.01s-.02.01-.02.01h-.03s-.03-.04-.03-.04ZM4.01,1.57h.06s.07,0,.07,0h.02s.04-.04.04-.04l.05-.04.04-.04.02-.05v-.06s0-.08,0-.08l-.04-.09-.04-.02h-.03s-.06-.03-.06-.03h-.05s-.06,0-.06,0h-.07s0,.04,0,.04v.24s0,.11,0,.11v.06h0s.07,0,.07,0Z"/>
    <path d="M5.26,2.73h-.03s-.02,0-.02,0h0s0,0,0,0h-.02s-.02.01-.02.01h-.02s-.02,0-.02,0h-.01s0,0,0,0h-.01s-.02,0-.02,0l-.02-.02h-.02s-.01,0-.01,0h0s0,.02,0,.02h0s-.02-.02-.02-.02v-.02s0-.05,0-.05l.02-.09v-.06s.03-.1.03-.1l.02-.09v-.06s.02-.07.02-.07l.02-.09.02-.09.02-.12v-.07s.04-.13.04-.13v-.07s.04-.13.04-.13v-.08s.03-.07.03-.07l.03-.11.02-.1.03-.1.02-.09.03-.08.02-.05.02-.05v-.04s.02-.01.02-.01h.01s.01,0,.01,0h.03s.02.01.02.01h.01s.03,0,.03,0h.02s.01,0,.01,0h.02s.02,0,.02,0h.02s.03,0,.03,0h.01s.01,0,.01,0h.01s.03,0,.03,0h.02s.02,0,.02,0h.05s.03,0,.03,0h.01s.01,0,.01,0h.01s0,0,0,0h0s.02.05.02.05l.02.05.03.07.03.09.02.07v.05s.04.09.04.09l.02.06v.03s.03.07.03.07l.02.07.02.06v.06s.03.06.03.06l.04.17v.06s.04.12.04.12l.02.09v.02s.01.05.01.05l.02.06.04.16v.04s.01.04.01.04v.07s.03.06.03.06v.04s.01.04.01.04v.03l-.02.02h-.02s-.03.02-.03.02h-.01s-.02,0-.02,0h-.02s-.02.02-.02.02h-.01s-.03.01-.03.01h0s-.01,0-.01,0h-.01s0,.02,0,.02h-.02s-.02,0-.02,0h-.02s-.02.03-.02.03h0s-.01-.01-.01-.01l-.04.02h-.04s-.02-.01-.02-.01l-.02-.07-.02-.09-.02-.1-.02-.09h-.04s-.06,0-.06,0h-.05s-.22,0-.22,0h-.04s0,.02,0,.02v.04s-.02.03-.02.03v.07s-.03.06-.03.06v.06s-.04.07-.04.07h-.02s-.02.02-.02.02h-.02s-.02.01-.02.01h0s-.01,0-.01,0h-.02s-.01,0-.01,0h0s0,0,0,0ZM5.79,1.92v-.06s-.02-.08-.02-.08v-.04s-.02-.02-.02-.02l-.02-.06v-.06s-.03-.05-.03-.05l-.02-.06v-.03s-.01,0-.01,0h0s-.01.07-.01.07v.07s-.03.07-.03.07l-.02.11v.05s-.02.07-.02.07h.03s.07,0,.07,0h.04s.04,0,.04,0h.02Z"/>
    <path d="M6.68,2.82v-.04s-.04,0-.04,0h-.02s-.01-.02-.01-.02l-.02-.04v-.04s-.02-.02-.02-.02v-.03s0-.03,0-.03h0v-.05s.01-.04.01-.04v-.02s0-.01,0-.01v-.11s0-.01,0-.01v-.04s0-.04,0-.04v-.03s0-.03,0-.03v-.06s0-.22,0-.22v-.04s0-.04,0-.04v-.1s0-.03,0-.03v-.03s0-.07,0-.07v-.06s.01-.15.01-.15v-.05s0-.07,0-.07v-.08s0-.08,0-.08v-.1s0-.11,0-.11v-.14s0-.09,0-.09v-.02s.03,0,.03,0h.02s.03,0,.03,0h.16s.02,0,.02,0h.01s.02,0,.02,0h.02s.01,0,.01,0h.01s.02-.01.02-.01h.03s.02.01.02.01h.02s.02,0,.02,0v.06s0,.06,0,.06v.11s0,.04,0,.04v.04s0,.04,0,.04v.04s0,.04,0,.04v.02s0,0,0,0h.01s0,0,0,0v.02s-.02,0-.02,0h0s0,.02,0,.02v.02s.01.02.01.02v.12s-.01.02-.01.02h0s0,.02,0,.02v.04s.01,0,.01,0h0v.04h-.02v.04s0,.02,0,.02h0v.02h0v.04s0,.03,0,.03v.04h.01s0,.02,0,.02v.11s.02.06.02.06v.09s0,.07,0,.07v.18s0,.06,0,.06v.05s0,.07,0,.07v.06s0,.09,0,.09v.08s0,.03,0,.03v.04s-.02.03-.02.03v.02s-.04.02-.04.02h-.02s-.02,0-.02,0v.02s-.02,0-.02,0h-.01s-.02,0-.02,0h-.01s-.02,0-.02,0h-.01s0-.01,0-.01v.02s-.02.03-.02.03h0s0-.04,0-.04h-.02s-.02.04-.02.04h0s0,.01,0,.01h0s-.01-.02-.01-.02h-.01s0,.05,0,.05v.02h0v-.02s0-.02,0-.02h0s-.01,0-.01,0h-.01s0,.03,0,.03v.04s-.01.02-.01.02h0s0-.07,0-.07Z"/>
    <path d="M8.08,2.87l-.08-.02h-.03l-.04-.02h-.03s-.03-.02-.03-.02l-.04-.02h-.03s-.01-.03-.01-.03h-.02s0-.01,0-.01l-.03-.02-.05-.05-.04-.04h-.02s-.01-.03-.01-.03l-.03-.04-.02-.05v-.03s-.02-.02-.02-.02l-.03-.04-.02-.06-.02-.04v-.03s0-.02,0-.02h0s0-.03,0-.03v-.03s-.02-.02-.02-.02v-.05s-.02-.07-.02-.07v-.06s-.02-.03-.02-.03v-.06s-.03-.1-.03-.1v-.07s0-.04,0-.04v-.15s0-.05,0-.05v-.04s.02-.02.02-.02v-.03s0-.03,0-.03h0s.01-.03.01-.03v-.02s0,0,0,0v-.02s.01-.04.01-.04v-.03s.02-.02.02-.02v-.04s.02-.03.02-.03l.02-.05.02-.07.02-.02.02-.04.04-.07v-.03s.03-.01.03-.01l.07-.07.04-.04.05-.04.04-.03.1-.05.07-.02h.01s.03,0,.03,0h.04s.03-.02.03-.02h.02s.02,0,.02,0h.02s.02,0,.02,0h.05s.02,0,.02,0h.02s.05,0,.05,0h.09s.02,0,.02,0h.02s.07.02.07.02h.02s.04.01.04.01h.03s.06.04.06.04l.06.03.07.05.03.02v.02s0,.02,0,.02v.03s-.03.02-.03.02h-.01s0,.04,0,.04h-.01s-.01.02-.01.02v.04s-.03.01-.03.01h0s0,.02,0,.02h-.02s0,.02,0,.02v.02s-.02,0-.02,0h0s-.01.03-.01.03v.02s-.02,0-.02,0l-.02.03h-.01s0,.02,0,.02h-.02s-.02.03-.02.03h-.02s-.04-.02-.04-.02l-.04-.03-.04-.02-.08-.02h-.07s-.02,0-.02,0h0s-.02,0-.02,0h-.04s-.05.01-.05.01h-.02s-.01.02-.01.02l-.06.02-.06.04-.04.04-.04.09-.03.1v.06s-.02.05-.02.05v.06s-.01.06-.01.06v.03s0,.07,0,.07v.05s0,.02,0,.02v.09s.02.07.02.07v.06s.02.05.02.05l.02.06.02.07.02.05.03.07.07.05.05.02.05.02.06.02h.04s.04,0,.04,0h.04s.03-.02.03-.02l.03-.02.03-.03v-.02s0-.07,0-.07v-.1s-.02-.09-.02-.09v-.08s-.03,0-.03,0l-.21.02h-.09s-.02,0-.02,0h0s0-.01,0-.01h0s-.01-.02-.01-.02h0v-.04s0-.03,0-.03v-.03s0-.02,0-.02h0s0-.03,0-.03v-.02s0-.01,0-.01v-.02s0-.04,0-.04v-.02s0-.07,0-.07h0s0-.03,0-.03v-.03s0,0,0,0l.04-.02.09-.02h.1s.11,0,.11,0h.11s.07,0,.07,0h.09s.02,0,.02,0h.02s.03,0,.03,0h.02s.01,0,.01,0h.02s.02,0,.02,0h.03s.02,0,.02,0v.02s.01.07.01.07v.09s0,.09,0,.09v.12s0,.09,0,.09v.15s0,.06,0,.06v.15s-.01.06-.01.06v.04s-.03.01-.03.01l-.02.05-.02.04h0s-.01.03-.01.03l-.02.03-.02.03-.05.05-.07.06-.04.03h-.01s-.03.03-.03.03l-.04.02-.02.02h-.05s-.02,0-.02,0l-.02.02h-.04s-.02,0-.02,0h-.07s-.03,0-.03,0h-.03s-.04,0-.04,0h-.03s-.02,0-.02,0h0s-.02,0-.02,0Z"/>
    <path d="M10.38,2.77v-.02s0,0,0,0h0s0,.01,0,.01v.02s-.02-.01-.02-.01h0s0-.04,0-.04v-.02s0-.02,0-.02v-.02s-.02,0-.02,0v.02s0,.01,0,.01h0s0,0,0,0v.04s0,.04,0,.04v-.03s-.02-.06-.02-.06v-.04s-.01-.03-.01-.03v-.03s.02,0,.02,0v.03s.03.02.03.02h.02s0,0,0,0h0s-.03-.01-.03-.01v-.02s0-.07,0-.07v-.05s0,0,0,0v.02s.02.03.02.03h0v.02h0s0-.03,0-.03v-.05s0-.01,0-.01h-.01v.02h-.02v-.04s0-.07,0-.07v-.06s0-.05,0-.05v-.13s0-.07,0-.07v-.06s0-.02,0-.02v-.05h0s-.02-.02-.02-.02v-.02s-.02,0-.02,0v.03s-.02,0-.02,0v-.02s0-.02,0-.02v-.04s-.02,0-.02,0h-.17s-.17,0-.17,0h-.03s-.03,0-.03,0h-.03s-.07,0-.07,0h-.06s0,.05,0,.05v.09s0,.16,0,.16v.07s0,.06,0,.06v.13s-.01.1-.01.1v.05s-.01.01-.01.01h0s0,.04,0,.04v.02s0,.03,0,.03v.04s-.03.02-.03.02h-.02s-.01,0-.01,0h-.03s0,0,0,0h-.02s-.02,0-.02,0h-.02s-.01,0-.01,0h0s0,0,0,0h-.02s-.02,0-.02,0h-.02s0,0,0,0h0s-.02,0-.02,0h-.03s-.02,0-.02,0h-.01s-.02,0-.02,0h0s-.01,0-.01,0h-.02s-.01-.01-.01-.01v-.02s-.02-.02-.02-.02v-.02s0-.01,0-.01v-.04s0-.02,0-.02h-.01v-.16s0-.03,0-.03v-.06s0-.14,0-.14v-.11s0-.09,0-.09v-.09s0-.14,0-.14v-.07s0-.05,0-.05v-.11s0-.06,0-.06v-.1s0-.06,0-.06v-.04s0-.13,0-.13v-.04s0-.12,0-.12v-.03s0-.04,0-.04v-.08s.03-.09.03-.09v-.04s.05,0,.05,0h.05s.02,0,.02,0h.03s.01,0,.01,0h.02s.02,0,.02,0h.02s.01,0,.01,0h0s.02,0,.02,0h.02s0,0,0,0h.01s.01-.01.01-.01h.08s.03,0,.03,0h.03s0,.04,0,.04v.04s0,.03,0,.03v.04s0,.04,0,.04v.03s0,.05,0,.05v.08s0,.1,0,.1v.05s0,.04,0,.04v.1s0,.07,0,.07h0s.01.02.01.02h.11s.07,0,.07,0h0s0,0,0,0h-.03s-.01,0-.01,0h0s.07,0,.07,0h.18s.14,0,.14,0h.04s0-.02,0-.02v-.03s0-.04,0-.04v-.05s0-.03,0-.03v-.04s0-.04,0-.04v-.07s0-.04,0-.04v-.04s0-.05,0-.05v-.08s0-.04,0-.04v-.07s0-.07,0-.07l.03-.03h.04s.03,0,.03,0h.05s.03,0,.03,0h.03s.02,0,.02,0h0s.01,0,.01,0h.02s.02,0,.02,0h.03s.03,0,.03,0h.03s.03,0,.03,0h.04s0,.03,0,.03v.04s0,.04,0,.04v.21s0,.07,0,.07v.09s0,.04,0,.04v.03s0,.04,0,.04v.07s0,.07,0,.07v.03s0,.02,0,.02v.02s0,.03,0,.03v.05s0,.08,0,.08v.09s0,.04,0,.04v.02s0,.1,0,.1v.06s0,.09,0,.09v.18s0,.14,0,.14v.02s0,.04,0,.04v.05s0,.04,0,.04v.02s0,.02,0,.02v.04s0,.04,0,.04v.03s-.02.02-.02.02h-.02s0,.01,0,.01h-.03s-.01.01-.01.01h0s0-.02,0-.02h-.01s0,.01,0,.01v.02s-.02,0-.02,0v-.02s0-.01,0-.01h0v.03s-.03,0-.03,0h-.01s0,0,0,0h0s0,0,0,0v.02s0,.03,0,.03h-.02s-.01-.02-.01-.02v.02s-.02.02-.02.02h0Z"/>
    <path d="M11.42,2.75h-.02s0-.02,0-.02v-.1s0-.04,0-.04v-.03s0-.02,0-.02v-.03s0-.04,0-.04v-.26s0-.07,0-.07v-.19s0-.06,0-.06v-.24s0-.28,0-.28v-.05s0-.09,0-.09v-.07s0-.05,0-.05h-.04s-.15,0-.15,0h-.15s-.08.02-.08.02h-.04s-.02,0-.02,0v-.02s0-.03,0-.03v-.03s0-.01,0-.01v-.02s.01-.02.01-.02v-.02s0-.02,0-.02v-.02s0-.02,0-.02v-.07s0-.02,0-.02v-.02s.01-.07.01-.07v-.02s.04-.03.04-.03h.05s.05,0,.05,0h.13s.04,0,.04,0h.07s.1,0,.1,0h.06s.09,0,.09,0h.06s.06,0,.06,0h.16s.09-.02.09-.02h.14s.04,0,.04,0h.2s.04,0,.04,0h.04s0,.04,0,.04v.04s0,.03,0,.03v.03s0,.02,0,.02h0s0,.04,0,.04h0s0,.02,0,.02v.02s0,.01,0,.01v.02s-.01.01-.01.01h0s.02.04.02.04l-.02.02v.02s0,.02,0,.02h.01s-.02.03-.02.03l-.02.02h-.02s-.04,0-.04,0h-.03s-.03.02-.03.02h-.06s-.22,0-.22,0h-.03s-.04.03-.04.03v.15s0,.1,0,.1v.31s0,.44,0,.44v.07s0,.06,0,.06v.06s0,.06,0,.06v.16s0,.09,0,.09v.04s-.02.01-.02.01h-.04s-.03.04-.03.04h0v-.02s-.02,0-.02,0h0s-.01,0-.01,0v.02s-.02,0-.02,0v-.02h-.02s-.01.01-.01.01h-.02s-.01,0-.01,0h-.01s-.01,0-.01,0h-.01s-.02,0-.02,0h-.02s-.02,0-.02,0h0s-.02,0-.02,0h0s-.07,0-.07,0Z"/>
  </g>
  <g>
    <path d="M13.16,1.81h-.01s0-.01,0-.01v-.06s0-.02,0-.02v-.02s0-.01,0-.01h0s0-.04,0-.04v-.14s0-.04,0-.04v-.1s0-.03,0-.03v-.13s0-.15,0-.15v-.03s0-.05,0-.05v-.04s0-.03,0-.03h-.02s-.08,0-.08,0h-.08s-.04,0-.04,0h-.02s-.01,0-.01,0h0v-.04s0,0,0,0h0s0-.02,0-.02h0s0-.02,0-.02h0s0-.02,0-.02v-.04s0-.01,0-.01h0s0-.05,0-.05h0s.02-.03.02-.03h.03s.03,0,.03,0h.07s.02,0,.02,0h.04s.05,0,.05,0h.03s.05,0,.05,0h.03s.03,0,.03,0h.09s.05-.01.05-.01h.07s.02,0,.02,0h.11s.02,0,.02,0h.02s0,.02,0,.02v.02s0,.01,0,.01v.02s0,.01,0,.01h0s0,.02,0,.02h0s0,.01,0,.01h0s0,.02,0,.02h0s0,.02,0,.02h0s.01.02.01.02h-.01s0,.03,0,.03h0s0,.02,0,.02h-.01s0,.02,0,.02h-.01s-.02,0-.02,0h-.02s-.02.01-.02.01h-.03s-.12,0-.12,0h-.02s-.02.02-.02.02v.08s0,.05,0,.05v.17s0,.24,0,.24v.04s0,.03,0,.03v.03s0,.03,0,.03v.09s0,.05,0,.05v.02s-.01,0-.01,0h-.02s-.02.02-.02.02h0s0,0,0,0h0s0,0,0,0h0s0,.02,0,.02h0s0-.01,0-.01h0s0,0,0,0h0s0,0,0,0h0s0,0,0,0h0s-.01,0-.01,0h-.01s0,0,0,0h0s0,0,0,0h0s-.04,0-.04,0Z"/>
    <path d="M14.06,1.87h-.04s-.03-.03-.03-.03l-.03-.02-.04-.03-.03-.02-.03-.03-.03-.03-.02-.03-.02-.03-.02-.03v-.02s-.03-.04-.03-.04v-.03s-.03-.07-.03-.07v-.06s0-.06,0-.06v-.05s0-.03,0-.03v-.02s0-.04,0-.04v-.03s.01-.03.01-.03v-.03s.02-.04.02-.04v-.03s.02-.02.02-.02v-.02s0-.02,0-.02v-.02s0-.01,0-.01h0s0-.04,0-.04v-.02s.02-.02.02-.02l.02-.02v-.03s.03-.02.03-.02l.02-.03.03-.04.03-.03.04-.03.03-.02.05-.02.04-.02h.04s.03-.02.03-.02h.03s.03,0,.03,0h.07s.02,0,.02,0h.03s.03.01.03.01h.03s.06.04.06.04l.04.04.04.04.04.06.02.05.02.05v.04s.02.03.02.03v.04s0,.03,0,.03v.04s0,.16,0,.16v.04s0,.04,0,.04v.03s0,0,0,0v.03s-.02.04-.02.04v.02s0,.01,0,.01h0s0,.03,0,.03v.03s-.01.04-.01.04l-.02.05v.04s-.02.01-.02.01h0s-.01.03-.01.03v.02s-.02.02-.02.02h-.01s-.03.04-.03.04l-.05.04h-.03s-.04.03-.04.03h-.04s-.03.01-.03.01h-.03s-.01,0-.01,0h-.08s0,0,0,0h0s-.04,0-.04,0h-.06ZM14.21,1.62h.02s0,0,0,0h0s0,0,0,0h.02s.02-.01.02-.01h0s.01-.02.01-.02v-.02s.03-.02.03-.02v-.03s.02-.03.02-.03v-.02s0-.01,0-.01v-.04s.01,0,.01,0h0s0-.02,0-.02h0s0-.02,0-.02h0s0-.03,0-.03h0s0-.03,0-.03v-.03s0-.02,0-.02v-.02s0-.04,0-.04v-.05s0-.06,0-.06v-.02s0,0,0,0h0s0-.04,0-.04l-.02-.05-.02-.03-.04-.04-.03-.02h-.04s-.06,0-.06,0h-.03s-.02,0-.02,0h0s-.02.01-.02.01h-.02s-.01.03-.01.03h0s-.01.02-.01.02l-.02.03v.02s-.02.01-.02.01v.02s-.01.02-.01.02h0s0,.04,0,.04v.02s0,.01,0,.01v.02s-.01.04-.01.04v.06s0,.05,0,.05v.04s0,.04,0,.04v.04s.02.03.02.03v.02s.02.02.02.02l.02.04.05.04.05.03h.03s0,.01,0,.01h0s0,0,0,0h.03Z"/>
  </g>
  <g>
    <path d="M13.07,2.82h0s0,0,0,0v-.04s0-.01,0-.01h0v-.02h0s0-.02,0-.02v-.08h0s0-.04,0-.04v-.07s0-.02,0-.02v-.08s0-.1,0-.1v-.02s0-.03,0-.03v-.03s0-.02,0-.02h-.01s-.05,0-.05,0h-.05s-.03,0-.03,0h-.02s0,0,0,0h0v-.02h0s0-.02,0-.02h0s0-.01,0-.01h0s0-.01,0-.01h0s0-.01,0-.01h0s0-.02,0-.02h0s0-.02,0-.02v-.03s0,0,0,0h.01s.02-.01.02-.01h.02s.04,0,.04,0h.01s.01,0,.01,0h.03s.03,0,.03,0h.02s.03,0,.03,0h.02s.02,0,.02,0h.06s.03,0,.03,0h.05s.01,0,.01,0h.07s.01,0,.01,0h.01s0,.01,0,.01h0s0,.02,0,.02h0s0,.02,0,.02h0s0,.01,0,.01h0s0,0,0,0h0s0,.01,0,.01h0s0,.01,0,.01h0s0,.01,0,.01h0s0,.02,0,.02h0s0,.01,0,.01h0s0,.01,0,.01h0s-.01,0-.01,0h-.01s-.01,0-.01,0h-.02s-.08,0-.08,0h-.01s-.01.01-.01.01v.05s0,.03,0,.03v.11s0,.16,0,.16v.02s0,.02,0,.02v.02s0,.02,0,.02v.06s0,.03,0,.03h0s0,.02,0,.02h-.01s-.01.01-.01.01h0s0,0,0,0h0s0,0,0,0h0s0,.01,0,.01h0s0,0,0,0h0s0,0,0,0h0s0,0,0,0h0s0,0,0,0h0s0,0,0,0h0s0,0,0,0h0s0,0,0,0h0s-.03,0-.03,0Z"/>
    <path d="M13.93,2.83h0s0,0,0,0h0s0,0,0,0h0s0,0,0,0h0s0-.01,0-.01h0s0-.01,0-.01h0s0,0,0,0h0s0,.01,0,.01h0s0,0,0,0h0s0,.03,0,.03h0s0-.03,0-.03h0s0-.02,0-.02h0s0,0,0,0h0s0,.02,0,.02h0s0,0,0,0h0s-.01,0-.01,0h0s0-.03,0-.03v-.02s0,0,0,0h0s0,.02,0,.02h0s0,0,0,0h0s0-.03,0-.03h0s0,0,0,0h0s0,0,0,0h0s0-.04,0-.04v-.02s0-.02,0-.02v-.03h0v-.06s0,0,0,0v-.02h0s0,0,0,0h0s0,0,0,0h0s0,.01,0,.01h0s0-.02,0-.02h0s0-.01,0-.01h0s-.04,0-.04,0h-.02s-.06,0-.06,0h-.01s-.01,0-.01,0h-.01s-.02,0-.02,0h-.02s0,.02,0,.02v.03s0,.06,0,.06v.02s0,.02,0,.02v.05s0,.04,0,.04v.02s0,0,0,0h0s0,.01,0,.01h0v.02h0s0,.02,0,.02h0s0,0,0,0h-.01s0,0,0,0h0s0,0,0,0h0s0,0,0,0h0s0,0,0,0h0s0,0,0,0h0s0,0,0,0h0s0,0,0,0h0s0,0,0,0h0s0,0,0,0h0s0,0,0,0h0s0,0,0,0h0s0-.02,0-.02h0s0-.01,0-.01h0s0-.02,0-.02h0v-.05h0s0-.02,0-.02v-.02s0-.05,0-.05v-.04s0-.03,0-.03v-.03s0-.05,0-.05v-.03s0-.02,0-.02v-.04s0-.02,0-.02v-.03s0-.02,0-.02h0v-.08s0-.04,0-.04h0v-.05s0-.03,0-.03h0s.02-.02.02-.02h.02s0,0,0,0h0s0,0,0,0h0s0,0,0,0h0s0,0,0,0h0s0,0,0,0h0s0,0,0,0h0s0,0,0,0h.03s.01,0,.01,0h.01s0,.01,0,.01v.02s0,0,0,0h0v.03h0v.06s0,.04,0,.04v.02s0,.02,0,.02v.04s0,.02,0,.02h0s0,0,0,0h.04s.02,0,.02,0h0s0,0,0,0h-.01s0,0,0,0h0s.02,0,.02,0h.06s.05,0,.05,0h.01s0,0,0,0h0s0-.02,0-.02h0s0-.02,0-.02h0s0-.02,0-.02h0v-.03h0s0-.03,0-.03h0s0-.03,0-.03v-.03s0-.02,0-.02v-.03s0-.03,0-.03h.01s.01,0,.01,0h0s.01,0,.01,0h0s0,0,0,0h.01s0,0,0,0h0s0,0,0,0h0s0,0,0,0h.01s.01,0,.01,0h.01s.01,0,.01,0h.01s0,.01,0,.01h0s0,.03,0,.03v.06h0v.07s0,.01,0,.01h0s0,.03,0,.03v.03s0,.03,0,.03h0s0,.02,0,.02h0s0,.03,0,.03v.03s0,.02,0,.02h0v.02h0v.07s0,.03,0,.03v.06s0,.05,0,.05h0s0,.02,0,.02v.02s0,.02,0,.02h0s0,.01,0,.01v.02s0,.02,0,.02h0s0,.02,0,.02h0s0,0,0,0h-.01s0,0,0,0h0s0,0,0,0h0s0,0,0,0h0s0,0,0,0h0s0-.01,0-.01h0s0,.01,0,.01h0s0,0,0,0h0s0,0,0,0h0s0,.02,0,.02h0s0,0,0,0h0s0,.01,0,.01h0Z"/>
    <path d="M14.25,2.83h0s-.01,0-.01,0h-.02s-.01,0-.01,0h0s-.01,0-.01,0h-.02s0,0,0,0h0s0,0,0,0h0s0,0,0,0h0s0-.03,0-.03v-.02s0-.03,0-.03v-.05s0-.01,0-.01h0v-.05s0-.03,0-.03v-.04s0-.06,0-.06v-.03s0-.03,0-.03v-.02s0-.03,0-.03v-.04s0-.04,0-.04v-.04s0-.02,0-.02v-.04s0-.02,0-.02v-.02s0-.04,0-.04v-.02s0-.03,0-.03h0s0,0,0,0h0s0,0,0,0h.01s.01,0,.01,0h0s.02,0,.02,0h0s0,0,0,0h.01s.01,0,.01,0h0s.01,0,.01,0h.02s.02,0,.02,0h0s.01,0,.01,0h.08s.01,0,.01,0h.01s.01,0,.01,0h.02s.05,0,.05,0h0s0,0,0,0h.04s.01,0,.01,0h0s0,0,0,0h0s0,.02,0,.02h0s0,.03,0,.03h0s0,.02,0,.02h0s0,.03,0,.03h0s0,0,0,0h0s0,.02,0,.02h-.01s-.01.02-.01.02h0s0,0,0,0h0s0,0,0,0h-.02s-.02,0-.02,0h0s-.03,0-.03,0h-.12s-.04,0-.04,0h0v.11s0,.01,0,.01h0s.04,0,.04,0h.1s.01,0,.01,0h0s0,0,0,0h.02s0,0,0,0h0s0,0,0,0h.02s0,.02,0,.02h0s0,.02,0,.02h0s0,.02,0,.02h0s0,.02,0,.02h0s0,.01,0,.01h0s0,.02,0,.02h0s0,0,0,0h0s0,0,0,0h0s0,0,0,0h0s0,.02,0,.02h0s-.01,0-.01,0h0s-.02,0-.02,0h-.05s-.04,0-.04,0h-.03s-.05,0-.05,0h-.03s0,0,0,0h0s0,.03,0,.03v.04s0,.03,0,.03v.02s0,.02,0,.02h.02s.02,0,.02,0h.01s.03,0,.03,0h.01s.03,0,.03,0h.03s.07,0,.07,0h.01s.02,0,.02,0h.02s.01,0,.01,0h0s0,.01,0,.01h0s0,.01,0,.01h0s0,.01,0,.01h0s0,.01,0,.01h0s0,0,0,0h0s0,0,0,0h0s0,.02,0,.02h0s0,.02,0,.02h0s0,0,0,0h0s0,0,0,0h0s0,.02,0,.02h0s0,0,0,0h0s0,0,0,0h0s-.02,0-.02,0h-.02s-.07,0-.07,0h-.01s0,0,0,0h-.01s-.06,0-.06,0h-.03s-.04,0-.04,0h-.02s0,0,0,0h0Z"/>
  </g>
  <g>
    <path d="M15.63,2.78h-.05s-.04-.03-.04-.03h-.04s-.04-.02-.04-.02l-.06-.03-.04-.02-.02-.02-.04-.02-.03-.02h-.03s-.02-.03-.02-.03l-.03-.02-.02-.03h0s0-.03,0-.03h0s0-.03,0-.03h.02s.01-.03.01-.03h0s0-.02,0-.02l.02-.02h0s0-.02,0-.02h.01s0-.02,0-.02h0s.02-.03.02-.03v-.03s.03,0,.03,0v-.03s.02-.02.02-.02h.01s0-.03,0-.03h0s0-.02,0-.02h.02s.01,0,.01,0h0,0s.02-.02.02-.02l.06.04.07.05.05.03h.05s.06.01.06.01l.07-.03.05-.03.04-.07.03-.09v-.06s-.01-.02-.01-.02v-.03s-.03-.03-.03-.03h-.01s-.01-.03-.01-.03h-.02s-.01-.03-.01-.03l-.02-.03-.02-.02-.02-.02v-.02s-.03-.01-.03-.01l-.09-.07-.06-.06-.04-.05-.08-.09-.06-.1-.02-.05-.02-.07v-.08s0-.11,0-.11v-.05s.05-.07.05-.07l.02-.04.02-.03v-.02s.05-.04.05-.04l.04-.04.04-.03.05-.03.06-.04.07-.03.04-.02.06-.02h.12s.13,0,.13,0h.08s.03.01.03.01h.02s0,.02,0,.02h0s0,0,0,0h0s.01.02.01.02v.02s-.01.01-.01.01v.04s0,0,0,0h0s0,.02,0,.02v.04s0,0,0,0h-.01s0,.01,0,.01l.02.02h0s0,.02,0,.02h0v.03h-.01s0,.02,0,.02h.02s0,.02,0,.02h0s0,0,0,0h-.01s0,.03,0,.03v.02h0v.08s-.02.01-.02.01h-.02s-.07-.03-.07-.03h-.05s-.11,0-.11,0l-.07.02-.02.02-.02.02-.03.03v.06s.02.06.02.06l.06.06.08.07.05.04.05.05.08.08.08.1.07.1.02.05.04.11.02.1v.07s0,.07,0,.07l-.03.11-.03.06-.06.1-.05.06-.03.03-.02.03-.08.07-.06.04-.06.03-.07.03-.06.02h-.05s-.1.02-.1.02h-.08Z"/>
    <path d="M17.82,2.74v-.02s0,0,0,0h0s0,.01,0,.01h0s-.02,0-.02,0h0s0-.04,0-.04v-.02s0-.02,0-.02v-.02s-.02,0-.02,0v.02s0,.01,0,.01h0s0,0,0,0v.04s0,.03,0,.03v-.03s-.02-.06-.02-.06v-.04s-.01-.03-.01-.03v-.03s.01,0,.01,0v.03s.03.02.03.02h.02s0,0,0,0h0s-.03-.01-.03-.01v-.02s0-.06,0-.06v-.05s0,0,0,0v.02s.02.03.02.03h0v.02h0s0-.03,0-.03v-.05s0-.01,0-.01h-.02s0,.01,0,.01v-.03s0-.07,0-.07v-.06s0-.05,0-.05v-.12s0-.07,0-.07v-.06s0-.02,0-.02v-.05h0s-.02-.02-.02-.02v-.02s-.02,0-.02,0v.03s-.02,0-.02,0v-.02s0-.02,0-.02v-.02h0s-.01-.02-.01-.02h-.16s-.17,0-.17,0h-.03s-.03,0-.03,0h-.03s-.07,0-.07,0h-.05s0,.05,0,.05v.08s0,.15,0,.15v.07s0,.06,0,.06v.12s-.01.1-.01.1v.05s-.01.01-.01.01h0s0,.03,0,.03v.02s0,.03,0,.03v.04s-.03.01-.03.01h-.02s-.01,0-.01,0h-.03s0,0,0,0h-.02s-.02,0-.02,0h-.02s-.01,0-.01,0h0s0,0,0,0h-.02s-.02,0-.02,0h-.02s0,0,0,0h0s-.02,0-.02,0h-.03s-.02,0-.02,0h-.01s-.01,0-.01,0h0s-.01,0-.01,0h-.02s-.01-.01-.01-.01v-.02s-.01-.02-.01-.02h0s0-.03,0-.03v-.04s0-.02,0-.02h-.01v-.15s0-.03,0-.03v-.05s0-.14,0-.14v-.11s0-.09,0-.09v-.09s0-.14,0-.14v-.07s0-.05,0-.05v-.11s0-.06,0-.06v-.09s0-.06,0-.06v-.04s0-.13,0-.13v-.04s0-.12,0-.12v-.03s0-.04,0-.04v-.07s.03-.09.03-.09v-.04s.05,0,.05,0h.05s.02,0,.02,0h.03s.01,0,.01,0h.01s.02,0,.02,0h.02s.01,0,.01,0h0s.02,0,.02,0h.02s0,0,0,0h.01s.01-.01.01-.01h.07s.03,0,.03,0h.03s0,.04,0,.04v.04s0,.03,0,.03v.04s0,.04,0,.04v.03s0,.05,0,.05v.08s0,.1,0,.1v.05s0,.04,0,.04v.1s0,.07,0,.07h0s.01.02.01.02h.11s.06,0,.06,0h0s0,0,0,0h-.03s-.01,0-.01,0h0s.06,0,.06,0h.17s.13,0,.13,0h.03s0-.02,0-.02v-.03s0-.04,0-.04v-.05s0-.03,0-.03v-.03s0-.03,0-.03v-.07s0-.04,0-.04v-.04s0-.05,0-.05v-.08s0-.04,0-.04v-.07s0-.07,0-.07l.03-.03h.04s.03,0,.03,0h.05s.03,0,.03,0h.03s.01,0,.01,0h0s.01,0,.01,0h.01s.02,0,.02,0h.03s.03,0,.03,0h.03s.03,0,.03,0h.04s0,.03,0,.03v.03s0,.04,0,.04v.21s0,.07,0,.07v.08s0,.03,0,.03v.03s0,.04,0,.04v.07s0,.07,0,.07v.03s0,.01,0,.01v.02s0,.03,0,.03v.05s0,.07,0,.07v.08s0,.03,0,.03v.02s0,.1,0,.1v.06s0,.09,0,.09v.17s0,.14,0,.14v.02s0,.04,0,.04v.05s0,.04,0,.04v.02s0,.02,0,.02v.04s0,.04,0,.04v.03s-.02.02-.02.02h-.02s0,.01,0,.01h-.03s-.01.01-.01.01h0s0-.02,0-.02h-.01s0,.01,0,.01h0s-.01.01-.01.01v-.02s0-.01,0-.01h0v.03s-.03,0-.03,0h-.01s0,0,0,0h0s0,0,0,0v.02s0,.03,0,.03h-.02s-.01-.02-.01-.02v.02s-.01.02-.01.02h0Z"/>
    <path d="M19.02,2.83l-.07-.02-.06-.03-.06-.03-.08-.05-.05-.04-.05-.05-.05-.05-.03-.05-.04-.06-.03-.06-.02-.04-.04-.08-.02-.06-.03-.12v-.11s-.01-.1-.01-.1v-.09s0-.05,0-.05v-.04s.01-.08.01-.08v-.05s.02-.06.02-.06l.02-.05v-.07s.03-.05.03-.05l.02-.03v-.03s.01-.03.01-.03v-.03s.02-.02.02-.02v-.02s.03-.04.03-.04l.02-.03v-.03s.04-.03.04-.03v-.05s.05-.03.05-.03l.03-.05.05-.06.06-.05.06-.05.05-.03.09-.04.07-.03.07-.02h.06s.05-.02.05-.02h.17s.04,0,.04,0h.06s.06.03.06.03l.05.02.1.05.08.07.07.07.07.1.04.09.03.09.02.07v.05s.02.07.02.07v.05s0,.06,0,.06v.37s-.01.06-.01.06v.05s-.02,0-.02,0v.05s-.03.07-.03.07v.03s-.01.02-.01.02v.03s0,.02,0,.02v.05s-.03.08-.03.08l-.03.09-.03.07v.03s-.02.02-.02.02l-.02.03-.02.03v.03s-.04.01-.04.01l-.06.06-.09.06-.05.02-.06.02h-.06s-.05.02-.05.02h-.05s-.02.02-.02.02h-.15s-.01,0-.01,0h-.01s-.07.02-.07.02h-.11ZM19.27,2.38h.04s.02,0,.02,0h.02s.01-.02.01-.02h.03s.03-.03.03-.03h.01s.02-.03.02-.03l.02-.03.03-.03.02-.06.02-.05v-.03s.01-.02.01-.02v-.06s.02-.02.02-.02v-.03s0-.02,0-.02v-.02s0-.02,0-.02v-.03s.01-.02.01-.02v-.04s.01-.05.01-.05v-.04s0-.03,0-.03v-.07s0-.07,0-.07v-.03s0-.1,0-.1v-.03s0-.01,0-.01v-.02s-.02-.05-.02-.05l-.03-.09-.03-.05-.07-.07-.05-.03-.07-.02h-.11s-.05.03-.05.03h-.05s-.03.02-.03.02l-.04.03-.02.02v.02s-.03.02-.03.02l-.04.05-.02.04v.02s-.02.03-.02.03v.03s-.02.03-.02.03v.05s-.02.04-.02.04v.03s-.02.04-.02.04v.07s-.02.1-.02.1v.09s0,.07,0,.07v.07s.02.08.02.08l.02.05v.03s.03.04.03.04l.04.07.09.08.09.05.05.02h.01s0,.02,0,.02h.01s.05,0,.05,0Z"/>
    <path d="M20.43,2.78h-.01s0,0,0,0h0s0,0,0,0h0s-.01-.03-.01-.03v-.02s-.01-.02-.01-.02v-.03s0-.03,0-.03h0s0-.03,0-.03v-.02s0-.07,0-.07v-.07s-.02-.03-.02-.03v-.02s.01-.02.01-.02v-.05s0-.04,0-.04h0s0,0,0,0h0s0,.01,0,.01h0s0-.05,0-.05v-.09s0-.06,0-.06v-.03s0-.03,0-.03v-.02s0-.03,0-.03v-.02s0-.03,0-.03v-.07s0-.02,0-.02v-.02s0-.03,0-.03v-.03s0-.02,0-.02v-.02s0-.02,0-.02h0s0-.05,0-.05v-.06s0-.03,0-.03v-.03s0-.03,0-.03h0s0-.03,0-.03v-.02s0-.03,0-.03v-.04s0-.05,0-.05v-.06s0-.01,0-.01v-.1s0-.09,0-.09v-.14s0-.13,0-.13v-.06s0-.02,0-.02h.02s.01,0,.01,0h.03s.03,0,.03,0h.02s.01-.01.01-.01h.01s.01.01.01.01h0s0-.02,0-.02h.02s.01,0,.01,0h.02s.03,0,.03,0h.02s.03,0,.03,0h.03s.03,0,.03,0h.02s.01,0,.01,0h.01s.01,0,.01,0h.24s.12.01.12.01h.05s.09.04.09.04l.05.03.09.07.08.09.03.05.05.12.03.13v.12s0,.05,0,.05v.07s-.03.07-.03.07l-.02.04-.04.08-.05.07-.05.06-.07.06-.11.07-.09.03-.08.02h-.13s-.05.01-.05.01h-.05s-.03,0-.03,0h-.01s0,.03,0,.03v.03h0s0,.04,0,.04v.06s0,.02,0,.02h0s0,.03,0,.03v.03s0,.06,0,.06v.03s0,.07,0,.07v.06s0,.07,0,.07v.07s-.03.02-.03.02h-.01s0,0,0,0h-.01s-.01.02-.01.02v.02s-.03.02-.03.02h-.01s-.01,0-.01,0h0s0,0,0,0h0s0-.02,0-.02h0s0,0,0,0h-.01s0,.03,0,.03h0s-.01.01-.01.01h-.01s0-.03,0-.03h0s0,0,0,0h0s-.01.01-.01.01v.02s-.02.01-.02.01h0v-.02h-.01v.02s-.04,0-.04,0l-.03-.02ZM20.84,1.61l.11-.02h.04s.05-.03.05-.03l.05-.03h.02s.03-.05.03-.05l.03-.07v-.09l-.04-.1-.07-.04h-.03s-.03,0-.03,0h-.03s-.08,0-.08,0h-.07s0,.05,0,.05v.06s0,.02,0,.02v.03s0,.08,0,.08v.07s0,.04,0,.04v.04s0,.03,0,.03h0s.04,0,.04,0Z"/>
  </g>
  <path d="M23.03,1.7c-.09-.1-.1-.11-.19-.21-.1-.1-.1-.1-.2-.2-.1-.1-.1-.1-.2-.2-.1-.1-.11-.09-.21-.19-.04-.04-.08-.07-.12-.11-.02-.02-.04-.04-.06-.06,0,0-.01-.03-.02-.03,0,0,0,0,0,0,0,0,0,0,0,0,0,0,0,0,0,0h0s0,0,0,0c0,0,0,0,0,0,0,0,0,0-.01,0-.02.02,0,.06,0,.08,0,.03-.01.07-.01.1,0,0,0,0,0,.01,0,.02,0,.05,0,.09,0,.14-.01.14-.01.28,0,.14,0,.14,0,.28,0,.14,0,.14,0,.28,0,.14,0,.14,0,.28,0,.14,0,.14,0,.28,0,.14,0,.14,0,.28,0,.11,0,.17,0,.21.05-.05.1-.11.16-.17.1-.1.12-.08.22-.18s.09-.11.19-.21c.1-.1.1-.1.2-.2.1-.1.1-.1.2-.2.09-.08.11-.11.18-.17-.01-.01-.04-.04-.08-.08Z"/>
</svg>