<?xml version="1.0" encoding="UTF-8"?>
<svg id="Layer_1" data-name="Layer 1" xmlns="http://www.w3.org/2000/svg" viewBox="0 0 21.11 8.18">
  <defs>
    <style>
      .cls-1 {
        font-size: 2px;
      }

      .cls-1, .cls-2 {
        font-family: Tomarik-Brush, Tomarik;
      }

      .cls-2 {
        font-size: 7px;
      }

      .cls-3 {
        letter-spacing: 0em;
      }

      .cls-4 {
        letter-spacing: -.02em;
      }

      .cls-5 {
        letter-spacing: -.05em;
      }
    </style>
  </defs>
  <text class="cls-1" transform="translate(.72 1.75)"><tspan class="cls-4" x="0" y="0">s</tspan><tspan x=".91" y="0">traight </tspan><tspan class="cls-5" x="8.67" y="0">t</tspan><tspan class="cls-3" x="9.67" y="0">o the</tspan></text>
  <text class="cls-2" transform="translate(-.02 7.47)"><tspan x="0" y="0">SHOp</tspan></text>
  <path d="M20.53,3.8c-.32-.34-.34-.36-.66-.7-.34-.34-.34-.35-.68-.69-.34-.33-.35-.34-.7-.67-.34-.34-.39-.29-.73-.64-.13-.13-.28-.25-.42-.37-.07-.06-.14-.13-.2-.2-.02-.02-.04-.11-.09-.1,0,0-.02.01-.02.01,0,0,0,0,0,0,0,0,0,0-.01,0h0s0,0,0,0c0,0-.02,0-.02,0-.02,0-.03.01-.04.02-.08.07.03.21.03.27,0,.11-.04.23-.04.34,0,.02,0,.03-.01.04.01.08.02.18.02.31,0,.48-.05.48-.05.97,0,.48,0,.49-.01.97,0,.48,0,.49.01.97,0,.48,0,.49-.02.97,0,.48,0,.49.01.97,0,.48,0,.49,0,.97,0,.37,0,.58.02.72.17-.18.36-.39.56-.6.34-.34.4-.28.74-.63s.31-.37.65-.72c.34-.34.34-.35.68-.69.33-.34.34-.35.67-.7.29-.28.38-.36.6-.58-.04-.04-.13-.13-.26-.26Z"/>
</svg>