<?xml version="1.0" encoding="UTF-8"?>
<svg id="Layer_1" data-name="Layer 1" xmlns="http://www.w3.org/2000/svg" viewBox="0 0 37.69 5.5">
  <g>
    <path d="M.77,3.75l-.08-.02-.06-.03h-.06s-.06-.03-.06-.03l-.1-.05-.06-.03-.04-.03-.06-.04-.04-.03-.04-.02-.03-.03-.05-.04-.04-.04v-.02s0-.02,0-.02v-.04s.04-.02.04-.02l.02-.02v-.02h0s.03-.05.03-.05h.01s0-.03,0-.03l.02-.02v-.02s.01-.01.01-.01l.04-.03.02-.05h.02s.01-.05.01-.05l.02-.04h.02s0-.04,0-.04h0s.01-.04.01-.04h.04s.02.01.02.01h0v-.02s.02-.01.02-.01l.09.06.12.08.09.05h.08s.1.02.1.02l.12-.05.07-.05.06-.11.05-.15v-.09s-.02-.04-.02-.04l-.02-.05-.02-.06-.02-.02-.02-.03-.03-.02-.02-.02-.03-.04-.03-.04-.04-.03-.02-.03-.03-.02-.14-.12-.09-.1-.06-.07-.13-.15-.09-.16-.03-.07-.03-.11v-.13s0-.17,0-.17l.02-.07.06-.12.04-.06.03-.05.02-.03.07-.07.06-.06.06-.05.07-.06.09-.06.12-.04.06-.03.1-.03.19-.02h.22s.13.02.13.02h.05s.03.02.03.02v.02s0,0,0,0h-.01s.01.03.01.03h.02s0,.05,0,.05v.02s0,.06,0,.06h-.02,0s0,.04,0,.04v.06s.01.01.01.01h-.02s0,.02,0,.02l.03.03h-.01s.01.03.01.03v.02s0,.02,0,.02h-.02v.02h.01s.03.03.03.03h.01v.02h-.01s-.02.01-.02.01v.04s0,.04,0,.04v.02s-.01.05-.01.05v.06s-.03.02-.03.02l-.03-.02-.11-.03h-.08s-.18-.01-.18-.01l-.11.04-.03.03-.04.03-.04.05-.02.1.06.09.1.09.12.12.08.07.07.08.13.13.13.16.12.16.04.08.06.17.03.17v.11s0,.12,0,.12l-.06.18-.05.1-.1.17-.08.09-.05.04-.03.04-.13.11-.09.06-.1.05-.12.04-.09.03h-.07s-.17.03-.17.03h-.13Z"/>
    <path d="M2.98,3.66h-.04s0-.03,0-.03v-.16s0-.06,0-.06v-.05s0-.03,0-.03v-.04s0-.06,0-.06v-.41s0-.12,0-.12v-.29s-.01-.09-.01-.09v-.37s.01-.44.01-.44v-.08s-.01-.13-.01-.13v-.11s-.01-.07-.01-.07h-.06s-.23,0-.23,0l-.23.02h-.13s-.07,0-.07,0l-.04-.02v-.02s0-.05,0-.05v-.05s0-.02,0-.02v-.03s.02-.04.02-.04v-.03s0-.04,0-.04v-.03s0-.03,0-.03v-.11s.01-.04.01-.04v-.04s.02-.11.02-.11v-.03s.06-.04.06-.04h.08s.08,0,.08,0h.21s.06,0,.06,0h.11s.15,0,.15,0h.09s.14,0,.14,0h.1s.09,0,.09,0h.1l.16-.02h.14s.12-.01.12-.01h.1s.06,0,.06,0h.32s.06,0,.06,0h.06s0,.06,0,.06v.06s0,.04,0,.04v.05s0,.03,0,.03v.02s-.02.03-.02.03h-.01s0,.04,0,.04v.04s.01.02.01.02v.03s-.02.02-.02.02v.02s.02.04.02.04l-.03.04v.04s0,.03,0,.03l.02.02-.03.03-.03.04h-.04s-.06,0-.06,0l-.05.02h-.05s-.1,0-.1,0h-.35s-.05.02-.05.02l-.06.03v.24s.01.15.01.15v.49s0,.69,0,.69v.11s-.01.09-.01.09v.09s0,.09,0,.09v.25s0,.14,0,.14v.06s-.03.02-.03.02h-.06s-.05.06-.05.06h-.01v-.04s-.04.01-.04.01h-.01s-.02,0-.02,0l-.02.03h0s0-.02,0-.02h-.03s-.02.02-.02.02h-.03s-.02,0-.02,0h-.02s-.02,0-.02,0h-.02s-.03,0-.03,0h-.03s-.02,0-.02,0h-.01s-.02.01-.02.01v.02s-.12-.02-.12-.02Z"/>
    <path d="M6.44,3.68l-.06-.11-.11-.15-.06-.08-.12-.17-.11-.15-.08-.11-.05-.05-.06-.07-.2-.24-.05-.05h-.02v.18s0,.1,0,.1v.16s0,.11,0,.11v.06s-.01.12-.01.12v.19s0,.12,0,.12l-.03.06h-.05s-.04,0-.04,0h-.04s-.01.02-.01.02h-.04s-.05.02-.05.02h-.02s-.01-.01-.01-.01h-.02s-.02.01-.02.01h-.05s-.03,0-.03,0h-.03s-.02,0-.02,0h-.02s-.07.02-.07.02h-.05s-.05,0-.05,0h-.02s0-.02,0-.02v-.13s0-.09,0-.09v-.17s0-.08,0-.08v-.17s0-.08,0-.08v-.12s0-.07,0-.07v-.06s0-.1,0-.1v-.1s0-.12,0-.12v-.12s0-.06,0-.06v-.06s0-.15,0-.15v-.12s.01-.09.01-.09v-.08s0-.11,0-.11v-.06s0-.09,0-.09v-.09s0-.19,0-.19v-.04s0-.07,0-.07v-.07s0-.04,0-.04v-.35s0-.08,0-.08v-.05s0,0,0,0h0s.04-.01.04-.01h.09s.02,0,.02,0h0s.03,0,.03,0h.05s.02,0,.02,0h.04s.03,0,.03,0h.15s.08-.01.08-.01h.03s.04,0,.04,0h.03s.06,0,.06,0h.07s.06-.02.06-.02h.05s.04,0,.04,0h.17s.05.02.05.02h.06s.06.03.06.03h.03s.03.03.03.03l.12.04.11.07.07.06.05.06.05.09.05.12.04.12.02.07v.04s.02.07.02.07l.03.1v.05s0,.07,0,.07l.02.06v.02s-.02.05-.02.05v.06l-.02.03-.02.09-.04.1-.02.05-.08.12-.02.03-.07.06-.05.06-.04.03-.07.05-.04.04.02.05.02.04.07.07.11.13.11.15.08.11.07.1.11.16.08.12.04.08.04.07-.03.03-.04.03h-.02s-.02.01-.02.01v.02s-.02.02-.02.02h-.04l-.02.05h-.01s-.01,0-.01,0h0s-.03.03-.03.03h-.03s-.01.03-.01.03h-.02s-.03.02-.03.02v.02s-.03,0-.03,0l-.02.02-.03.02h-.02s-.01.02-.01.02h-.02s-.02.02-.02.02h-.05s-.04-.06-.04-.06ZM5.66,1.8h.09s.12-.01.12-.01l.03-.02.06-.04.07-.06.06-.06.03-.07v-.09s-.01-.13-.01-.13l-.06-.14-.06-.04-.05-.02-.09-.03h-.08s-.1-.01-.1-.01h-.1s-.01.06-.01.06v.38s0,.17,0,.17v.09h.01s.1.01.1.01Z"/>
    <path d="M7.61,3.63h-.02l-.03-.02h-.03s0,0,0,0h-.04s-.04.02-.04.02h-.04s-.02-.01-.02-.01l-.02-.02v.02s-.04.02-.04.02l-.03-.02-.03-.02h-.04s-.02,0-.02,0h-.01s-.01.02-.01.02v-.02s-.05-.01-.05-.01v-.04s.01-.08.01-.08l.03-.14.02-.09.03-.16.03-.15.02-.09.02-.1.03-.14.03-.15.04-.18.02-.11.04-.2.02-.11.04-.21.02-.13.03-.11.04-.17.04-.16.04-.16.03-.14.05-.13.03-.08.02-.08.02-.06v-.02s.02,0,.02,0h.02s.05,0,.05,0h.04s.02,0,.02,0h.04s.03.02.03.02h.02s.04,0,.04,0h.04s.04,0,.04,0h.05s.02,0,.02,0h.04s.04,0,.04,0h.03s.04,0,.04,0h.07s.05,0,.05,0h.02s.02-.01.02-.01h.02s.01,0,.01,0h0s.04.08.04.08l.03.08.04.12.05.14.04.12.02.08.04.14.02.09v.05s.05.11.05.11l.03.1.03.09.02.09.03.09.06.26.02.09.04.19.03.14v.04s.02.07.02.07l.02.09.06.25v.06s.02.07.02.07l.02.11.02.09v.06s.02.06.02.06v.05l-.03.03h-.03s-.04.04-.04.04h-.02s-.03.01-.03.01h-.03s-.02.04-.02.04h-.02s-.05.02-.05.02h-.01s-.02,0-.02,0h-.02s-.01.03-.01.03l-.03.02h-.03s-.02,0-.02,0l-.04.05h-.01s-.02-.02-.02-.02l-.06.03h-.07s-.03-.02-.03-.02l-.03-.12-.04-.13-.04-.15-.04-.14h-.07s-.09,0-.09,0h-.08s-.34,0-.34,0h-.07s0,.04,0,.04v.06s-.03.04-.03.04l-.02.1-.02.09-.02.09-.03.11-.03.02h-.03s-.03.03-.03.03h-.05s-.02,0-.02,0l-.03-.02-.02.03h0s0,0,0,0ZM8.44,2.36v-.09s-.04-.13-.04-.13v-.06s-.02-.04-.02-.04l-.03-.09-.02-.09-.02-.08-.02-.09v-.04s-.02,0-.02,0h0s-.02.11-.02.11l-.02.11-.02.12-.03.18-.02.08-.02.12h.05s.1,0,.1,0h.07s.06.01.06.01h.04Z"/>
    <path d="M9.84,3.77v-.06s-.06,0-.06,0h-.02s-.02-.03-.02-.03l-.02-.06v-.06s-.03-.03-.03-.03v-.05s0-.04,0-.04v-.02s.01-.02.01-.02l.02-.04v-.1s0-.02,0-.02v-.17s0-.02,0-.02v-.06s0-.07,0-.07v-.05s0-.05,0-.05v-.09s0-.35,0-.35v-.06s0-.06,0-.06v-.15s0-.04,0-.04v-.04s0-.12,0-.12v-.09s.02-.24.02-.24v-.08s.01-.11.01-.11v-.13s0-.12,0-.12v-.15s0-.18,0-.18v-.22s.01-.14.01-.14l.02-.04h.03s.04,0,.04,0h.04s.24,0,.24,0h.02s.02,0,.02,0h.02s.03,0,.03,0h.03s.02,0,.02,0h.02s.04-.02.04-.02l.04.02h.06s.03,0,.03,0v.1s0,.09,0,.09v.17s0,.07,0,.07v.06s0,.06,0,.06v.07s0,.06,0,.06v.03s0,.01,0,.01h.02s0,0,0,0v.03s-.03.01-.03.01h0s0,.03,0,.03v.03s.02.03.02.03v.19s-.02.02-.02.02h-.01s-.01.03-.01.03v.07s.02,0,.02,0h0v.07h-.02v.02s-.01.01-.01.01v.03s.01.03.01.03h.01v.05s-.01.02-.01.02v.02s0,.05,0,.05v.06h.02s0,.03,0,.03v.08l.02.09v.1s.01.14.01.14v.11s0,.14,0,.14v.15s0,.1,0,.1v.08s0,.12,0,.12v.09s-.01.13-.01.13v.12s-.01.05-.01.05l-.02.06v.05s-.03.03-.03.03l-.03.02h-.03s-.03.01-.03.01v.03s-.03,0-.03,0h-.02s-.02,0-.02,0h-.02s-.02,0-.02,0h-.02s-.01-.02-.01-.02v.03s-.02.04-.02.04v-.07h-.03v.02s-.05.04-.05.04h0s0,.02,0,.02v-.02s-.03-.01-.03-.01l-.02.02v.06s-.01.04-.01.04h0v-.02s0-.04,0-.04h0s-.02,0-.02,0h-.02s0,.04,0,.04v.06s-.02.04-.02.04h0s0-.1,0-.1Z"/>
    <path d="M12.04,3.84l-.12-.02h-.05l-.07-.03-.04-.02h-.04s-.07-.05-.07-.05h-.05s-.02-.04-.02-.04h-.03s-.01-.02-.01-.02l-.05-.04-.08-.08-.06-.06h-.03s-.02-.04-.02-.04l-.05-.07-.04-.07-.02-.04-.02-.03-.05-.06-.03-.09-.03-.07v-.04s0-.03,0-.03v-.02s-.02-.02-.02-.02v-.04s-.02-.04-.02-.04v-.07s-.04-.11-.04-.11v-.1s-.02-.05-.02-.05v-.1s-.04-.16-.04-.16l-.02-.12v-.06s0-.17,0-.17v-.06s0-.08,0-.08l.02-.06v-.03s0-.05,0-.05v-.05s0-.02,0-.02l.02-.03v-.03s0-.01,0-.01l.02-.04v-.07l.02-.05v-.04s.03-.06.03-.06v-.05s.04-.07.04-.07l.03-.1.03-.04.04-.06.06-.1.02-.05.03-.02.1-.1.07-.06.07-.06.06-.04.16-.08.11-.03h.02s.05,0,.05,0h.06s.04-.03.04-.03h.03s.03,0,.03,0h.04s.04,0,.04,0h.08s.04,0,.04,0h.04s.07,0,.07,0h.14s.03.01.03.01h.04s.12.04.12.04h.03s.06.02.06.02l.05.02.1.04.09.05.11.07.04.03v.02s0,.03,0,.03l-.02.04-.03.02-.02.02v.04s-.03.01-.03.01h-.02v.05l-.02.03-.03.02v.02s0,0,0,0h-.03s0,.03,0,.03v.03s-.03,0-.03,0v.02s-.04.02-.04.02v.03s-.03,0-.03,0l-.02.05-.02.02v.02s-.04.01-.04.01l-.03.03h-.04s-.06-.04-.06-.04l-.07-.04-.06-.03-.13-.03h-.12s-.03-.01-.03-.01h0s-.02-.01-.02-.01h-.06s-.07.02-.07.02h-.03s-.02.03-.02.03l-.09.03-.1.06-.07.07-.07.14-.05.16-.02.1v.08s-.01.1-.01.1v.09s-.02.05-.02.05v.11s.02.08.02.08v.17s.03.12.03.12l.02.09.02.07.03.1.04.1.04.08.05.1.11.08.08.03.08.04.09.03h.06s.06,0,.06,0h.07s.05-.03.05-.03l.05-.04.04-.05v-.03s0-.1,0-.1v-.16s-.02-.14-.02-.14v-.12s-.05,0-.05,0l-.33.04-.14.02h-.04s0-.01,0-.01h0s0-.02,0-.02l-.02-.03v-.02s0-.02,0-.02v-.03s0-.05,0-.05v-.05s0-.03,0-.03v-.02s0-.03,0-.03v-.04s0-.02,0-.02v-.03s0-.06,0-.06v-.03s0-.1,0-.1v-.02s0-.03,0-.03v-.04s.01-.01.01-.01l.07-.03.13-.03h.16s.17-.01.17-.01h.17s.11,0,.11,0h.15s.03,0,.03,0h.04s.05,0,.05,0h.03s.02,0,.02,0h.03s.03,0,.03,0h.04s.04,0,.04,0v.04s.02.11.02.11v.14s0,.14,0,.14v.19s-.01.14-.01.14v.23s.01.09.01.09v.14l-.02.09v.1s-.02.06-.02.06l-.03.02-.03.08-.03.06h-.01s-.02.05-.02.05l-.04.05-.04.05-.07.08-.11.09-.07.04-.02.02-.05.03-.06.03-.02.03h-.07s-.03,0-.03,0l-.04.02h-.06s-.04,0-.04,0h-.1s-.05,0-.05,0h-.05s-.06,0-.06,0h-.05s-.03.01-.03.01h0s-.03,0-.03,0Z"/>
    <path d="M15.63,3.69v-.03s-.01-.01-.01-.01h-.01s0,.02,0,.02v.02s-.04-.02-.04-.02v-.02s-.01-.04-.01-.04v-.03s0-.03,0-.03v-.03s-.03,0-.03,0v.03s-.01.02-.01.02h0s-.01,0-.01,0v.06s0,.06,0,.06l-.02-.04v-.09s-.01-.07-.01-.07v-.04s0-.05,0-.05h.01s0,.06,0,.06l.04.03h.04s0-.01,0-.01v-.02s-.05,0-.05,0v-.03s0-.1,0-.1v-.08s.01,0,.01,0v.03s.03.04.03.04h-.01v.03h.01s.01-.04.01-.04v-.07s0-.02,0-.02h-.02v.02h-.02v-.06s0-.11,0-.11v-.1s0-.08,0-.08v-.2s0-.12,0-.12v-.09s0-.03,0-.03v-.08h0s-.03-.03-.03-.03l-.02-.03h-.01s-.02.06-.02.06h-.01s0-.03,0-.03v-.03s0-.03,0-.03v-.02s-.03,0-.03,0h-.26s-.27.01-.27.01h-.05s-.05,0-.05,0h-.05s-.11.01-.11.01h-.09s0,.08,0,.08v.13s0,.25,0,.25v.11s0,.09,0,.09v.2s-.02.16-.02.16v.07s-.02.02-.02.02v.02s-.02.04-.02.04v.03s-.01.05-.01.05v.06s-.05.02-.05.02h-.03s-.02.01-.02.01h-.05s-.01,0-.01,0h-.03s-.03,0-.03,0l-.03.02h-.02s0,0,0,0h0s-.03-.01-.03-.01h-.04s-.03.03-.03.03v-.02s-.03,0-.03,0h-.04s-.04-.01-.04-.01h-.03s-.02.03-.02.03h-.02s0-.02,0-.02h-.02s-.03.02-.03.02l-.02-.02-.02-.04v-.04s0-.02,0-.02v-.02s0-.06,0-.06v-.04h-.02v-.02s0-.18,0-.18v-.05s0-.05,0-.05v-.09s0-.22,0-.22v-.18s0-.14,0-.14v-.14s0-.22,0-.22v-.11s0-.08,0-.08v-.18s0-.09,0-.09v-.15s0-.1,0-.1v-.06s0-.21,0-.21v-.07s0-.19,0-.19v-.05s0-.06,0-.06l.02-.12.02-.14v-.06s.08-.01.08-.01h.08s.04,0,.04,0h.04s.02,0,.02,0h.02s.03,0,.03,0h.03s.02,0,.02,0h.01s.04,0,.04,0h.04s0,0,0,0h.02s.02-.02.02-.02h.12s.05,0,.05,0h.05s0,.06,0,.06v.07s0,.04,0,.04v.06s0,.06,0,.06v.05s0,.08,0,.08v.13s0,.16,0,.16v.08s0,.07,0,.07v.16s0,.11,0,.11v.02s.03,0,.03,0h.18s.1,0,.1,0h0s0,.01,0,.01h-.05s-.02,0-.02,0h0s.1,0,.1,0h.28s.21,0,.21,0h.06s0-.04,0-.04v-.05s0-.06,0-.06v-.07s0-.05,0-.05v-.06s0-.06,0-.06v-.11s0-.06,0-.06v-.06s0-.08,0-.08v-.13s0-.07,0-.07v-.11s.01-.11.01-.11l.05-.05h.06s.04,0,.04,0h.08s.04,0,.04,0h.05s.02,0,.02,0h.01s.02,0,.02,0l.02-.02h.03s.05,0,.05,0h.1s.05,0,.05,0h.07s0,.05,0,.05v.06s0,.07,0,.07v.33s0,.11,0,.11v.13s0,.06,0,.06v.05s0,.06,0,.06v.12s0,.11,0,.11v.04s0,.02,0,.02v.03s0,.05,0,.05v.07s0,.12,0,.12v.13s0,.06,0,.06v.04s0,.16,0,.16v.1s.01.14.01.14v.28s0,.22,0,.22v.04s0,.06,0,.06v.08s0,.07,0,.07v.03s0,.04,0,.04v.07s-.01.07-.01.07l-.02.04v.03h-.04s0,.02,0,.02h-.05s-.02.02-.02.02h-.01s-.01-.03-.01-.03h-.02s0,.02,0,.02v.02s-.03,0-.03,0v-.04s-.01-.02-.01-.02h0v.05s-.04,0-.04,0h-.02s0,.01,0,.01h-.01s0-.01,0-.01v.03s-.01.04-.01.04h-.02v-.02s-.04-.01-.04-.01v.03s-.02.03-.02.03h-.01Z"/>
    <path d="M17.26,3.66h-.04s0-.03,0-.03v-.16s0-.06,0-.06v-.05s0-.03,0-.03v-.04s0-.06,0-.06v-.41s0-.12,0-.12v-.29s-.01-.09-.01-.09v-.37s.01-.44.01-.44v-.08s-.01-.13-.01-.13v-.11s-.01-.07-.01-.07h-.06s-.23,0-.23,0l-.23.02h-.13s-.07,0-.07,0l-.04-.02v-.02s0-.05,0-.05v-.05s0-.02,0-.02v-.03s.02-.04.02-.04v-.03s0-.04,0-.04v-.03s0-.03,0-.03v-.11s.01-.04.01-.04v-.04s.02-.11.02-.11v-.03s.06-.04.06-.04h.08s.08,0,.08,0h.21s.06,0,.06,0h.11s.15,0,.15,0h.09s.14,0,.14,0h.1s.09,0,.09,0h.1l.16-.02h.14s.12-.01.12-.01h.1s.06,0,.06,0h.32s.06,0,.06,0h.06s0,.06,0,.06v.06s0,.04,0,.04v.05s0,.03,0,.03v.02s-.02.03-.02.03h-.01s0,.04,0,.04v.04s.01.02.01.02v.03s-.02.02-.02.02v.02s.02.04.02.04l-.03.04v.04s0,.03,0,.03l.02.02-.03.03-.03.04h-.04s-.06,0-.06,0l-.05.02h-.05s-.1,0-.1,0h-.35s-.05.02-.05.02l-.06.03v.24s.01.15.01.15v.49s0,.69,0,.69v.11s-.01.09-.01.09v.09s0,.09,0,.09v.25s0,.14,0,.14v.06s-.03.02-.03.02h-.06s-.05.06-.05.06h-.01v-.04s-.04.01-.04.01h-.01s-.02,0-.02,0l-.02.03h0s0-.02,0-.02h-.03s-.02.02-.02.02h-.03s-.02,0-.02,0h-.02s-.02,0-.02,0h-.02s-.03,0-.03,0h-.03s-.02,0-.02,0h-.01s-.02.01-.02.01v.02s-.12-.02-.12-.02Z"/>
  </g>
  <g>
    <path d="M19.99,2.18h-.02s0-.02,0-.02v-.09s0-.03,0-.03v-.03s0-.02,0-.02v-.02s0-.03,0-.03v-.22s0-.06,0-.06v-.16s0-.05,0-.05v-.2s0-.24,0-.24v-.04s0-.07,0-.07v-.06s0-.04,0-.04h-.03s-.12,0-.12,0h-.12s-.07.01-.07.01h-.04s-.02,0-.02,0h0v-.07s0-.01,0-.01v-.02s0-.02,0-.02h0s0-.03,0-.03v-.02s0-.01,0-.01v-.06s0-.02,0-.02v-.02s.01-.06.01-.06v-.02s.03-.02.03-.02h.05s.05,0,.05,0h.11s.03,0,.03,0h.06s.08,0,.08,0h.05s.08,0,.08,0h.05s.05,0,.05,0h.14s.08-.02.08-.02h.11s.03,0,.03,0h.17s.03,0,.03,0h.03s0,.03,0,.03v.03s0,.02,0,.02v.03s0,.02,0,.02h0s0,.03,0,.03h0s0,.02,0,.02v.02s0,.01,0,.01h0s-.01.03-.01.03h0s.02.03.02.03l-.02.02v.02s0,.02,0,.02h.01s-.02.03-.02.03l-.02.02h-.02s-.03,0-.03,0h-.02s-.03.02-.03.02h-.05s-.19,0-.19,0h-.03s-.03.03-.03.03v.13s0,.08,0,.08v.27s0,.38,0,.38v.06s0,.05,0,.05v.05s0,.05,0,.05v.14s0,.08,0,.08v.03s-.02.01-.02.01h-.03s-.03.03-.03.03h0v-.02s-.02,0-.02,0h0s0,0,0,0v.02s-.01,0-.01,0v-.02h-.02s-.01.01-.01.01h-.02s0,0,0,0h0s-.01,0-.01,0h-.01s-.02,0-.02,0h-.02s-.01,0-.01,0h0s-.01,0-.01,0h0s-.06,0-.06,0Z"/>
    <path d="M21.4,2.28l-.07-.02-.05-.02-.05-.03-.07-.05-.04-.03-.05-.05-.04-.04-.03-.05-.03-.05-.03-.05-.02-.03-.03-.07-.02-.05-.03-.11v-.09s-.01-.09-.01-.09v-.08s0-.04,0-.04v-.03s0-.07,0-.07v-.04s.02-.05.02-.05l.02-.04v-.06s.03-.04.03-.04v-.03s.02-.03.02-.03v-.03s.02-.03.02-.03v-.02s.02-.02.02-.02v-.04s.03-.03.03-.03v-.03s.03-.03.03-.03v-.04s.04-.03.04-.03l.03-.04.04-.05.05-.05.05-.04.04-.03.08-.03.06-.03.06-.02h.05s.05-.02.05-.02h.14s.04,0,.04,0h.05s.05.02.05.02l.05.02.09.05.07.06.06.07.06.09.04.08.03.08v.07s.03.05.03.05v.07s0,.04,0,.04v.06s0,.25,0,.25v.07s-.01.05-.01.05v.04s-.02,0-.02,0v.05s-.03.06-.03.06v.03s0,.02,0,.02v.02s0,.02,0,.02v.04s-.02.07-.02.07l-.03.08-.02.06v.02s-.02.02-.02.02l-.02.03-.02.03v.03s-.03,0-.03,0l-.05.05-.08.05-.05.02-.05.02h-.05s-.04.02-.04.02h-.04s-.02.01-.02.01h-.13s-.01,0-.01,0h-.01s-.06.02-.06.02h-.1ZM21.62,1.89h.04s.01,0,.01,0h.02s0-.02,0-.02h.03s.03-.02.03-.02h.01s.02-.03.02-.03l.02-.03.02-.03v-.05s.03-.04.03-.04v-.02s.01-.02.01-.02v-.05s.02-.02.02-.02h0s0-.03,0-.03v-.02s.02-.02.02-.02v-.02s0-.02,0-.02v-.02s0-.03,0-.03v-.04s0-.04,0-.04v-.03s0-.06,0-.06v-.08s0-.09,0-.09v-.03s0-.01,0-.01v-.02s-.01-.04-.01-.04l-.03-.08-.02-.04-.06-.06-.05-.03h-.06s-.09,0-.09,0h-.04s-.03.01-.03.01h-.01s-.03.02-.03.02l-.03.02-.02.02h0s-.02.03-.02.03l-.03.05-.02.03v.02s-.02.03-.02.03v.03s-.01.02-.01.02v.04s-.02.03-.02.03v.02s-.02.04-.02.04v.06s-.02.09-.02.09v.08s0,.06,0,.06v.06s.01.07.01.07l.02.05v.03s.03.03.03.03l.04.06.08.07.08.05.04.02h0s0,.02,0,.02h0s.05,0,.05,0Z"/>
  </g>
  <g>
    <path d="M19.83,3.76h-.01s0-.01,0-.01v-.06s0-.02,0-.02v-.02s0-.01,0-.01h0s0-.04,0-.04v-.15s0-.04,0-.04v-.1s0-.03,0-.03v-.13s0-.16,0-.16v-.03s0-.05,0-.05v-.04s0-.03,0-.03h-.02s-.08,0-.08,0h-.08s-.05,0-.05,0h-.02s-.01,0-.01,0h0v-.04s0,0,0,0h0s0-.02,0-.02h0s0-.02,0-.02h0s0-.02,0-.02v-.04s0-.01,0-.01h0s0-.05,0-.05h0s.02-.03.02-.03h.03s.03,0,.03,0h.07s.02,0,.02,0h.04s.05,0,.05,0h.03s.05,0,.05,0h.03s.03,0,.03,0h.09s.05-.01.05-.01h.08s.02,0,.02,0h.11s.02,0,.02,0h.02s0,.02,0,.02v.02s0,.01,0,.01v.02s0,.01,0,.01h0s0,.02,0,.02h0s0,.01,0,.01h0s0,.02,0,.02h0s0,.02,0,.02h0s.01.02.01.02h-.01s0,.03,0,.03h0s0,.02,0,.02h-.01s0,.02,0,.02h-.01s-.02,0-.02,0h-.02s-.02.01-.02.01h-.03s-.12,0-.12,0h-.02s-.02.02-.02.02v.08s0,.05,0,.05v.17s0,.25,0,.25v.04s0,.03,0,.03v.03s0,.03,0,.03v.09s0,.05,0,.05v.02s-.01,0-.01,0h-.02s-.02.02-.02.02h-.01s0,0,0,0h0s0,0,0,0h0s0,.02,0,.02h0s0-.01,0-.01h0s0,0,0,0h0s0,0,0,0h0s0,0,0,0h0s-.01,0-.01,0h-.01s0,0,0,0h0s0,0,0,0h0s-.04,0-.04,0Z"/>
    <path d="M21.18,3.77h0s0-.01,0-.01h0s0,0,0,0h0s-.01,0-.01,0h0s0-.02,0-.02h0s0-.02,0-.02h0s0,0,0,0h0s0,.02,0,.02h0s0,0,0,0v.02s0,.02,0,.02h0s0-.05,0-.05v-.02s0-.01,0-.01v-.02s0,0,0,0v.02s.02.01.02.01h.01s0,0,0,0h0s-.02,0-.02,0h0s0-.05,0-.05v-.03s0,0,0,0h0s0,.02,0,.02h0s0,.01,0,.01v-.02s0-.03,0-.03h0s0,0,0,0h0s0,0,0,0v-.02s0-.04,0-.04v-.03s0-.03,0-.03v-.07s0-.04,0-.04v-.03s0-.01,0-.01v-.03h0s0-.01,0-.01h0s0,0,0,0v.02s-.01,0-.01,0h0s0-.02,0-.02h0s0-.02,0-.02h0s-.06,0-.06,0h-.03s-.1,0-.1,0h-.02s-.02,0-.02,0h-.02s-.04,0-.04,0h-.03s0,.03,0,.03v.05s0,.09,0,.09v.04s0,.03,0,.03v.07s0,.06,0,.06v.03s0,0,0,0h0s0,.02,0,.02h0v.05s-.02,0-.02,0h-.01s0,0,0,0h-.02s0,0,0,0h-.01s0,0,0,0h0s0,0,0,0h0s0,0,0,0h-.01s-.01,0-.01,0h0s0,0,0,0h0s-.01,0-.01,0h-.02s-.01,0-.01,0h0s0,0,0,0h0s0,0,0,0h0s0,0,0,0h0s0-.03,0-.03h0s0-.02,0-.02v-.02s0-.01,0-.01h0v-.09s0-.02,0-.02v-.03s0-.08,0-.08v-.06s0-.05,0-.05v-.05s0-.08,0-.08v-.04s0-.03,0-.03v-.06s0-.03,0-.03v-.05s0-.03,0-.03v-.02s0-.07,0-.07v-.02s0-.07,0-.07v-.02s0-.02,0-.02v-.04s.01-.05.01-.05v-.02s.03,0,.03,0h.03s.01,0,.01,0h.01s0,0,0,0h0s0,0,0,0h.01s0,0,0,0h0s.01,0,.01,0h.01s0,0,0,0h0s0,0,0,0h.04s.02,0,.02,0h.02s0,.02,0,.02v.02s0,.01,0,.01v.02s0,.02,0,.02v.02s0,.03,0,.03v.05s0,.06,0,.06v.03s0,.02,0,.02v.06s0,.04,0,.04h0s0,.01,0,.01h.06s.04,0,.04,0h0s0,0,0,0h-.02s0,0,0,0h0s.04,0,.04,0h.1s.08,0,.08,0h.02s0-.01,0-.01v-.02s0-.02,0-.02h0s0-.03,0-.03v-.02s0-.02,0-.02v-.02s0-.02,0-.02v-.02s0-.02,0-.02v-.02s0-.03,0-.03v-.05s0-.02,0-.02v-.04s0-.04,0-.04l.02-.02h.02s.02,0,.02,0h.03s.01,0,.01,0h.02s0,0,0,0h0s0,0,0,0h0s.01,0,.01,0h.02s.02,0,.02,0h.02s.02,0,.02,0h.02s0,.02,0,.02v.02s0,.02,0,.02v.12s0,.04,0,.04v.05s0,.02,0,.02v.02s0,.02,0,.02v.04s0,.04,0,.04h0v.02h0s0,.03,0,.03v.03s0,.04,0,.04v.03h0v.03h0v.11s0,.05,0,.05v.1s0,.08,0,.08h0s0,.04,0,.04v.03s0,.02,0,.02h0s0,.02,0,.02v.02s0,.02,0,.02h0s0,.02,0,.02h0s0,0,0,0h-.02s0,0,0,0h0s0-.01,0-.01h0s0,0,0,0h0s0,0,0,0h0s0-.02,0-.02h0v.02s-.01,0-.01,0h0s0,0,0,0h0s0,0,0,0h0s0,.03,0,.03h-.01s0-.01,0-.01h0s0,.02,0,.02h0Z"/>
    <path d="M21.69,3.78h-.01s-.02,0-.02,0h-.03s-.02,0-.02,0h0s-.02,0-.02,0h-.03s-.01,0-.01,0h-.01s0,0,0,0h0s0-.01,0-.01v-.02s0-.02,0-.02v-.03s0-.04,0-.04v-.07s0-.02,0-.02h0v-.08s0-.05,0-.05v-.06s0-.1,0-.1v-.04s0-.05,0-.05v-.03s0-.05,0-.05v-.06s0-.06,0-.06v-.06s0-.03,0-.03v-.06s0-.03,0-.03v-.03s0-.06,0-.06v-.03s0-.04,0-.04h.01s0,0,0,0h0s.01,0,.01,0h.02s.02,0,.02,0h0s.03,0,.03,0h0s0,0,0,0h.02s.02,0,.02,0h0s.02,0,.02,0h.03s.03,0,.03,0h.01s.02,0,.02,0h.13s.02,0,.02,0h.02s.02,0,.02,0h.03s.08,0,.08,0h0s.01,0,.01,0h.06s.02,0,.02,0h0s0,0,0,0h0s0,.03,0,.03h.01s0,.05,0,.05v.02s0,.01,0,.01h0s0,.04,0,.04h0s0,.01,0,.01h-.01s-.01.03-.01.03l-.02.02h-.02s-.01.01-.01.01h0s0,0,0,0h0s-.03,0-.03,0h-.02s0,0,0,0h-.24s-.06,0-.06,0h0v.17s0,.02,0,.02h0s.06,0,.06,0h.15s.02,0,.02,0h.01s.01,0,.01,0h.03s.01,0,.01,0h.01s0,0,0,0h.01l.02.02h0s0,.03,0,.03h.01s0,.03,0,.03h0s0,.02,0,.02v.02s0,.01,0,.01h0s0,.02,0,.02h0s0,.02,0,.02h0s0,.01,0,.01h0s0,0,0,0h-.01s-.01.03-.01.03h0s-.02.02-.02.02h-.01s-.03.01-.03.01h-.07s-.06,0-.06,0h-.05s-.07,0-.07,0h-.04s-.01.01-.01.01h0s0,.04,0,.04v.06s0,.04,0,.04v.03s0,.02,0,.02h.03s.04,0,.04,0h.02s.05,0,.05,0h.02s.04,0,.04,0h.04s.12,0,.12,0h.02s.03,0,.03,0h.03s.02,0,.02,0h0s0,.02,0,.02h0s.01.02.01.02h0s0,.02,0,.02h0s0,.02,0,.02h0s0,0,0,0h0s0,.01,0,.01h0s0,.03,0,.03v.02s-.01.01-.01.01h.01s0,.01,0,.01h0s-.01,0-.01,0h-.01s0,.02,0,.02h0s0,.01,0,.01h0s-.01.01-.01.01h0s-.03,0-.03,0h-.03s-.1,0-.1,0h-.02s-.01,0-.01,0h-.02s-.09,0-.09,0h-.05s-.07,0-.07,0h-.03s0,0,0,0h0Z"/>
  </g>
  <g>
    <path d="M23.84,3.7l-.08-.02-.06-.03h-.06s-.06-.03-.06-.03l-.09-.04-.06-.03-.04-.03-.06-.04-.04-.03-.04-.02-.03-.03-.04-.04-.04-.04v-.02s0-.02,0-.02v-.04s.04-.02.04-.02l.02-.02v-.02h0s.03-.05.03-.05h.01s0-.03,0-.03l.02-.02v-.02s.01-.01.01-.01l.04-.03.02-.05h.02s.01-.05.01-.05l.02-.04h.02s0-.04,0-.04h0s.01-.04.01-.04h.04s.02.01.02.01h0v-.02s.02-.01.02-.01l.09.06.11.08.09.05h.08s.09.02.09.02l.12-.05.07-.04.06-.1.05-.15v-.09s-.02-.04-.02-.04l-.02-.05-.02-.05-.02-.02-.02-.03-.03-.02-.02-.02-.03-.04-.03-.04-.04-.03-.02-.03-.03-.02-.14-.12-.09-.09-.06-.07-.13-.15-.09-.16-.03-.07-.03-.11v-.13s0-.17,0-.17l.02-.07.06-.11.04-.06.03-.05.02-.03.06-.07.06-.06.06-.05.07-.05.09-.06.12-.04.06-.03.1-.03.19-.02h.21s.13.02.13.02h.04s.03.02.03.02v.02s0,0,0,0h0s.01.03.01.03h.02s0,.04,0,.04v.02s0,.06,0,.06h-.02,0s0,.04,0,.04v.06s.01.01.01.01h-.02s0,.02,0,.02l.03.03h-.01s.01.03.01.03v.02s0,.02,0,.02h-.02v.02h.01s.03.03.03.03h.01v.02h-.01s-.02.01-.02.01v.04s0,.04,0,.04v.02s-.01.05-.01.05v.06s-.03.02-.03.02l-.03-.02-.11-.03h-.08s-.17-.01-.17-.01l-.11.04-.03.03-.04.03-.04.04-.02.1.05.09.09.09.12.12.08.07.07.08.13.13.13.15.11.15.04.08.06.17.03.16v.11s0,.11,0,.11l-.05.17-.04.09-.09.16-.08.09-.05.04-.03.04-.13.11-.09.06-.09.05-.11.04-.09.03h-.07s-.16.03-.16.03h-.13Z"/>
    <path d="M27.28,3.64v-.03s-.01-.01-.01-.01h0s0,.02,0,.02v.02s-.04-.02-.04-.02v-.02s0-.04,0-.04v-.03s0-.03,0-.03v-.03s-.03,0-.03,0v.03s-.01.02-.01.02h0s-.01,0-.01,0v.06s0,.05,0,.05l-.02-.04v-.09s0-.06,0-.06v-.04s0-.05,0-.05h0s0,.05,0,.05l.04.03h.04s0-.01,0-.01v-.02s-.05,0-.05,0v-.03s0-.1,0-.1v-.08s.01,0,.01,0v.03s.03.04.03.04h-.01v.03h.01s.01-.04.01-.04v-.07s0-.02,0-.02h-.02v.02h-.02v-.05s0-.1,0-.1v-.09s0-.08,0-.08v-.19s0-.11,0-.11v-.09s0-.03,0-.03v-.08h0s-.03-.03-.03-.03l-.02-.03h0s-.02.06-.02.06h-.01s0-.03,0-.03v-.03s0-.03,0-.03v-.02s-.03,0-.03,0h-.26s-.26.01-.26.01h-.05s-.04,0-.04,0h-.05s-.1.01-.1.01h-.09s0,.08,0,.08v.13s0,.24,0,.24v.1s0,.09,0,.09v.19s-.02.16-.02.16v.07s-.02.02-.02.02v.02s-.02.04-.02.04v.03s-.01.05-.01.05v.06s-.05.02-.05.02h-.03s-.02.01-.02.01h-.05s-.01,0-.01,0h-.03s-.03,0-.03,0l-.03.02h-.02s0,0,0,0h0s-.03,0-.03,0h-.04s-.03.03-.03.03v-.02s-.03,0-.03,0h-.04s-.04,0-.04,0h-.03s-.02.03-.02.03h-.02s0-.02,0-.02h-.02s-.03.02-.03.02l-.02-.02-.02-.04v-.04s0-.02,0-.02v-.02s0-.06,0-.06v-.04h-.02v-.02s0-.17,0-.17v-.05s0-.05,0-.05v-.09s0-.22,0-.22v-.17s0-.14,0-.14v-.14s0-.22,0-.22v-.11s0-.08,0-.08v-.17s0-.09,0-.09v-.15s0-.09,0-.09v-.06s0-.2,0-.2v-.07s0-.19,0-.19v-.05s0-.06,0-.06l.02-.12.02-.14v-.06s.08,0,.08,0h.08s.04,0,.04,0h.04s.02,0,.02,0h.02s.03,0,.03,0h.03s.02,0,.02,0h.01s.04,0,.04,0h.04s0,0,0,0h.02s.02-.02.02-.02h.12s.04,0,.04,0h.05s0,.06,0,.06v.07s0,.04,0,.04v.06s0,.06,0,.06v.05s0,.08,0,.08v.13s0,.15,0,.15v.08s0,.07,0,.07v.15s0,.1,0,.1v.02s.03,0,.03,0h.17s.1,0,.1,0h0s0,.01,0,.01h-.05s-.02,0-.02,0h0s.1,0,.1,0h.27s.21,0,.21,0h.05s0-.04,0-.04v-.04s0-.06,0-.06v-.07s0-.05,0-.05v-.05s0-.05,0-.05v-.1s0-.06,0-.06v-.06s0-.08,0-.08v-.13s0-.07,0-.07v-.11s.01-.11.01-.11l.05-.05h.06s.04,0,.04,0h.08s.04,0,.04,0h.04s.02,0,.02,0h.01s.02,0,.02,0l.02-.02h.03s.05,0,.05,0h.09s.04,0,.04,0h.06s0,.05,0,.05v.05s0,.06,0,.06v.32s0,.11,0,.11v.13s0,.05,0,.05v.05s0,.06,0,.06v.11s0,.11,0,.11v.04s0,.02,0,.02v.03s0,.04,0,.04v.07s0,.12,0,.12v.13s0,.05,0,.05v.04s0,.16,0,.16v.09s.01.14.01.14v.27s0,.22,0,.22v.04s0,.06,0,.06v.08s0,.07,0,.07v.03s0,.04,0,.04v.07s-.01.07-.01.07l-.02.04v.03h-.04s0,.02,0,.02h-.05s-.02.02-.02.02h-.01s-.01-.03-.01-.03h-.02s0,.02,0,.02v.02s-.03,0-.03,0v-.04s-.01-.02-.01-.02h0v.05s-.04,0-.04,0h-.02s0,.01,0,.01h-.01s0-.01,0-.01v.03s-.01.04-.01.04h-.02v-.02s-.04-.01-.04-.01v.03s-.02.03-.02.03h-.01Z"/>
    <path d="M29.15,3.78l-.12-.04-.09-.04-.09-.05-.12-.08-.08-.06-.09-.08-.07-.08-.05-.08-.06-.09-.05-.09-.03-.06-.06-.12-.03-.09-.05-.19-.02-.17v-.31s.01-.08.01-.08v-.06s.02-.13.02-.13v-.07s.03-.09.03-.09l.03-.08.02-.11.02-.08.03-.05v-.04s.02-.05.02-.05l.02-.05v-.03s.03-.04.03-.04l.02-.07.03-.05.02-.05.04-.05.02-.07.05-.05.05-.07.08-.1.09-.09.1-.07.07-.05.13-.06.11-.05.12-.03.09-.02.08-.02h.26s.07,0,.07,0h.09s.09.04.09.04l.09.04.16.09.13.11.11.12.11.16.07.15.05.15.03.12.02.09v.12s.02.08.02.08v.1s0,.46,0,.46v.13s-.02.1-.02.1v.07s-.03.01-.03.01l-.02.09-.02.11v.04s-.02.04-.02.04v.04s0,.03,0,.03l-.02.08-.02.12-.04.14-.04.12v.04s-.03.03-.03.03l-.03.05-.04.05-.02.04-.04.02-.09.09-.14.1-.08.04-.1.04-.1.02h-.08s-.08.03-.08.03h-.03s-.21,0-.21,0h-.02s-.02,0-.02,0h-.02s-.1.03-.1.03h-.17ZM29.55,3.08h.07s.03-.01.03-.01h.03s.02-.03.02-.03l.05-.02.05-.02.02-.02.03-.04.04-.05.04-.05.03-.09.03-.07v-.04s.02-.03.02-.03v-.05l.02-.05.02-.03v-.05s0-.03,0-.03l.02-.03v-.04s0-.04,0-.04v-.04s0-.06,0-.06v-.08s.02-.06.02-.06v-.04s0-.1,0-.1v-.15s0-.16,0-.16v-.05s0-.02,0-.02v-.04s-.03-.08-.03-.08l-.05-.13-.05-.07-.1-.11-.09-.05-.1-.03-.17.02-.07.02h-.07s-.04.03-.04.03l-.06.04-.04.03v.03s-.05.03-.05.03l-.06.09-.04.06v.04s-.04.05-.04.05v.04s-.03.04-.03.04l-.02.08-.02.06v.04s-.03.06-.03.06v.11s-.03.16-.03.16v.13s0,.11,0,.11v.11s.03.12.03.12l.03.09v.05s.04.06.04.06l.07.1.14.13.14.09.07.03h.02s0,.03,0,.03h.02s.09,0,.09,0Z"/>
    <path d="M31.36,3.7h-.02s-.01,0-.01,0h-.01s0,.01,0,.01v-.02s-.03-.02-.03-.02l-.02-.03v-.04s-.02-.05-.02-.05v-.08s0-.03,0-.03v-.04s0-.1,0-.1v-.12s-.03-.05-.03-.05v-.03s.02-.03.02-.03v-.08s0-.07,0-.07h0s0-.01,0-.01h0s0,.02,0,.02h-.01s0-.08,0-.08v-.13s0-.09,0-.09v-.05s0-.04,0-.04v-.03s0-.05,0-.05v-.04s0-.05,0-.05v-.1s0-.04,0-.04v-.04s0-.04,0-.04v-.04s0-.03,0-.03v-.04s0-.03,0-.03v-.07s0-.06,0-.06v-.04s0-.05,0-.05v-.04s.01-.04.01-.04v-.02s0-.02,0-.02v-.03s.01-.05.01-.05v-.06s0-.08,0-.08v-.1s0-.02,0-.02v-.16s0-.14,0-.14v-.22s.01-.2.01-.2v-.09s0-.03,0-.03l.03-.02h.02s.04,0,.04,0h.04s.02,0,.02,0l.02-.02h.02s.02,0,.02,0l.02.02h.01s.01-.03.01-.03h.03s.02,0,.02,0h.03s.05,0,.05,0h.03s.04,0,.04,0h.05s.05,0,.05,0h.03s.02,0,.02,0h.02s.02,0,.02,0h.38s.18.02.18.02l.08.02.13.04.09.05.15.12.12.13.05.09.08.19.04.21v.19s0,.09,0,.09v.12s-.05.1-.05.1l-.03.07-.07.12-.08.12-.08.09-.11.09-.17.11-.14.04-.13.03-.21.02h-.16s-.04,0-.04,0h-.02s0,.05,0,.05v.07s0,.04,0,.04v.04l-.02.04v.03s.02.02.02.02v.03s-.02.05-.02.05v.14s0,.11,0,.11v.1s-.01.11-.01.11v.12s-.04.04-.04.04l-.02.02h0s-.02,0-.02,0l-.02.02-.02.03-.03.03h-.02s-.02,0-.02,0h0s0,0,0,0v-.02h0s0-.02,0-.02h0s-.02.02-.02.02v.03s-.01.02-.01.02h-.02s-.02-.01-.02-.01v-.02s-.01,0-.01,0h0s-.01.03-.01.03h-.02s-.01.04-.01.04v.02h-.02v-.03h-.02l-.02.03h-.04s-.05-.03-.05-.03ZM32.01,1.87l.17-.03h.07s.09-.04.09-.04l.07-.05.03-.02.05-.05.04-.11v-.14l-.06-.16-.11-.07-.05-.02h-.04s-.04,0-.04,0h-.24s0,.09,0,.09v.09s0,.04,0,.04v.05s-.01.13-.01.13v.12s0,.06,0,.06v.07s0,.05,0,.05h.01s.06,0,.06,0Z"/>
  </g>
  <path d="M35.44,2.01c-.15-.16-.16-.17-.3-.32-.15-.16-.16-.16-.31-.32-.16-.15-.16-.16-.32-.31-.16-.16-.18-.13-.33-.29-.06-.06-.13-.11-.19-.17-.03-.03-.06-.06-.09-.09,0-.01-.02-.05-.04-.05,0,0,0,0-.01,0,0,0,0,0,0,0,0,0,0,0,0,0h0s0,0,0,0c0,0,0,0-.01,0,0,0-.02,0-.02.01-.03.03.02.09.01.12,0,.05-.02.1-.02.16,0,0,0,.01,0,.02,0,.04,0,.08,0,.14,0,.22-.02.22-.02.44,0,.22,0,.22,0,.44,0,.22,0,.22,0,.44,0,.22,0,.22,0,.44,0,.22,0,.22,0,.44,0,.22,0,.22,0,.44,0,.17,0,.27,0,.33.08-.08.16-.18.26-.27.16-.16.18-.13.34-.29s.14-.17.3-.33c.15-.16.16-.16.31-.32.15-.16.16-.16.31-.32.13-.13.17-.17.27-.26-.02-.02-.06-.06-.12-.12Z"/>
</svg>