<?xml version="1.0" encoding="UTF-8"?>
<svg id="Layer_1" data-name="Layer 1" xmlns="http://www.w3.org/2000/svg" viewBox="0 0 26.87 5.5">
  <g>
    <path d="M.74,2.05h-.04s-.03-.02-.03-.02h-.03s-.03-.01-.03-.01l-.04-.02h-.03s-.02-.03-.02-.03l-.03-.02h-.02s-.02-.02-.02-.02h-.01s-.02-.03-.02-.03l-.02-.02h0s0-.02,0-.02H.41s0-.02,0-.02h.01s0-.02,0-.02H.44s0-.02,0-.02h.01s0-.02,0-.02h0s0-.02,0-.02h0s0-.01,0-.01h.02s0-.04,0-.04h.01s0-.02,0-.02v-.02s.02,0,.02,0h0s0-.02,0-.02h0s.02-.01.02-.01h.01s0,0,0,0h0s.01-.01.01-.01l.04.03.05.04.04.02h.04s.04,0,.04,0l.05-.02.03-.02.03-.05.02-.07v-.04s-.01-.02-.01-.02v-.02s-.02-.02-.02-.02h0s-.01-.02-.01-.02h-.01s-.01-.02-.01-.02v-.02s-.03-.02-.03-.02h-.02s-.01-.03-.01-.03h-.01s-.06-.06-.06-.06l-.04-.04-.03-.03-.06-.07-.04-.07v-.03s-.02-.05-.02-.05v-.06s0-.08,0-.08v-.03s.04-.05.04-.05l.02-.03v-.02s.02-.01.02-.01l.03-.03.03-.03.03-.02.03-.02.04-.03.05-.02h.03s.05-.03.05-.03h.09s.1,0,.1,0h.06s.02.01.02.01h.01s0,.01,0,.01h0s0,0,0,0h0s.01.01.01.01v.02s0,.01,0,.01v.03s0,0,0,0h0s0,.02,0,.02v.02h0v.02h0s0,.01,0,.01h.01s0,.02,0,.02h0s0,.02,0,.02h0s-.01.01-.01.01h0s0,.01,0,.01h.01s0,.01,0,.01h0s0,0,0,0h-.01s0,.02,0,.02v.02h0v.06s-.01,0-.01,0h-.01s-.05-.02-.05-.02h-.04s-.08,0-.08,0l-.05.02h-.01s-.02.02-.02.02l-.02.02v.05s.02.04.02.04l.04.04.06.05.04.03.03.04.06.06.06.07.05.07.02.04.03.08v.07s.02.05.02.05v.05s-.03.08-.03.08l-.02.04-.04.08-.04.04-.02.02v.02s-.07.05-.07.05l-.04.03-.04.02-.05.02h-.04s-.03.02-.03.02h-.08s-.06,0-.06,0Z"/>
    <path d="M1.73,2.01h-.02s0-.01,0-.01v-.07s0-.02,0-.02v-.02s0-.01,0-.01v-.02s0-.03,0-.03v-.18s0-.05,0-.05v-.13s0-.04,0-.04v-.17s0-.2,0-.2v-.04s0-.06,0-.06v-.05s0-.03,0-.03h-.02s-.1,0-.1,0h-.1s-.06.01-.06.01h-.03s-.02,0-.02,0h0v-.06s0-.01,0-.01h0s.01-.03.01-.03h0s0-.03,0-.03h0s0-.03,0-.03v-.05s0-.02,0-.02v-.02s.01-.05.01-.05h0s.02-.03.02-.03h.04s.04,0,.04,0h.09s.03,0,.03,0h.05s.07,0,.07,0h.04s.06,0,.06,0h.04s.04,0,.04,0h.11s.06-.01.06-.01h.1s.02,0,.02,0h.14s.03,0,.03,0h.03s0,.03,0,.03v.02s0,.02,0,.02v.02s0,.01,0,.01h0s0,.02,0,.02h0s0,.02,0,.02v.02s0,0,0,0h0s-.01.02-.01.02h0s.01.03.01.03v.02s-.02.02-.02.02h0s0,.02,0,.02h-.01s-.01.03-.01.03h-.02s-.03,0-.03,0h-.02s-.02.01-.02.01h-.04s-.16,0-.16,0h-.02s-.03.02-.03.02v.11s0,.07,0,.07v.22s0,.31,0,.31v.05s0,.04,0,.04v.04s0,.04,0,.04v.11s0,.06,0,.06v.03s-.01,0-.01,0h-.03s-.02.02-.02.02h0v-.02s-.02,0-.02,0h0s0,0,0,0h0s0,.02,0,.02h0s0-.01,0-.01h0s-.01.01-.01.01h-.01s0,0,0,0h0s0,0,0,0h-.01s-.01,0-.01,0h-.01s-.01,0-.01,0h0s-.01,0-.01,0h0s-.05,0-.05,0Z"/>
    <path d="M3.29,2.02l-.03-.05-.05-.07-.03-.04-.05-.08-.05-.07-.04-.05-.02-.02-.03-.03-.09-.11-.02-.02h0v.08s0,.04,0,.04v.07s0,.05,0,.05v.02s0,.05,0,.05v.09s0,.05,0,.05v.03s-.04,0-.04,0h-.02s-.02,0-.02,0h0s-.02,0-.02,0h-.02s-.01,0-.01,0h-.01s-.01,0-.01,0h-.02s-.01,0-.01,0h-.01s0,0,0,0h0s-.03,0-.03,0h-.02s-.02,0-.02,0h0s0-.01,0-.01h0s0-.06,0-.06v-.12s0-.04,0-.04v-.08s0-.04,0-.04v-.05s0-.03,0-.03v-.03s0-.05,0-.05v-.04s0-.05,0-.05v-.05s0-.03,0-.03v-.03s0-.07,0-.07v-.05s0-.04,0-.04v-.04s0-.05,0-.05v-.03s0-.04,0-.04v-.04s0-.09,0-.09v-.02s0-.03,0-.03v-.03s0-.02,0-.02v-.16s0-.04,0-.04v-.02s0,0,0,0h0s.02,0,.02,0h.04s0,0,0,0h0s.01,0,.01,0h.02s.01,0,.01,0h.02s.01,0,.01,0h.07s.04,0,.04,0h.01s.02,0,.02,0h.01s.03,0,.03,0h.03s.02,0,.02,0h.02s.02,0,.02,0h.07s.02,0,.02,0h.03s.02.01.02.01h.01s.01.01.01.01l.05.02.05.03.03.02.02.03.02.04.02.06.02.05v.03s.02.02.02.02v.03s.02.05.02.05v.02s0,.03,0,.03v.03s0,0,0,0v.02s0,.03,0,.03h0s0,.05,0,.05l-.02.05v.02s-.05.05-.05.05h0s-.03.04-.03.04l-.02.03h-.02s-.03.04-.03.04l-.02.02v.02s.02.02.02.02l.03.03.05.06.05.07.04.05.03.04.05.07.04.05.02.04.02.03h-.01s-.02.03-.02.03h-.01s0,0,0,0h0s0,.02,0,.02h-.02v.02s-.02,0-.02,0h0s-.01.01-.01.01h-.01s0,.01,0,.01h0s-.01,0-.01,0h0s0,.01,0,.01h-.01s-.01.02-.01.02h0s0,0,0,0h-.01s-.01.01-.01.01h-.02s-.02-.02-.02-.02ZM2.94,1.18h.04s.05,0,.05,0h.01s.03-.03.03-.03l.03-.02.02-.02v-.03s.02-.04.02-.04v-.06s-.03-.06-.03-.06l-.02-.02h-.02s-.04-.02-.04-.02h-.04s-.04,0-.04,0h-.05s0,.03,0,.03v.17s0,.07,0,.07v.04h0s.05,0,.05,0Z"/>
    <path d="M3.81,2h-.02s-.01,0-.01,0h0s0,0,0,0h-.01s-.02,0-.02,0h-.02s-.01,0-.01,0h0s0,0,0,0h-.01s-.01,0-.01,0h-.01s-.02,0-.02,0h-.01s0,0,0,0h0s0,0,0,0h-.01s0-.02,0-.02v-.04s.02-.06.02-.06v-.04s.02-.07.02-.07v-.07s.02-.04.02-.04v-.05s.02-.06.02-.06v-.07s.03-.08.03-.08v-.05s.03-.09.03-.09v-.05s.03-.09.03-.09v-.06s.02-.05.02-.05l.02-.07.02-.07.02-.07v-.06s.04-.06.04-.06v-.04s.02-.04.02-.04v-.03s.01-.01.01-.01h0s0,0,0,0h.02s.02.01.02.01h.01s.02,0,.02,0h.01s0,0,0,0h.02s.02,0,.02,0h.02s.02,0,.02,0h0s0,0,0,0h0s.02,0,.02,0h.01s.02,0,.02,0h.03s.02,0,.02,0h0s.01,0,.01,0h0s0,0,0,0h0s.02.04.02.04v.04s.03.05.03.05l.02.06.02.05v.04s.03.06.03.06v.04s.02.02.02.02v.05s.03.05.03.05v.04s.02.04.02.04v.04s.04.12.04.12v.04s.03.08.03.08v.06s.02.02.02.02v.03s.02.04.02.04l.02.11v.03s0,.03,0,.03v.05s.02.04.02.04v.03s0,.03,0,.03v.02h-.01s-.01.02-.01.02h-.02s0,.02,0,.02h-.03s-.01.02-.01.02h0s-.02.01-.02.01h0s0,0,0,0h0s0,.01,0,.01h-.01s-.01,0-.01,0h-.01s-.02.02-.02.02h0s0-.01,0-.01h-.03s-.03.02-.03.02h-.01s-.01-.07-.01-.07l-.02-.06-.02-.07-.02-.06h-.03s-.04,0-.04,0h-.04s-.15,0-.15,0h-.03s0,.02,0,.02v.02s-.01.02-.01.02v.05s-.02.04-.02.04v.04s-.02.05-.02.05h-.01s-.01.01-.01.01h-.01s-.02.01-.02.01h0s-.01,0-.01,0h-.01s0,0,0,0h0s0,0,0,0ZM4.19,1.43v-.04s-.02-.06-.02-.06v-.03s-.01-.02-.01-.02v-.04s-.02-.04-.02-.04v-.04s-.02-.04-.02-.04v-.02s-.01,0-.01,0h0s0,.05,0,.05v.05s-.02.05-.02.05v.08s-.02.04-.02.04v.05s.01,0,.01,0h.08s.03,0,.03,0h.02Z"/>
    <path d="M4.82,2.06v-.03s-.03,0-.03,0h-.01s-.01-.01-.01-.01v-.02s-.01-.03-.01-.03h-.01s0-.04,0-.04v-.02h0v-.04s0-.03,0-.03h0s0-.02,0-.02v-.08s0,0,0,0v-.02s0-.03,0-.03v-.02s0-.02,0-.02v-.04s0-.16,0-.16v-.03s0-.03,0-.03v-.07s0-.02,0-.02v-.02s0-.05,0-.05v-.04s.01-.11.01-.11v-.04s0-.05,0-.05v-.06s0-.05,0-.05v-.07s0-.08,0-.08v-.1s0-.06,0-.06v-.02s.02,0,.02,0h.02s.02,0,.02,0h.11s.01,0,.01,0h.01s.01,0,.01,0h.01s.01,0,.01,0h0s.02,0,.02,0h.02s.01,0,.01,0h.01s.01,0,.01,0v.04s0,.04,0,.04v.07s0,.03,0,.03v.03s0,.03,0,.03v.03s0,.03,0,.03h0s0,.02,0,.02h0s0,0,0,0h0s-.01.02-.01.02h0s0,.01,0,.01h0s0,.03,0,.03v.09s0,.01,0,.01h0s0,.01,0,.01v.02h0s0,.01,0,.01h0v.02h0s0,.01,0,.01h0s0,.03,0,.03h0s0,.02,0,.02h0s0,.02,0,.02h0s0,.02,0,.02v.02s0,.02,0,.02h0s0,.01,0,.01v.07s.01.04.01.04v.06s0,.05,0,.05v.13s0,.04,0,.04v.04s0,.05,0,.05v.04s0,.06,0,.06v.05s0,.02,0,.02v.03s-.01.02-.01.02h-.01s-.01.02-.01.02h-.01s-.01,0-.01,0h0s0,.01,0,.01h-.01s-.01,0-.01,0h-.01s-.01,0-.01,0h0s0,0,0,0h0s0,.03,0,.03h0s0-.03,0-.03h-.01s-.02.02-.02.02h0s0,0,0,0h0s-.01-.01-.01-.01h0s0,.03,0,.03v.02h-.01v-.03h0s0,0,0,0h-.01s0,.02,0,.02v.03s0,.02,0,.02h0s0-.05,0-.05Z"/>
    <path d="M5.81,2.09h-.06s-.02-.01-.02-.01h-.03s-.02-.02-.02-.02h-.02s-.03-.02-.03-.02h-.02s-.01-.02-.01-.02h-.01s0,0,0,0l-.02-.02-.04-.04-.02-.03h-.01s0-.02,0-.02l-.02-.03-.02-.03v-.02s-.02-.01-.02-.01l-.02-.02v-.04s-.03-.03-.03-.03v-.02s0-.01,0-.01h0s0-.02,0-.02v-.02s-.01-.02-.01-.02v-.03s-.02-.05-.02-.05v-.04s-.01-.02-.01-.02v-.04s-.02-.07-.02-.07v-.05s0-.02,0-.02v-.1s0-.04,0-.04v-.02s.01-.01.01-.01v-.02s0-.02,0-.02h0s0-.02,0-.02h0s0-.02,0-.02v-.02s0-.03,0-.03v-.02s.01-.02.01-.02v-.03s.01-.02.01-.02v-.03s.02-.05.02-.05v-.02s.03-.03.03-.03l.02-.05v-.02s.02,0,.02,0l.05-.05.03-.02.03-.03.03-.02.07-.04h.05s0-.01,0-.01h.02s.03-.01.03-.01h.02s.01,0,.01,0h.01s.02,0,.02,0h.02s.02,0,.02,0h.01s.02,0,.02,0h.02s.03,0,.03,0h.06s.01,0,.01,0h.02s.05.02.05.02h.01s.03,0,.03,0h.02s.04.03.04.03l.04.02.05.03h.02s0,.02,0,.02h0s0,.03,0,.03h-.01s0,.02,0,.02v.02s-.01,0-.01,0h0v.02h0s-.01.02-.01.02h0s0,.01,0,.01h-.01s0,.01,0,.01h0s-.02.01-.02.01h0s-.01.02-.01.02h0s-.01.02-.01.02v.02s-.02,0-.02,0h0s-.01.01-.01.01h-.01s-.01.01-.01.01h0s-.03-.02-.03-.02l-.03-.02h-.03s-.06-.02-.06-.02h-.05s-.01,0-.01,0h0s-.01,0-.01,0h-.03s-.03,0-.03,0h-.01s0,.01,0,.01h-.04s-.04.04-.04.04l-.03.03-.03.06-.02.07v.04s-.01.04-.01.04v.04s0,.04,0,.04v.02s0,.05,0,.05v.04s0,.01,0,.01v.06s.01.05.01.05v.04s.02.03.02.03v.04s.03.05.03.05l.02.04.02.05.05.04h.04s.04.03.04.03h.04s.03.01.03.01h.03s.03,0,.03,0h.02s.02-.02.02-.02l.02-.02h0s0-.06,0-.06v-.07s-.01-.06-.01-.06v-.04h0s-.02-.02-.02-.02l-.15.02h-.06s-.02,0-.02,0h0s0,0,0,0h0s0-.02,0-.02h0v-.02h0s0-.04,0-.04v-.02s0-.01,0-.01h0s0-.02,0-.02v-.02s0,0,0,0h0v-.04h0s0-.06,0-.06h0s0-.02,0-.02v-.02s0,0,0,0h.03s.06-.02.06-.02h.07s.07,0,.07,0h.07s.05,0,.05,0h.07s.01,0,.01,0h.02s.02,0,.02,0h.01s0,0,0,0h.01s.01,0,.01,0h.02s.02,0,.02,0v.02s.01.05.01.05v.06s0,.06,0,.06v.09s0,.06,0,.06v.1s0,.04,0,.04v.1s-.01.04-.01.04v.03s-.02,0-.02,0v.04s-.03.03-.03.03h0s0,.02,0,.02l-.02.02-.02.02-.03.04-.05.04-.03.02h-.01s-.02.02-.02.02h-.02s-.01.03-.01.03h-.03s-.01,0-.01,0h-.02s-.02.01-.02.01h-.02s-.02,0-.02,0h-.03s-.02,0-.02,0h-.02s-.02,0-.02,0h-.02s-.01,0-.01,0h0s-.01,0-.01,0Z"/>
    <path d="M7.43,2.03h0s0-.02,0-.02h0s0,0,0,0h0s-.01,0-.01,0h0s0-.03,0-.03h0s0-.03,0-.03h0s0-.01,0-.01h0s0,.02,0,.02h0s0,0,0,0v.03s0,.02,0,.02v-.02s-.01-.04-.01-.04v-.03s0-.02,0-.02v-.02s.01,0,.01,0v.02s.02.01.02.01h.02s0,0,0,0h0s-.02,0-.02,0h0s0-.06,0-.06v-.04s0,0,0,0h0s0,.03,0,.03h0s0,.02,0,.02v-.02s.01-.03.01-.03h0s-.01,0-.01,0h0s0,.01,0,.01v-.02s0-.05,0-.05v-.04s0-.04,0-.04v-.09s0-.05,0-.05v-.04s0-.01,0-.01v-.04h0s-.01-.01-.01-.01h0s0,0,0,0v.02s-.01,0-.01,0v-.02s0-.01,0-.01h0s0-.02,0-.02h-.01s-.07,0-.07,0h-.04s-.12,0-.12,0h-.02s-.02,0-.02,0h-.02s-.05,0-.05,0h-.04s0,.04,0,.04v.06s0,.11,0,.11v.05s0,.04,0,.04v.09s-.01.07-.01.07v.03s0,0,0,0h0s0,.03,0,.03h0v.07s-.02.01-.02.01h-.01s0,0,0,0h-.02s0,0,0,0h-.01s-.01,0-.01,0h-.01s0,0,0,0h0s0,0,0,0h-.01s-.02,0-.02,0h-.01s0,0,0,0h0s-.02,0-.02,0h-.02s-.01,0-.01,0h0s-.01,0-.01,0h0s-.01,0-.01,0h-.01s0,0,0,0v-.02s-.01-.02-.01-.02h0s0-.02,0-.02v-.03s0-.02,0-.02h-.01v-.11s0-.02,0-.02v-.04s0-.1,0-.1v-.08s0-.06,0-.06v-.06s0-.1,0-.1v-.05s0-.04,0-.04v-.08s0-.04,0-.04v-.07s0-.04,0-.04v-.03s0-.09,0-.09v-.03s0-.09,0-.09v-.02s0-.03,0-.03v-.05s.02-.06.02-.06v-.03s.04,0,.04,0h.04s.02,0,.02,0h.02s0,0,0,0h.01s.01,0,.01,0h.01s.01,0,.01,0h0s.02,0,.02,0h.02s0,0,0,0h0s.01-.01.01-.01h.05s.02,0,.02,0h.02s0,.03,0,.03v.03s0,.02,0,.02v.03s0,.03,0,.03v.02s0,.04,0,.04v.06s0,.07,0,.07v.04s0,.03,0,.03v.07s0,.05,0,.05h0s0,.01,0,.01h.08s.05,0,.05,0h0s0,0,0,0h-.02s0,0,0,0h0s.05,0,.05,0h.13s.1,0,.1,0h.02s0-.02,0-.02v-.02s0-.03,0-.03v-.02h0s0-.04,0-.04v-.02s0-.03,0-.03v-.05s0-.03,0-.03v-.03s0-.04,0-.04v-.06s0-.03,0-.03v-.05s0-.05,0-.05l.02-.02h.03s.02,0,.02,0h.04s.02,0,.02,0h.02s.01,0,.01,0h0s0,0,0,0h.01s.01,0,.01,0h.02s.02,0,.02,0h.02s.02,0,.02,0h.03s0,.02,0,.02v.02s0,.03,0,.03v.15s0,.05,0,.05v.06s0,.03,0,.03v.02s0,.03,0,.03v.05s0,.05,0,.05v.02s0,.01,0,.01h0s0,.04,0,.04v.03s0,.05,0,.05v.06s0,.02,0,.02v.02s0,.07,0,.07v.04s0,.06,0,.06v.13s0,.1,0,.1v.02s0,.03,0,.03v.04s0,.03,0,.03h0s0,.03,0,.03v.03s0,.03,0,.03v.02s-.01.01-.01.01h-.01s0,.01,0,.01h-.02s0,0,0,0h0s0-.01,0-.01h0s0,.01,0,.01h0s0,0,0,0v-.02s0-.01,0-.01h0v.02s-.02,0-.02,0h-.01s0,0,0,0h0s0,0,0,0h0s0,.03,0,.03h-.01s-.01-.02-.01-.02h0s0,.03,0,.03h0Z"/>
    <path d="M8.17,2.01h-.02s0-.01,0-.01v-.07s0-.02,0-.02v-.02s0-.01,0-.01v-.02s0-.03,0-.03v-.18s0-.05,0-.05v-.13s0-.04,0-.04v-.17s0-.2,0-.2v-.04s0-.06,0-.06v-.05s0-.03,0-.03h-.02s-.1,0-.1,0h-.1s-.06.01-.06.01h-.03s-.02,0-.02,0h0v-.06s0-.01,0-.01h0s.01-.03.01-.03h0s0-.03,0-.03h0s0-.03,0-.03v-.05s0-.02,0-.02v-.02s.01-.05.01-.05h0s.02-.03.02-.03h.04s.04,0,.04,0h.09s.03,0,.03,0h.05s.07,0,.07,0h.04s.06,0,.06,0h.04s.04,0,.04,0h.11s.06-.01.06-.01h.1s.03,0,.03,0h.14s.03,0,.03,0h.03s0,.03,0,.03v.02s0,.02,0,.02v.02s0,.01,0,.01h0s0,.02,0,.02h0s0,.02,0,.02v.02s0,0,0,0h0s-.01.02-.01.02h0s.01.03.01.03v.02s-.02.02-.02.02h0s0,.02,0,.02h-.01s-.01.03-.01.03h-.02s-.03,0-.03,0h-.02s-.02.01-.02.01h-.04s-.16,0-.16,0h-.02s-.03.02-.03.02v.11s0,.07,0,.07v.22s0,.31,0,.31v.05s0,.04,0,.04v.04s0,.04,0,.04v.11s0,.06,0,.06v.03s-.01,0-.01,0h-.03s-.02.02-.02.02h0v-.02s-.02,0-.02,0h0s0,0,0,0h0s0,.02,0,.02h0s0-.01,0-.01h0s-.01.01-.01.01h-.01s0,0,0,0h0s0,0,0,0h-.01s-.01,0-.01,0h-.01s-.01,0-.01,0h0s-.01,0-.01,0h0s-.05,0-.05,0Z"/>
  </g>
  <g>
    <path d="M.84,4.34h-.02s0-.02,0-.02v-.09s0-.03,0-.03v-.03s0-.02,0-.02v-.02s0-.04,0-.04v-.23s0-.07,0-.07v-.17s0-.05,0-.05v-.21s0-.25,0-.25v-.05s0-.08,0-.08v-.06s0-.04,0-.04h-.03s-.13,0-.13,0h-.13s-.07.01-.07.01h-.04s-.02,0-.02,0h0v-.07s0-.01,0-.01v-.02s.01-.02.01-.02v-.02s0-.02,0-.02v-.02s0-.02,0-.02v-.06s0-.02,0-.02v-.02s.01-.06.01-.06v-.02s.03-.02.03-.02h.05s.05,0,.05,0h.12s.04,0,.04,0h.06s.09,0,.09,0h.05s.08,0,.08,0h.06s.05,0,.05,0h.14s.08-.02.08-.02h.12s.03,0,.03,0h.18s.03,0,.03,0h.03s0,.03,0,.03v.03s0,.02,0,.02v.03s0,.02,0,.02h0s0,.03,0,.03h0s0,.02,0,.02v.02s0,.01,0,.01v.02s-.01.01-.01.01h0s.02.04.02.04l-.02.02v.02s0,.02,0,.02h.01s-.02.03-.02.03l-.02.02h-.02s-.03,0-.03,0h-.03s-.03.02-.03.02h-.06s-.2,0-.2,0h-.03s-.03.03-.03.03v.13s0,.09,0,.09v.28s0,.4,0,.4v.06s0,.05,0,.05v.05s0,.05,0,.05v.14s0,.08,0,.08v.04s-.02.01-.02.01h-.03s-.03.03-.03.03h0v-.02s-.02,0-.02,0h0s-.01,0-.01,0v.02s-.01,0-.01,0v-.02h-.02s-.01.01-.01.01h-.02s-.01,0-.01,0h-.01s-.01,0-.01,0h-.01s-.02,0-.02,0h-.02s-.01,0-.01,0h0s-.01,0-.01,0h0s-.06,0-.06,0Z"/>
    <path d="M2.33,4.44l-.07-.02-.06-.02-.06-.03-.07-.05-.05-.03-.05-.05-.04-.04-.03-.05-.04-.05-.03-.06-.02-.04-.03-.07-.02-.05-.03-.11v-.1s-.01-.09-.01-.09v-.09s0-.04,0-.04v-.04s.01-.07.01-.07v-.04s.02-.05.02-.05l.02-.05v-.07s.03-.05.03-.05l.02-.03v-.03s.01-.03.01-.03v-.03s.02-.02.02-.02v-.02s.03-.04.03-.04l.02-.03v-.03s.04-.03.04-.03v-.04s.05-.03.05-.03l.03-.04.05-.06.06-.05.06-.04.04-.03.08-.03.07-.03.07-.02h.06s.05-.02.05-.02h.15s.04,0,.04,0h.06s.06.02.06.02l.05.02.09.05.07.06.06.07.07.09.04.09.03.09.02.07v.05s.02.07.02.07v.05s0,.06,0,.06v.34s-.01.06-.01.06v.04s-.02,0-.02,0v.05s-.03.07-.03.07v.03s-.01.02-.01.02v.02s0,.02,0,.02v.05s-.02.07-.02.07l-.03.08-.02.07v.02s-.02.02-.02.02l-.02.03-.02.03v.03s-.03.01-.03.01l-.05.05-.08.06-.05.02-.06.02h-.06s-.05.02-.05.02h-.05s-.02.02-.02.02h-.13s-.01,0-.01,0h-.01s-.06.02-.06.02h-.1ZM2.56,4.03h.04s.02,0,.02,0h.02s.01-.02.01-.02h.03s.03-.02.03-.02h.01s.02-.03.02-.03l.02-.03.02-.03.02-.05.02-.04v-.03s.01-.02.01-.02v-.06s.02-.02.02-.02v-.03s0-.02,0-.02v-.02s0-.02,0-.02v-.02s.01-.02.01-.02v-.03s.01-.05.01-.05v-.04s0-.03,0-.03v-.06s0-.06,0-.06v-.03s0-.09,0-.09v-.03s0-.01,0-.01v-.02s-.02-.04-.02-.04l-.03-.08-.03-.04-.06-.07-.05-.03-.06-.02h-.1s-.04.03-.04.03h-.04s-.03.02-.03.02l-.03.02-.02.02v.02s-.03.02-.03.02l-.03.05-.02.03v.02s-.02.03-.02.03v.03s-.02.02-.02.02v.05s-.02.04-.02.04v.02s-.02.04-.02.04v.06s-.02.09-.02.09v.08s0,.07,0,.07v.06s.02.07.02.07l.02.05v.03s.03.03.03.03l.04.06.08.07.08.05.04.02h.01s0,.02,0,.02h.01s.05,0,.05,0Z"/>
    <path d="M4.58,4.34h-.02s0-.02,0-.02v-.09s0-.03,0-.03v-.03s0-.02,0-.02v-.02s0-.04,0-.04v-.23s0-.07,0-.07v-.17s0-.05,0-.05v-.21s0-.25,0-.25v-.05s0-.08,0-.08v-.06s0-.04,0-.04h-.03s-.13,0-.13,0h-.13s-.07.01-.07.01h-.04s-.02,0-.02,0h0v-.07s0-.01,0-.01v-.02s.01-.02.01-.02v-.02s0-.02,0-.02v-.02s0-.02,0-.02v-.06s0-.02,0-.02v-.02s.01-.06.01-.06v-.02s.03-.02.03-.02h.05s.05,0,.05,0h.12s.04,0,.04,0h.06s.09,0,.09,0h.05s.08,0,.08,0h.06s.05,0,.05,0h.15s.08-.02.08-.02h.12s.03,0,.03,0h.18s.03,0,.03,0h.03s0,.03,0,.03v.03s0,.02,0,.02v.03s0,.02,0,.02h0s0,.03,0,.03h0s0,.02,0,.02v.02s0,.01,0,.01v.02s-.01.01-.01.01h0s.02.04.02.04l-.02.02v.02s0,.02,0,.02h.01s-.02.03-.02.03l-.02.02h-.02s-.03,0-.03,0h-.03s-.03.02-.03.02h-.06s-.2,0-.2,0h-.03s-.03.03-.03.03v.13s0,.09,0,.09v.28s0,.4,0,.4v.06s0,.05,0,.05v.05s0,.05,0,.05v.14s0,.08,0,.08v.04s-.02.01-.02.01h-.03s-.03.03-.03.03h0v-.02s-.02,0-.02,0h0s-.01,0-.01,0v.02s-.01,0-.01,0v-.02h-.02s-.01.01-.01.01h-.02s-.01,0-.01,0h-.01s-.01,0-.01,0h-.01s-.02,0-.02,0h-.02s-.01,0-.01,0h0s-.01,0-.01,0h0s-.06,0-.06,0Z"/>
    <path d="M6.74,4.36v-.02s0,0,0,0h0s0,.01,0,.01h0s-.02,0-.02,0h0s0-.03,0-.03v-.02s0-.02,0-.02v-.02s-.02,0-.02,0v.02s0,.01,0,.01h0s0,0,0,0v.03s0,.03,0,.03v-.02s-.02-.05-.02-.05v-.04s-.01-.02-.01-.02v-.03s.01,0,.01,0v.03s.02.02.02.02h.02s0,0,0,0h0s-.03-.01-.03-.01v-.02s0-.06,0-.06v-.05s0,0,0,0v.02s.02.02.02.02h0v.02h0s0-.02,0-.02v-.04s0-.01,0-.01h-.02s0,.01,0,.01v-.03s0-.06,0-.06v-.06s0-.05,0-.05v-.11s0-.07,0-.07v-.05s0-.02,0-.02v-.04h0s-.02-.02-.02-.02v-.02s-.02,0-.02,0v.03s-.02,0-.02,0v-.02s0-.02,0-.02v-.02h0s-.01-.02-.01-.02h-.15s-.15,0-.15,0h-.03s-.03,0-.03,0h-.03s-.06,0-.06,0h-.05s0,.05,0,.05v.08s0,.14,0,.14v.06s0,.05,0,.05v.11s-.01.09-.01.09v.04s-.01.01-.01.01h0s0,.03,0,.03v.02s0,.03,0,.03v.04s-.03.01-.03.01h-.02s-.01,0-.01,0h-.03s0,0,0,0h-.02s-.02,0-.02,0h-.02s-.01,0-.01,0h0s0,0,0,0h-.02s-.02,0-.02,0h-.02s0,0,0,0h0s-.02,0-.02,0h-.02s-.02,0-.02,0h-.01s-.01,0-.01,0h0s-.01,0-.01,0h-.02s-.01-.01-.01-.01v-.02s-.01-.02-.01-.02h0s0-.03,0-.03v-.04s0-.02,0-.02h-.01v-.14s0-.03,0-.03v-.05s0-.13,0-.13v-.1s0-.08,0-.08v-.08s0-.13,0-.13v-.06s0-.05,0-.05v-.1s0-.05,0-.05v-.09s0-.06,0-.06v-.03s0-.12,0-.12v-.04s0-.11,0-.11v-.03s0-.03,0-.03v-.07s.02-.08.02-.08v-.04s.05,0,.05,0h.05s.02,0,.02,0h.02s.01,0,.01,0h.01s.02,0,.02,0h.02s.01,0,.01,0h0s.02,0,.02,0h.02s0,0,0,0h.01s.01-.01.01-.01h.07s.03,0,.03,0h.03s0,.03,0,.03v.04s0,.02,0,.02v.03s0,.03,0,.03v.03s0,.05,0,.05v.07s0,.09,0,.09v.05s0,.04,0,.04v.09s0,.06,0,.06h0s.01.02.01.02h.1s.06,0,.06,0h0s0,0,0,0h-.03s-.01,0-.01,0h0s.06,0,.06,0h.16s.12,0,.12,0h.03s0-.02,0-.02v-.03s0-.03,0-.03v-.04s0-.03,0-.03v-.03s0-.03,0-.03v-.06s0-.04,0-.04v-.04s0-.05,0-.05v-.07s0-.04,0-.04v-.06s0-.06,0-.06l.03-.03h.03s.02,0,.02,0h.05s.02,0,.02,0h.03s.01,0,.01,0h0s.01,0,.01,0h.01s.02,0,.02,0h.03s.03,0,.03,0h.03s.03,0,.03,0h.04s0,.03,0,.03v.03s0,.04,0,.04v.19s0,.06,0,.06v.08s0,.03,0,.03v.03s0,.04,0,.04v.07s0,.06,0,.06v.02s0,.01,0,.01v.02s0,.03,0,.03v.04s0,.07,0,.07v.08s0,.03,0,.03v.02s0,.09,0,.09v.06s0,.08,0,.08v.16s0,.13,0,.13v.02s0,.04,0,.04v.05s0,.04,0,.04v.02s0,.02,0,.02v.04s0,.04,0,.04v.02s-.02.02-.02.02h-.02s0,.01,0,.01h-.03s-.01.01-.01.01h0s0-.02,0-.02h-.01s0,.01,0,.01h0s-.01.01-.01.01v-.02s0-.01,0-.01h0v.03s-.02,0-.02,0h-.01s0,0,0,0h0s0,0,0,0v.02s0,.02,0,.02h-.02s-.01-.02-.01-.02v.02s-.01.02-.01.02h0Z"/>
    <path d="M7.55,4.37h-.02s-.03,0-.03,0h-.04s-.03,0-.03,0h-.02s-.03,0-.03,0h-.04s-.02,0-.02,0h-.02s-.01-.01-.01-.01h-.01s0-.02,0-.02v-.03s.01-.04.01-.04v-.05s0-.07,0-.07v-.12s0-.03,0-.03h0v-.12s0-.08,0-.08v-.09s0-.16,0-.16v-.07s0-.09,0-.09v-.05s0-.08,0-.08v-.09s0-.1,0-.1v-.09s0-.05,0-.05v-.1s.01-.05.01-.05v-.04s0-.09,0-.09v-.04s0-.07,0-.07h.02s.01-.02.01-.02h.01s.02,0,.02,0h.04s.03,0,.03,0h.01s.05,0,.05,0h.01s.01,0,.01,0h.03s.03,0,.03,0h.02s.03,0,.03,0h.05s.05,0,.05,0h.02s.03,0,.03,0h.2s.04.01.04.01h.03s.04.01.04.01h.05s.13,0,.13,0h.01s.02,0,.02,0h.09s.03,0,.03,0h.02s.01.01.01.01v.02s.02.03.02.03l.02.02.02.07v.03s-.01.02-.01.02h0s.02.07.02.07h0s-.02.02-.02.02h-.02s-.02.05-.02.05l-.03.03-.03.02h-.02s-.02-.01-.02-.01h-.01s-.02,0-.02,0h-.04s-.04,0-.04,0h-.01s-.08,0-.08,0h-.31s-.1,0-.1,0v.02s0,.17,0,.17v.07s0,.03,0,.03h.01s.09,0,.09,0h.24s.03,0,.03,0h.02s.02,0,.02,0h.05s.02,0,.02,0h.02s.01,0,.01,0h.02l.03.03v.02s0,.03,0,.03l.02.02v.02s0,.02,0,.02v.02s0,.03,0,.03v.02s0,.02,0,.02v.02s0,.02,0,.02v.02s0,0,0,0h0s0,.02,0,.02h-.01s-.02.02-.02.02l-.02.03v.02s0,0,0,0h-.03s-.02.03-.02.03h-.16s-.09,0-.09,0h-.09s-.12,0-.12,0h-.07s-.02.02-.02.02v.02s0,.06,0,.06v.1s0,.07,0,.07v.05s0,.04,0,.04h.05s.06,0,.06,0h.03s.08,0,.08,0h.03s.07.01.07.01h.06s.18,0,.18,0h.03s.04,0,.04,0h.04s.03,0,.03,0v.02s.02.02.02.02v.02s.02.01.02.01h0s-.01.03-.01.03h.01s0,.03,0,.03h-.01s0,0,0,0h0s.01.02.01.02v.02s0,.03,0,.03v.03s-.02.02-.02.02h.02s.01.02.01.02h0s-.02.02-.02.02l-.02.02v.02s0,.02,0,.02h0s-.02.02-.02.02h-.02s-.02.02-.02.02h-.05s-.06,0-.06,0h-.2s-.02.01-.02.01h-.03s-.14,0-.14,0h-.09s-.11,0-.11,0h-.05s-.01.01-.01.01h0Z"/>
  </g>
  <g>
    <path d="M10.01,4.52l-.09-.02-.08-.04h-.07s-.07-.04-.07-.04l-.12-.06-.07-.04-.04-.03-.07-.04-.05-.04-.05-.03-.04-.04-.06-.04-.04-.05v-.02s0-.03,0-.03v-.03l.02-.02.03-.03.02-.03v-.04s.05-.04.05-.04h.02s0-.04,0-.04l.02-.02v-.02s.02-.02.02-.02l.04-.04.02-.06h.03s.02-.06.02-.06l.02-.04.03-.02v-.03s.02-.01.02-.01l.02-.03h.04s.03.02.03.02h.01v-.02s.03-.02.03-.02l.11.07.14.09.11.06.1.02h.12s.15-.05.15-.05l.09-.06.08-.13.06-.18v-.11s-.03-.04-.03-.04l-.03-.06-.02-.07-.02-.03-.03-.03-.04-.02-.03-.03-.04-.05-.04-.04-.04-.04-.03-.03-.04-.03-.17-.15-.11-.12-.08-.09-.16-.18-.11-.2-.03-.09-.03-.13v-.16s0-.21,0-.21l.02-.09.07-.14.04-.07.04-.06.03-.04.08-.08.07-.07.07-.06.09-.07.11-.07.15-.05.08-.03.12-.04.23-.03h.26s.16.03.16.03h.06s.03.03.03.03v.02s-.01,0-.01,0h-.01s.02.03.02.03h.03s0,.06,0,.06l-.02.03.02.08h-.02v.02s.02.03.02.03v.04l.02.03v.02h-.02s0,.03,0,.03l.03.03-.02.02.02.02v.03s0,.03,0,.03h-.03v.02l.02.02.03.02.02.02h0s-.02.02-.02.02h-.03s0,.06,0,.06v.04l-.02.02v.06l-.02.07-.02.02-.04-.03-.13-.04-.1-.02h-.22l-.13.04-.04.03-.04.03-.05.06-.02.12.07.11.12.11.15.15.09.08.09.09.16.16.16.19.14.19.04.09.07.21.04.2v.13s0,.14,0,.14l-.07.21-.06.12-.12.2-.1.11-.06.05-.04.05-.16.13-.11.07-.12.06-.14.05-.11.03-.09.02-.2.02h-.16Z"/>
    <path d="M14.28,4.46v-.03s-.02-.02-.02-.02h-.01s0,.02,0,.02v.03s-.04-.02-.04-.02l-.02-.03v-.04s-.01-.04-.01-.04v-.04s0-.03,0-.03h-.02s0,.04,0,.04l-.02.02h-.01s-.02,0-.02,0v.07s0,.07,0,.07l-.03-.05v-.11s-.01-.08-.01-.08l-.02-.05.02-.06h.01s0,.07,0,.07l.04.04h.04s.01-.02.01-.02v-.03s-.06,0-.06,0v-.04s-.01-.12-.01-.12v-.1s.02-.01.02-.01l.02.03.02.05-.02.02v.02h.02s.02-.05.02-.05l.02-.09-.02-.02h-.03l-.02.03h-.01v-.07s0-.13,0-.13v-.12s-.01-.09-.01-.09v-.24s-.01-.14-.01-.14v-.11s-.01-.04-.01-.04v-.11s-.04-.02-.04-.02l-.02-.03v.02s-.03.06-.03.06h-.02s0-.03,0-.03v-.04s-.01-.04-.01-.04v-.03s-.03,0-.03,0h-.32s-.32.02-.32.02h-.06s-.06,0-.06,0l-.06.02h-.23s0,.1,0,.1v.16s0,.3,0,.3v.13s0,.11,0,.11v.24s-.03.2-.03.2v.09s-.02.02-.02.02l-.02.02v.04s-.03.04-.03.04v.06l-.02.08-.04.03h-.03s-.02.02-.02.02h-.06s-.02,0-.02,0h-.03s-.03,0-.03,0l-.03.02-.02-.02h0s-.01.01-.01.01l-.04-.02h-.04s-.03.03-.03.03l-.02-.03h-.02s-.04.01-.04.01l-.05-.02h-.04s-.02.04-.02.04h-.03s-.01-.03-.01-.03l-.03.02h-.03s-.02-.02-.02-.02l-.02-.04v-.04s-.01-.03-.01-.03v-.03s.01-.08.01-.08v-.04h-.02v-.02s-.01-.22-.01-.22v-.06s0-.06,0-.06v-.11s0-.27,0-.27v-.21s0-.17,0-.17v-.17s0-.27,0-.27v-.13s-.01-.1-.01-.1v-.21s.01-.11.01-.11v-.18s0-.12,0-.12v-.07s0-.25,0-.25v-.08s0-.23,0-.23v-.06s0-.07,0-.07l.02-.15.03-.17.02-.08h.08s.08-.01.08-.01h.02s.04,0,.04,0h.05s.02,0,.02,0l.03.02.03-.02h.04s.03,0,.03,0h.02s.04,0,.04,0h.04s0,.01,0,.01l.02-.02h.03s.11-.01.11-.01h.04s.06,0,.06,0h.06s0,.07,0,.07v.08s0,.05,0,.05v.07s0,.07,0,.07v.06s-.01.1-.01.1v.16s0,.19,0,.19v.09s0,.08,0,.08v.19s0,.13,0,.13v.03s.03.01.03.01h.21s.12,0,.12,0h0s-.01.02-.01.02h-.06s-.02,0-.02,0h0s.12,0,.12,0h.33s.26.01.26.01h.07s.01-.04.01-.04v-.06s0-.07,0-.07v-.09s0-.06,0-.06v-.07s0-.07,0-.07v-.13s0-.08,0-.08v-.08s.01-.09.01-.09v-.16s0-.08,0-.08v-.13s.02-.13.02-.13l.06-.06h.07s.05,0,.05,0h.1s.05,0,.05,0h.06s.03,0,.03,0h.02s.02.01.02.01l.03-.02h.04s.06,0,.06,0h.12s.06,0,.06,0h.08s.01.06.01.06v.07s.01.08.01.08v.4s-.01.13-.01.13v.16s0,.07,0,.07v.06s0,.08,0,.08v.14s0,.13,0,.13v.05s0,.03,0,.03v.04s0,.06,0,.06v.09s0,.15,0,.15v.16s.01.07.01.07v.04s0,.2,0,.2v.12s.02.17.02.17v.33s0,.27,0,.27v.04s0,.08,0,.08v.09s-.01.08-.01.08v.03s0,.04,0,.04v.08s-.02.08-.02.08l-.03.05v.03h-.04v.02h-.01s-.06.02-.06.02l-.02.02-.02-.02-.02-.02h-.02s-.01.03-.01.03v.03s-.03,0-.03,0v-.04s-.02-.03-.02-.03h0v.06s-.05.01-.05.01h-.03s-.01.02-.01.02h-.02s-.01-.02-.01-.02v.04s-.02.05-.02.05h-.02l-.02-.03-.03-.02-.02.03v.04h-.02v-.02Z"/>
    <path d="M16.61,4.63l-.15-.04-.12-.05-.12-.07-.15-.1-.09-.07-.11-.1-.09-.09-.07-.1-.08-.11-.06-.12-.03-.08-.07-.15-.04-.11-.06-.23-.03-.21v-.38s.02-.09.02-.09v-.08s.02-.16.02-.16l.02-.09.02-.11.03-.09.03-.14.03-.09.03-.06v-.06s.03-.06.03-.06l.02-.06v-.04s.04-.04.04-.04l.03-.08.03-.07.02-.06.06-.07.03-.09.07-.07.06-.09.1-.12.12-.11.12-.09.09-.06.17-.07.14-.06.15-.04.12-.02.1-.02h.09l.23-.02h.08s.12.02.12.02l.12.03.11.04.2.11.16.13.13.15.14.2.08.18.07.18.03.15.02.11.02.15v.1s.02.12.02.12v.73s-.03.12-.03.12l-.02.09-.02.02-.03.11-.03.14v.06s-.02.04-.02.04v.05s0,.04,0,.04l-.02.09-.03.15-.06.18-.05.15v.05s-.04.03-.04.03l-.04.07-.05.06-.03.06-.05.02-.11.11-.17.12-.1.04-.12.04-.12.03-.1.02-.09.02h-.04s-.26.01-.26.01h-.02s-.02,0-.02,0h-.03s-.13.03-.13.03h-.22ZM17.11,3.76l.08-.02h.07s.02-.03.02-.03l.06-.02.07-.03.02-.02.04-.04.04-.06.05-.07.03-.11.03-.09v-.06s.03-.04.03-.04v-.06l.02-.06.02-.03v-.07s0-.04,0-.04l.03-.04-.02-.04.03-.05v-.04s0-.07,0-.07v-.1s.02-.08.02-.08v-.06s0-.13,0-.13v-.19s0-.2,0-.2v-.06s-.01-.03-.01-.03v-.04s-.03-.09-.03-.09l-.06-.17-.06-.09-.13-.14-.11-.06-.13-.03-.21.03-.09.03h-.09s-.06.04-.06.04l-.07.05-.04.04v.03s-.06.04-.06.04l-.07.11-.04.07-.02.04-.03.07v.06s-.03.05-.03.05l-.02.09-.02.08v.05s-.03.08-.03.08l-.02.13-.02.2v.17s0,.14,0,.14v.13s.03.15.03.15l.03.11.02.06.04.07.08.13.18.16.18.11.09.04h.02s-.01.03-.01.03h.02s.11,0,.11,0Z"/>
    <path d="M19.35,4.52l-.02-.02-.02.03-.02.02h0v-.02s-.04-.03-.04-.03l-.02-.03v-.04s-.02-.06-.02-.06v-.09s0-.04,0-.04v-.04s0-.13,0-.13v-.15s-.03-.06-.03-.06v-.03s.02-.04.02-.04v-.1s0-.08,0-.08v-.02h-.02s0,.02,0,.02h-.01v-.02s0-.08,0-.08v-.17s0-.11,0-.11v-.06s0-.05,0-.05v-.04s0-.07,0-.07v-.04s0-.06,0-.06v-.13s0-.04,0-.04v-.04s0-.06,0-.06v-.05s0-.04,0-.04v-.04s0-.04,0-.04v-.09s.01-.08.01-.08v-.04s.01-.06.01-.06v-.06s.02-.05.02-.05v-.03s0-.03,0-.03l.02-.03v-.14s0-.09,0-.09v-.12s0-.02,0-.02v-.2s.01-.18.01-.18v-.27s.02-.25.02-.25v-.12s0-.04,0-.04l.03-.02h.02s.05-.01.05-.01h.05s.02.01.02.01l.02-.03h.03s.02.01.02.01l.02.02h.02s.02-.03.02-.03h.03s.03.01.03.01h.03s.06,0,.06,0l.03-.02h.06s.06-.01.06-.01h.06s.04,0,.04,0l.03.02h.03s.02,0,.02,0h.47s.23.02.23.02l.09.02.17.06.11.06.18.15.15.17.07.11.09.24.05.26.02.24v.11s-.02.15-.02.15l-.04.13-.04.08-.08.15-.09.15-.1.12-.13.12-.21.14-.17.06-.16.04-.26.03h-.2s-.06,0-.06,0h-.02s-.01.06-.01.06v.06l-.02.03.02.04v.06l-.02.06v.04s.02.03.02.03l-.02.04v.07s0,.11,0,.11v.06s0,.13,0,.13v.12s-.02.14-.02.14l-.02.15-.04.04-.02.02v-.02s-.04.01-.04.01l-.03.03-.03.04-.03.04h-.03s-.02.01-.02.01h-.01s-.01,0-.01,0v-.04s0,0,0,0h-.01s-.03.02-.03.02v.03s-.02.02-.02.02h-.02s-.02-.02-.02-.02v-.03s-.02,0-.02,0v.02s-.03.02-.03.02h-.03s-.02.05-.02.05l-.02.03h-.01v-.04h-.02l-.03.04h-.05s-.06-.03-.06-.03ZM20.17,2.26l.21-.04.08-.02.11-.04.09-.06.04-.02.06-.07.06-.14v-.17l-.08-.2-.13-.08-.07-.02h-.05s-.05,0-.05,0h-.16l-.14.02v.09s-.02.12-.02.12v.04s0,.07,0,.07v.16s-.02.15-.02.15v.08l-.02.08v.07s.03,0,.03,0h.07Z"/>
  </g>
  <path d="M24.43,2.43c-.18-.19-.19-.21-.38-.4-.19-.2-.19-.2-.38-.39-.2-.19-.2-.19-.4-.38-.19-.19-.22-.17-.42-.36-.07-.07-.16-.14-.24-.21-.04-.04-.08-.07-.12-.11-.01-.01-.02-.06-.05-.06,0,0,0,0-.01,0,0,0,0,0,0,0,0,0,0,0,0,0h0s0,0,0,0c0,0,0,0-.01,0-.01,0-.02,0-.03.01-.04.04.02.12.02.15,0,.06-.02.13-.02.19,0,0,0,.02,0,.03,0,.05.01.1.01.17,0,.27-.03.27-.03.55,0,.27,0,.28,0,.55,0,.27,0,.28,0,.55,0,.27,0,.28-.01.55,0,.27,0,.28,0,.55,0,.27,0,.28,0,.55,0,.21,0,.33.01.41.1-.1.2-.22.32-.34.19-.19.23-.16.42-.35s.18-.21.37-.41c.19-.2.19-.2.38-.39.19-.2.19-.2.38-.4.17-.16.22-.21.34-.33-.02-.02-.07-.08-.15-.15Z"/>
</svg>