<?xml version="1.0" encoding="UTF-8"?>
<svg id="Layer_2" data-name="Layer 2" xmlns="http://www.w3.org/2000/svg" viewBox="0 0 216.25 47.18">
  <defs>
    <style>
      .cls-1 {
        fill: #070707;
      }
    </style>
  </defs>
  <path class="cls-1" d="M75.07,14.26c-.23-.1-.48-.19-.74-.26-.52-.14-1.09-.22-1.7-.24-1.21-.04-2.56.16-3.88.58-.33.11-.66.23-.98.36-2.04.85-3.51,2.09-4.02,3.41-1.17,3.01-.85,6.37.56,8.88.42.75.95,1.43,1.56,2,.2.19.42.37.64.53.44.33.92.6,1.44.81.43.18.9.31,1.38.4.24.04.49.08.74.1.25.02.51.03.77.03h0c.35,0,.71-.02,1.07-.06,1.09-.12,2.2-.42,3.28-.9,1.09-.48,2.03-1.11,2.78-1.82.37-.36.7-.73.97-1.13.27-.39.48-.81.63-1.23,1.22-3.4.39-7.14-1.84-9.56-.74-.81-1.64-1.46-2.67-1.91ZM67.2,20.66c.18-.41.43-.78.73-1.11.46-.49,1.03-.88,1.68-1.14.65-.27,1.36-.41,2.1-.41.27,0,.55.02.83.06.28.04.55.1.82.19.69.22,1.36.75,1.87,1.49.17.25.33.51.46.8.29.61.46,1.24.5,1.85.05.61-.03,1.18-.23,1.68-.11.26-.25.51-.42.74-1.2,1.59-3.85,2.3-6.16,1.51-.18-.06-.36-.16-.53-.28-.52-.37-1.01-1.02-1.37-1.83-.14-.32-.25-.64-.34-.96-.17-.65-.22-1.28-.15-1.83.04-.27.1-.53.2-.75Z"/>
  <path class="cls-1" d="M40.15,15.93l-.07-.1s-.06-.07-.1-.09l-.17-.08s-.04-.02-.05-.02l-.09-.02h0s-.05-.08-.08-.1l-1.45-.81-.06-.06s-.1-.07-.16-.07l-.15-.16s-.08-.07-.13-.08l-.11-.03-.39-.29c-.06-.04-.13-.06-.19-.04l-.11.03-.06-.02c-.06-.02-.12-.02-.17,0l-.38.2s-.04.03-.05.04l-1.61,1.64-2.47,2.8-1.37-1.48-1.29-1.28-1.42-1.5-.17-.21s-.08-.07-.12-.08l-.25-.06s-.08,0-.12,0l-.31.1-.18.08h-.03s-.07,0-.1.02l-.19.09-.28.08s-.05.02-.07.04l-.17.13-.25.09s-.05.03-.07.05l-.07.07h-.05s-.07,0-.1.02l-1.45.66-.26.18s-.07.08-.08.13l-.05.08s-.07.1-.07.17.03.12.07.17l.27.26.59.68.52.5,2.64,2.76,1.32,1.57-.93,1.03-.08.15-1.09,1.28-.56.73-.24.38-.81,1-1.38,1.6-.06.1c-.03.06-.04.13-.01.19l.07.17.03.12c0,.06.02.11.06.16l.11.13s.05.04.08.06l.21.12v.03s-.02.04-.02.04c-.02.02-.03.04-.04.07l-.03.08s-.01.09-.01.11c0,.09.05.16.12.21.07.04.16.04.23,0l.15-.1.13-.05.17.14s.09.05.14.05h.14l.05.02v.04c0,.07.03.13.08.18.05.05.12.06.19.05h.08s.08.06.13.08c.02.02.03.05.06.06l.05.04c.05.04.11.05.17.04h.07s.17.08.17.08c.02.01.04.02.07.03l.22.1.25.08s.03,0,.05.01l.36.04s.02,0,.03,0c.07,0,.13-.03.17-.08l.37-.36.28-.35.26-.24.46-.56.2-.2.12-.19.98-1.14.18-.29.24-.22,1.23-1.43.05-.04.95,1.1.95,1.21,1.28,1.54.66.91s.03.04.05.05l.33.23s.1.05.15.04l.43-.04.18.05s.06.01.08,0l.22-.02c.1,0,.17-.08.2-.17h.02s.03.03.05.03l.14.04c.1.03.23-.05.28-.13.03-.04.04-.08.04-.13v-.07l.04-.06.16-.04.17.07c.06.02.13.02.19-.02l.27-.18.1-.03s.07-.03.1-.06l.08-.08s.06-.09.07-.15l.3-.08c.07-.02.13-.08.16-.15l.03-.08.52-.32c.05-.04.09-.09.1-.16,0-.06,0-.13-.04-.18l-2.76-3.66-1.21-1.45-.36-.47-.87-1.01.37-.39.54-.48.23-.27.24-.32,1.06-1.22.25-.25.14-.22.26-.3.26-.18.78-.85.29-.34.35-.33.44-.53s.03-.04.04-.06l.03-.06s.02-.1.02-.13c0-.09-.05-.17-.13-.21Z"/>
  <path class="cls-1" d="M153.52,14.26c-.23-.1-.48-.19-.74-.26-.52-.14-1.09-.22-1.7-.24-1.21-.04-2.56.16-3.88.58-.33.11-.66.23-.98.36-2.04.85-3.51,2.09-4.02,3.41-1.17,3.01-.85,6.37.56,8.88.42.75.95,1.43,1.56,2,.2.19.42.37.64.53.44.33.92.6,1.44.81.43.18.9.31,1.38.4.24.04.49.08.74.1.25.02.51.03.77.03h0c.35,0,.71-.02,1.07-.06,1.09-.12,2.2-.42,3.28-.9,1.09-.48,2.03-1.11,2.78-1.82.37-.36.7-.73.97-1.13.27-.39.48-.81.63-1.23,1.22-3.4.39-7.14-1.84-9.56-.74-.81-1.64-1.46-2.67-1.91ZM145.65,20.66c.18-.41.43-.78.73-1.11.46-.49,1.03-.88,1.68-1.14.65-.27,1.36-.41,2.1-.41.27,0,.55.02.83.06.28.04.55.1.82.19.69.22,1.36.75,1.87,1.49.17.25.33.51.46.8.29.61.46,1.24.5,1.85.05.61-.03,1.18-.23,1.68-.11.26-.25.51-.42.74-1.2,1.59-3.85,2.3-6.16,1.51-.18-.06-.36-.16-.53-.28-.52-.37-1.01-1.02-1.37-1.83-.14-.32-.25-.64-.34-.96-.17-.65-.22-1.28-.15-1.83.04-.27.1-.53.2-.75Z"/>
  <path class="cls-1" d="M118.59,15.93l-.07-.1s-.06-.07-.1-.09l-.17-.08s-.04-.02-.05-.02l-.09-.02h0s-.05-.08-.08-.1l-1.45-.81-.06-.06s-.1-.07-.16-.07l-.15-.16s-.08-.07-.13-.08l-.11-.03-.39-.29c-.06-.04-.13-.06-.19-.04l-.11.03-.06-.02c-.06-.02-.12-.02-.17,0l-.38.2s-.04.03-.05.04l-1.61,1.64-2.47,2.8-1.37-1.48-1.29-1.28-1.42-1.5-.17-.21s-.08-.07-.12-.08l-.25-.06s-.08,0-.12,0l-.31.1-.18.08h-.03s-.07,0-.1.02l-.19.09-.28.08s-.05.02-.07.04l-.17.13-.25.09s-.05.03-.07.05l-.07.07h-.05s-.07,0-.1.02l-1.45.66-.26.18s-.07.08-.08.13l-.05.08s-.07.1-.07.17.03.12.07.17l.27.26.59.68.52.5,2.64,2.76,1.32,1.57-.93,1.03-.08.15-1.09,1.28-.56.73-.24.38-.81,1-1.38,1.6-.06.1c-.03.06-.04.13-.01.19l.07.17.03.12c0,.06.02.11.06.16l.11.13s.05.04.08.06l.21.12v.03s-.02.04-.02.04c-.02.02-.03.04-.04.07l-.03.08s-.01.09-.01.11c0,.09.05.16.12.21.07.04.16.04.23,0l.15-.1.13-.05.17.14s.09.05.14.05h.14l.05.02v.04c0,.07.03.13.08.18.05.05.12.06.19.05h.08s.08.06.13.08c.02.02.03.05.06.06l.05.04c.05.04.11.05.17.04h.07s.17.08.17.08c.02.01.04.02.07.03l.22.1.25.08s.03,0,.05.01l.36.04s.02,0,.03,0c.07,0,.13-.03.17-.08l.37-.36.28-.35.26-.24.46-.56.2-.2.12-.19.98-1.14.18-.29.24-.22,1.23-1.43.05-.04.95,1.1.95,1.21,1.28,1.54.66.91s.03.04.05.05l.33.23s.1.05.15.04l.43-.04.18.05s.06.01.08,0l.22-.02c.1,0,.17-.08.2-.17h.02s.03.03.05.03l.14.04c.1.03.23-.05.28-.13.03-.04.04-.08.04-.13v-.07l.04-.06.16-.04.17.07c.06.02.13.02.19-.02l.27-.18.1-.03s.07-.03.1-.06l.08-.08s.06-.09.07-.15l.3-.08c.07-.02.13-.08.16-.15l.03-.08.52-.32c.05-.04.09-.09.1-.16,0-.06,0-.13-.04-.18l-2.76-3.66-1.21-1.45-.36-.47-.87-1.01.37-.39.54-.48.23-.27.24-.32,1.06-1.22.25-.25.14-.22.26-.3.26-.18.78-.85.29-.34.35-.33.44-.53s.03-.04.04-.06l.03-.06s.02-.1.02-.13c0-.09-.05-.17-.13-.21Z"/>
  <path class="cls-1" d="M192.54,15.93l-.07-.1s-.06-.07-.1-.09l-.17-.08s-.04-.02-.05-.02l-.09-.02h0s-.05-.08-.08-.1l-1.45-.81-.06-.06s-.1-.07-.16-.07l-.15-.16s-.08-.07-.13-.08l-.11-.03-.39-.29c-.06-.04-.13-.06-.19-.04l-.11.03-.06-.02c-.06-.02-.12-.02-.17,0l-.38.2s-.04.03-.05.04l-1.61,1.64-2.47,2.8-1.37-1.48-1.29-1.28-1.42-1.5-.17-.21s-.08-.07-.12-.08l-.25-.06s-.08,0-.12,0l-.31.1-.18.08h-.03s-.07,0-.1.02l-.19.09-.28.08s-.05.02-.07.04l-.17.13-.25.09s-.05.03-.07.05l-.07.07h-.05s-.07,0-.1.02l-1.45.66-.26.18s-.07.08-.08.13l-.05.08s-.07.1-.07.17.03.12.07.17l.27.26.59.68.52.5,2.64,2.76,1.32,1.57-.93,1.03-.08.15-1.09,1.28-.56.73-.24.38-.81,1-1.38,1.6-.06.1c-.03.06-.04.13-.01.19l.07.17.03.12c0,.06.02.11.06.16l.11.13s.05.04.08.06l.21.12v.03s-.02.04-.02.04c-.02.02-.03.04-.04.07l-.03.08s-.01.09-.01.11c0,.09.05.16.12.21.07.04.16.04.23,0l.15-.1.13-.05.17.14s.09.05.14.05h.14l.05.02v.04c0,.07.03.13.08.18.05.05.12.06.19.05h.08s.08.06.13.08c.02.02.03.05.06.06l.05.04c.05.04.11.05.17.04h.07s.17.08.17.08c.02.01.04.02.07.03l.22.1.25.08s.03,0,.05.01l.36.04s.02,0,.03,0c.07,0,.13-.03.17-.08l.37-.36.28-.35.26-.24.46-.56.2-.2.12-.19.98-1.14.18-.29.24-.22,1.23-1.43.05-.04.95,1.1.95,1.21,1.28,1.54.66.91s.03.04.05.05l.33.23s.1.05.15.04l.43-.04.18.05s.06.01.08,0l.22-.02c.1,0,.17-.08.2-.17h.02s.03.03.05.03l.14.04c.1.03.23-.05.28-.13.03-.04.04-.08.04-.13v-.07l.04-.06.16-.04.17.07c.06.02.13.02.19-.02l.27-.18.1-.03s.07-.03.1-.06l.08-.08s.06-.09.07-.15l.3-.08c.07-.02.13-.08.16-.15l.03-.08.52-.32c.05-.04.09-.09.1-.16,0-.06,0-.13-.04-.18l-2.76-3.66-1.21-1.45-.36-.47-.87-1.01.37-.39.54-.48.23-.27.24-.32,1.06-1.22.25-.25.14-.22.26-.3.26-.18.78-.85.29-.34.35-.33.44-.53s.03-.04.04-.06l.03-.06s.02-.1.02-.13c0-.09-.05-.17-.13-.21Z"/>
</svg>